<?xml version="1.0" encoding="utf-8"?>
<!-- Generator: Adobe Illustrator 25.0.0, SVG Export Plug-In . SVG Version: 6.00 Build 0)  -->
<svg version="1.1" id="Camada_1" xmlns="http://www.w3.org/2000/svg" xmlns:xlink="http://www.w3.org/1999/xlink" x="0px" y="0px"
	 viewBox="0 0 82 30" style="enable-background:new 0 0 82 30;" xml:space="preserve">
<g>
	<g>
		<g id="XMLID_11_">
			<path id="XMLID_10_" fill="#4285F4" d="M36.89,8.03v1.7h4.05c-0.12,0.95-0.44,1.65-0.92,2.14c-0.59,0.59-1.52,1.24-3.13,1.24
				c-2.49,0-4.44-2.01-4.44-4.51s1.95-4.51,4.44-4.51c1.34,0,2.33,0.53,3.05,1.21l1.19-1.19c-1.01-0.98-2.36-1.72-4.24-1.72
				c-3.42,0-6.29,2.78-6.29,6.2s2.87,6.2,6.29,6.2c1.85,0,3.24-0.61,4.33-1.74c1.12-1.12,1.47-2.69,1.47-3.96
				c0-0.39-0.03-0.76-0.09-1.06H36.89z"/>
			<path id="XMLID_24_" fill="#EA4335" d="M47.75,6.66c-2.21,0-4.02,1.68-4.02,4c0,2.3,1.81,4,4.02,4c2.21,0,4.02-1.7,4.02-4
				C51.77,8.34,49.97,6.66,47.75,6.66z M47.75,13.09c-1.21,0-2.26-1-2.26-2.43c0-1.44,1.05-2.43,2.26-2.43s2.26,0.99,2.26,2.43
				C50.01,12.09,48.97,13.09,47.75,13.09z"/>
			<path id="XMLID_21_" fill="#4285F4" d="M67.45,7.55h-0.06c-0.39-0.47-1.15-0.9-2.11-0.9c-2,0-3.74,1.74-3.74,4c0,2.25,1.74,4,3.74,4
				c0.96,0,1.72-0.43,2.11-0.91h0.06v0.56c0,1.53-0.82,2.35-2.14,2.35c-1.08,0-1.74-0.77-2.02-1.43l-1.53,0.63
				c0.44,1.06,1.61,2.36,3.55,2.36c2.06,0,3.8-1.21,3.8-4.17v-7.2h-1.67V7.55z M65.43,13.09c-1.21,0-2.14-1.03-2.14-2.43
				c0-1.41,0.92-2.43,2.14-2.43c1.2,0,2.14,1.03,2.14,2.44C67.57,12.07,66.63,13.09,65.43,13.09z"/>
			<path id="XMLID_18_" fill="#FBBC05" d="M56.71,6.66c-2.21,0-4.02,1.68-4.02,4c0,2.3,1.81,4,4.02,4s4.02-1.7,4.02-4
				C60.73,8.34,58.92,6.66,56.71,6.66z M56.71,13.09c-1.21,0-2.26-1-2.26-2.43c0-1.44,1.05-2.43,2.26-2.43s2.26,0.99,2.26,2.43
				C58.97,12.09,57.92,13.09,56.71,13.09z"/>
			<path id="XMLID_3_" fill="#34A853" d="M70.49,2.56h1.73v12.11h-1.73V2.56z"/>
			<path id="XMLID_14_" fill="#EA4335" d="M77.56,13.09c-0.9,0-1.53-0.41-1.94-1.21l5.35-2.21L80.8,9.21c-0.33-0.9-1.35-2.55-3.42-2.55
				c-2.06,0-3.78,1.62-3.78,4c0,2.25,1.7,4,3.97,4c1.83,0,2.89-1.12,3.34-1.77l-1.36-0.91C79.08,12.64,78.46,13.09,77.56,13.09
				L77.56,13.09z M77.44,8.16c0.71,0,1.32,0.37,1.52,0.88l-3.62,1.5C75.34,8.85,76.53,8.16,77.44,8.16z"/>
		</g>
		<g>
			<path fill="#6D6E6E" d="M30.92,24.23c0.37,0.23,0.91,0.42,1.47,0.42c0.84,0,1.33-0.44,1.33-1.09c0-0.6-0.34-0.94-1.2-1.27
				c-1.04-0.37-1.68-0.91-1.68-1.8c0-0.99,0.82-1.73,2.06-1.73c0.65,0,1.12,0.15,1.41,0.31l-0.23,0.67c-0.21-0.11-0.63-0.3-1.21-0.3
				c-0.87,0-1.2,0.52-1.2,0.95c0,0.6,0.39,0.89,1.27,1.23c1.08,0.42,1.63,0.94,1.63,1.87c0,0.98-0.73,1.83-2.23,1.83
				c-0.61,0-1.29-0.18-1.63-0.41L30.92,24.23z"/>
			<path fill="#6D6E6E" d="M36.58,19.37c0.01,0.28-0.2,0.51-0.53,0.51c-0.29,0-0.5-0.23-0.5-0.51c0-0.29,0.22-0.52,0.52-0.52
				C36.39,18.85,36.58,19.08,36.58,19.37z M35.66,25.23v-4.57h0.83v4.57H35.66z"/>
			<path fill="#6D6E6E" d="M38.87,19.34v1.31h1.19v0.63h-1.19v2.47c0,0.57,0.16,0.89,0.62,0.89c0.22,0,0.38-0.03,0.48-0.06l0.04,0.62
				c-0.16,0.07-0.42,0.11-0.74,0.11c-0.39,0-0.7-0.12-0.9-0.35c-0.24-0.25-0.32-0.65-0.32-1.19v-2.49h-0.71v-0.63h0.71v-1.1
				L38.87,19.34z"/>
			<path fill="#6D6E6E" d="M41.4,23.09c0.02,1.12,0.74,1.59,1.57,1.59c0.6,0,0.95-0.1,1.27-0.24l0.14,0.6
				c-0.29,0.13-0.79,0.28-1.52,0.28c-1.41,0-2.25-0.93-2.25-2.31s0.81-2.47,2.14-2.47c1.49,0,1.89,1.31,1.89,2.15
				c0,0.17-0.02,0.3-0.03,0.39H41.4z M43.84,22.5c0.01-0.53-0.22-1.35-1.15-1.35c-0.84,0-1.21,0.77-1.28,1.35H43.84z"/>
			<path fill="#6D6E6E" d="M47.59,24.23c0.37,0.23,0.91,0.42,1.47,0.42c0.84,0,1.33-0.44,1.33-1.09c0-0.6-0.34-0.94-1.2-1.27
				c-1.04-0.37-1.68-0.91-1.68-1.8c0-0.99,0.82-1.73,2.06-1.73c0.65,0,1.12,0.15,1.41,0.31l-0.23,0.67c-0.21-0.11-0.63-0.3-1.21-0.3
				c-0.87,0-1.2,0.52-1.2,0.95c0,0.6,0.39,0.89,1.27,1.23c1.08,0.42,1.63,0.94,1.63,1.87c0,0.98-0.73,1.83-2.23,1.83
				c-0.61,0-1.29-0.18-1.63-0.41L47.59,24.23z"/>
			<path fill="#6D6E6E" d="M52.85,23.09c0.02,1.12,0.74,1.59,1.57,1.59c0.6,0,0.95-0.1,1.27-0.24l0.14,0.6
				c-0.29,0.13-0.79,0.28-1.52,0.28c-1.41,0-2.25-0.93-2.25-2.31s0.81-2.47,2.14-2.47c1.49,0,1.89,1.31,1.89,2.15
				c0,0.17-0.02,0.3-0.03,0.39H52.85z M55.29,22.5c0.01-0.53-0.22-1.35-1.15-1.35c-0.84,0-1.21,0.77-1.28,1.35H55.29z"/>
			<path fill="#6D6E6E" d="M61.07,20.65c-0.02,0.33-0.04,0.7-0.04,1.26v2.66c0,1.05-0.21,1.69-0.65,2.09
				c-0.44,0.42-1.09,0.55-1.66,0.55c-0.55,0-1.15-0.13-1.52-0.38l0.21-0.63c0.3,0.19,0.77,0.36,1.34,0.36c0.85,0,1.47-0.44,1.47-1.6
				v-0.51H60.2c-0.26,0.43-0.75,0.77-1.46,0.77c-1.13,0-1.95-0.96-1.95-2.23c0-1.55,1.01-2.43,2.06-2.43c0.79,0,1.23,0.42,1.43,0.79
				h0.02l0.04-0.69H61.07z M60.21,22.46c0-0.14-0.01-0.26-0.05-0.38C60.01,21.6,59.6,21.2,59,21.2c-0.79,0-1.36,0.67-1.36,1.73
				c0,0.9,0.45,1.64,1.35,1.64c0.51,0,0.97-0.32,1.15-0.85c0.05-0.14,0.07-0.3,0.07-0.44V22.46z"/>
			<path fill="#6D6E6E" d="M66.23,23.98c0,0.47,0.01,0.89,0.04,1.25h-0.74l-0.05-0.75h-0.02c-0.22,0.37-0.7,0.85-1.51,0.85
				c-0.72,0-1.58-0.4-1.58-2v-2.67h0.83v2.53c0,0.87,0.26,1.46,1.02,1.46c0.56,0,0.94-0.39,1.1-0.76c0.05-0.12,0.08-0.27,0.08-0.43
				v-2.81h0.83V23.98z"/>
			<path fill="#6D6E6E" d="M67.61,22.08c0-0.54-0.01-1-0.04-1.43h0.73l0.03,0.9h0.04c0.21-0.61,0.71-1,1.27-1
				c0.09,0,0.16,0.01,0.24,0.03v0.78c-0.09-0.02-0.17-0.03-0.28-0.03c-0.59,0-1,0.44-1.11,1.07c-0.02,0.11-0.04,0.25-0.04,0.39v2.44
				h-0.82V22.08z"/>
			<path fill="#6D6E6E" d="M74.75,22.9c0,1.69-1.17,2.43-2.28,2.43c-1.24,0-2.19-0.91-2.19-2.35c0-1.53,1-2.43,2.27-2.43
				C73.86,20.55,74.75,21.5,74.75,22.9z M71.12,22.95c0,1,0.58,1.76,1.39,1.76c0.79,0,1.39-0.75,1.39-1.78
				c0-0.77-0.39-1.76-1.37-1.76C71.54,21.17,71.12,22.08,71.12,22.95z"/>
		</g>
	</g>
	<g>
		<path fill="#EEF5F3" d="M13.03,28.54c-0.45,0-0.89-0.09-1.31-0.26l-0.05-0.02c-2.07-0.8-4.02-1.93-5.63-3.27
			c-3.31-2.74-5.06-6.24-5.06-10.11V4.4c0-0.24,0-0.36,0-0.49c0-0.16-0.01-0.33-0.01-0.68V1.07l11.66-0.01h0.8l8.65,0.01h3.01v2.16
			c0,0.19,0,0.35-0.01,0.53c0,0.18-0.01,0.37-0.01,0.64v10.48c0,3.87-1.75,7.37-5.06,10.11c-1.62,1.34-3.57,2.47-5.63,3.27
			l-0.04,0.02C13.93,28.45,13.49,28.54,13.03,28.54z"/>
		<path fill="#CCD4D9" d="M13.03,28.54c-0.45,0-0.89-0.09-1.31-0.26l-0.05-0.02c-2.07-0.8-4.02-1.93-5.63-3.27
			c-3.31-2.74-5.06-6.24-5.06-10.11V4.4c0-0.24,0-0.36,0-0.49c0-0.16-0.01-0.33-0.01-0.68V1.07l11.66-0.01"/>
		<g>
			<g>
				<path fill="#35B86F" d="M22.08,3.23l-8.65-0.01c-0.24,0-0.55,0-0.79,0l-9.5,0.01c0,0.62,0.01,0.64,0.01,1.17v10.48
					c0,8.08,9.02,11.24,9.4,11.4c0.15,0.06,0.32,0.1,0.48,0.1s0.33-0.03,0.48-0.1c0.38-0.16,9.4-3.32,9.4-11.4V4.4
					c0-0.53,0.01-0.78,0.01-1.17L22.08,3.23z"/>
				<path fill="#2FB467" d="M13.03,3.23H13c0,0-0.27-0.01-0.37-0.01l-9.5,0.01c0,0.62,0.01,0.64,0.01,1.17v4.06v6.42
					c0,0.25,0.01,0.49,0.02,0.73c0.52,7.58,9.01,10.5,9.38,10.66c0.15,0.07,0.32,0.1,0.48,0.1v-6.69
					C12.95,19.7,13.03,3.23,13.03,3.23z"/>
			</g>
			<polygon fill="#FFFFFF" points="8.11,15.66 10.53,13.31 12.08,14.76 17.53,9.35 19.81,11.66 12.19,19.47 			"/>
		</g>
	</g>
</g>
</svg>
