<?xml version="1.0" encoding="utf-8"?>
<!-- Generator: Adobe Illustrator 25.2.1, SVG Export Plug-In . SVG Version: 6.00 Build 0)  -->
<svg version="1.1" id="Camada_1" xmlns="http://www.w3.org/2000/svg" xmlns:xlink="http://www.w3.org/1999/xlink" x="0px" y="0px"
	 viewBox="0 0 27 26" style="enable-background:new 0 0 27 26;" xml:space="preserve">
<g>
	<path d="M19.1,8.7c0.1,0,0.1,0,0.2,0c1.5,0,3,0,4.5,0c1.7,0,2.8,1.1,3.1,2.1c0.4,1,0.3,2.1-0.3,3c-0.1,0.2-0.2,0.4-0.4,0.5
		c-0.1,0.1-0.1,0.1,0,0.2c0.4,1.1,0.3,2.2-0.3,3.2c-0.1,0.2-0.1,0.3-0.1,0.5c0.2,1.2-0.1,2.3-0.9,3.2c0,0.1-0.1,0.1-0.1,0.2
		c0,0.6,0,1.2-0.2,1.8c-0.4,1.2-1.3,1.9-2.5,2.2c-0.4,0.1-0.9,0.2-1.3,0.2c-0.8,0-1.7,0-2.5,0c-1.2,0-2.3-0.2-3.4-0.6
		c-1.1-0.3-2.1-0.7-3.1-1c-0.7-0.2-1.3-0.4-2-0.6c-0.2-0.1-0.4-0.1-0.6-0.1c-0.6-0.1-0.8-0.5-0.9-1.1c0-0.7,0-1.3,0-2
		c0-2.7,0-5.4,0-8.1c0-0.3,0-0.6,0-0.9c0-0.4,0.5-0.8,0.8-0.8c0.3,0,0.5-0.1,0.7-0.3c0.4-0.4,0.8-0.8,1.2-1.2
		c0.8-0.9,1.5-1.9,2.3-2.8c0.1-0.2,0.3-0.4,0.5-0.5c0.6-0.6,0.9-1.3,1.1-2.1c0.2-0.7,0.3-1.4,0.5-2.1c0.1-0.5,0.4-1,0.7-1.4
		c0.3-0.3,0.6-0.4,1-0.4c0.5,0,1,0.1,1.5,0.3c0.9,0.3,1.5,1,1.8,1.9c0.1,0.4,0.2,0.9,0.3,1.4c0.1,1.4-0.2,2.7-0.8,3.9
		c-0.2,0.4-0.4,0.7-0.5,1.1C19.1,8.5,19.1,8.6,19.1,8.7z"/>
	<path d="M7,17.3c0,1.8,0,3.5,0,5.3c0,0.7-0.5,1.2-1.2,1.2c-1.5,0-3.1,0-4.6,0c-0.4,0-0.7-0.2-1-0.5C0,23.1,0,22.9,0,22.6
		c0-3.3,0-6.7,0-10c0-0.3,0-0.6,0-0.9c0-0.5,0.4-0.9,0.9-1c0.1,0,0.2,0,0.3,0c1.5,0,3,0,4.5,0c0.3,0,0.5,0,0.7,0.2
		C6.9,11.2,7,11.5,7,12C7,13.7,7,15.5,7,17.3z M4.3,20.6c0-0.6-0.5-1.1-1.1-1.1c-0.6,0-1.1,0.5-1.2,1.1c0,0.6,0.5,1.1,1.1,1.1
		C3.8,21.7,4.3,21.2,4.3,20.6z"/>
</g>
<g>
</g>
<g>
</g>
<g>
</g>
<g>
</g>
<g>
</g>
<g>
</g>
<g>
</g>
<g>
</g>
<g>
</g>
<g>
</g>
<g>
</g>
<g>
</g>
<g>
</g>
<g>
</g>
<g>
</g>
</svg>
