<?xml version="1.0" encoding="utf-8"?>
<!-- Generator: Adobe Illustrator 24.1.2, SVG Export Plug-In . SVG Version: 6.00 Build 0)  -->
<svg version="1.1" id="Camada_1" xmlns="http://www.w3.org/2000/svg" xmlns:xlink="http://www.w3.org/1999/xlink" x="0px" y="0px"
	 viewBox="0 0 29.2 22.4" style="enable-background:new 0 0 29.2 22.4;" xml:space="preserve">
<g>
	<g>
		<path d="M29.2,22.4c-9.7,0-19.4,0-29.2,0C0,15,0,7.5,0,0c9.7,0,19.4,0,29.2,0C29.2,7.5,29.2,15,29.2,22.4z M14.6,21.3
			c2.4,0,4.9,0,7.3,0c1.7,0,3.4,0,5.1,0c0.2,0,0.4,0,0.5,0c0.2,0,0.3-0.2,0.3-0.4c0-0.3,0-0.7,0-1c0-5.8,0-11.6,0-17.4
			c0-0.2,0-0.5-0.1-0.7c-0.1-0.3-0.2-0.4-0.5-0.4c-0.1,0-0.3,0-0.4,0c-0.9,0-1.9,0-2.8,0c-7.4,0-14.9,0-22.3,0
			c-0.5,0-0.6,0.1-0.7,0.6c0,0.1,0,0.2,0,0.2c0,5.2,0,10.5,0,15.7c0,0.5,0,1.1,0,1.6c0,0.4,0,0.9,0.1,1.3c0,0.3,0.3,0.5,0.6,0.5
			c0.2,0,0.4,0,0.6,0C6.5,21.3,10.5,21.3,14.6,21.3z"/>
		<path d="M12.3,20.2c0-0.2,0-0.4,0-0.6c0-5.6,0-11.2,0-16.9c0-0.3,0-0.3,0.3-0.3c0.5,0,1.1,0,1.6,0c0.4,0,0.4,0,0.4,0.4
			c0,2.2,0,4.4,0,6.5c0,3.5,0,7.1,0,10.6c0,0.3,0,0.3-0.3,0.3c-0.6,0-1.1,0-1.7,0C12.5,20.2,12.4,20.2,12.3,20.2z"/>
		<path d="M7.9,11.3c0,2.9,0,5.8,0,8.6c0,0.2,0,0.2-0.2,0.2c-0.6,0-1.3,0-1.9,0c-0.2,0-0.2-0.1-0.2-0.2c0-4.7,0-9.4,0-14.2
			c0-1,0-2.1,0-3.1c0-0.3,0-0.3,0.3-0.3c0.5,0,1.1,0,1.6,0c0.4,0,0.4,0,0.4,0.4C7.9,5.6,7.9,8.4,7.9,11.3
			C7.9,11.3,7.9,11.3,7.9,11.3z"/>
		<path d="M23.5,2.3c0.3,0,0.6,0,0.8,0c0.4,0,0.8,0,1.2,0c0.2,0,0.2,0.1,0.2,0.2c0,0,0,0,0,0.1c0,5.8,0,11.5,0,17.3
			c0,0.1,0,0.1,0,0.2c-0.8,0-1.5,0-2.3,0C23.5,14.2,23.5,8.3,23.5,2.3z"/>
		<path d="M15.6,2.3c0.4,0,0.7,0,1.1,0c0,0,0.1,0.1,0.1,0.2c0,0.2,0,0.4,0,0.6c0,5.4,0,10.9,0,16.3c0,0.2,0,0.4,0,0.5
			c0,0.1-0.1,0.2-0.2,0.2c-0.3,0-0.7,0-1,0C15.6,14.2,15.6,8.3,15.6,2.3z"/>
		<path d="M21.2,11.3c0-2.9,0-5.8,0-8.6c0-0.3,0-0.3,0.3-0.3c0.2,0,0.4,0,0.6,0c0.2,0,0.3,0.1,0.3,0.3c0,0.2,0,0.4,0,0.6
			c0,5.5,0,11,0,16.6c0,0.3,0,0.3-0.3,0.4c-0.2,0-0.4,0-0.6,0c-0.2,0-0.3-0.1-0.3-0.3c0-2.5,0-4.9,0-7.4
			C21.2,12.1,21.2,11.7,21.2,11.3C21.2,11.3,21.2,11.3,21.2,11.3z"/>
		<path d="M4.6,20.2c-0.4,0-0.8,0-1.2,0c0-0.1,0-0.2,0-0.3c0-5.7,0-11.5,0-17.2c0-0.3,0-0.4,0.4-0.4c0.2,0,0.4,0,0.6,0
			c0.1,0,0.1,0.1,0.2,0.2c0,0.1,0,0.2,0,0.3c0,5.7,0,11.4,0,17.1C4.6,20,4.6,20.1,4.6,20.2z"/>
		<path d="M11.2,20.2c-0.4,0-0.7,0-1.1,0c0-5.9,0-11.8,0-17.8c0.4,0,0.8,0,1.1,0C11.2,8.3,11.2,14.2,11.2,20.2z"/>
		<path d="M17.9,2.4c0.3,0,0.6,0,0.9,0c0.2,0,0.2,0.1,0.2,0.2c0,0,0,0.1,0,0.1c0,5.7,0,11.5,0,17.2c0,0.1,0,0.2,0,0.3
			c-0.4,0-0.7,0-1.1,0C17.9,14.2,17.9,8.3,17.9,2.4z"/>
	</g>
</g>
<g>
</g>
<g>
</g>
<g>
</g>
<g>
</g>
<g>
</g>
<g>
</g>
<g>
</g>
<g>
</g>
<g>
</g>
<g>
</g>
<g>
</g>
</svg>
