<?xml version="1.0" encoding="utf-8"?>
<!-- Generator: Adobe Illustrator 25.2.1, SVG Export Plug-In . SVG Version: 6.00 Build 0)  -->
<svg version="1.1" id="Camada_1" xmlns="http://www.w3.org/2000/svg" xmlns:xlink="http://www.w3.org/1999/xlink" x="0px" y="0px"
	 viewBox="0 0 135.7 135.7" style="enable-background:new 0 0 135.7 135.7;" xml:space="preserve">
<style type="text/css">
	.st0{fill:url(#SVGID_1_);}
	.st1{fill:url(#SVGID_2_);}
	.st2{fill:url(#SVGID_3_);}
	.st3{fill:url(#SVGID_4_);}
	.st4{fill:url(#SVGID_5_);}
</style>
<g>
	
		<linearGradient id="SVGID_1_" gradientUnits="userSpaceOnUse" x1="4.426802e-07" y1="33.2" x2="61.9" y2="33.2" gradientTransform="matrix(1 0 0 -1 0 138)">
		<stop  offset="0" style="stop-color:#00908E"/>
		<stop  offset="1" style="stop-color:#12C6AF"/>
	</linearGradient>
	<path class="st0" d="M0,86.3c0.1,0.5,0.2,1,0.4,1.7c0-0.4,0.1-0.5,0.1-0.7c0-4.5,2.2-7.8,5.5-10.4c2.3-1.8,4.9-2.8,7.8-2.9
		c1.2-0.1,2.4-0.1,3.5-0.1c9.7,0,19.4,0,29.2,0c5.4,0,9.8,2.2,12.9,6.7c2,2.9,2.4,6.2,2.4,9.6c0,9.9,0,19.8,0,29.7
		c0,1.4-0.1,2.8-0.4,4.1c-1,4.6-3.7,8-7.9,10.1c-1.7,0.8-3.4,1.4-5.4,1.3c0.3,0.1,0.6,0.2,0.9,0.3c-12.2,0-24.3,0-36.5,0
		c0.4-0.1,0.7-0.2,1.1-0.2c-3.7-0.1-6.8-1.7-9.3-4.3s-4.2-5.6-4-9.4c-0.1,0.6-0.3,1.1-0.4,1.7C0,111.1,0,98.7,0,86.3z M44.3,118.1
		c0-0.3,0-0.5,0-0.6c0-8.4,0-16.9,0-25.3c0-0.6-0.2-0.8-0.8-0.8c-8.1,0-16.3,0-24.4,0c-1.6,0-1.6,0-1.6,1.5c0,8,0,16,0,24.1
		c0,1.1,0,1.1,1.2,1.1c7.8,0,15.6,0,23.4,0C42.9,118.1,43.6,118.1,44.3,118.1z"/>
	
		<linearGradient id="SVGID_2_" gradientUnits="userSpaceOnUse" x1="0" y1="107.15" x2="61.9149" y2="107.15" gradientTransform="matrix(1 0 0 -1 0 138)">
		<stop  offset="0" style="stop-color:#00908E"/>
		<stop  offset="1" style="stop-color:#12C6AF"/>
	</linearGradient>
	<path class="st1" d="M0,12.5c0.1,0.6,0.2,1.1,0.4,1.7c0,0,0,0,0.1,0c0-0.2,0-0.4,0-0.6c0.1-5.5,3-9.2,7.6-11.8
		c2.1-1.2,4.4-1.6,6.7-1.6C20.5,0.1,26.3,0,32,0c5.1,0,10.2,0,15.3,0.1c4.5,0.1,8.3,1.8,11.2,5.3c2.1,2.5,3.2,5.3,3.3,8.5
		c0,0.9,0.1,1.8,0.1,2.7c0,9.9,0,19.8,0,29.6c0,5.3-2,9.7-6.3,12.8c-2.6,1.9-5.7,2.7-8.9,2.7c-10.3,0-20.7,0-31,0
		c-4.8,0-9-1.6-12.2-5.4C2.2,54.7,1.3,53,0.7,51c-0.2-0.5-0.1-1.1-0.2-1.7c0-0.5,0-1-0.2-1.5C0.2,48.4,0,49-0.1,49.5
		C0,37.3,0,24.9,0,12.5z M44.3,44.4c0.1-0.2,0.1-0.2,0.1-0.3c0-8.6,0-17.2,0-25.9c0-0.5-0.2-0.6-0.7-0.6c-8.1,0-16.3,0-24.4,0
		c-1.9,0-1.7-0.4-1.7,1.7c0,8.1,0,16.3,0,24.4c0,0.5,0.1,0.7,0.7,0.7c8,0,16,0,24,0C42.9,44.4,43.6,44.4,44.3,44.4z"/>
	
		<linearGradient id="SVGID_3_" gradientUnits="userSpaceOnUse" x1="73.85" y1="33.1512" x2="135.5052" y2="33.1512" gradientTransform="matrix(1 0 0 -1 0 138)">
		<stop  offset="0" style="stop-color:#00908E"/>
		<stop  offset="1" style="stop-color:#12C6AF"/>
	</linearGradient>
	<path class="st2" d="M81,135.7c0.3-0.1,0.6-0.2,1-0.3c-0.3-0.1-0.4-0.1-0.6-0.1c-4.7-0.5-8-4.8-7.5-9.4c0.5-3.7,2.9-6.6,6.5-7.5
		c0.7-0.2,1.5-0.2,2.2-0.2c5.6,0,11.2,0,16.8,0c0.7,0,0.8-0.2,0.8-0.9c0-10.8,0-21.5,0-32.3c0-1.3,0-2.6,0.2-3.9
		c0.7-4.3,4.5-7.3,9-7.2c4.3,0.2,7.8,3.6,8.2,7.9c0.1,1.1,0.1,2.1,0.1,3.2c0,0.5,0.2,0.7,0.7,0.7c2.8,0,5.7,0,8.5,0
		c4.2,0.1,7.7,3.3,8.3,7.5c0.7,4.8-2.5,9.2-7.6,9.9c-1.5,0.2-3,0.1-4.4,0.1c-1.8,0-3.6,0-5.5,0c0,0.7,0,1.3,0,2c0,6.9,0,13.9,0,20.8
		c0,1.8-0.2,3.6-1.2,5.2c-1.5,2.6-3.8,4-6.9,4.2c0.3,0.1,0.5,0.2,0.7,0.4C100.7,135.7,90.8,135.7,81,135.7z"/>
	
		<linearGradient id="SVGID_4_" gradientUnits="userSpaceOnUse" x1="73.805" y1="107.1222" x2="135.705" y2="107.1222" gradientTransform="matrix(1 0 0 -1 0 138)">
		<stop  offset="0" style="stop-color:#00908E"/>
		<stop  offset="1" style="stop-color:#12C6AF"/>
	</linearGradient>
	<path class="st3" d="M73.8,30.9c0-4.9,0-9.8,0-14.7c0-3.1,0.4-6.2,2.1-8.9c2.5-4,6.1-6.6,10.8-7C90.9,0,95,0.1,99.1,0
		c6.3,0,12.6-0.1,18.8,0c2.1,0,4.2,0.1,6.3,0.5c5.8,1.2,10.5,6.3,11.1,12.2c0.2,1.8,0.3,3.6,0.3,5.3c0,9.3,0,18.6,0,28
		c0,2.8-0.5,5.6-1.9,8c-2.6,4.6-6.6,7.2-11.9,7.7c-0.8,0.1-1.7,0.1-2.6,0.1c-9.8,0-19.6,0-29.4,0c-3.3,0-6.5-0.5-9.3-2.4
		c-4-2.7-6.4-6.5-6.7-11.4c-0.1-1-0.1-2-0.1-2.9C73.8,40.4,73.8,35.7,73.8,30.9z M118.1,17.6c-0.7,0-1.1,0-1.6,0
		c-7.8,0-15.6,0-23.4,0c-1.8,0-1.8,0-1.8,1.8c0,8.1,0,16.2,0,24.3c0,0.5,0.2,0.6,0.6,0.6c8.5,0,17,0,25.5,0c0.6,0,0.7-0.2,0.7-0.7
		c0-7.1,0-14.1,0-21.2C118.2,20.9,118.1,19.3,118.1,17.6z"/>
	
		<linearGradient id="SVGID_5_" gradientUnits="userSpaceOnUse" x1="73.8377" y1="46.6116" x2="91.3625" y2="46.6116" gradientTransform="matrix(1 0 0 -1 0 138)">
		<stop  offset="0" style="stop-color:#00908E"/>
		<stop  offset="1" style="stop-color:#12C6AF"/>
	</linearGradient>
	<path class="st4" d="M91.3,91.1c0,3.3,0.2,6.6,0,9.9c-0.2,4-3.1,6.9-7,7.8c-4.6,1.1-10.2-2.5-10.3-8.2c-0.1-6.2-0.1-12.4,0-18.6
		c0.1-4.4,3.8-7.9,8.1-8.2c4.5-0.3,8.4,2.7,9.2,7c0.2,1,0.2,2,0.2,3C91.4,86.3,91.4,88.7,91.3,91.1L91.3,91.1z"/>
</g>
</svg>
