<?xml version="1.0" encoding="utf-8"?>
<!-- Generator: Adobe Illustrator 25.2.1, SVG Export Plug-In . SVG Version: 6.00 Build 0)  -->
<svg version="1.1" id="Camada_1" xmlns="http://www.w3.org/2000/svg" xmlns:xlink="http://www.w3.org/1999/xlink" x="0px" y="0px"
	 viewBox="0 0 36.5 26.6" style="enable-background:new 0 0 36.5 26.6;" xml:space="preserve">
<style type="text/css">
	.st0{fill:#606060;}
</style>
<path class="st0" d="M22.2,25c4.2,0,8.4,0,12.6,0c0-7,0-13.9,0-20.9c-0.4,0-0.7,0-1.1,0c-0.4,0-0.7-0.3-0.8-0.6
	c-0.1-0.3,0.1-0.7,0.4-0.9c0.1-0.1,0.3-0.1,0.4-0.1c0.6,0,1.1,0,1.7,0c0.6,0,0.9,0.3,0.9,0.9c0,4,0,8,0,12c0,3.4,0,6.8,0,10.2
	c0,0.7-0.3,1-1,1c-11.5,0-23,0-34.5,0c-0.7,0-1-0.3-1-1c0-7.4,0-14.8,0-22.2c0-0.7,0.3-1,1-1c0.6,0,1.2,0,1.8,0
	c0.5,0,0.9,0.3,0.9,0.8c0,0.5-0.4,0.8-0.9,0.8c-0.4,0-0.7,0-1.1,0c0,7,0,14,0,20.9c4.2,0,8.4,0,12.7,0c-0.1-0.1-0.2-0.1-0.2-0.1
	c-2.7-0.9-5.4-1.5-8.2-1.8c-0.3,0-0.6-0.1-1-0.1c-0.5-0.1-0.7-0.4-0.7-0.8c0-0.1,0-0.1,0-0.2c0-7.1,0-14.1,0-21.2
	C4.2,0.3,4.5,0,5.1,0c3.7,0.1,7.3,0.8,10.7,2.3c0.8,0.4,1.5,0.8,2.2,1.2c0.1,0.1,0.2,0.1,0.3,0c2.1-1.4,4.5-2.3,7-2.8
	C27.3,0.3,29.3,0,31.3,0c0.7,0,1,0.3,1,1c0,7,0,14.1,0,21.1c0,0.7-0.2,0.9-0.9,1c-3,0.2-6,0.8-8.9,1.8C22.4,24.9,22.3,25,22.2,25
	C22.2,25,22.2,25,22.2,25z M19.1,24.5c0.1,0,0.1,0,0.2-0.1c3.5-1.6,7.2-2.4,11-2.9c0.4,0,0.4,0,0.4-0.4c0-6.4,0-12.8,0-19.2
	c0-0.1,0-0.2,0-0.3c-0.1,0-0.2,0-0.2,0C28.6,1.8,26.8,2,25,2.5c-2,0.5-4,1.2-5.7,2.4c-0.2,0.1-0.3,0.3-0.3,0.5c0,6.3,0,12.5,0,18.8
	C19.1,24.3,19.1,24.4,19.1,24.5z M5.8,1.6c0,0.2,0,0.3,0,0.4c0,6.3,0,12.5,0,18.8c0,0.7,0,0.7,0.7,0.7c3.7,0.4,7.3,1.3,10.7,2.8
	c0.1,0,0.1,0.1,0.2,0.1c0-0.1,0-0.1,0-0.2c0-6.4,0-12.7,0-19.1c0-0.1-0.1-0.3-0.2-0.3c-0.9-0.5-1.8-1-2.7-1.4
	c-2.2-1-4.5-1.4-6.9-1.7C7,1.7,6.4,1.7,5.8,1.6z"/>
<g>
</g>
<g>
</g>
<g>
</g>
<g>
</g>
<g>
</g>
<g>
</g>
<g>
</g>
<g>
</g>
<g>
</g>
<g>
</g>
<g>
</g>
<g>
</g>
<g>
</g>
<g>
</g>
<g>
</g>
</svg>
