<?xml version="1.0" encoding="utf-8"?>
<!-- Generator: Adobe Illustrator 25.2.1, SVG Export Plug-In . SVG Version: 6.00 Build 0)  -->
<svg version="1.1" id="Camada_1" xmlns="http://www.w3.org/2000/svg" xmlns:xlink="http://www.w3.org/1999/xlink" x="0px" y="0px"
	 viewBox="0 0 32.2 37.4" style="enable-background:new 0 0 32.2 37.4;" xml:space="preserve">
<style type="text/css">
	.st0{fill:#56BCB7;}
</style>
<g>
	<g>
		<path class="st0" d="M12.1,2.8C7,2.8,2.8,7,2.8,12.1c0,5.1,4.2,9.3,9.3,9.3c5.1,0,9.3-4.2,9.3-9.3C21.5,7,17.3,2.8,12.1,2.8
			L12.1,2.8z M12.1,24.3C5.4,24.3,0,18.8,0,12.1C0,5.4,5.4,0,12.1,0c6.7,0,12.1,5.4,12.1,12.1C24.3,18.8,18.8,24.3,12.1,24.3
			L12.1,24.3z"/>
		<path class="st0" d="M28,36.3L17.2,21.8c-0.5-0.6-0.3-1.5,0.3-1.9c0.6-0.4,1.4-0.3,1.9,0.2l0.1,0.1l12.2,13.5
			c0.8,0.9,0.8,2.3-0.2,3.2c-0.9,0.8-2.3,0.8-3.2-0.2c0-0.1-0.1-0.1-0.1-0.2L28,36.3L28,36.3z"/>
	</g>
</g>
<g>
</g>
<g>
</g>
<g>
</g>
<g>
</g>
<g>
</g>
<g>
</g>
</svg>
