<?xml version="1.0" encoding="utf-8"?>
<!-- Generator: Adobe Illustrator 25.2.1, SVG Export Plug-In . SVG Version: 6.00 Build 0)  -->
<svg version="1.1" id="Camada_1" xmlns="http://www.w3.org/2000/svg" xmlns:xlink="http://www.w3.org/1999/xlink" x="0px" y="0px"
	 viewBox="0 0 24.4 31.8" style="enable-background:new 0 0 24.4 31.8;" xml:space="preserve">
<style type="text/css">
	.st0{fill:#FFFFFF;}
</style>
<g>
	<path class="st0" d="M11.1,31.8c-0.2-0.1-0.3-0.3-0.3-0.6c-0.1-0.5-0.2-1-0.2-1.5c0-0.2-0.1-0.3-0.3-0.3c-0.5-0.1-1-0.2-1.6-0.3
		c-0.2,0-0.5-0.1-0.5-0.3c-0.1-0.3,0.1-0.4,0.2-0.6c0.6-0.5,1.1-1.1,1.7-1.7c-0.1,0-0.2,0-0.3,0c-2.7,0-5.4,0-8.1,0
		c-0.9,0-1.5-0.5-1.6-1.3c0-0.1,0-0.3,0-0.4C0,17.1,0,9.4,0,1.7C0,0.6,0.6,0,1.6,0C7.4,0,13.2,0,19,0c1,0,1.6,0.6,1.6,1.6
		c0,5.2,0,10.3,0,15.5c0,0.2,0.1,0.4,0.3,0.5c0.5,0.3,0.8,0.7,0.8,1.3c0,0.7,0.2,1.3,0.6,1.9c0.4,0.6,0.4,1.3,0,1.9
		c-0.4,0.6-0.6,1.2-0.6,1.9c0,0.2-0.1,0.4-0.2,0.7c-0.1,0.2-0.1,0.2,0.1,0.4c0.8,0.8,1.7,1.7,2.5,2.5c0.2,0.2,0.3,0.3,0.2,0.6
		c-0.1,0.3-0.3,0.3-0.5,0.4c-0.6,0.1-1.2,0.2-1.8,0.3c-0.1,0.6-0.2,1.1-0.2,1.7c0,0.3-0.1,0.5-0.3,0.6c-0.1,0-0.2,0-0.3,0
		c-0.2-0.2-0.4-0.4-0.6-0.5c-1-0.9-1.9-1.9-2.8-2.9c-0.4-0.4-0.8-0.6-1.3-0.6c-0.5,0-1.1,0-1.5,0.5c-1,1.1-2.1,2.1-3.2,3.2
		c-0.1,0.1-0.2,0.2-0.4,0.3C11.3,31.8,11.2,31.8,11.1,31.8z M19.7,17C19.7,17,19.7,17,19.7,17c0.1-0.1,0.1-0.2,0.1-0.3
		c0-4.9,0-9.9,0-14.8c0-0.7-0.2-0.9-0.9-0.9c-5.7,0-11.4,0-17.1,0c-0.7,0-0.9,0.2-0.9,0.9c0,7.6,0,15.3,0,22.9
		c0,0.7,0.2,0.9,0.9,0.9c3,0,5.9,0,8.9,0c0.1,0,0.2,0,0.3,0c-0.1-0.4-0.2-0.7-0.2-1.1c0-0.6-0.2-1.1-0.5-1.5c-0.5-0.8-0.5-1.5,0-2.3
		c0.3-0.4,0.5-0.9,0.5-1.4c0-0.9,0.4-1.5,1.3-1.8c0.6-0.2,1-0.6,1.4-1c0.5-0.6,1.2-0.9,1.9-0.6c0.6,0.2,1.2,0.2,1.9,0
		c0.8-0.2,1.4,0,1.9,0.6C19.3,16.6,19.5,16.8,19.7,17z M17.8,27.1c0.2-0.1,0.4-0.2,0.6-0.4c0.5-0.7,1.2-1.1,2-1.4
		c0.3-0.1,0.5-0.4,0.5-0.8c0-0.8,0.2-1.6,0.7-2.3c0.2-0.3,0.2-0.7,0-1c-0.5-0.6-0.7-1.3-0.7-2.1c0-0.5-0.3-0.8-0.7-0.9
		c-0.7-0.2-1.3-0.6-1.7-1.2c-0.3-0.4-0.7-0.6-1.2-0.4c-0.7,0.2-1.3,0.2-2,0c-0.5-0.2-1,0-1.3,0.4c-0.4,0.5-0.9,0.9-1.5,1.1
		c-0.6,0.2-0.8,0.6-0.8,1.2c0,0.6-0.2,1.2-0.5,1.7c-0.4,0.5-0.4,1,0,1.6c0.4,0.5,0.5,1,0.5,1.7c0,0.1,0,0.3,0,0.4
		c0,0.3,0.2,0.5,0.5,0.6c0.8,0.3,1.5,0.8,2.1,1.5c0.1,0.2,0.4,0.3,0.6,0.3C15.8,26.9,16.8,26.8,17.8,27.1z M13.9,28
		c-0.2-0.2-0.3-0.5-0.5-0.7c-0.3-0.5-0.8-0.8-1.4-1c-0.2-0.1-0.3-0.1-0.4,0.1c-0.6,0.6-1.2,1.2-1.9,1.9c0,0-0.1,0.1-0.1,0.2
		c0.4,0.1,0.9,0.2,1.3,0.2c0.3,0,0.5,0.2,0.5,0.6c0,0.4,0.1,0.7,0.2,1.1C12.4,29.5,13.2,28.7,13.9,28z M18.6,27.9
		c0.7,0.7,1.5,1.5,2.4,2.3c0.1-0.3,0.1-0.7,0.2-1.1c0-0.3,0.2-0.5,0.5-0.6c0.4-0.1,0.8-0.2,1.3-0.2c-0.7-0.7-1.4-1.4-2.1-2.1
		c0,0-0.2-0.1-0.2-0.1c-0.5,0.2-1,0.4-1.3,0.8C19.1,27.4,18.9,27.6,18.6,27.9z"/>
	<path class="st0" d="M10.3,3.6c1.9,0,3.9,0,5.8,0c0.1,0,0.2,0,0.3,0c0.2,0,0.4,0.2,0.4,0.4c0,0.2-0.1,0.4-0.3,0.5
		c-0.1,0-0.2,0-0.4,0c-3.9,0-7.8,0-11.7,0c-0.1,0-0.3,0-0.4,0C3.9,4.5,3.8,4.3,3.8,4.1c0-0.2,0.1-0.4,0.4-0.4c0.1,0,0.2,0,0.3,0
		C6.4,3.6,8.4,3.6,10.3,3.6z"/>
	<path class="st0" d="M10.3,10.9c2,0,3.9,0,5.9,0c0.1,0,0.3,0,0.4,0c0.2,0.1,0.3,0.2,0.3,0.5c0,0.2-0.2,0.4-0.4,0.4
		c-0.1,0-0.2,0-0.3,0c-3.9,0-7.8,0-11.7,0c-0.1,0-0.2,0-0.3,0c-0.2,0-0.4-0.2-0.4-0.4c0-0.2,0.1-0.4,0.3-0.5c0.1,0,0.2,0,0.4,0
		C6.4,10.9,8.4,10.9,10.3,10.9z"/>
	<path class="st0" d="M10.4,7.3c1.9,0,3.9,0,5.8,0c0.1,0,0.2,0,0.3,0c0.2,0,0.3,0.2,0.4,0.4c0,0.2-0.1,0.4-0.3,0.5
		c-0.1,0-0.2,0-0.4,0c-3.9,0-7.8,0-11.7,0c-0.1,0-0.3,0-0.4,0C3.9,8.1,3.8,8,3.8,7.7c0-0.2,0.1-0.4,0.4-0.4c0.1,0,0.2,0,0.3,0
		C6.4,7.3,8.4,7.3,10.4,7.3z"/>
	<path class="st0" d="M6,21.9c0.6,0,1.1,0,1.7,0c0.4,0,0.6,0.2,0.6,0.5c0,0.3-0.2,0.5-0.5,0.5c-1.1,0-2.3,0-3.4,0
		c-0.4,0-0.6-0.2-0.6-0.5c0-0.3,0.2-0.4,0.5-0.5C4.9,21.9,5.5,21.9,6,21.9z"/>
	<path class="st0" d="M6,19.2c-0.5,0-1.1,0-1.6,0c-0.4,0-0.6-0.2-0.6-0.5c0-0.3,0.2-0.5,0.6-0.5c1.1,0,2.2,0,3.4,0
		c0.4,0,0.6,0.2,0.6,0.5c0,0.3-0.2,0.5-0.6,0.5C7.1,19.2,6.6,19.2,6,19.2z"/>
	<path class="st0" d="M16.3,25.7c-1.9,0-3.5-1.4-3.8-3.3c-0.1-0.3,0.1-0.6,0.4-0.6c0.3,0,0.5,0.1,0.5,0.5c0.2,1.3,1,2.2,2.2,2.5
		c1.2,0.3,2.4-0.2,3-1.1c1-1.3,0.6-3.2-0.8-4.1c-1.4-0.9-3.2-0.5-4.1,0.9c0,0.1-0.1,0.1-0.1,0.2c-0.2,0.3-0.4,0.4-0.7,0.3
		c-0.3-0.1-0.3-0.4-0.1-0.7c0.4-0.8,1.1-1.4,2-1.8c1.4-0.6,3-0.2,4.1,0.8c1.1,1.1,1.4,2.7,0.8,4.2C19.2,24.7,17.8,25.7,16.3,25.7z"
		/>
</g>
<g>
</g>
<g>
</g>
<g>
</g>
<g>
</g>
<g>
</g>
<g>
</g>
<g>
</g>
<g>
</g>
<g>
</g>
<g>
</g>
<g>
</g>
<g>
</g>
<g>
</g>
<g>
</g>
<g>
</g>
</svg>
