<?xml version="1.0" encoding="utf-8"?>
<!-- Generator: Adobe Illustrator 25.2.1, SVG Export Plug-In . SVG Version: 6.00 Build 0)  -->
<svg version="1.1" id="Camada_1" xmlns="http://www.w3.org/2000/svg" xmlns:xlink="http://www.w3.org/1999/xlink" x="0px" y="0px"
	 viewBox="0 0 26.2 34" style="enable-background:new 0 0 26.2 34;" xml:space="preserve">
<style type="text/css">
	.st0{fill:#41B7A8;}
</style>
<path class="st0" d="M12.8,34c-0.6-0.3-0.7-0.7-0.7-1.3c0-2.8,0-5.6,0-8.3c0-0.1,0-0.3,0-0.4c-4,0-8,0-12,0c-0.2-1.7,0.3-3,1.5-4.2
	c1-0.9,2.2-1.6,3.4-2c0.4-0.1,0.5-0.3,0.6-0.7c0.3-2.6,0.6-5.2,1-7.9c0.2-1.5,0.4-3,0.6-4.4c0-0.1,0-0.1,0-0.2
	C6.5,4.3,5.9,4.1,5.3,3.9c-0.7-0.3-1.4-0.6-2-1.2C2.7,2.2,2.4,1.6,2.4,0.8c0-0.3,0-0.5,0-0.8c7.1,0,14.2,0,21.2,0
	c0.2,1.5-0.1,2.2-1.3,3.1c-0.9,0.6-1.9,1-2.9,1.2c-0.1,0-0.3,0.1-0.5,0.1c0.1,1.1,0.3,2.3,0.4,3.4c0.3,2.2,0.6,4.5,0.8,6.7
	c0.1,0.9,0.2,1.8,0.4,2.8c0,0.1,0.2,0.3,0.3,0.3c1,0.4,2,0.8,2.9,1.5c1.1,0.8,1.9,1.7,2.2,3c0.1,0.6,0.1,1.2,0.2,1.8
	c-4.1,0-8.1,0-12.1,0c0,0.2,0,0.3,0,0.4c0,2.8,0,5.6,0,8.4c0,0.6-0.2,1-0.7,1.3C13.2,34,13,34,12.8,34z"/>
<g>
</g>
<g>
</g>
<g>
</g>
<g>
</g>
<g>
</g>
<g>
</g>
</svg>
