<?xml version="1.0" encoding="utf-8"?>
<!-- Generator: Adobe Illustrator 25.2.1, SVG Export Plug-In . SVG Version: 6.00 Build 0)  -->
<svg version="1.1" id="Camada_1" xmlns="http://www.w3.org/2000/svg" xmlns:xlink="http://www.w3.org/1999/xlink" x="0px" y="0px"
	 viewBox="0 0 36 24.8" style="enable-background:new 0 0 36 24.8;" xml:space="preserve">
<style type="text/css">
	.st0{fill:#606060;}
</style>
<g>
	<path class="st0" d="M27.7,4.3c0.2,0.1,0.3,0.2,0.4,0.3c3.2,1.8,5.8,4.3,7.7,7.5c0.1,0.2,0.1,0.4,0,0.6c-3.5,5.5-8.4,8.8-14.8,9.9
		c-3.4,0.5-6.8,0.2-10.1-1c-0.3-0.1-0.4-0.1-0.7,0.1c-0.9,0.9-1.8,1.8-2.7,2.7c-0.4,0.4-1,0.5-1.4,0.2c-0.5-0.3-0.7-0.8-0.6-1.3
		c0.1-0.3,0.3-0.6,0.5-0.8c4.6-4.6,9.3-9.3,13.9-13.9c2.7-2.7,5.4-5.4,8.1-8.1c0.2-0.2,0.5-0.4,0.8-0.5c0.5-0.1,1,0.1,1.3,0.6
		c0.3,0.5,0.2,1-0.2,1.4c-0.6,0.6-1.3,1.3-1.9,1.9C28,4.1,27.9,4.2,27.7,4.3z M13.2,18.9c3.1,2.4,8.1,2.2,11-1.3
		c2.8-3.4,2.1-7.9,0.2-9.9c-0.5,0.5-0.9,1-1.4,1.4c-0.2,0.2-0.2,0.3-0.1,0.6c1.4,2.5,0.7,5.7-1.6,7.3c-1.9,1.3-4,1.4-6.1,0.4
		c-0.1-0.1-0.4-0.1-0.4,0C14.3,17.8,13.8,18.3,13.2,18.9z"/>
	<path class="st0" d="M23.7,2.7c-0.8,0.8-1.5,1.5-2.2,2.2c-0.1,0.1-0.3,0-0.5,0c-1.9-0.8-3.8-0.8-5.8-0.1c-4.4,1.5-6.5,6.4-4.8,10.7
		c0.1,0.2,0.1,0.4-0.1,0.6c-1.1,1.1-2.2,2.2-3.3,3.3c-0.2,0.2-0.3,0.2-0.5,0.1c-2.7-1.8-4.8-4-6.5-6.8c-0.1-0.2-0.1-0.4,0-0.6
		C3.2,7,7.7,3.8,13.5,2.4c3.3-0.8,6.7-0.7,10,0.2C23.5,2.7,23.5,2.7,23.7,2.7z"/>
	<path class="st0" d="M12.5,13.8c-0.7-1.6,0-4.1,1.5-5.5c1.6-1.5,3.9-1.9,5.3-1.3C17.1,9.2,14.8,11.5,12.5,13.8z"/>
</g>
<g>
</g>
<g>
</g>
<g>
</g>
<g>
</g>
<g>
</g>
<g>
</g>
<g>
</g>
<g>
</g>
<g>
</g>
<g>
</g>
<g>
</g>
<g>
</g>
<g>
</g>
<g>
</g>
<g>
</g>
</svg>
