<?xml version="1.0" encoding="utf-8"?>
<!-- Generator: Adobe Illustrator 25.2.1, SVG Export Plug-In . SVG Version: 6.00 Build 0)  -->
<svg version="1.1" id="Camada_1" xmlns="http://www.w3.org/2000/svg" xmlns:xlink="http://www.w3.org/1999/xlink" x="0px" y="0px"
	 viewBox="0 0 19.1 26.8" style="enable-background:new 0 0 19.1 26.8;" xml:space="preserve">
<style type="text/css">
	.st0{fill:#626161;}
</style>
<g>
	<path class="st0" d="M11.8,24.1l0.3,0.4v2.3H7.8v-2.3l0.3-0.4c-2.9-0.4-5.6-1.5-8.1-3.8l3.3-3.1c1.7,1.5,3.2,2.3,4.8,2.6l-0.2-0.5
		v-4l0.3-0.4c-0.2-0.1-0.5-0.1-0.7-0.2c-3.6-0.9-6.7-2.3-6.7-5.8c0-3,2.6-5.7,7.3-6.2L7.8,2.3V0h4.3v2.3l-0.2,0.5
		c2.7,0.4,4.7,1.4,7,3.8l-3.3,3.2c-1.2-1.4-2.3-2.1-3.7-2.6l0.3,0.6v3.3l-0.3,0.4c0.3,0.1,0.8,0.2,0.9,0.2c4.4,1,6.4,3.3,6.4,6.1
		C19.1,20.8,16.8,23.7,11.8,24.1z M8.1,7C6.3,7.1,5.6,8.1,5.6,8.7c0,0.6,0.7,1.3,2.5,1.7L7.8,9.9V7.5L8.1,7z M11.8,15.9l0.2,0.5v3
		l-0.2,0.5c1.9-0.3,2.5-1.2,2.5-1.8C14.4,17.4,13.8,16.5,11.8,15.9z"/>
</g>
<g>
</g>
<g>
</g>
<g>
</g>
<g>
</g>
<g>
</g>
<g>
</g>
</svg>
