<?xml version="1.0" encoding="utf-8"?>
<!-- Generator: Adobe Illustrator 24.1.2, SVG Export Plug-In . SVG Version: 6.00 Build 0)  -->
<svg version="1.1" id="Camada_1" xmlns="http://www.w3.org/2000/svg" xmlns:xlink="http://www.w3.org/1999/xlink" x="0px" y="0px"
	 viewBox="0 0 39.1 24" style="enable-background:new 0 0 39.1 24;" xml:space="preserve">
<style type="text/css">
	.st0{fill:#30D1B6;}
</style>
<g>
	<g>
		<path class="st0" d="M19.5,24c-3.3,0-6.4-1.1-9.4-2.8c-3.8-2.2-7.1-5.2-9.8-8.6c-0.4-0.5-0.4-0.8-0.1-1.2
			c3.4-4.2,7.4-7.7,12.4-9.9C18-0.9,23.3-0.4,28.4,2.4c4.1,2.2,7.5,5.3,10.4,8.9c0.3,0.4,0.4,0.8,0,1.2c-3.5,4.3-7.6,7.9-12.8,10.1
			C24,23.6,21.8,24,19.5,24z M37.2,12.1c0-0.1-0.1-0.1-0.1-0.2c-2.8-3.3-5.9-6.1-9.7-8.1c-2.2-1.1-4.4-1.9-6.9-2.1
			c-3.1-0.2-6,0.6-8.7,2c-3.8,2-7,4.8-9.8,8.1C2,12,2,12,2,12.1c3.1,3.6,6.7,6.8,11.1,8.8c4.4,2,8.7,1.9,13.1-0.1
			C30.6,18.8,34,15.7,37.2,12.1z"/>
		<path class="st0" d="M26.2,12c0,3.5-3,6.4-6.6,6.4c-3.7,0-6.6-2.9-6.6-6.5c0-3.5,3-6.4,6.6-6.4C23.2,5.6,26.2,8.5,26.2,12z
			 M19.5,16.7c2.7,0,4.9-2.1,4.9-4.7c0-2.6-2.1-4.7-4.9-4.7c-2.7,0-4.9,2.1-4.9,4.7C14.7,14.6,16.8,16.7,19.5,16.7z"/>
	</g>
</g>
<g>
</g>
<g>
</g>
<g>
</g>
<g>
</g>
<g>
</g>
<g>
</g>
<g>
</g>
<g>
</g>
<g>
</g>
<g>
</g>
<g>
</g>
</svg>
