<?xml version="1.0" encoding="utf-8"?>
<!-- Generator: Adobe Illustrator 25.2.1, SVG Export Plug-In . SVG Version: 6.00 Build 0)  -->
<svg version="1.1" id="Camada_1" xmlns="http://www.w3.org/2000/svg" xmlns:xlink="http://www.w3.org/1999/xlink" x="0px" y="0px"
	 viewBox="0 0 25.5 29.1" style="enable-background:new 0 0 25.5 29.1;" xml:space="preserve">
<style type="text/css">
	.st0{fill:#626161;}
</style>
<g>
	<g>
		<path class="st0" d="M25.5,16.3c0,0.7-0.1,1.3-0.2,2c-0.2,1.1-0.5,2.2-0.9,3.2c-0.3,0.7-0.7,1.4-1.1,2C23,24,22.5,24.5,22.1,25
			c-0.6,0.7-1.4,1.3-2.2,1.8c-0.8,0.6-1.7,1-2.7,1.4c-0.7,0.3-1.4,0.5-2.1,0.6c-0.9,0.2-1.8,0.2-2.7,0.2c-1,0-1.9-0.2-2.9-0.4
			c-0.7-0.2-1.5-0.5-2.1-0.8c-0.6-0.3-1.2-0.6-1.8-1c-0.7-0.5-1.3-1-1.9-1.5c-0.5-0.5-0.9-1-1.3-1.5c-0.5-0.7-1-1.5-1.4-2.3
			c-0.3-0.6-0.5-1.3-0.7-2c-0.1-0.6-0.3-1.1-0.3-1.7C0,17.2,0,16.6,0,16c0-0.8,0.1-1.5,0.2-2.2c0.1-0.7,0.3-1.4,0.6-2
			c0.2-0.6,0.5-1.1,0.8-1.7c0.6-1,1.2-1.9,2-2.7c0.6-0.6,1.3-1.2,2-1.7c0.2-0.2,0.5-0.2,0.7-0.3C7.5,5.2,8.6,6,8.7,7
			c0.1,0.8-0.2,1.4-0.8,1.9c-0.3,0.2-0.7,0.5-1,0.8c-0.4,0.3-0.7,0.7-1.1,1.1c-0.6,0.7-1,1.5-1.3,2.3c-0.3,0.7-0.4,1.3-0.5,2
			c-0.1,0.6-0.1,1.2-0.1,1.8c0,0.7,0.2,1.4,0.4,2.1c0.2,0.7,0.6,1.4,1,2.1c0.4,0.6,0.9,1.2,1.5,1.7c0.5,0.5,1.1,0.9,1.7,1.2
			c0.8,0.4,1.6,0.7,2.5,0.9c0.7,0.1,1.4,0.2,2.2,0.2c0.8,0,1.5-0.2,2.3-0.4c0.7-0.2,1.4-0.6,2.1-1c0.7-0.4,1.3-1,1.8-1.6
			c0.3-0.4,0.6-0.7,0.9-1.1c0.3-0.5,0.6-1,0.8-1.6c0.2-0.5,0.3-1,0.4-1.5c0.1-0.8,0.2-1.5,0.1-2.3c-0.1-0.8-0.2-1.6-0.5-2.3
			c-0.2-0.5-0.4-1-0.7-1.4c-0.2-0.4-0.5-0.8-0.8-1.2c-0.4-0.4-0.8-0.8-1.2-1.2c-0.3-0.2-0.5-0.4-0.8-0.6c-0.5-0.4-0.8-1-0.8-1.7
			c0-1.1,1.1-2,2.2-1.9c0.4,0,0.7,0.2,1,0.4c0.6,0.4,1.1,0.8,1.6,1.3c0.3,0.3,0.7,0.7,1,1c0.4,0.5,0.8,1,1.1,1.6
			c0.3,0.6,0.6,1.1,0.9,1.7c0.3,0.8,0.5,1.5,0.7,2.3c0.1,0.7,0.2,1.4,0.2,2C25.5,16,25.5,16.1,25.5,16.3z"/>
		<path class="st0" d="M10.8,7.8c0-1.9,0-3.9,0-5.8c0-1,0.7-1.8,1.7-2c1.1-0.2,2.2,0.6,2.3,1.7c0,0.1,0,0.2,0,0.2c0,2.2,0,4.5,0,6.7
			c0,1.3,0,2.6,0,3.9c0,0.4,0,0.8,0,1.1c-0.1,0.9-0.8,1.7-1.7,1.8c-1.1,0.1-2-0.6-2.2-1.7c0-0.3,0-0.6,0-0.9
			C10.8,11.2,10.8,9.5,10.8,7.8C10.8,7.8,10.8,7.8,10.8,7.8z"/>
	</g>
</g>
<g>
</g>
<g>
</g>
<g>
</g>
<g>
</g>
<g>
</g>
<g>
</g>
</svg>
