<?xml version="1.0" encoding="utf-8"?>
<!-- Generator: Adobe Illustrator 25.2.1, SVG Export Plug-In . SVG Version: 6.00 Build 0)  -->
<svg version="1.1" id="Camada_1" xmlns="http://www.w3.org/2000/svg" xmlns:xlink="http://www.w3.org/1999/xlink" x="0px" y="0px"
	 viewBox="0 0 52 53.2" style="enable-background:new 0 0 52 53.2;" xml:space="preserve">
<style type="text/css">
	.st0{fill:#FFFFFF;}
</style>
<path class="st0" d="M5.1,53.2c0.8-1.1,1.4-2.1,2.1-3.1c0.6-0.8,1.1-1.7,1.2-2.7c0.1-1,0-1.9-0.6-2.7c-0.9-1.2-1.8-2.3-2.7-3.4
	c-2.4-3.2-4-6.7-4.7-10.6c-1.1-6.8-0.2-13.2,3.7-19c3.4-5,7.9-8.6,13.7-10.5c4.3-1.4,8.7-1.6,13.2-0.8C40.4,2.2,48.7,9.8,51.1,19
	c0.9,3.5,1.2,7.1,0.6,10.7c-0.4,2.7-1.1,5.2-2.3,7.6c-2.5,4.8-6,8.6-10.7,11.3c-3.7,2.2-7.7,3.3-12,3.3c-2.7,0-5.3-0.1-7.9-0.9
	c-0.3-0.1-0.5-0.1-0.7-0.2c-1.4-0.7-2.7-0.4-4,0.2c-2,0.9-4.1,1.7-6.4,2C6.9,53,6.1,53.1,5.1,53.2z M25.8,34.7
	C25.8,34.7,25.8,34.7,25.8,34.7c0.7,0,1.5,0,2.2,0c0.4,0,0.5-0.1,0.5-0.5c0-1.1,0-2.1,0.1-3.2c0-1.4,0.5-2.6,1.7-3.6
	c0.8-0.7,1.6-1.4,2.4-2.1c1.1-1,2.1-2,3.1-3.1c1.1-1.3,1.9-2.8,1.9-4.5c-0.1-3-1.5-5.5-3.9-7.3c-1.5-1.1-3.2-1.7-5-2
	C25.4,8,22.1,8.2,19.2,10c-2.7,1.6-4.3,4-4.8,7.1c-0.1,0.5,0,0.8,0.6,0.8c1.3,0.1,2.7,0.3,4,0.5c0.9,0.1,0.9,0.2,1.2-0.7
	c1-3.5,3.5-4.8,6.8-4.6c0.9,0.1,1.8,0.3,2.6,0.8c2,1.3,2.7,3.6,1.6,5.5c-0.4,0.7-1.1,1.3-1.7,1.8c-1.3,1.3-2.8,2.4-4.1,3.7
	c-0.8,0.8-1.5,1.7-1.8,2.9C23.1,29.8,23,32,23,34.3c0,0.3,0.1,0.4,0.4,0.4C24.2,34.7,25,34.7,25.8,34.7z M26.1,38.7
	c-1.6,0-3,1.4-3,3c0,1.4,1.4,2.8,2.8,2.8c1.5,0,2.9-1.4,2.9-2.8C28.9,40.2,27.4,38.7,26.1,38.7z"/>
<g>
</g>
<g>
</g>
<g>
</g>
<g>
</g>
<g>
</g>
<g>
</g>
<g>
</g>
<g>
</g>
<g>
</g>
<g>
</g>
<g>
</g>
<g>
</g>
<g>
</g>
<g>
</g>
<g>
</g>
</svg>
