<?xml version="1.0" encoding="utf-8"?>
<!-- Generator: Adobe Illustrator 25.2.1, SVG Export Plug-In . SVG Version: 6.00 Build 0)  -->
<svg version="1.1" id="Camada_1" xmlns="http://www.w3.org/2000/svg" xmlns:xlink="http://www.w3.org/1999/xlink" x="0px" y="0px"
	 viewBox="0 0 110.5 110.5" style="enable-background:new 0 0 110.5 110.5;" xml:space="preserve">
<style type="text/css">
	.st0{fill:#12C6AF;}
	.st1{fill:#FFFFFF;}
</style>
<circle class="st0" cx="55.3" cy="55.3" r="55.3"/>
<path class="st1" d="M22,63.8c2.6,0,5.3,0,8,0c0-5.7,0-11.5,0-17.2c8,0,16,0,24,0c0-4.5,0-8.8,0-13.3c-3.5,0-7,0-10.6,0
	c0-5.4,0-10.7,0-16c7.9,0,15.9,0,23.9,0c0,5.3,0,10.6,0,15.9c-3.5,0-7,0-10.6,0c0,4.5,0,8.8,0,13.3c8,0,15.9,0,23.9,0
	c0,5.8,0,11.5,0,17.3c2.7,0,5.3,0,8,0c0,5.4,0,10.7,0,16c-6.2,0-12.4,0-18.6,0c0-5.3,0-10.6,0-15.9c2.7,0,5.3,0,7.9,0
	c0-4.9,0-9.7,0-14.6c-7.1,0-14.1,0-21.2,0c0,4.8,0,9.7,0,14.6c2.6,0,5.2,0,7.9,0c0,5.3,0,10.6,0,15.9c-6.2,0-12.3,0-18.6,0
	c0-5.3,0-10.5,0-15.9c2.6,0,5.3,0,7.9,0c0-4.9,0-9.7,0-14.6c-7.1,0-14.1,0-21.2,0c0,4.8,0,9.7,0,14.6c2.6,0,5.2,0,7.9,0
	c0,5.4,0,10.6,0,15.9c-0.2,0-0.3,0-0.5,0c-5.9,0-11.9,0-17.8,0c-0.1,0-0.2,0-0.3,0C22,74.4,22,69.1,22,63.8z M46,30.5
	c6.2,0,12.4,0,18.6,0c0-3.5,0-7,0-10.6c-6.2,0-12.4,0-18.6,0C46,23.4,46,26.9,46,30.5z M37.9,77.1c0-3.6,0-7.1,0-10.6
	c-4.4,0-8.8,0-13.2,0c0,3.6,0,7.1,0,10.6C29.1,77.1,33.5,77.1,37.9,77.1z M72.6,66.5c0,3.6,0,7.1,0,10.6c4.4,0,8.8,0,13.3,0
	c0-3.6,0-7.1,0-10.6C81.5,66.5,77.1,66.5,72.6,66.5z M61.9,77.1c0-3.6,0-7.1,0-10.6c-4.4,0-8.8,0-13.2,0c0,3.5,0,7,0,10.6
	C53.1,77.1,57.5,77.1,61.9,77.1z"/>
</svg>
