<?xml version="1.0" encoding="utf-8"?>
<!-- Generator: Adobe Illustrator 25.2.1, SVG Export Plug-In . SVG Version: 6.00 Build 0)  -->
<svg version="1.1" id="Camada_1" xmlns="http://www.w3.org/2000/svg" xmlns:xlink="http://www.w3.org/1999/xlink" x="0px" y="0px"
	 viewBox="0 0 77.9 77.9" style="enable-background:new 0 0 77.9 77.9;" xml:space="preserve">
<style type="text/css">
	.st0{fill:#12C6AF;}
	.st1{fill:#FFFFFF;}
</style>
<circle class="st0" cx="39" cy="39" r="39"/>
<g>
	<path class="st1" d="M38.8,54.1c-5.3,0-9.5-1.9-12.8-5.5l3.7-3.5c2.4,2.8,5.3,4.4,9.1,4.4c6.1,0,8.1-3,8.1-5.4c0-3-2.2-5.3-7.4-5.7
		c-1.4-0.1-5.7-0.2-5.7-0.2v-4.5c0,0,4.3-0.1,5.5-0.2c5.4-0.5,6.9-3.1,6.9-5.1c0-2.1-1.5-4.3-7.4-4.3c-3.6,0-6.5,1.4-8.8,4.1
		l-3.7-3.6c3.3-3.5,7.3-5.2,12.4-5.2c9,0,12.6,4.3,12.6,8.9c0,3.3-2.2,5.8-5.5,7.4v0.1C49.6,37,52,40.1,52,44
		C52,49,48.2,54.1,38.8,54.1z"/>
</g>
</svg>
