<?xml version="1.0" encoding="utf-8"?>
<!-- Generator: Adobe Illustrator 25.2.1, SVG Export Plug-In . SVG Version: 6.00 Build 0)  -->
<svg version="1.1" id="Camada_1" xmlns="http://www.w3.org/2000/svg" xmlns:xlink="http://www.w3.org/1999/xlink" x="0px" y="0px"
	 viewBox="0 0 110.5 110.5" style="enable-background:new 0 0 110.5 110.5;" xml:space="preserve">
<style type="text/css">
	.st0{fill:#12C6AF;}
	.st1{fill:#FFFFFF;}
</style>
<circle class="st0" cx="55.3" cy="55.3" r="55.3"/>
<g>
	<path class="st1" d="M24.7,55.8c0-2,0-4,0-6.1c0,0.5,0.1,1,0.1,1.4c0-5.2,1.7-9.9,4.3-14.3s6.2-7.9,10.7-10.5
		c4.4-2.6,9.2-4,14.4-4.2c11.8-0.4,25.6,6.5,30.3,21.6c1.9,6.1,1.9,12.2-0.1,18.3c-2,6-5.4,11.1-10.5,14.9c-5.1,3.8-10.7,6-17.1,6.3
		c0.3,0,0.6,0.1,0.9,0.1c-1.8,0-3.6,0-5.4,0c0.3,0,0.6-0.1,0.8-0.1c0.3,0,0.5,0,0.8,0v-0.1c-0.1,0-0.1,0-0.2,0
		c-1.2-0.1-2.5-0.2-3.7-0.4c-1.7-0.3-3.3-0.7-4.9-1.3c-4.3-1.6-8.2-3.9-11.5-7.2c-3.4-3.4-5.8-7.5-7.4-12.1
		c-0.9-2.6-1.4-5.2-1.3-7.9v-0.1c-0.1,0.1-0.1,0.1-0.1,0.2C24.8,54.9,24.7,55.4,24.7,55.8z M55.3,79.7c14.6,0.1,27.3-12.1,27-27.5
		C81.9,37.7,70,25.9,55.4,25.8C40.4,25.6,28,38,28.3,53.2C28.7,68.3,40.9,79.6,55.3,79.7z"/>
	<path class="st1" d="M57.1,43.6c0,2.8,0,5.7,0,8.5c0,0.2,0.1,0.4,0.2,0.6c2.4,2.4,4.8,4.8,7.1,7.2c0.7,0.7,1.3,1.3,2,2
		c0.7,0.8,0.7,1.8,0.1,2.5c-0.5,0.5-1.7,0.8-2.5,0.1c-0.8-0.8-1.6-1.5-2.3-2.3c-2.5-2.5-4.9-4.9-7.4-7.4c-0.6-0.6-0.9-1.2-0.9-2
		s0-1.7,0-2.5c0-4.9,0-9.9,0-14.8c0-0.3,0-0.7,0.1-1c0.2-0.8,1-1.3,1.9-1.2s1.6,0.8,1.7,1.7c0,0.5,0,1,0,1.4
		C57.1,38.8,57.1,41.2,57.1,43.6L57.1,43.6z"/>
</g>
</svg>
