<?xml version="1.0" encoding="utf-8"?>
<!-- Generator: Adobe Illustrator 25.2.1, SVG Export Plug-In . SVG Version: 6.00 Build 0)  -->
<svg version="1.1" id="Camada_1" xmlns="http://www.w3.org/2000/svg" xmlns:xlink="http://www.w3.org/1999/xlink" x="0px" y="0px"
	 viewBox="0 0 113.8 111.3" style="enable-background:new 0 0 113.8 111.3;" xml:space="preserve">
<style type="text/css">
	.st0{fill:#12C6AF;stroke:#12C6AF;stroke-miterlimit:10;}
</style>
<g>
	<path class="st0" d="M0.5,96.1c0.1,0,0.1-0.1,0.2-0.1C1.1,94.9,2,94.7,3,94.8c0.5,0,1.1,0,1.6,0c0.4,0,0.6-0.1,0.6-0.6
		c0-0.4,0-0.9,0-1.3c0-18.9,0-37.9,0-56.8c0-2.9,1-5.3,3.4-7c1.3-1,2.8-1.5,4.4-1.5c1.1,0,2.1,0,3.2,0c0.2,0,0.4,0,0.6,0
		c-0.2-0.9-0.4-1.7-0.5-2.5c-0.1-2.8,1-4.9,3.5-6.3c6.5-3.5,13.1-7,19.7-10.5c4.1-2.2,8.1-4.3,12.2-6.5C55.3,0,58.9,0.1,62.5,2
		c1.3,0.7,2.6,1.4,3.9,2c0.7,0.4,1.2,0.9,1.1,1.7c-0.1,1.1-1.1,1.8-2.1,1.3c-1.5-0.7-3-1.6-4.5-2.3c-2.6-1.4-5.2-1.4-7.9,0
		c-4.2,2.2-8.4,4.4-12.5,6.7c-4.6,2.4-9.1,4.8-13.7,7.3c-1.8,0.9-3.6,1.9-5.4,2.9c-2.5,1.4-2.6,4.5-0.2,6.1c1.3,0.8,2.7,1.5,4.1,2.3
		c4,2.1,7.9,4.2,11.9,6.2c3.5,1.8,7,3.7,10.5,5.6c2.1,1.1,4.2,2.2,6.3,3.3c1.9,0.9,3.9,0.9,5.8,0c2.8-1.4,5.6-2.9,8.4-4.3
		c0.1,0,0.2-0.1,0.3-0.2c-0.3-0.3-0.5-0.6-0.8-0.9c-3.9-4.5-7.9-9-11.8-13.5c-0.7-0.8-0.8-1.6-0.2-2.3c0.4-0.5,1.3-0.7,1.9-0.4
		c0.3,0.1,0.5,0.3,0.7,0.6c2.4,2.7,4.8,5.5,7.2,8.2c1.9,2.2,3.8,4.3,5.7,6.5c0.2,0.3,0.4,0.3,0.7,0.1c5.4-2.9,10.8-5.8,16.2-8.6
		c1.4-0.8,2.9-1.5,4.3-2.3c1.3-0.7,1.9-1.8,1.9-3.2c0-1.4-0.8-2.4-2-3.1c-3.7-2-7.5-4-11.2-5.9c-3-1.6-6-3.2-9-4.8
		c-0.5-0.3-1-0.5-1.4-0.8c-0.6-0.4-0.7-1-0.6-1.7c0.2-0.7,0.7-1.1,1.3-1.1c0.4,0,0.8,0.1,1.1,0.3c1.9,1,3.8,2,5.8,3
		c4.4,2.3,8.7,4.6,13.1,6.9c1.1,0.6,2.2,1.1,3.2,1.8c2.6,1.7,3.6,5.1,2.4,8c0,0.1-0.1,0.2-0.1,0.4c0.4,0,0.6,0,0.9,0
		c1.4,0,2.9-0.1,4.3,0.1c3.8,0.5,6.3,4.1,6.5,7.2c0.1,1,0,1.9,0,2.9c0,18.6,0,37.1,0,55.7c0,1.5-0.1,1.3,1.3,1.3c0.5,0,1.1,0,1.6,0
		c0.9,0.1,1.6,0.6,1.6,1.5c0.1,2.5,0.2,4.9-0.6,7.3c-1.5,4.3-5.4,7-10.1,7.2c-0.9,0-1.8,0-2.7,0c-29.1,0-58.2,0-87.3,0
		c-2.7,0-5.3-0.5-7.5-2.1c-1.9-1.4-3.2-3.2-3.9-5.5c-0.2-0.7,0-1.6-0.2-2.3c-0.1,0.5-0.3,1.1-0.4,1.6C0.5,100.3,0.5,98.2,0.5,96.1z
		 M85.4,35.1c0,0.1,0,0.1,0.1,0.2c0.1,0,0.2,0,0.3,0c3.5,0,7.1-0.1,10.6-0.1c0.9,0,1.8,0,2.6,0c1.2,0,1.8,0.6,1.8,1.8
		c0,0.9,0.1,1.9,0.1,2.8c0,15.9,0,31.8,0,47.6c0,0.4,0,0.9,0,1.3c-0.1,1-0.6,1.5-1.6,1.5c-0.4,0-0.8,0-1.3,0c-22.4,0-44.8,0-67.2,0
		c-0.5,0-0.9,0-1.4-0.1c-0.9-0.2-1.4-0.8-1.4-1.6c0.1-0.9,0.5-1.4,1.5-1.5c0.5,0,0.9,0,1.4,0c3.4,0,6.9,0,10.3,0
		c18.6,0,37.2,0,55.8,0c0.5,0,0.6-0.2,0.6-0.6c0-7.1,0-14.2,0-21.4c0-8.7,0-17.3,0-26c0-0.5-0.2-0.7-0.7-0.7c-4.6,0-9.2,0-13.8,0
		c-0.1,0-0.3,0-0.5,0.1c0,1.7,0,3.3,0,4.9c0,1.3,0.1,2.6-0.2,3.8c-1,5.1-3.7,9.1-8.6,11.3c-1.1,0.5-1.6,1.1-1.4,2.3
		c0.1,0.8,0,1.5,0.5,2.2c1.1,1.8,2.1,3.6,3.1,5.5c1.3,2.6,0.2,5.4-2.5,6.6c-1.4,0.6-3,0.6-4.4,0.2c-3.2-0.8-4.7-4.4-3-7.3
		c1-1.8,2.1-3.5,3.1-5.3c0.4-0.8,0.2-1.6,0.3-2.4c-0.2,0-0.3,0-0.3,0c-1.6,0.4-3.3,0.8-4.9,1.1c-4.3,0.8-8.6,0.9-12.9,0.3
		c-4.1-0.6-8.1-1.5-11.9-3.4C34.1,55.5,31.3,51,31,45c-0.1-2.1,0-4.2,0-6.3c0-0.5-0.1-0.6-0.6-0.6c-4.2,0-8.4,0-12.7,0
		c-0.5,0-1.3-0.2-1.6,0.1c-0.3,0.3-0.1,1.1-0.1,1.6c0,0,0,0,0,0.1c0,15.4,0,30.7,0,46.1c0,0.6,0.2,0.7,0.7,0.7c2.1,0,4.3,0,6.4,0
		c1.2,0,1.8,1,1.5,2.1c-0.2,0.7-0.9,1.1-1.7,1.2c-2.7,0-5.3,0-8,0c-1.5,0-2.1-0.6-2.1-2.1c0-16.2,0-32.4,0-48.6c0-1,0-2,0-2.9
		c0-0.8,0.4-1.2,1.1-1.4c0.3-0.1,0.6-0.1,0.9-0.1c4,0,8,0,12,0c0.4,0,0.9,0,1.5,0c-0.2-0.2-0.3-0.3-0.4-0.4
		c-2.4-1.3-4.8-2.6-7.3-3.9c-0.2-0.1-0.5-0.2-0.7-0.2c-2.4,0-4.9,0-7.3,0c-1.6,0-2.8,0.8-3.6,2.1c-0.6,1-0.7,2-0.7,3.1
		c0,16.4,0,32.7,0,49.1c0,3,0,6,0,9c0,0.5,0.2,0.7,0.7,0.7c0.4,0,0.9,0,1.3,0c31.5,0,63,0,94.5,0c0.5,0,0.6-0.2,0.6-0.6
		c0-11.6,0-23.2,0-34.8c0-8.1,0-16.1,0-24.2c0-2.4-1.9-4.3-4.3-4.3c-1.7,0-3.4,0.1-5.1,0c-1.8-0.1-3.4,0.2-4.9,1.2
		c-0.7,0.5-1.5,0.8-2.3,1.2C87.7,33.8,86.5,34.5,85.4,35.1z M110,98c-0.9,0-1.9,0-2.8,0c-11.8,0-23.6,0-35.3,0c-1.3,0-1.3,0-1.8,1.2
		c-1.2,3.1-4,5.1-7.6,5.1c-3.8,0-7.5,0-11.3,0c-0.9,0-1.8-0.1-2.6-0.4c-2.7-0.9-4.5-2.8-5.2-5.6c-0.1-0.3-0.2-0.4-0.6-0.4
		c-0.7,0-1.4,0-2.1,0c-12.2,0-24.4,0-36.6,0c-0.3,0-0.4,0.1-0.4,0.4c0,0.6,0,1.2,0,1.8c0,1.2,0.3,2.3,0.9,3.3
		c1.6,2.6,3.9,3.9,6.9,3.9c16.8,0,33.5,0,50.3,0c13.3,0,26.6,0,40,0c1.1,0,2.3-0.1,3.3-0.5C108.7,105.8,110.6,102.1,110,98z
		 M69.5,43.5c-0.3,0.1-0.6,0.2-0.8,0.4c-2.2,1.2-4.5,2.4-6.7,3.5c-3.5,1.8-6.9,1.7-10.4-0.1c-4.9-2.6-9.7-5.1-14.5-7.7
		c-1-0.5-1.9-1-3-1.5c0,0.2-0.1,0.3-0.1,0.4c0,2.2,0,4.3,0,6.5c0,1.9,0.4,3.7,1.3,5.4c1.8,3.5,4.8,5.4,8.4,6.6c3,1,6.1,1.7,9.3,2
		c3.5,0.3,6.9,0.2,10.3-0.3c1.9-0.3,3.8-0.9,5.7-1.3c0.4-0.1,0.5-0.3,0.5-0.7c0-4.2,0-8.4,0-12.5C69.6,43.8,69.5,43.7,69.5,43.5z
		 M79.7,38.1c-0.5,0.2-0.9,0.4-1.2,0.6c-1.8,0.9-3.5,1.9-5.3,2.8c-0.4,0.2-0.5,0.4-0.5,0.9c0,4.2,0,8.5,0,12.7c0,0.2,0,0.4,0,0.7
		c0.2-0.1,0.3-0.1,0.5-0.2c3.3-2,5.7-4.6,6.2-8.5C79.8,44.1,79.6,41.2,79.7,38.1z M67.1,98.1c-0.2,0-0.4,0-0.5,0
		c-3.4,0-6.9-0.1-10.3-0.1c-3,0-5.9,0-8.9,0c-0.6,0-0.7,0.1-0.4,0.7c0.7,1.2,1.6,2.1,3,2.3c0.6,0.1,1.3,0.1,1.9,0.1
		c2.6,0,5.3,0,7.9,0c1.3,0,2.7,0,4-0.1c1.6-0.1,2.5-1.2,3.3-2.4C67.1,98.5,67,98.3,67.1,98.1z M71.2,66.1c-0.1,0-0.1,0-0.2,0
		c-0.7,1.3-1.5,2.7-2.2,4c-0.4,0.9,0.2,2,1.2,2.2c0.6,0.1,1.3,0.2,2,0.1c1.3-0.1,2.1-1.3,1.5-2.4C72.8,68.7,72,67.4,71.2,66.1z"/>
	<path class="st0" d="M39.2,82.6c-5.3,0-10.7,0-16,0c-0.4,0-0.8,0-1.1-0.1c-0.6-0.2-1.1-1-1.1-1.6c0.1-0.7,0.7-1.3,1.4-1.4
		c0.4-0.1,0.8-0.1,1.2-0.1c10.5,0,20.9,0,31.4,0c0.4,0,0.7,0,1.1,0.1c0.9,0.2,1.3,0.9,1.2,1.9c-0.1,0.8-0.7,1.3-1.5,1.3
		c-1.7,0-3.4,0-5.1,0C46.9,82.6,43,82.6,39.2,82.6L39.2,82.6z"/>
	<path class="st0" d="M33.7,75.6c-3.6,0-7.1,0-10.7,0c-0.4,0-0.9-0.1-1.2-0.3c-0.5-0.4-0.8-0.9-0.6-1.6c0.2-0.7,0.7-1.1,1.5-1.3
		c0.1,0,0.2,0,0.4,0c7.2,0,14.3,0,21.5,0c1,0,1.6,0.4,1.8,1.3s-0.3,1.8-1.3,1.9c-0.5,0.1-1,0-1.6,0C40.2,75.6,37,75.6,33.7,75.6
		L33.7,75.6z"/>
</g>
</svg>
