<?xml version="1.0" encoding="utf-8"?>
<!-- Generator: Adobe Illustrator 25.2.1, SVG Export Plug-In . SVG Version: 6.00 Build 0)  -->
<svg version="1.1" id="Camada_1" xmlns="http://www.w3.org/2000/svg" xmlns:xlink="http://www.w3.org/1999/xlink" x="0px" y="0px"
	 viewBox="0 0 23.8 26.4" style="enable-background:new 0 0 23.8 26.4;" xml:space="preserve">
<style type="text/css">
	.st0{fill:#FFFFFF;}
</style>
<g>
	<path class="st0" d="M12.9,1.8c0,0.3,0,0.6,0,0.8c2.8,0.3,4.7,1.3,6,2.3c0.3-0.4,0.7-0.7,1.1-1.1c-0.2-0.1-0.3-0.3-0.5-0.5
		c-0.2-0.3-0.3-0.6-0.2-1c0.2-0.4,0.5-0.5,0.9-0.5c0.3,0,0.5,0.1,0.7,0.3c0.3,0.3,0.6,0.6,0.9,0.9c0.4,0.4,0.8,0.8,1.2,1.2
		c0.2,0.3,0.3,0.5,0.3,0.9c-0.1,0.6-0.8,0.9-1.3,0.5c-0.2-0.1-0.4-0.3-0.5-0.5c0,0-0.1-0.1-0.1-0.1c-0.3,0.3-0.7,0.6-1,1
		c0,0,0,0.1,0,0.1c1.4,1.4,2.4,3.1,2.9,4.9c0.4,1.4,0.6,2.8,0.5,4.3c-0.2,2.3-1,4.4-2.4,6.3c-1.1,1.5-2.6,2.7-4.3,3.5
		c-1,0.5-2.1,0.8-3.2,1c-3.1,0.5-5.9-0.1-8.5-1.8c-2.6-1.7-4.2-4.1-5-7.1C0,16.1-0.1,14.9,0,13.7c0.2-3.2,1.5-5.8,3.8-7.9
		c1.6-1.4,3.4-2.4,5.5-2.8c0.5-0.1,1-0.2,1.5-0.2c0.1,0,0.1,0,0.1-0.1c0-0.2,0-0.4,0-0.6c0-0.1-0.1-0.1-0.2-0.1c-0.6,0-1.2,0-1.8,0
		c-0.1,0-0.2,0-0.3,0c-0.5,0-0.9-0.5-0.9-0.9c0-0.5,0.4-0.8,0.8-0.9c0.1,0,0.1,0,0.2,0c2,0,4,0,6,0c0.5,0,0.8,0.3,0.9,0.7
		c0.2,0.6-0.3,1.1-0.9,1.2c-0.6,0-1.3,0-1.9,0C13,1.8,12.9,1.8,12.9,1.8z M11.9,4.5C6.4,4.5,1.8,8.9,1.8,14.6c0,5.6,4.5,10,10,10
		c5.6,0,10.1-4.5,10.1-10.1C21.9,8.9,17.4,4.5,11.9,4.5z"/>
	<path class="st0" d="M12.8,13.4c0.1,0,0.1,0,0.2,0c0.9,0,1.8,0,2.7,0c0.3,0,0.6,0,0.9,0.3c0.2,0.3,0.4,0.6,0.2,1
		c-0.1,0.4-0.5,0.6-0.9,0.6c-1.3,0-2.7,0-4,0c-0.5,0-0.9-0.3-0.9-0.8c0-0.2,0-0.3,0-0.5c0-1.8,0-3.5,0-5.3c0-0.4,0.2-0.8,0.6-0.9
		c0.6-0.3,1.2,0.1,1.3,0.8c0,0.2,0,0.4,0,0.6c0,1.4,0,2.8,0,4.2C12.8,13.3,12.8,13.4,12.8,13.4z"/>
</g>
<g>
</g>
<g>
</g>
<g>
</g>
<g>
</g>
<g>
</g>
<g>
</g>
<g>
</g>
<g>
</g>
<g>
</g>
<g>
</g>
<g>
</g>
<g>
</g>
<g>
</g>
<g>
</g>
<g>
</g>
</svg>
