<?xml version="1.0" encoding="utf-8"?>
<!-- Generator: Adobe Illustrator 25.2.1, SVG Export Plug-In . SVG Version: 6.00 Build 0)  -->
<svg version="1.1" id="Camada_1" xmlns="http://www.w3.org/2000/svg" xmlns:xlink="http://www.w3.org/1999/xlink" x="0px" y="0px"
	 viewBox="0 0 20.3 24.1" style="enable-background:new 0 0 20.3 24.1;" xml:space="preserve">
<style type="text/css">
	.st0{fill:#FFFFFF;}
</style>
<g>
	<path class="st0" d="M10.2,0C10.2,0,10.2,0,10.2,0c0.4,0.1,0.6,0.3,0.8,0.6c1.4,1.3,3.1,2.2,5,2.6c1.1,0.2,2.1,0.3,3.2,0.3
		c0.4,0,0.7,0.1,0.8,0.4c0.1,0.2,0.1,0.3,0.1,0.5c0,1.5,0.1,3,0.1,4.5c0,0.9-0.1,1.9-0.2,2.8C20,12.9,19.8,14,19.5,15
		c-0.9,3.1-2.7,5.6-5.5,7.3c-1.1,0.7-2.2,1.2-3.4,1.6c-0.3,0.1-0.6,0.1-0.9,0c-1.5-0.6-3-1.3-4.3-2.2c-2-1.5-3.4-3.4-4.3-5.7
		c-0.4-1.1-0.6-2.2-0.8-3.3C0,10.9,0,9,0,7.1c0-0.9,0-1.8,0.1-2.7c0-0.6,0.3-0.9,0.9-0.9c1.4,0,2.8-0.2,4.1-0.6
		c1.6-0.5,3-1.3,4.2-2.5C9.6,0.3,9.7,0.1,10,0c0,0,0,0,0.1,0C10.1,0,10.2,0,10.2,0z M18.6,5.2c0,0-0.1,0-0.1,0c-1,0-2-0.2-2.9-0.4
		c-2-0.5-3.7-1.4-5.3-2.7C10.2,2,10.1,2,10.1,2C8.4,3.5,6.4,4.4,4.2,4.9C3.4,5,2.6,5.1,1.8,5.2c0,0-0.1,0-0.1,0c0,0.1,0,0.1,0,0.1
		c0,0.8,0,1.5,0,2.3c0,1.5,0,2.9,0.2,4.4c0.1,0.9,0.3,1.8,0.5,2.7C3,16.9,4.2,18.7,6,20.2c1.2,0.9,2.5,1.6,3.9,2.2
		c0.1,0.1,0.2,0.1,0.4,0c1-0.4,2-0.8,2.9-1.4c2.2-1.4,3.7-3.2,4.5-5.7c0.4-1.2,0.7-2.5,0.8-3.8c0.1-0.8,0.1-1.5,0.1-2.3
		c0-1.3,0-2.6,0-3.9C18.6,5.3,18.6,5.2,18.6,5.2z"/>
	<path class="st0" d="M9,13.2c0.8-0.8,1.6-1.6,2.3-2.3c0.6-0.6,1.2-1.2,1.7-1.7c0.2-0.2,0.4-0.3,0.6-0.3c0.4,0,0.6,0.2,0.8,0.5
		c0.2,0.3,0.1,0.6-0.2,0.9c-0.4,0.4-0.8,0.8-1.2,1.2c-1.1,1.1-2.2,2.2-3.4,3.4c-0.1,0.1-0.1,0.1-0.2,0.2c-0.3,0.3-0.7,0.3-1,0
		c-0.3-0.2-0.5-0.5-0.8-0.8c-0.5-0.5-1.1-1.1-1.6-1.6c-0.5-0.5-0.2-1.2,0.3-1.4c0.3-0.1,0.6,0,0.8,0.2c0.4,0.3,0.7,0.7,1.1,1.1
		C8.5,12.8,8.7,13,9,13.2z"/>
</g>
<g>
</g>
<g>
</g>
<g>
</g>
<g>
</g>
<g>
</g>
<g>
</g>
<g>
</g>
<g>
</g>
<g>
</g>
<g>
</g>
<g>
</g>
<g>
</g>
<g>
</g>
<g>
</g>
<g>
</g>
</svg>
