<?xml version="1.0" encoding="utf-8"?>
<!-- Generator: Adobe Illustrator 25.2.1, SVG Export Plug-In . SVG Version: 6.00 Build 0)  -->
<svg version="1.1" id="Camada_1" xmlns="http://www.w3.org/2000/svg" xmlns:xlink="http://www.w3.org/1999/xlink" x="0px" y="0px"
	 viewBox="0 0 27 26" style="enable-background:new 0 0 27 26;" xml:space="preserve">
<g>
	<path d="M19.1,17.3c0.1,0,0.1,0,0.2,0c1.5,0,3,0,4.5,0c1.7,0,2.8-1.1,3.1-2.1c0.4-1,0.3-2.1-0.3-3c-0.1-0.2-0.2-0.4-0.4-0.5
		c-0.1-0.1-0.1-0.1,0-0.2c0.4-1.1,0.3-2.2-0.3-3.2c-0.1-0.2-0.1-0.3-0.1-0.5c0.2-1.2-0.1-2.3-0.9-3.2c0-0.1-0.1-0.1-0.1-0.2
		c0-0.6,0-1.2-0.2-1.8c-0.4-1.2-1.3-1.9-2.5-2.2C21.6,0.1,21.1,0,20.7,0c-0.8,0-1.7,0-2.5,0c-1.2,0-2.3,0.2-3.4,0.6
		c-1.1,0.3-2.1,0.7-3.1,1c-0.7,0.2-1.3,0.4-2,0.6C9.4,2.2,9.2,2.2,9,2.3C8.4,2.4,8.1,2.8,8.1,3.3c0,0.7,0,1.3,0,2c0,2.7,0,5.4,0,8.1
		c0,0.3,0,0.6,0,0.9c0,0.4,0.5,0.8,0.8,0.8c0.3,0,0.5,0.1,0.7,0.3c0.4,0.4,0.8,0.8,1.2,1.2c0.8,0.9,1.5,1.9,2.3,2.8
		c0.1,0.2,0.3,0.4,0.5,0.5c0.6,0.6,0.9,1.3,1.1,2.1c0.2,0.7,0.3,1.4,0.5,2.1c0.1,0.5,0.4,1,0.7,1.4c0.3,0.3,0.6,0.4,1,0.4
		c0.5,0,1-0.1,1.5-0.3c0.9-0.3,1.5-1,1.8-1.9c0.1-0.4,0.2-0.9,0.3-1.4c0.1-1.4-0.2-2.7-0.8-3.9c-0.2-0.4-0.4-0.7-0.5-1.1
		C19.1,17.4,19.1,17.4,19.1,17.3z"/>
	<path d="M7,14c0,0.4-0.2,0.8-0.5,1c-0.2,0.1-0.5,0.2-0.7,0.2c-1.5,0-3,0-4.5,0c-0.1,0-0.2,0-0.3,0c-0.5,0-0.9-0.5-0.9-1
		c0-0.3,0-0.6,0-0.9c0-3.3,0-6.7,0-10c0-0.2,0-0.5,0.2-0.7c0.2-0.3,0.6-0.5,1-0.5c1.5,0,3.1,0,4.6,0C6.5,2.2,7,2.7,7,3.4
		c0,1.8,0,3.5,0,5.3C7,10.5,7,12.2,7,14z M3.2,4.3c-0.6,0-1.1,0.5-1.1,1.1c0,0.6,0.5,1.1,1.2,1.1c0.6,0,1.1-0.5,1.1-1.1
		C4.3,4.8,3.8,4.3,3.2,4.3z"/>
</g>
<g>
</g>
<g>
</g>
<g>
</g>
<g>
</g>
<g>
</g>
<g>
</g>
<g>
</g>
<g>
</g>
<g>
</g>
<g>
</g>
<g>
</g>
<g>
</g>
<g>
</g>
<g>
</g>
<g>
</g>
</svg>
