<?xml version="1.0" encoding="utf-8"?>
<!-- Generator: Adobe Illustrator 25.2.1, SVG Export Plug-In . SVG Version: 6.00 Build 0)  -->
<svg version="1.1" id="Camada_1" xmlns="http://www.w3.org/2000/svg" xmlns:xlink="http://www.w3.org/1999/xlink" x="0px" y="0px"
	 viewBox="0 0 44.1 44.3" style="enable-background:new 0 0 44.1 44.3;" xml:space="preserve">
<style type="text/css">
	.st0{fill:#FFFFFF;}
</style>
<g>
	<g>
		<path class="st0" d="M0,44.3c0.3-0.9,0.5-1.8,0.7-2.7C1.5,38.8,2.3,36,3,33.2c0-0.1,0-0.3-0.1-0.4c-1.4-2.5-2.3-5.1-2.6-7.9
			c-0.8-6.4,0.9-12.1,5-17c3-3.6,6.9-6,11.5-7.2C27.6-2,38.7,3.8,42.7,14.1c4.1,10.8-0.8,22.9-11.2,27.8c-3.4,1.6-7,2.3-10.7,2
			c-3.1-0.2-6.1-1-8.9-2.5c-0.2-0.1-0.3-0.1-0.5-0.1c-3.7,1-7.4,2-11.1,2.9C0.2,44.3,0.1,44.3,0,44.3z M5.3,39.1c0.1,0,0.1,0,0.2,0
			c2.1-0.5,4.2-1.1,6.3-1.7c0.4-0.1,0.6,0,0.9,0.2c4.2,2.5,8.7,3.3,13.4,2.3c9.8-2.1,16.1-11.9,13.9-21.8C37.7,8.1,28,1.9,18,4.2
			C12.8,5.4,8.9,8.4,6.3,13C4,16.8,3.4,21,4.2,25.3c0.4,2.5,1.4,4.7,2.8,6.8C7,32.3,7.1,32.4,7,32.6c-0.4,1.6-0.9,3.1-1.3,4.7
			C5.6,37.9,5.4,38.5,5.3,39.1z"/>
		<path class="st0" d="M15,11.8c0.2,0,0.4,0,0.5,0c0.5,0,0.8,0.2,1,0.6c0.3,0.6,0.5,1.1,0.7,1.7c0.4,0.9,0.8,1.8,1.2,2.8
			c0.1,0.3,0.1,0.6,0,1c-0.3,0.7-0.8,1.2-1.4,1.8c-0.4,0.5-0.5,0.7-0.1,1.3c1.4,2.3,3.2,4.2,5.6,5.6c0.6,0.3,1.3,0.6,2,0.9
			c0.4,0.2,0.7,0.1,1-0.2c0.6-0.7,1.1-1.4,1.7-2.1c0.4-0.5,0.6-0.6,1.2-0.4c0.6,0.2,1.1,0.5,1.6,0.7c0.9,0.4,1.9,0.9,2.8,1.3
			c0.4,0.2,0.6,0.4,0.6,0.9c0,0.8-0.2,1.5-0.5,2.2c-0.3,0.6-0.8,1.1-1.4,1.5c-1.7,1.2-3.5,1.4-5.5,0.9c-2.5-0.7-4.8-1.7-6.9-3.3
			c-2.3-1.7-4.1-3.8-5.8-6.1c-0.8-1.1-1.5-2.3-1.9-3.6c-0.8-2.6-0.4-4.8,1.5-6.8c0.5-0.5,1-0.7,1.6-0.7C14.7,11.8,14.8,11.8,15,11.8
			C15,11.8,15,11.8,15,11.8z"/>
	</g>
</g>
<g>
</g>
<g>
</g>
<g>
</g>
<g>
</g>
<g>
</g>
<g>
</g>
<g>
</g>
<g>
</g>
<g>
</g>
<g>
</g>
<g>
</g>
<g>
</g>
<g>
</g>
<g>
</g>
<g>
</g>
</svg>
