<?xml version="1.0" encoding="utf-8"?>
<!-- Generator: Adobe Illustrator 25.2.1, SVG Export Plug-In . SVG Version: 6.00 Build 0)  -->
<svg version="1.1" id="Camada_1" xmlns="http://www.w3.org/2000/svg" xmlns:xlink="http://www.w3.org/1999/xlink" x="0px" y="0px"
	 viewBox="0 0 107.5 107.5" style="enable-background:new 0 0 107.5 107.5;" xml:space="preserve">
<style type="text/css">
	.st0{fill:#12C6AF;}
</style>
<g>
	<g>
		<path class="st0" d="M0,52.7c0.6-1.1,1.6-1.5,2.9-1.5c9.2,0,18.4,0,27.6,0c9.4,0,17.6,3.1,24.5,9.6c6.1,5.7,12.1,11.4,18.2,17.1
			c2.2,2,3.1,4.5,2.7,7.5c0,0.2,0,0.3,0,0.6c0.4,0,0.9,0,1.3,0c7.1-0.1,14.2-0.3,21.3-0.4c5.3-0.1,9.3,4,9.1,9.2
			c-0.2,4.4-3.6,7.7-8.3,8.2c-8.5,1-16.9,2.1-25.4,3.1c-3.1,0.4-6.2,0.7-9.3,1.1c-0.2,0-0.5,0.1-0.7,0.2c-1.1,0-2.1,0-3.2,0
			c-0.3-0.1-0.5-0.1-0.8-0.2c-9.3-0.7-17.6-4-24.8-10C28.9,92,22.7,86.8,16.5,81.5c-0.6-0.5-1.3-0.8-2.1-0.8c-3.8,0-7.6,0-11.4,0
			c-1.3,0-2.3-0.3-3-1.4C0,70.6,0,61.6,0,52.7z M4.3,76.7c0.4,0,0.8,0,1.1,0c3.4,0,6.7,0,10.1,0c1.2,0,2.1,0.4,3,1.1
			c6.1,5.2,12.2,10.3,18.3,15.5c5,4.3,10.7,7.3,17.1,8.8c3.1,0.7,6.3,1.3,9.6,1c4.3-0.4,8.6-1,12.9-1.6c7.6-0.9,15.1-1.8,22.7-2.8
			c2.7-0.3,4.4-2.4,4.2-4.9c-0.2-2.5-2.2-4.2-4.9-4.2c-8.1,0.1-16.2,0.3-24.2,0.5c-0.4,0-0.8,0.2-1.1,0.4c-3,2.4-6.5,2.8-9.9,0.9
			c-1.4-0.8-2.8-1.6-4.2-2.4c-3.8-2.2-7.6-4.3-11.4-6.5c-1.2-0.7-1.6-1.6-1.3-2.7c0.4-1.4,1.9-1.8,3.3-1c2.7,1.5,5.4,3.1,8.1,4.6
			c2.6,1.5,5.1,3,7.8,4.4c2.8,1.5,6-0.2,6.3-3.4c0.1-1.5-0.5-2.7-1.6-3.7c-6-5.6-12-11.3-18-16.9c-6.1-5.7-13.3-8.6-21.6-8.6
			c-8.4,0-16.8,0-25.2,0c-0.4,0-0.7,0-1.2,0C4.3,62.6,4.3,69.6,4.3,76.7z"/>
		<path class="st0" d="M32.5,5c-4.4,8-8.7,15.9-13,24c16.9,9.2,33.8,18.4,50.9,27.7c4.4-8,8.7-15.9,13-24c-1.9-1-3.7-2-5.6-3
			c-3.8-2.1-7.6-4.1-11.4-6.2c-0.6-0.3-1.3-1-1.4-1.6s0.2-1.5,0.7-2c0.6-0.7,1.6-0.7,2.4-0.2c2.4,1.3,4.8,2.6,7.2,3.9
			c3.8,2.1,7.6,4.1,11.4,6.2c1.7,0.9,2,1.9,1.1,3.6C83,42.2,78.1,51.1,73.3,60c-0.9,1.7-1.9,2-3.6,1c-6-3.2-11.8-6.6-17.9-9.7
			C49,49.9,45.9,49,42.9,48c-12.2-3.9-24.4-7.7-36.7-11.6C4.6,36,4,35,4.5,33.4c3.1-9.8,6.2-19.7,9.3-29.5c0.5-1.5,1.5-2,3-1.5
			c3.2,1,6.4,2,9.6,3c0.7,0.2,1,0.1,1.3-0.5c0.6-1.2,1.2-2.3,1.9-3.5c0.8-1.5,1.9-1.8,3.3-1c6,3.2,12,6.5,18,9.8
			c1.4,0.8,1.8,1.9,1.2,3c-0.6,1.2-1.8,1.4-3.3,0.6c-5-2.7-10.1-5.5-15.1-8.2C33.4,5.4,33,5.2,32.5,5z M29.6,39.5
			c0-0.1,0-0.1,0.1-0.2c-0.3-0.2-0.6-0.4-0.9-0.5c-4.2-2.3-8.4-4.6-12.6-6.9c-1.8-1-2.1-1.9-1.1-3.7c3.2-5.9,6.4-11.8,9.6-17.7
			c0.2-0.3,0.3-0.7,0.5-1c-2.7-0.8-5.3-1.7-8-2.5c-2.8,8.7-5.5,17.3-8.2,26C16,35.2,22.8,37.3,29.6,39.5z"/>
		<path class="st0" d="M107.4,66.7c0,2.6-0.1,5.2,0,7.9c0.1,2-0.8,3.4-2.5,4.4c-1.9,1.2-4.1,1.8-6.3,2.1c-4.6,0.7-9.2,0.6-13.7-0.9
			c-0.9-0.3-1.7-0.7-2.5-1.1c-1.8-1-2.7-2.5-2.7-4.7c0.1-5.2,0.1-10.4,0-15.6c0-1.8,0.7-3.2,2.2-4.2c2-1.4,4.4-2,6.8-2.4
			c4.6-0.7,9.1-0.6,13.6,0.9c1,0.3,1.9,0.8,2.7,1.3c1.6,1,2.4,2.4,2.4,4.4C107.3,61.4,107.4,64,107.4,66.7z M84,63
			c0,0.6,0,1.2,0,1.7c0,2.3,0.1,2.4,2.2,3.1c3.2,1.1,6.5,1.3,9.8,0.9c2-0.2,3.9-0.8,5.9-1.4c0.4-0.1,1.1-0.6,1.1-1
			c0.1-1.1,0.1-2.2,0.1-3.3C96.7,65.1,90.4,65.1,84,63z M84.1,71.6c0,0.3,0,0.5-0.1,0.8c0,3.2,0.1,3.3,3.1,4.2
			c2.9,0.8,5.9,1,8.8,0.6c2.1-0.2,4.1-0.9,6.2-1.5c0.4-0.1,0.9-0.6,0.9-1c0.1-1,0-2.1,0-3.2C96.7,73.6,90.4,73.6,84.1,71.6z
			 M102.9,58.2c-2.9-2.9-15.7-2.9-18.7,0C87.3,61.1,100,61.1,102.9,58.2z"/>
		<path class="st0" d="M43.2,30.8c0-4.6,3.7-8.3,8.3-8.3c4.5,0,8.2,3.7,8.2,8.2S56,39,51.5,39C46.9,39,43.2,35.4,43.2,30.8z
			 M51.5,26.8c-2.3,0-4.1,1.7-4.1,4c0,2.2,1.8,4,4,4s4.1-1.8,4.1-4C55.4,28.6,53.7,26.8,51.5,26.8z"/>
		<path class="st0" d="M66.4,46c2-3.7,3.9-7.2,5.9-10.8c-0.9-0.5-1.8-1-2.7-1.5c-1.3-0.7-1.8-1.9-1.1-3c0.6-1.1,1.8-1.4,3.1-0.7
			c1.5,0.8,2.9,1.5,4.3,2.4c1.4,0.8,1.7,1.8,0.9,3.3c-2.5,4.7-5.1,9.3-7.6,14c-0.8,1.4-1.9,1.7-3.3,1c-1.4-0.8-2.9-1.6-4.3-2.4
			c-1.3-0.7-1.7-1.9-1.1-3c0.6-1.1,1.8-1.4,3.1-0.7C64.6,45,65.5,45.4,66.4,46z"/>
		<path class="st0" d="M36.2,15.6c-1.9,3.6-3.8,7-5.8,10.6c0.9,0.5,1.8,1,2.6,1.4c1.4,0.8,1.8,1.9,1.2,3S32.4,32,31,31.3
			c-1.4-0.8-2.8-1.5-4.2-2.3c-1.4-0.8-1.7-1.8-1-3.2c2.5-4.6,5-9.2,7.5-13.8c0.8-1.4,1.8-1.7,3.2-1c1.5,0.8,2.9,1.5,4.3,2.4
			c1.3,0.7,1.7,1.9,1.1,3c-0.6,1.1-1.8,1.4-3.1,0.7C38,16.6,37.2,16.1,36.2,15.6z"/>
		<path class="st0" d="M38.8,21.9c1.1,0,2.1,0.9,2.1,2c0.1,1.2-0.9,2.2-2,2.2s-2.1-0.8-2.1-2C36.7,22.9,37.7,21.9,38.8,21.9z"/>
		<path class="st0" d="M60.7,16.9c0,1.2-0.9,2-2.1,2c-1.1,0-2.1-0.9-2.1-2.1c0-1.1,1-2.2,2.2-2.1C59.9,14.8,60.7,15.7,60.7,16.9z"/>
		<path class="st0" d="M63.9,39.7c-1.1,0-2.1-0.9-2.1-2s1-2.1,2.1-2.1c1.2,0,2.1,1,2.1,2.2C65.9,38.8,65,39.7,63.9,39.7z"/>
	</g>
</g>
</svg>
