<?xml version="1.0" encoding="utf-8"?>
<!-- Generator: Adobe Illustrator 25.2.1, SVG Export Plug-In . SVG Version: 6.00 Build 0)  -->
<svg version="1.1" id="Camada_1" xmlns="http://www.w3.org/2000/svg" xmlns:xlink="http://www.w3.org/1999/xlink" x="0px" y="0px"
	 viewBox="0 0 31.6 29.1" style="enable-background:new 0 0 31.6 29.1;" xml:space="preserve">
<style type="text/css">
	.st0{fill:#F7A816;}
</style>
<path class="st0" d="M31.6,7.9c0,0.2,0,0.3,0,0.5c-0.1,0.3-0.1,0.5-0.2,0.8c-1,3.2-2,6.4-2.9,9.7c-0.7,2.4-1.5,4.8-2.2,7.1
	c-0.2,0.7-0.5,1.3-0.9,1.8c-0.8,0.9-1.7,1.4-2.9,1.4c-0.9,0-1.8,0-2.7,0c-4.7,0-9.5,0-14.2,0c-0.9,0-1.7-0.1-2.5-0.5
	c-0.7-0.4-1.4-0.9-1.9-1.5c-0.9-1.1-1.4-2.4-1-3.9c0.1-0.5,0.2-1,0.1-1.5c-0.1-0.5,0-0.9,0.3-1.2c0,0,0-0.1,0.1-0.1
	C1.4,19.3,2,18,2.3,16.6c0.1-0.2,0.1-0.4,0-0.6c-0.1-0.4,0-0.8,0.3-1.1c0.1-0.2,0.3-0.3,0.4-0.5c0.3-0.7,0.7-1.4,1-2.2
	c0.2-0.6,0.4-1.3,0.2-2c-0.1-0.3,0-0.5,0.2-0.7c0.1-0.1,0.2-0.2,0.3-0.4C5,8.9,5.2,8.7,5.3,8.4c0.3-0.6,0.5-1.2,0.7-1.8
	C6.3,6,6.5,5.4,6.3,4.7c-0.1-0.2,0-0.4,0.2-0.6c0.4-0.5,0.9-1,1.1-1.6c0.1-0.2,0.1-0.4,0.2-0.6c0.2-0.4,0.3-0.8,0.5-1.1
	c0.4-0.7,1.1-1,2-0.7c0.1,0,0.3,0.1,0.4,0C11.1,0,11.6,0,12,0c4.6,0,9.1,0,13.7,0c0.2,0,0.4,0,0.7,0c1.6,0.3,2.5,1.7,2.1,3.3
	c-0.7,2.2-1.3,4.5-2,6.7c-1,3.5-2.1,6.9-3.1,10.4c-0.3,0.9-0.6,1.7-1,2.5c-0.4,0.7-0.9,1.1-1.6,1.2c-0.4,0-0.8,0.1-1.2,0.1
	c-5.5,0-10.9,0-16.4,0c-0.2,0-0.3,0-0.5,0.1c-0.4,0.1-0.6,0.5-0.5,0.9c0.2,0.7,0.7,1.1,1.3,1.3c0.5,0.2,1.1,0.2,1.7,0.2
	c5.5,0,11,0,16.5,0c0.3,0,0.6,0,0.9,0c0.9-0.1,1.5-0.4,1.8-1.4c1.1-3.8,2.3-7.6,3.4-11.4c0.7-2.3,1.4-4.6,2.1-6.9
	C30,6.7,30,6.4,30,6.1c0-0.1,0-0.2,0-0.3C30.8,6.3,31.4,6.9,31.6,7.9C31.5,7.9,31.5,7.9,31.6,7.9z M15.6,12.1
	C15.6,12.1,15.6,12.1,15.6,12.1c1.9,0,3.8,0,5.8,0c0.4,0,0.7-0.2,0.8-0.6c0.1-0.4,0.2-0.8,0.4-1.2c0.1-0.3,0-0.5-0.3-0.6
	c-0.1,0-0.3,0-0.4,0c-3.6,0-7.3,0-10.9,0c-0.1,0-0.2,0-0.3,0c-0.4,0-0.7,0.2-0.8,0.6c-0.1,0.4-0.2,0.8-0.4,1.2
	c-0.1,0.2,0,0.4,0.1,0.5c0.1,0.1,0.3,0.1,0.4,0.1C11.8,12.1,13.7,12.1,15.6,12.1z M17.1,7.3C17.1,7.3,17.1,7.3,17.1,7.3
	c1.9,0,3.8,0,5.7,0c0.4,0,0.7-0.2,0.8-0.5c0.2-0.4,0.3-0.9,0.5-1.4c0.1-0.2,0-0.3-0.2-0.4c-0.2-0.1-0.3-0.1-0.5-0.1
	c-2.2,0-4.5,0-6.7,0c-1.5,0-3,0-4.5,0c-0.4,0-0.6,0.1-0.8,0.5c-0.2,0.5-0.4,0.9-0.5,1.4c0,0.1,0,0.2,0.1,0.4
	c0.1,0.2,0.3,0.2,0.5,0.2C13.3,7.3,15.2,7.3,17.1,7.3z"/>
<g>
</g>
<g>
</g>
<g>
</g>
<g>
</g>
<g>
</g>
<g>
</g>
<g>
</g>
<g>
</g>
<g>
</g>
<g>
</g>
<g>
</g>
<g>
</g>
<g>
</g>
<g>
</g>
<g>
</g>
</svg>
