<?xml version="1.0" encoding="utf-8"?>
<!-- Generator: Adobe Illustrator 25.2.1, SVG Export Plug-In . SVG Version: 6.00 Build 0)  -->
<svg version="1.1" id="Camada_1" xmlns="http://www.w3.org/2000/svg" xmlns:xlink="http://www.w3.org/1999/xlink" x="0px" y="0px"
	 viewBox="0 0 110.5 110.5" style="enable-background:new 0 0 110.5 110.5;" xml:space="preserve">
<style type="text/css">
	.st0{fill:#12C6AF;}
	.st1{fill:#FFFFFF;}
</style>
<circle class="st0" cx="55.3" cy="55.3" r="55.3"/>
<g>
	<path class="st1" d="M34,54c0-7.5,0-15,0-22.5c0-1.6,0-3.2,0-4.9c0-1.2,0.2-2.3,0.7-3.3c1.2-2.6,3.2-4.2,6.1-4.8
		c0.5-0.1,1.1-0.1,1.7-0.1c2.5,0,5.1,0,7.6,0c5.5,0,10.9,0,16.4,0c1.2,0,2.3,0.2,3.4,0.7c2.6,1.2,4.3,3.2,4.9,6
		c0.1,0.5,0.2,1.1,0.2,1.6c0,1.6,0,3.2,0,4.8c0,14.3,0,28.6,0,42.9c0,2.4,0,4.8,0,7.1c0,1.9-0.6,3.6-1.8,5.1
		c-1.4,1.7-3.2,2.8-5.4,3.1c-0.4,0.1-0.8,0.1-1.3,0.1c-2.2,0-4.4,0-6.5,0c-5.8,0-11.7,0-17.5,0c-0.8,0-1.7-0.1-2.5-0.3
		c-3-0.9-5.3-3.4-5.9-6.5C34,82.5,34,81.9,34,81.4c0-2.4,0-4.8,0-7.1C34,67.4,34,60.7,34,54z M36.3,31.9c0,0.1,0,0.1,0,0.2
		c0,13.8,0,27.7,0,41.5v0.1c0.1,0,0.3,0,0.4,0c11.8,0,23.6,0,35.5,0c0.1,0,0.1,0,0.2,0s0.1,0,0.2,0c0-0.2,0-0.4,0-0.5
		c0-13.6,0-27.2,0-40.7c0-0.1,0-0.2,0-0.3s0-0.1,0-0.2c-0.1,0-0.2,0-0.2,0C70.7,31.8,36.7,31.9,36.3,31.9z M72.7,76
		c-0.2,0-0.4,0-0.5,0c-11.8,0-23.5,0-35.3,0c-0.1,0-0.2,0-0.3,0s-0.1,0-0.2,0c0,0.1,0,0.2,0,0.3c0,1.7,0,3.4,0,5.1
		c0,0.3,0,0.7,0.1,1c0.4,2.3,2.2,4.3,4.5,4.8c0.6,0.1,1.1,0.2,1.7,0.2c7.9,0,15.8,0,23.7,0c0.2,0,0.4,0,0.6,0c0.5,0,0.9-0.1,1.4-0.2
		c2.6-0.7,4.4-3.1,4.4-5.8c0-1.7,0-3.5,0-5.2C72.7,76.2,72.7,76.1,72.7,76z M36.3,29.6c12.1,0,24.2,0,36.2,0h0.1c0-0.1,0-0.2,0-0.2
		c0-1,0-1.9,0-2.9c0-0.3,0-0.6-0.1-0.9c-0.4-2.3-1.8-3.9-4-4.8c-0.7-0.3-1.5-0.3-2.2-0.3c-7.9,0-15.9,0-23.8,0c-0.1,0-0.2,0-0.3,0
		c-0.6,0-1.1,0.1-1.7,0.2c-2.5,0.7-4.3,3-4.4,5.7c0,1,0,1.9,0,2.9C36.3,29.4,36.3,29.5,36.3,29.6z"/>
	<path class="st1" d="M51.2,81.7c0-1.8,1.5-3.3,3.3-3.3c1.6,0,3.3,1.3,3.3,3.3c0,1.9-1.5,3.3-3.3,3.3C52.5,85,51.1,83.4,51.2,81.7z
		 M53.4,81.7c0,0.5,0.4,1.1,1.1,1.1c0.6,0,1.1-0.5,1.1-1.1s-0.5-1.1-1-1.1C53.9,80.6,53.4,81.1,53.4,81.7z"/>
	<path class="st1" d="M54.5,25.3c-1,0-2,0-3,0c-0.1,0-0.3,0-0.4,0c-0.5-0.1-0.9-0.5-1-1.1c0-0.6,0.4-1,0.9-1.1c0.1,0,0.2,0,0.4,0
		c2.1,0,4.1,0,6.2,0c0.1,0,0.3,0,0.4,0c0.5,0.1,0.9,0.6,0.9,1.1s-0.4,1-0.9,1c-0.1,0-0.3,0-0.4,0C56.5,25.3,55.5,25.3,54.5,25.3z"/>
</g>
</svg>
