<?xml version="1.0" encoding="utf-8"?>
<!-- Generator: Adobe Illustrator 25.2.1, SVG Export Plug-In . SVG Version: 6.00 Build 0)  -->
<svg version="1.1" id="Camada_1" xmlns="http://www.w3.org/2000/svg" xmlns:xlink="http://www.w3.org/1999/xlink" x="0px" y="0px"
	 viewBox="0 0 25.4 25.7" style="enable-background:new 0 0 25.4 25.7;" xml:space="preserve">
<style type="text/css">
	.st0{fill:#626161;}
</style>
<path class="st0" d="M21.3,23.2c-0.1,0-0.2,0-0.3,0c-0.5,0-1,0-1.4,0c-0.3,0-0.6-0.1-0.7-0.4c0-0.1-0.1-0.2,0-0.3c0-0.5,0-1,0.1-1.5
	c0-0.1,0-0.2,0-0.3c0,0-0.1,0-0.1,0c-0.5,0-1.1,0-1.6,0.1c-0.5,0-0.8-0.3-0.8-0.8c0-0.6,0-1.1,0-1.7c0,0,0-0.1,0-0.1
	c-0.3,0-0.6,0-0.8,0c-0.3,0-0.6,0-0.9,0c-0.3,0-0.5-0.1-0.8-0.3c-0.6-0.6-1.3-1.3-1.9-1.9c-0.4-0.4-0.9-0.9-1.3-1.3c0,0-0.1,0-0.2,0
	c-0.5,0.2-1,0.3-1.5,0.4C6,15.8,3,14.5,1.3,12c-0.6-0.9-1-1.8-1.2-2.9C0,8.2-0.1,7.4,0.1,6.5c0.6-3.2,2.4-5.2,5.5-6.2
	C6.5,0,7.4-0.1,8.4,0c1.6,0.2,3,0.7,4.3,1.8c1.1,1,1.9,2.2,2.4,3.6c0.2,0.6,0.3,1.2,0.3,1.8c0.1,1.2-0.1,2.3-0.5,3.4
	c0,0.1,0,0.1,0,0.2c2.5,2.5,5.1,5.1,7.6,7.6c0.8,0.8,1.6,1.6,2.3,2.3c0.2,0.2,0.3,0.4,0.3,0.7c0.1,0.9,0.2,1.8,0.2,2.7
	c0,0.2,0.1,0.4,0.1,0.6c0,0.4-0.2,0.6-0.6,0.7c-0.3,0.1-0.7,0.1-1,0.1c-0.6,0.1-1.2,0.1-1.8,0.2c-0.5,0.1-0.8-0.2-0.8-0.7
	c0-0.5,0-1.1,0-1.6C21.3,23.3,21.3,23.3,21.3,23.2z M3,5.2c0,1.2,1,2.2,2.2,2.2c1.2,0,2.2-1,2.2-2.2C7.4,4,6.4,3,5.2,3
	C4,3,3,4,3,5.2z M22.9,21.2C22.9,21.1,22.9,21.1,22.9,21.2c0-0.2-0.1-0.3-0.2-0.4c-0.1-0.2-0.3-0.3-0.5-0.5
	c-2.2-2.2-4.4-4.4-6.6-6.6c-0.5-0.5-1-1-1.5-1.6c-0.1-0.1-0.1-0.1-0.2,0c-0.1,0.2-0.2,0.3-0.3,0.4c-0.2,0.3-0.2,0.3,0,0.6
	c1.5,1.5,2.9,2.9,4.4,4.4c1.3,1.3,2.6,2.6,3.9,3.9c0.1,0.1,0.2,0.2,0.3,0.2C22.5,21.8,22.9,21.5,22.9,21.2z"/>
<g>
</g>
<g>
</g>
<g>
</g>
<g>
</g>
<g>
</g>
<g>
</g>
</svg>
