<?xml version="1.0" encoding="utf-8"?>
<!-- Generator: Adobe Illustrator 25.2.1, SVG Export Plug-In . SVG Version: 6.00 Build 0)  -->
<svg version="1.1" id="Camada_1" xmlns="http://www.w3.org/2000/svg" xmlns:xlink="http://www.w3.org/1999/xlink" x="0px" y="0px"
	 viewBox="0 0 22.9 21.8" style="enable-background:new 0 0 22.9 21.8;" xml:space="preserve">
<style type="text/css">
	.st0{fill:#F7A816;}
</style>
<path class="st0" d="M11.7,0.2L15,6.9c0,0.1,0.1,0.2,0.2,0.2l7.4,1.1c0.3,0,0.4,0.3,0.2,0.5l-5.3,5.2c-0.1,0.1-0.1,0.2-0.1,0.3
	l1.3,7.3c0,0.3-0.2,0.4-0.4,0.3l-6.6-3.5c-0.1,0-0.2,0-0.3,0l-6.6,3.5c-0.2,0.1-0.5-0.1-0.4-0.3l1.3-7.3c0-0.1,0-0.2-0.1-0.3
	L0.1,8.6C-0.1,8.4,0,8.1,0.3,8.1L7.6,7c0.1,0,0.2-0.1,0.2-0.2l3.3-6.7C11.3-0.1,11.6-0.1,11.7,0.2z"/>
<g>
</g>
<g>
</g>
<g>
</g>
<g>
</g>
<g>
</g>
<g>
</g>
<g>
</g>
<g>
</g>
<g>
</g>
<g>
</g>
<g>
</g>
<g>
</g>
<g>
</g>
<g>
</g>
<g>
</g>
</svg>
