<?xml version="1.0" encoding="utf-8"?>
<!-- Generator: Adobe Illustrator 25.2.1, SVG Export Plug-In . SVG Version: 6.00 Build 0)  -->
<svg version="1.1" id="Camada_1" xmlns="http://www.w3.org/2000/svg" xmlns:xlink="http://www.w3.org/1999/xlink" x="0px" y="0px"
	 viewBox="0 0 26.6 23.3" style="enable-background:new 0 0 26.6 23.3;" xml:space="preserve">
<style type="text/css">
	.st0{fill:#FFFFFF;}
</style>
<g>
	<path class="st0" d="M0,4.6c0-0.2,0.1-0.3,0.1-0.5C0.5,3,1.6,2.2,2.8,2.2c3,0,6.1,0,9.1,0c0.2,0,0.4-0.1,0.5-0.1
		c1.1-0.6,2.1-1.3,3.2-1.9c0.5-0.3,0.7-0.2,1,0.2C17,1,17.3,1.5,17.6,2c0.1,0.1,0.2,0.2,0.3,0.2c0.5,0,1,0,1.5,0
		c1,0,1.7,0.7,1.7,1.7c0,0.8,0,1.6,0,2.4c0,0.1,0,0.2,0,0.3c0.2,0,0.5,0,0.7,0c0.3,0,0.6,0,0.9,0c1,0,1.7,0.7,1.7,1.7
		c0,0.8,0,1.6,0,2.4c0,0.1,0,0.2,0,0.3c0.4,0,0.9,0,1.3,0c0.1,0,0.2,0,0.4,0c0.4,0,0.6,0.2,0.6,0.6c0,2.2,0,4.4,0,6.6
		c0,0.4-0.2,0.6-0.6,0.6c-0.5,0-1.1,0-1.6,0c0,0.1,0,0.2,0,0.3c0,0.8,0,1.6,0,2.4c0,1.1-0.7,1.7-1.7,1.7c-6.6,0-13.2,0-19.8,0
		c-1.5,0-2.5-0.9-2.8-2.3c0,0,0-0.1,0-0.1C0,15.5,0,10,0,4.6z M23.3,11.1c0-0.9,0-1.8,0-2.6c0-0.5-0.2-0.7-0.7-0.7
		c-1.1,0-2.1,0-3.2,0c-5.5,0-10.9,0-16.4,0c-0.7,0-1.3-0.1-1.8-0.5c0,0-0.1,0-0.1,0c0,0.1,0,0.2,0,0.3c0,4.3,0,8.6,0,12.8
		c0,1.2,0.7,1.8,1.8,1.8c3.4,0,6.7,0,10.1,0c3.2,0,6.4,0,9.6,0c0.5,0,0.7-0.2,0.7-0.7c0-0.4,0-0.8,0-1.1c0-0.5,0-1,0-1.5
		c-0.5,0-0.9,0-1.4,0c-0.6,0-1.3,0-1.9-0.1c-1.8-0.2-3.1-1.7-3.3-3.5c-0.2-1.7,0.9-3.4,2.6-4c0.5-0.2,0.9-0.2,1.4-0.2
		C21.5,11.1,22.4,11.1,23.3,11.1z M7,6.6c4,0,8,0,12,0c-1-1.8-2.1-3.5-3.1-5.3C13,3.1,10,4.8,7,6.6z M25.5,12.2
		C25.5,12.2,25.5,12.2,25.5,12.2c-1.8,0-3.5-0.1-5.2,0c-1.5,0-2.7,1.5-2.6,3c0.2,1.5,1.3,2.5,2.8,2.5c1.6,0,3.2,0,4.8,0
		c0.1,0,0.1,0,0.2,0C25.5,15.9,25.5,14.1,25.5,12.2z M10.3,3.4C10.3,3.4,10.3,3.4,10.3,3.4c-0.1-0.1-0.1-0.1-0.2-0.1
		c-2.4,0-4.9,0-7.3,0c-0.2,0-0.4,0-0.5,0.1C1.5,3.6,1,4.4,1.1,5.3C1.2,6,1.9,6.6,2.7,6.6c0.7,0,1.3,0,2,0c0.1,0,0.2,0,0.3-0.1
		c0.7-0.4,1.4-0.8,2.1-1.2C8.2,4.7,9.2,4,10.3,3.4z M19.9,6C19.9,6,20,6,19.9,6c0-0.7,0.1-1.5,0-2.2c0-0.2-0.2-0.4-0.4-0.5
		c-0.4,0-0.8,0-1.2,0C18.9,4.3,19.4,5.1,19.9,6z"/>
	<path class="st0" d="M20.5,16.6c-0.9,0-1.7-0.7-1.7-1.6c0-0.9,0.7-1.7,1.6-1.7c0.9,0,1.7,0.8,1.7,1.7
		C22.2,15.9,21.4,16.6,20.5,16.6z M20.5,14.4c-0.3,0-0.5,0.2-0.5,0.5c0,0.3,0.3,0.6,0.6,0.6c0.3,0,0.5-0.3,0.5-0.6
		C21.1,14.7,20.8,14.4,20.5,14.4z"/>
</g>
<g>
</g>
<g>
</g>
<g>
</g>
<g>
</g>
<g>
</g>
<g>
</g>
<g>
</g>
<g>
</g>
<g>
</g>
<g>
</g>
<g>
</g>
<g>
</g>
<g>
</g>
<g>
</g>
<g>
</g>
</svg>
