<?xml version="1.0" encoding="utf-8"?>
<!-- Generator: Adobe Illustrator 25.2.1, SVG Export Plug-In . SVG Version: 6.00 Build 0)  -->
<svg version="1.1" id="Camada_1" xmlns="http://www.w3.org/2000/svg" xmlns:xlink="http://www.w3.org/1999/xlink" x="0px" y="0px"
	 viewBox="0 0 29.7 29.7" style="enable-background:new 0 0 29.7 29.7;" xml:space="preserve">
<style type="text/css">
	.st0{fill:#606060;}
</style>
<g>
	<g>
		<path class="st0" d="M29.7,13.9c0,0.6,0,1.3,0,1.9c0,0,0,0.1,0,0.1c0,0.1,0,0.2,0,0.2c0,0.3-0.1,0.7-0.1,1c-0.1,0.7-0.3,1.3-0.5,2
			c-0.6,2-1.6,3.8-3,5.4c-1.6,1.8-3.5,3.2-5.7,4.1c-1.5,0.6-3.1,1-4.7,1.1c0,0-0.1,0-0.1,0c-0.5,0-1.1,0-1.6,0c0,0-0.1,0-0.1,0
			c-0.1,0-0.2,0-0.3,0c-0.4,0-0.9-0.1-1.3-0.2c-0.9-0.1-1.7-0.4-2.5-0.7c-3.5-1.3-6.4-3.8-8.2-7.2c-0.6-1.2-1.1-2.6-1.4-3.9
			c-0.1-0.6-0.2-1.2-0.2-1.8c0-0.1,0-0.3,0-0.4c0-0.1,0-0.1,0-0.2c0-0.3,0-0.5,0-0.8c0-0.1,0-0.1,0-0.2c0-0.2,0-0.5,0-0.7
			c0-0.5,0.1-0.9,0.2-1.3c0.2-1,0.5-1.9,0.8-2.9c1.2-3,3.2-5.4,6-7.1c1.8-1.1,3.8-1.8,5.9-2.1C13.5,0.1,13.9,0,14.3,0
			c0,0,0.1,0,0.1,0c0.3,0,0.6,0,0.9,0c0,0,0.1,0,0.1,0c0.3,0,0.6,0,0.9,0.1c0.5,0,0.9,0.1,1.4,0.2c1.1,0.2,2.1,0.5,3.1,1
			c2.2,1,4.1,2.5,5.7,4.4c1.2,1.6,2.1,3.3,2.6,5.2c0.2,0.6,0.3,1.2,0.4,1.8c0.1,0.4,0.1,0.7,0.1,1.1C29.7,13.9,29.7,13.9,29.7,13.9z
			 M28.1,14.9c0-0.4,0-0.8,0-1.1c0-0.4-0.1-0.8-0.2-1.2c-0.1-0.8-0.4-1.6-0.6-2.3C26.3,7.9,24.9,6,23,4.4c-2.3-1.8-5-2.7-7.9-2.8
			c-0.8,0-1.5,0-2.3,0.2c-0.7,0.1-1.3,0.3-2,0.5c-3.6,1.2-6.5,3.9-8,7.3c-0.5,1.2-0.9,2.4-1,3.7c0,0.4-0.1,0.8-0.1,1.2
			c0,0.4,0,0.9,0,1.3c0,0.4,0.1,0.9,0.2,1.3c0.2,1,0.4,1.9,0.8,2.8C4,23,6.4,25.5,9.4,26.9c1.5,0.7,3.1,1.1,4.8,1.2c0.5,0,1,0,1.5,0
			c0.5,0,0.9-0.1,1.4-0.2c0.8-0.1,1.6-0.3,2.3-0.6c2.5-0.9,4.5-2.5,6.1-4.6c1.4-1.9,2.3-4.1,2.5-6.5C28.1,15.7,28.1,15.3,28.1,14.9z
			"/>
		<path class="st0" d="M16.8,17.3c0,1.4,0,2.9,0,4.3c0,0.2,0,0.5-0.1,0.7c-0.3,0.7-0.8,1.2-1.6,1.3c-1.1,0.1-2-0.6-2.2-1.6
			c0-0.1,0-0.3,0-0.4c0-1.7,0-3.3,0-5c0-1.2,0-2.4,0-3.7c0-0.4,0.1-0.8,0.3-1.1c0.3-0.5,0.8-0.8,1.4-0.8c1.1-0.1,2,0.6,2.2,1.5
			c0,0.2,0,0.3,0,0.5c0,1,0,1.9,0,2.9C16.8,16.4,16.8,16.8,16.8,17.3z"/>
		<path class="st0" d="M16.9,8.1c0,1.1-0.9,2-2,2c-1.1,0-2-0.9-2-2c0-1.1,0.8-2,2-2C16,6.1,16.9,7,16.9,8.1z"/>
	</g>
</g>
<g>
</g>
<g>
</g>
<g>
</g>
<g>
</g>
<g>
</g>
<g>
</g>
<g>
</g>
<g>
</g>
<g>
</g>
<g>
</g>
<g>
</g>
<g>
</g>
<g>
</g>
<g>
</g>
<g>
</g>
</svg>
