<?xml version="1.0" encoding="utf-8"?>
<!-- Generator: Adobe Illustrator 25.2.1, SVG Export Plug-In . SVG Version: 6.00 Build 0)  -->
<svg version="1.1" id="Camada_1" xmlns="http://www.w3.org/2000/svg" xmlns:xlink="http://www.w3.org/1999/xlink" x="0px" y="0px"
	 viewBox="0 0 111 110.7" style="enable-background:new 0 0 111 110.7;" xml:space="preserve">
<style type="text/css">
	.st0{fill:#12C6AF;}
</style>
<path class="st0" d="M0,76.3c0-3,0-6.1,0-9.1c0.1-0.2,0.2-0.4,0.2-0.6c0.7-3.3,2.6-5.6,5.7-7c0.3-0.1,0.6-0.7,0.6-1.1c0-3,0-6,0-9
	c0-2.5,1.3-3.8,3.8-3.8c5.9,0,11.7,0.5,17.6,1.6c0.4,0.1,1-0.1,1.2-0.3c2.2-2,4.7-3.7,7.5-4.9c1.3-0.6,2.7-1.1,4.5-1.8
	c-0.5-0.3-0.8-0.4-1.1-0.7c-3.7-3.5-6-7.7-6.9-12.7C31.2,16,37.3,5.2,47.7,1.5c1.8-0.7,3.7-1,5.6-1.5c1.4,0,2.9,0,4.3,0
	c0.2,0.1,0.4,0.2,0.6,0.2C64,1,68.8,3.6,72.7,8c6.6,7.4,7.4,19.4,1.7,27.5c-1.2,1.7-2.7,3.3-4,4.9c0.1,0,0.2,0.1,0.4,0.2
	C75,42,78.7,44.1,82,47c0.3,0.2,0.8,0.3,1.2,0.2c5.8-1,11.7-1.5,17.6-1.6c2.5,0,3.8,1.2,3.8,3.7c0,3,0,5.9,0,8.9
	c0,0.7,0.1,1,0.8,1.3c3.4,1.6,5.4,4.4,5.7,8.2c0.2,2.6,0.2,5.2,0,7.8c-0.3,3.8-2.2,6.5-5.6,8.1c-0.7,0.3-0.9,0.7-0.8,1.4
	c0,2.9,0,5.7,0,8.6c0,2.8-1.1,4-4,4c-6,0.1-11.9,0.6-17.7,1.9c-8.5,1.8-16.4,4.9-23.6,9.8c-2.6,1.7-4.6,1.8-7.2,0
	c-5-3.5-10.5-5.9-16.3-7.8c-8.3-2.7-16.8-3.7-25.5-3.8c-2.3,0-3.6-1.3-3.6-3.6c0-3,0-6,0-9c0-0.7-0.2-1-0.8-1.3
	c-0.9-0.4-1.7-1-2.5-1.7C1.4,80.6,0.6,78.5,0,76.3z M52.2,101.7c0-0.2,0-0.4,0-0.6c0-12.2,0-24.4,0-36.6c0-0.7-0.3-0.9-0.8-1.2
	c-7.8-4.8-16.2-8.2-25.3-9.6c-4.3-0.7-8.6-1-13.1-1.6c0,2.5,0,4.7,0,6.9c0,0.2,0.4,0.5,0.7,0.7c3.7,1.8,5.6,4.8,5.8,8.8
	c0.1,2,0,4,0,6.1c0,4.3-1.9,7.5-5.9,9.4c-0.2,0-0.6,0.3-0.6,0.5c0,2.2,0,4.5,0,6.7C30.5,93.4,28.5,91,52.2,101.7z M97.9,52.3
	c-0.2,0-0.3-0.1-0.4-0.1c-5.2,0.2-10.3,0.7-15.3,1.8c-8,1.7-15.5,4.8-22.5,9.1c-0.7,0.4-0.9,0.8-0.9,1.6c0,11.9,0,23.9,0,35.8
	c0,0.3,0,0.7,0,1.3C71,94.8,84.1,91.6,98,91.2c0-2.3,0-4.5,0-6.7c0-0.3-0.4-0.6-0.7-0.8c-3.7-1.8-5.6-4.8-5.8-8.9c-0.1-2,0-4,0-6.1
	c0-4.3,1.9-7.4,5.9-9.3c0.2-0.1,0.6-0.4,0.6-0.6C97.9,56.7,97.9,54.5,97.9,52.3z M55.5,39.2c8.9,0,16.3-7.4,16.2-16.3
	c0-9-7.4-16.4-16.3-16.4S39.2,13.9,39.2,23C39.2,31.9,46.5,39.2,55.5,39.2z M36.6,49.4c0.5,0.2,0.8,0.3,1.1,0.4
	c5.9,1.9,11.5,4.5,16.8,7.8c0.7,0.4,1.2,0.4,1.8,0c5.3-3.3,11-5.9,16.9-7.8c0.3-0.1,0.5-0.2,0.9-0.4c-3.5-2.3-7.3-3.5-11.3-3.6
	c-5-0.1-10-0.1-15,0C43.9,45.9,40.2,47.1,36.6,49.4z M6.5,71.6c0,1.1,0,2.2,0,3.4c0.1,1.9,1.5,3.2,3.2,3.2c1.8,0,3.2-1.4,3.2-3.2
	c0-2.2,0-4.3,0-6.5c0-1.9-1.5-3.2-3.2-3.2c-1.8,0-3.2,1.4-3.2,3.2C6.5,69.5,6.5,70.6,6.5,71.6z M104.4,71.8c0-1.1,0-2.2,0-3.4
	c-0.1-1.9-1.5-3.2-3.3-3.2s-3.2,1.4-3.2,3.3c0,2.2,0,4.3,0,6.5c0,1.9,1.5,3.2,3.3,3.2s3.2-1.4,3.2-3.3
	C104.5,73.9,104.4,72.9,104.4,71.8z"/>
</svg>
