<?xml version="1.0" encoding="utf-8"?>
<!-- Generator: Adobe Illustrator 25.2.1, SVG Export Plug-In . SVG Version: 6.00 Build 0)  -->
<svg version="1.1" id="Camada_1" xmlns="http://www.w3.org/2000/svg" xmlns:xlink="http://www.w3.org/1999/xlink" x="0px" y="0px"
	 viewBox="0 0 4.5 19.3" style="enable-background:new 0 0 4.5 19.3;" xml:space="preserve">
<style type="text/css">
	.st0{fill:#F8A819;}
</style>
<g>
	<path class="st0" d="M4.4,12.4c0,1.6,0,3.2,0,4.8c0,0.3,0,0.5-0.1,0.8c-0.3,0.8-0.9,1.3-1.8,1.4c-1.2,0.1-2.2-0.7-2.4-1.7
		c0-0.2,0-0.3,0-0.5c0-1.8,0-3.7,0-5.5c0-1.3,0-2.7,0-4c0-0.5,0.1-0.9,0.4-1.2c0.4-0.5,0.9-0.8,1.5-0.9c1.2-0.2,2.2,0.7,2.4,1.7
		c0,0.2,0.1,0.3,0.1,0.5c0,1.1,0,2.1,0,3.2C4.4,11.3,4.4,11.8,4.4,12.4z"/>
	<path class="st0" d="M4.5,2.2c0,1.3-1,2.2-2.2,2.2C1,4.5,0,3.4,0,2.2C0,1.1,0.9,0,2.2,0C3.5,0,4.5,1,4.5,2.2z"/>
</g>
<g>
</g>
<g>
</g>
<g>
</g>
<g>
</g>
<g>
</g>
<g>
</g>
</svg>
