<?xml version="1.0" encoding="utf-8"?>
<!-- Generator: Adobe Illustrator 25.2.1, SVG Export Plug-In . SVG Version: 6.00 Build 0)  -->
<svg version="1.1" id="Camada_1" xmlns="http://www.w3.org/2000/svg" xmlns:xlink="http://www.w3.org/1999/xlink" x="0px" y="0px"
	 viewBox="0 0 130 96.1" style="enable-background:new 0 0 130 96.1;" xml:space="preserve">
<style type="text/css">
	.st0{fill:#12C6AF;}
</style>
<g>
	<path class="st0" d="M106.9,27.2c0.6,0,1.2,0,1.8,0c5.6,0,11.2,0,16.8-0.1c3,0,4.6,1.7,4.5,4.7c-0.6,12.5-9.6,22.3-21.1,24.2
		c-13.9,2.3-26.8-7.2-29-21.2c-0.2-1-0.3-2.1-0.3-3.1c-0.1-2.8,1.7-4.5,4.4-4.6c5.1,0,10.2,0,15.3,0c2,0,2,0,2-2c0-4.4,0-8.8,0-13.3
		c0-0.3,0-0.5,0-0.9c-2.5,0.7-4.8,1.3-7.1,2c-5.6,1.6-11.2,3.2-16.8,4.8c-2.1,0.6-3.9-0.3-4.8-2.3c-0.1-0.3-0.3-0.7-0.4-1
		c-1.6-4-5.9-6.7-10-6.4c-4.1,0.2-8.5,3.7-9.1,8.3c-0.2,1.4-0.1,2.9,0.2,4.4c0.4,2.6-0.5,4.3-3,5c-6.9,2-13.8,4-20.7,5.9
		c-0.4,0.1-0.9,0.3-1.3,0.4c-0.6,0.1-0.7,0.5-0.7,1c0,5.5,0.1,11,0.1,16.5c0,0.7-0.2,1.6,0.2,2.1c0.3,0.3,1.3,0.1,2,0.1
		c5.4,0,10.8,0,16.2,0c2.8,0,4.6,1.8,4.4,4.5c-0.5,8.6-4,15.5-11.2,20.4C24.5,86.7,3.9,78.1,0.5,60.4C0.3,59.2,0.2,58,0,56.9
		c-0.4-3.2,1.4-5.2,4.6-5.2c5.4,0,10.9,0,16.3,0c0.8,0,1-0.2,1-1c0-5.2,0-10.5,0-15.7c0-0.3,0-0.6,0-1.1c-0.9,0.2-1.7,0.4-2.5,0.6
		c-1.2,0.3-2.3,0.6-3.5,1c-2.4,0.7-4.6-0.5-5.3-2.7c-0.6-2,0.6-4.1,3-4.8c3.6-1.1,7.2-2.1,10.8-3.1c6.6-1.9,13.2-3.7,19.7-5.6
		c0.2-0.1,0.4-0.1,0.6-0.2c-0.1-2.7,0.3-5.2,1.3-7.7c3.1-7.8,11.4-12.3,19.6-11c5.4,0.9,9.5,3.7,12.3,8.4c0.3,0.5,0.6,0.6,1.2,0.5
		c9.7-2.8,19.4-5.6,29.1-8.4c1.2-0.3,2.4-0.6,3.6-0.5c1.7,0.2,3,1.7,3.2,3.3c0.2,1.7-0.8,3.4-2.5,4s-3.4,1.1-5.2,1.6
		c-0.5,0.1-0.7,0.3-0.7,0.8c0,5.6,0,11.1,0,16.7C106.9,26.8,106.9,26.9,106.9,27.2z M88.1,35.1c1.4,8,9.8,13.9,18.3,13
		c8.7-0.9,14.2-7.9,14.8-13C110.2,35.1,99.2,35.1,88.1,35.1z M41.8,59.5c-11.1,0-22.1,0-33.1,0c0.7,5.7,7.5,12.5,14.9,13.1
		C34,73.5,40.9,65.3,41.8,59.5z"/>
	<path class="st0" d="M63.5,96.1c-10.9,0-21.8,0-32.8,0c-1.5,0-3.1,0.1-4.6,0c-1.8-0.2-2.9-1.7-2.9-3.7c0.1-1.8,1.4-3.2,3.1-3.4
		c0.8-0.1,1.6-0.1,2.3-0.1c9.6,0,19.1,0,28.7,0c1.2,0,1.1,0,1.1-1.2c0-18.3,0-36.7,0-55c0-4.4,0-8.8,0-13.2c0-1.3,0.3-2.4,1.2-3.3
		c1.2-1.2,2.6-1.5,4.2-1c1.6,0.5,2.4,1.7,2.6,3.3c0.1,1.1,0.1,2.2,0.1,3.3c0,22,0,44.1,0,66.1c0,0.7,0.2,0.9,0.9,0.9
		c10.4,0,20.9,0,31.3,0c0.4,0,0.8,0,1.3,0c2,0.1,3.4,1.5,3.5,3.5c0,2-1.3,3.5-3.3,3.6c-1.4,0.1-2.9,0-4.3,0
		C85.2,96.1,74.3,96.1,63.5,96.1L63.5,96.1z"/>
</g>
</svg>
