<?xml version="1.0" encoding="utf-8"?>
<!-- Generator: Adobe Illustrator 25.2.1, SVG Export Plug-In . SVG Version: 6.00 Build 0)  -->
<svg version="1.1" id="Camada_1" xmlns="http://www.w3.org/2000/svg" xmlns:xlink="http://www.w3.org/1999/xlink" x="0px" y="0px"
	 viewBox="0 0 27.4 27.8" style="enable-background:new 0 0 27.4 27.8;" xml:space="preserve">
<style type="text/css">
	.st0{fill:#FFFFFF;}
</style>
<g>
	<circle cx="13.7" cy="13.7" r="13.7"/>
	<g>
		<path class="st0" d="M16.2,14.4c-1.2,0.5-1.7,1-1.7,2.5v1h-4v-1.4c0-6.1,5.6-4.9,5.6-6.9c0-1.1-1.5-1.3-2.3-1.3
			c-1.7,0-3,0.7-4.1,2.1L6.9,7.7c2-2.1,4.2-3,7-3c3,0,6.6,1.3,6.6,5C20.4,12.5,18.4,13.4,16.2,14.4z M12.5,23.4
			c-1.4,0-2.1-0.9-2.1-2.3c0-1.4,0.8-2.3,2.1-2.3c1.4,0,2.1,0.9,2.1,2.3S13.9,23.4,12.5,23.4z"/>
	</g>
</g>
<g>
</g>
<g>
</g>
<g>
</g>
<g>
</g>
<g>
</g>
<g>
</g>
<g>
</g>
<g>
</g>
<g>
</g>
<g>
</g>
<g>
</g>
<g>
</g>
<g>
</g>
<g>
</g>
<g>
</g>
</svg>
