<?xml version="1.0" encoding="utf-8"?>
<!-- Generator: Adobe Illustrator 25.2.1, SVG Export Plug-In . SVG Version: 6.00 Build 0)  -->
<svg version="1.1" id="Camada_1" xmlns="http://www.w3.org/2000/svg" xmlns:xlink="http://www.w3.org/1999/xlink" x="0px" y="0px"
	 viewBox="0 0 29.4 39.7" style="enable-background:new 0 0 29.4 39.7;" xml:space="preserve">
<style type="text/css">
	.st0{fill:#41B7A8;}
</style>
<g>
	<g>
		<path class="st0" d="M14.7,27.7c-0.7,0-1.3,0.2-1.9,0.3c-0.7,0.2-1.4,0.3-2.1,0.2c-0.5-0.1-1-0.2-1.4-0.5
			c-0.4-0.4-0.8-0.8-1.3-1.3c-0.2-0.2-0.3-0.4-0.5-0.6c-0.6-0.7-1.3-1.1-2.1-1.5C5,24.2,4.5,24,4,23.8c-1-0.5-1.5-1.2-1.7-2.3
			c-0.1-0.7-0.2-1.4-0.2-2.1c-0.1-0.8-0.3-1.5-0.7-2.2c-0.3-0.6-0.7-1.1-1-1.7c-0.5-0.9-0.5-1.9,0-2.8c0.3-0.6,0.6-1.1,1-1.6
			C1.8,10.4,2,9.6,2.1,8.7c0.1-0.7,0.1-1.3,0.2-1.9C2.5,5.7,3,5,4,4.5C4.6,4.3,5.2,4,5.8,3.8c0.8-0.3,1.4-0.8,1.9-1.5
			C8,1.9,8.4,1.5,8.8,1.1c0.8-0.9,1.9-1.3,3.1-1c0.4,0.1,0.9,0.2,1.3,0.3c1,0.3,2,0.2,3,0c0.6-0.2,1.2-0.3,1.8-0.4
			c1-0.2,1.8,0.2,2.5,0.8c0.4,0.4,0.7,0.8,1.1,1.2C22.2,2.9,23,3.5,24,3.9c0.5,0.2,0.9,0.4,1.3,0.6c1,0.5,1.6,1.3,1.8,2.4
			c0.1,0.7,0.2,1.4,0.2,2.1c0.1,0.8,0.3,1.5,0.8,2.2c0.3,0.5,0.6,1,0.9,1.5c0.5,0.9,0.5,1.9,0.1,2.8c-0.3,0.6-0.7,1.2-1,1.8
			c-0.3,0.5-0.6,1.1-0.7,1.8c-0.1,0.5-0.1,0.9-0.1,1.4c0,0.4-0.1,0.9-0.2,1.3c-0.2,1.1-0.9,1.7-1.8,2.1c-0.5,0.2-0.9,0.4-1.4,0.6
			c-0.9,0.3-1.6,0.9-2.2,1.6c-0.4,0.4-0.7,0.9-1.1,1.3c-0.7,0.7-1.5,1.1-2.4,1c-0.6-0.1-1.1-0.2-1.6-0.3
			C15.9,27.8,15.3,27.7,14.7,27.7C14.8,27.6,14.7,27.6,14.7,27.7z M25.2,14.1C25.2,14.1,25.2,14.1,25.2,14.1c0-0.3,0-0.7-0.1-1
			c0-0.4,0-0.9-0.1-1.3c-0.8-3.1-2.5-5.4-5.3-6.9c-1-0.5-2-1-3.1-1.1c-0.8-0.1-1.7-0.1-2.5-0.1c-0.6,0-1.2,0.1-1.8,0.2
			C10,4.4,8,5.6,6.5,7.5c-2,2.4-2.7,5.2-2.2,8.3c0.5,3.4,2.4,5.9,5.3,7.6c1.5,0.9,3.1,1.3,4.8,1.3c0.9,0,1.7,0,2.5-0.2
			c2.3-0.6,4.3-1.7,5.8-3.6c1.1-1.4,1.9-2.9,2.3-4.6C25.2,15.6,25.2,14.8,25.2,14.1z"/>
		<path class="st0" d="M14.3,29.8c-1.1,3.3-2.3,6.6-3.4,9.9c-0.1-0.1-0.1-0.1-0.2-0.2c-0.9-0.9-1.8-1.8-2.6-2.6
			c-0.1-0.1-0.2-0.1-0.3-0.1c-1.3,0.2-2.6,0.5-4,0.7c-0.1,0-0.2,0-0.3,0c1.1-3.3,2.3-6.6,3.5-9.9c0.1,0.1,0.2,0.1,0.3,0.1
			c1,0.6,2,1.1,3.1,1.5c0.6,0.2,1.2,0.2,1.8,0.3c0.7,0.1,1.3,0.2,2,0.2C14.1,29.7,14.2,29.8,14.3,29.8z"/>
		<path class="st0" d="M18.5,39.7c-1.2-3.3-2.3-6.6-3.4-9.9c0.5,0,0.8-0.1,1.2-0.1c0.9-0.1,1.7-0.2,2.6-0.4c0.6-0.1,1.2-0.4,1.8-0.7
			c0.5-0.3,1.1-0.6,1.6-0.8c0.1,0,0.1,0,0.3-0.1c1.2,3.3,2.3,6.5,3.5,9.9c-0.4-0.1-0.7-0.1-1.1-0.2c-1.1-0.2-2.2-0.4-3.3-0.6
			c-0.1,0-0.2,0-0.3,0.1c-0.7,0.8-1.4,1.5-2.2,2.3C19,39.3,18.8,39.4,18.5,39.7z"/>
	</g>
</g>
<g>
</g>
<g>
</g>
<g>
</g>
<g>
</g>
<g>
</g>
<g>
</g>
</svg>
