<?xml version="1.0" encoding="utf-8"?>
<!-- Generator: Adobe Illustrator 25.2.1, SVG Export Plug-In . SVG Version: 6.00 Build 0)  -->
<svg version="1.1" id="Camada_1" xmlns="http://www.w3.org/2000/svg" xmlns:xlink="http://www.w3.org/1999/xlink" x="0px" y="0px"
	 viewBox="0 0 33.2 33.2" style="enable-background:new 0 0 33.2 33.2;" xml:space="preserve">
<style type="text/css">
	.st0{fill:#56BCB7;stroke:#56BCB7;stroke-miterlimit:10;}
</style>
<path class="st0" d="M9.2,0.5c1,0.1,1.9,0.2,2.9,0.4c1.6,0.3,3.2,1,4.7,1.6c1.4,0.6,2.9,1.2,4.4,1.5c3.7,0.8,7.2,0.2,10.6-1.5
	C32,2.3,32.3,2.2,32.6,2c0,0.2,0,0.3,0,0.4c0,5.6,0,11.2,0,16.7c0,0.3-0.1,0.5-0.4,0.6c-1.5,0.8-3.1,1.3-4.8,1.7
	c-2.1,0.4-4.2,0.4-6.3,0.2c-2.5-0.2-4.9-0.9-7.3-1.6c-1.8-0.5-3.7-0.8-5.6-0.8c-2.1,0.1-4.1,0.3-6.1,0.9c-0.3,0.1-0.4,0.2-0.4,0.6
	c0,3.7,0,7.5,0,11.2c0,0.5-0.4,0.9-0.7,0.8c-0.2-0.1-0.4-0.3-0.5-0.4c0-10,0-20.1,0-30.1C1,1.7,1.6,1.4,2.2,1.3
	c1.2-0.4,2.4-0.5,3.6-0.6c0.7-0.1,1.3-0.1,2-0.1C8.3,0.5,8.8,0.5,9.2,0.5z M31.4,4.1c-0.6,0.2-1.1,0.4-1.6,0.6
	c-3.5,1.2-7,1.3-10.5,0.1c-1.5-0.5-3-1.2-4.5-1.8c-1.7-0.7-3.4-1.2-5.2-1.2c-1.4,0-2.8,0-4.3,0.1C4.3,2,3.2,2.2,2.2,2.6
	C1.9,2.7,1.8,2.8,1.8,3.1c0,5.1,0,10.3,0,15.4c0,0.1,0,0.2,0,0.3c1.1-0.2,2.2-0.5,3.3-0.6c1.6-0.3,3.2-0.3,4.8-0.2
	c1.6,0.1,3.1,0.4,4.5,0.9c2.9,0.9,5.7,1.5,8.8,1.6c2.7,0.1,5.3-0.4,7.8-1.5c0.2-0.1,0.3-0.2,0.3-0.5c0-4.7,0-9.3,0-14
	C31.4,4.4,31.4,4.3,31.4,4.1z"/>
<g>
</g>
<g>
</g>
<g>
</g>
<g>
</g>
<g>
</g>
<g>
</g>
</svg>
