<?xml version="1.0" encoding="utf-8"?>
<!-- Generator: Adobe Illustrator 25.2.1, SVG Export Plug-In . SVG Version: 6.00 Build 0)  -->
<svg version="1.1" id="Camada_1" xmlns="http://www.w3.org/2000/svg" xmlns:xlink="http://www.w3.org/1999/xlink" x="0px" y="0px"
	 viewBox="0 0 23.9 26.1" style="enable-background:new 0 0 23.9 26.1;" xml:space="preserve">
<style type="text/css">
	.st0{fill:#626161;}
</style>
<g>
	<path class="st0" d="M19.9,26.1c-5.3,0-10.7,0-16,0c-0.1,0-0.1,0-0.2,0c-2.2-0.2-3.7-1.8-3.8-3.9c0-1.1,0-2.2,0.2-3.3
		c0.2-1.4,0.5-2.8,1.2-4c0.8-1.6,2.1-2.5,3.9-2.7c0.4,0,0.8,0,1.1,0.2c0.4,0.3,0.9,0.6,1.3,0.9c1.2,0.7,2.5,1.2,3.9,1.2
		c1.6,0.1,3.1-0.4,4.5-1.2c0.5-0.3,1-0.6,1.5-1C17.8,12,17.9,12,18,12c1,0,1.9,0.2,2.7,0.8c1,0.7,1.6,1.6,2.1,2.7
		c0.9,2.2,1.1,4.5,1,6.8c-0.1,1.7-1.2,3-2.9,3.5C20.6,25.9,20.3,26,19.9,26.1z"/>
	<path class="st0" d="M11.9,0c3.6,0,6.5,2.9,6.5,6.5c0,3.6-2.9,6.5-6.5,6.5c-3.6,0-6.5-2.9-6.5-6.5C5.4,2.9,8.3,0,11.9,0z"/>
</g>
<g>
</g>
<g>
</g>
<g>
</g>
<g>
</g>
<g>
</g>
<g>
</g>
</svg>
