<?xml version="1.0" encoding="utf-8"?>
<!-- Generator: Adobe Illustrator 25.2.1, SVG Export Plug-In . SVG Version: 6.00 Build 0)  -->
<svg version="1.1" id="Camada_1" xmlns="http://www.w3.org/2000/svg" xmlns:xlink="http://www.w3.org/1999/xlink" x="0px" y="0px"
	 viewBox="0 0 31.5 23.4" style="enable-background:new 0 0 31.5 23.4;" xml:space="preserve">
<style type="text/css">
	.st0{fill:#606060;}
</style>
<g>
	<g>
		<path class="st0" d="M23.4,17.2c0,1-0.2,1.9-0.7,2.8c-1.1,2.1-2.8,3.3-5.1,3.3c-3,0.1-6.1,0-9.1,0c-0.9,0-1.9,0.1-2.8,0
			c-2.6-0.2-4.4-1.6-5.3-4C0.1,18.6,0,17.9,0,17.1c0-3.6,0-7.3,0-10.9c0-3,1.9-5.2,4.5-6C5.2,0.1,5.8,0,6.5,0c3.5,0,7,0,10.5,0
			c1.5,0,2.8,0.3,4,1.2c1.3,1,2.1,2.3,2.4,4c0,0.3,0.1,0.6,0.1,0.9C23.5,6.1,23.6,6,23.6,6c1-1,1.9-2.1,2.9-3.1
			c0.6-0.7,1.4-1.1,2.3-1c1.3,0.1,2.4,1,2.6,2.3c0.1,0.3,0.1,0.6,0.1,1c0,4.4,0,8.9,0,13.3c0,0.7-0.1,1.4-0.5,2
			c-1,1.5-3,1.7-4.3,0.5c-0.5-0.5-1-1.1-1.5-1.7c-0.5-0.6-1.1-1.2-1.6-1.8C23.6,17.4,23.5,17.3,23.4,17.2z M21,11.7
			c0-1.9,0-3.8,0-5.7c0-1.7-1.2-3.2-2.8-3.5c-0.6-0.1-1.3-0.1-1.9-0.1c-3.4,0-6.8,0-10.3,0C4,2.4,2.4,4,2.4,6.1c0,3.8,0,7.5,0,11.3
			c0,1,0.4,1.9,1.1,2.6c0.7,0.7,1.6,1,2.7,1c1.9,0,3.8,0,5.7,0c1.9,0,3.8,0,5.6,0c1.9,0,3.5-1.7,3.5-3.5C21,15.5,21,13.6,21,11.7z
			 M29.1,11.7c0-1.7,0-3.4,0-5.1c0-0.7,0-1.3,0-2c0-0.2,0-0.4-0.2-0.4c-0.2-0.1-0.4,0-0.6,0.1c-0.2,0.2-0.3,0.4-0.5,0.6
			C26.4,6.4,25,8,23.6,9.5c-0.1,0.2-0.2,0.3-0.2,0.5c0,1.1,0,2.2,0,3.4c0,0.2,0.1,0.4,0.2,0.5c0.8,0.9,1.7,1.8,2.5,2.8
			c0.7,0.8,1.4,1.5,2.1,2.3c0.1,0.1,0.2,0.2,0.4,0.3c0.3,0.1,0.5-0.1,0.5-0.5C29.1,16.4,29.1,14,29.1,11.7z"/>
		<path class="st0" d="M16.2,4.9c0.4,0,0.7,0,1.1,0c0.7,0,1.2,0.5,1.3,1.1c0,0.7-0.4,1.2-1.1,1.2c-0.9,0-1.7,0-2.6,0
			c-0.6,0-1.1-0.6-1.1-1.2c0-0.6,0.6-1.1,1.2-1.1C15.4,4.8,15.8,4.9,16.2,4.9C16.2,4.9,16.2,4.9,16.2,4.9z"/>
	</g>
</g>
<g>
</g>
<g>
</g>
<g>
</g>
<g>
</g>
<g>
</g>
<g>
</g>
<g>
</g>
<g>
</g>
<g>
</g>
<g>
</g>
<g>
</g>
<g>
</g>
<g>
</g>
<g>
</g>
<g>
</g>
</svg>
