<?xml version="1.0" encoding="utf-8"?>
<!-- Generator: Adobe Illustrator 25.2.1, SVG Export Plug-In . SVG Version: 6.00 Build 0)  -->
<svg version="1.1" id="Camada_1" xmlns="http://www.w3.org/2000/svg" xmlns:xlink="http://www.w3.org/1999/xlink" x="0px" y="0px"
	 viewBox="0 0 22.4 27" style="enable-background:new 0 0 22.4 27;" xml:space="preserve">
<style type="text/css">
	.st0{fill:#606060;}
</style>
<path class="st0" d="M0,13.5C0,9.9,0,6.2,0,2.6c0-1.2,0.5-2,1.5-2.4C1.8,0.1,2.2,0,2.6,0c4.4,0,8.7,0,13.1,0c0.1,0,0.3,0.1,0.4,0.2
	c2,2,3.9,3.9,5.9,5.9c0.3,0.3,0.5,0.7,0.5,1.2c0,5.6,0,11.1,0,16.7c0,0.4,0,0.9-0.1,1.3C22,26.3,21.1,27,20,27c-3.6,0-7.2,0-10.7,0
	c-2.2,0-4.4,0-6.6,0c-0.4,0-0.8,0-1.1-0.2c-0.9-0.3-1.5-1-1.5-2c0-1.7,0-3.3,0-5C0,17.7,0,15.6,0,13.5C0,13.5,0,13.5,0,13.5z
	 M1.5,13.5C1.5,13.5,1.5,13.5,1.5,13.5c0,3.6,0,7.2,0,10.8c0,0.9,0.2,1.1,1.1,1.1c5.7,0,11.3,0,17,0c0.2,0,0.4,0,0.6,0
	c0.4,0,0.6-0.3,0.6-0.7c0-0.3,0-0.6,0-0.9c0-5.3,0-10.6,0-15.8c0-0.2-0.1-0.3-0.3-0.3c-1.2,0-2.4,0-3.6,0c-0.7,0-1.3-0.1-1.8-0.6
	C15,6.9,15,6.8,15,6.7c0-1.6-0.1-3.2-0.1-4.8c0-0.4,0-0.4-0.4-0.4c-3.7,0-7.3,0-11,0c-0.4,0-0.8,0-1.2,0c-0.4,0-0.7,0.2-0.7,0.7
	c0,0.1,0,0.2,0,0.3C1.5,6.2,1.5,9.9,1.5,13.5z M19.7,6.1c-1.1-1.1-2.2-2.2-3.2-3.3c0,1,0,2,0,3C16.5,6,16.6,6,16.7,6
	c0.8,0,1.5,0,2.3,0C19.2,6.1,19.4,6.1,19.7,6.1z"/>
<g>
</g>
<g>
</g>
<g>
</g>
<g>
</g>
<g>
</g>
<g>
</g>
<g>
</g>
<g>
</g>
<g>
</g>
<g>
</g>
<g>
</g>
<g>
</g>
<g>
</g>
<g>
</g>
<g>
</g>
</svg>
