<?xml version="1.0" encoding="utf-8"?>
<!-- Generator: Adobe Illustrator 24.1.2, SVG Export Plug-In . SVG Version: 6.00 Build 0)  -->
<svg version="1.1" id="Camada_1" xmlns="http://www.w3.org/2000/svg" xmlns:xlink="http://www.w3.org/1999/xlink" x="0px" y="0px"
	 viewBox="0 0 29.4 29.4" style="enable-background:new 0 0 29.4 29.4;" xml:space="preserve">
<style type="text/css">
	.st0{fill:#30D1B6;}
</style>
<g>
	<g>
		<path class="st0" d="M3,26.3c7.8,0,15.5,0,23.3,0c0-0.1,0-0.2,0-0.4c0-3.7,0-7.5,0-11.2c0-0.9,0.6-1.5,1.4-1.6
			c0.9-0.1,1.7,0.6,1.7,1.5c0,1.3,0,2.5,0,3.8c0,2.7,0,5.4,0,8.2c0,1.7-1.1,2.7-2.7,2.7c-8,0-16,0-23.9,0c-1.7,0-2.7-1.1-2.7-2.7
			c0-4,0-7.9,0-11.9c0-1.1,1-1.8,2-1.5C2.6,13.4,3,14,3,14.8c0,2.4,0,4.9,0,7.3c0,1.3,0,2.6,0,3.9C3,26.1,3,26.2,3,26.3z"/>
		<path class="st0" d="M16.2,18.1c0.1-0.1,0.2-0.2,0.3-0.3c1-1,1.9-1.9,2.9-2.9c0.5-0.5,1.3-0.6,1.9-0.2c0.6,0.4,0.8,1.2,0.6,1.8
			c-0.1,0.2-0.2,0.4-0.4,0.6c-1.9,1.9-3.7,3.7-5.6,5.6c-0.7,0.7-1.6,0.7-2.3,0c-1.9-1.9-3.7-3.7-5.6-5.6c-0.6-0.7-0.7-1.6,0-2.2
			c0.6-0.6,1.5-0.6,2.2,0.1c0.9,0.9,1.9,1.9,2.8,2.8c0.1,0.1,0.1,0.1,0.3,0.2c0-0.2,0-0.3,0-0.4c0-5.4,0-10.7,0-16.1
			c0-0.9,0.7-1.6,1.5-1.6c0.8,0,1.5,0.6,1.5,1.4c0,0.1,0,0.3,0,0.4c0,5.3,0,10.6,0,15.9C16.2,17.8,16.2,17.9,16.2,18.1z"/>
	</g>
</g>
<g>
</g>
<g>
</g>
<g>
</g>
<g>
</g>
<g>
</g>
<g>
</g>
<g>
</g>
<g>
</g>
<g>
</g>
<g>
</g>
<g>
</g>
</svg>
