<?xml version="1.0" encoding="utf-8"?>
<!-- Generator: Adobe Illustrator 25.2.1, SVG Export Plug-In . SVG Version: 6.00 Build 0)  -->
<svg version="1.1" id="Camada_1" xmlns="http://www.w3.org/2000/svg" xmlns:xlink="http://www.w3.org/1999/xlink" x="0px" y="0px"
	 viewBox="0 0 78.4 78.4" style="enable-background:new 0 0 78.4 78.4;" xml:space="preserve">
<style type="text/css">
	.st0{fill:#12C6AF;}
	.st1{fill:#FFFFFF;}
</style>
<circle class="st0" cx="39.2" cy="39.2" r="39.2"/>
<path class="st1" d="M24.4,39.2c0-5.5,0-11,0-16.5c0-1.8,0.7-3,2.2-3.6c0.5-0.2,1.1-0.3,1.6-0.3c6.6,0,13.2,0,19.8,0
	c0.2,0,0.4,0.1,0.6,0.2c3,3,6,5.9,8.9,8.9c0.5,0.5,0.7,1.1,0.7,1.8c0,8.4,0,16.8,0,25.2c0,0.7,0,1.3-0.1,1.9
	c-0.5,1.6-1.8,2.5-3.5,2.5c-5.4,0-10.8,0-16.2,0c-3.3,0-6.6,0-10,0c-0.6,0-1.2-0.1-1.7-0.3c-1.4-0.5-2.2-1.6-2.2-3
	c-0.1-2.5,0-5,0-7.5C24.4,45.5,24.4,42.4,24.4,39.2L24.4,39.2z M26.7,39.2C26.7,39.2,26.8,39.2,26.7,39.2c0,5.4,0,10.9,0,16.3
	c0,1.4,0.3,1.6,1.7,1.6c8.5,0,17.1,0,25.6,0c0.3,0,0.6,0,0.9,0c0.6-0.1,0.9-0.4,1-1c0-0.5,0-0.9,0-1.4c0-8,0-15.9,0-23.9
	c0-0.4-0.1-0.4-0.5-0.4c-1.8,0-3.6,0-5.5-0.1c-1,0-2-0.2-2.8-0.9c0-0.1-0.1-0.3-0.1-0.4c-0.1-2.4-0.1-4.8-0.2-7.2
	c0-0.5,0-0.5-0.5-0.5c-5.5,0-11.1,0-16.6,0c-0.6,0-1.2,0-1.8,0c-0.6,0-1,0.4-1.1,1c0,0.2,0,0.3,0,0.5C26.7,28.2,26.7,33.7,26.7,39.2
	z M54.2,28c-1.7-1.7-3.3-3.3-4.8-4.9c0,1.5,0,3,0,4.5c0,0.3,0.1,0.3,0.4,0.3c1.1,0,2.3,0,3.4,0.1C53.4,28,53.7,28,54.2,28z"/>
</svg>
