<?xml version="1.0" encoding="utf-8"?>
<!-- Generator: Adobe Illustrator 25.2.1, SVG Export Plug-In . SVG Version: 6.00 Build 0)  -->
<svg version="1.1" id="Camada_1" xmlns="http://www.w3.org/2000/svg" xmlns:xlink="http://www.w3.org/1999/xlink" x="0px" y="0px"
	 viewBox="0 0 26.4 26.4" style="enable-background:new 0 0 26.4 26.4;" xml:space="preserve">
<style type="text/css">
	.st0{fill:#606060;}
</style>
<g>
	<path class="st0" d="M12.8,0c2.4,0,4.4,0.5,6.2,1.4c0.4,0.2,0.6,0.5,0.5,0.9c0,0.4-0.2,0.6-0.6,0.8c-0.3,0.1-0.5,0-0.8-0.1
		c-1-0.5-2.1-0.9-3.3-1.1c-2.2-0.3-4.3-0.1-6.3,0.8c-3.7,1.7-6,4.5-6.7,8.5C0.8,17.1,4.6,23,10.7,24.4c6.3,1.4,12.5-2.6,13.7-9
		c0.2-0.8,0.2-1.7,0.2-2.5c0-0.6,0.3-0.9,0.9-0.9c0.5,0,0.9,0.4,0.9,0.9c0,4-1.4,7.3-4.3,10.1c-1.9,1.8-4.3,2.9-6.9,3.3
		c-4.7,0.7-8.6-0.8-11.8-4.2c-1.8-2-2.9-4.3-3.3-7C-0.4,11.2,0.6,7.8,3,4.8c2-2.5,4.7-4,7.8-4.6C11.6,0.1,12.4,0,12.8,0z"/>
	<path class="st0" d="M13,17.3c-0.3,0-0.5-0.1-0.7-0.3c-1.8-1.8-3.6-3.5-5.4-5.3c-0.1-0.1-0.2-0.2-0.3-0.3C6,10.9,6.1,10.3,6.4,10
		c0.4-0.4,0.9-0.3,1.4,0.1c1,1,2,2,3,3c0.6,0.6,1.3,1.3,1.9,1.9c0.2,0.2,0.3,0.2,0.5,0c3.6-3.6,7.3-7.1,10.9-10.7
		c0.2-0.2,0.5-0.5,0.7-0.7c0.4-0.4,1-0.4,1.3,0c0.3,0.4,0.3,0.9-0.1,1.3c-3.1,3-6.1,6-9.2,9.1c-1,1-2.1,2.1-3.1,3.1
		C13.5,17.2,13.3,17.4,13,17.3z"/>
</g>
<g>
</g>
<g>
</g>
<g>
</g>
<g>
</g>
<g>
</g>
<g>
</g>
<g>
</g>
<g>
</g>
<g>
</g>
<g>
</g>
<g>
</g>
<g>
</g>
<g>
</g>
<g>
</g>
<g>
</g>
</svg>
