<?xml version="1.0" encoding="utf-8"?>
<!-- Generator: Adobe Illustrator 25.2.1, SVG Export Plug-In . SVG Version: 6.00 Build 0)  -->
<svg version="1.1" id="Camada_1" xmlns="http://www.w3.org/2000/svg" xmlns:xlink="http://www.w3.org/1999/xlink" x="0px" y="0px"
	 viewBox="0 0 77.9 77.9" style="enable-background:new 0 0 77.9 77.9;" xml:space="preserve">
<style type="text/css">
	.st0{fill:#12C6AF;}
	.st1{fill:#FFFFFF;}
</style>
<circle class="st0" cx="39" cy="39" r="39"/>
<g>
	<path class="st1" d="M41.8,38.9l-5.4,1.8C32.9,42,31,44.6,31,48.1c0,0.2-0.2,0.5-0.2,0.7l-0.3,0.3h20.2v4.6H26v-5.9
		c-0.1-4.8,2.7-9.5,8.8-11.6l4.5-1.5c4.9-1.7,6.3-3.4,6.3-5.7c0-2.4-1.6-4.8-7-4.8c-3.6,0-6.4,1.4-8.8,4.4L26.3,25
		c3.2-3.7,7.3-5.5,12.4-5.5c8.5,0,12.1,4.7,12.1,9.5C50.8,33.4,48.3,36.7,41.8,38.9z"/>
</g>
</svg>
