<?xml version="1.0" encoding="utf-8"?>
<!-- Generator: Adobe Illustrator 24.1.2, SVG Export Plug-In . SVG Version: 6.00 Build 0)  -->
<svg version="1.1" id="Camada_1" xmlns="http://www.w3.org/2000/svg" xmlns:xlink="http://www.w3.org/1999/xlink" x="0px" y="0px"
	 viewBox="0 0 30.6 20.1" style="enable-background:new 0 0 30.6 20.1;" xml:space="preserve">
<g>
	<g>
		<path d="M15.3,0c4.2,0,8.4,0,12.6,0c0.3,0,0.5,0,0.8,0.1c1,0.3,1.7,1.1,1.9,2.1c0,0.1,0,0.3,0,0.4c0,1.1,0,2.1,0,3.2
			c0,3.9,0,7.8,0,11.7c0,0.3,0,0.5-0.1,0.8c-0.3,0.9-1.1,1.6-2,1.8c-0.1,0-0.3,0-0.4,0c-0.1,0-0.2,0-0.3,0c-8.3,0-16.7,0-25,0
			c-0.1,0-0.2,0-0.3,0c-1.1,0-2.1-0.8-2.4-2C0,17.9,0,17.7,0,17.5c0-1.8,0-3.7,0-5.5c0-3.1,0-6.3,0-9.4c0-0.3,0-0.6,0.1-0.8
			C0.4,0.9,1.2,0.2,2.2,0c0.1,0,0.3,0,0.4,0C3,0,3.4,0,3.7,0C7.6,0,11.4,0,15.3,0z M1.4,8.1c0,0.1,0,0.1,0,0.2c0,3,0,6.1,0,9.1
			c0,0,0,0.1,0,0.1c0,0.6,0.5,1,0.9,1.1c0.1,0,0.2,0,0.3,0c8.4,0,16.8,0,25.2,0c0.1,0,0.1,0,0.2,0c0.5,0,1-0.4,1.1-0.9
			c0-0.1,0-0.2,0-0.3c0-3,0-6.1,0-9.1c0,0,0-0.1,0-0.1c0,0,0-0.1,0-0.1C19.9,8.1,10.7,8.1,1.4,8.1C1.5,8.1,1.5,8.1,1.4,8.1z
			 M29.2,3.9C29.2,3.9,29.2,3.9,29.2,3.9c0-0.5,0-1,0-1.4c0-0.7-0.6-1.1-1.1-1.1c-0.1,0-0.1,0-0.2,0c-8.4,0-16.7,0-25.1,0
			c-0.1,0-0.1,0-0.2,0c-0.1,0-0.1,0-0.2,0C1.9,1.5,1.4,1.9,1.4,2.5c0,0.4,0,0.9,0,1.3c0,0,0,0.1,0,0.1c0,0,0.1,0,0.1,0
			C10.7,3.9,19.9,3.9,29.2,3.9C29.1,3.9,29.1,3.9,29.2,3.9z"/>
		<path d="M5.5,13.8c0-1.5,1.3-2.8,2.8-2.8c1.5,0,2.8,1.3,2.8,2.8c0,1.6-1.3,2.8-2.8,2.8C6.7,16.6,5.5,15.3,5.5,13.8z"/>
		<path d="M6.3,11.2C5.5,11.9,5,12.8,5,13.8c0,1.1,0.4,1.9,1.3,2.6c0,0-0.1,0-0.1,0C4.8,17,3.3,16.3,2.7,15c-0.8-1.7,0.2-3.6,2-3.9
			c0.5-0.1,1-0.1,1.5,0.1C6.2,11.2,6.3,11.2,6.3,11.2z"/>
		<path d="M25.7,14.5c-0.5,0-0.9,0-1.4,0c0,0-0.1,0-0.1,0c-0.5,0-0.7-0.5-0.7-0.8c0.1-0.3,0.3-0.6,0.7-0.6c0,0,0.1,0,0.1,0
			c0.9,0,1.9,0,2.8,0c0.1,0,0.1,0,0.2,0c0.3,0,0.5,0.2,0.6,0.6c0,0.2,0,0.3-0.1,0.5c-0.1,0.2-0.3,0.3-0.6,0.4c0,0-0.1,0-0.1,0
			C26.7,14.5,26.2,14.5,25.7,14.5z"/>
		<path d="M15.2,14.5c-0.5,0-0.9,0-1.4,0c0,0-0.1,0-0.1,0c-0.4,0-0.7-0.4-0.6-0.7c0-0.1,0.1-0.3,0.1-0.4c0.1-0.1,0.2-0.2,0.4-0.3
			c0.1,0,0.1,0,0.2,0c0.9,0,1.9,0,2.8,0c0.1,0,0.1,0,0.2,0c0.3,0,0.5,0.2,0.6,0.5c0.1,0.2,0.1,0.4,0,0.5c-0.1,0.2-0.3,0.4-0.6,0.4
			c0,0-0.1,0-0.1,0C16.2,14.5,15.7,14.5,15.2,14.5z"/>
		<path d="M20.5,13.1c0.5,0,0.9,0,1.4,0c0.1,0,0.1,0,0.2,0c0.3,0,0.5,0.3,0.6,0.6c0,0.2,0,0.3-0.1,0.4c-0.1,0.2-0.3,0.3-0.5,0.4
			c-0.1,0-0.1,0-0.2,0c-0.9,0-1.9,0-2.8,0c0,0-0.1,0-0.1,0c-0.4,0-0.7-0.4-0.7-0.7c0-0.2,0.1-0.3,0.2-0.5c0.1-0.1,0.3-0.2,0.5-0.2
			c0.1,0,0.2,0,0.3,0C19.7,13.1,20.1,13.1,20.5,13.1z"/>
	</g>
</g>
<g>
</g>
<g>
</g>
<g>
</g>
<g>
</g>
<g>
</g>
<g>
</g>
<g>
</g>
<g>
</g>
<g>
</g>
<g>
</g>
<g>
</g>
</svg>
