<?xml version="1.0" encoding="utf-8"?>
<!-- Generator: Adobe Illustrator 25.2.1, SVG Export Plug-In . SVG Version: 6.00 Build 0)  -->
<svg version="1.1" id="Camada_1" xmlns="http://www.w3.org/2000/svg" xmlns:xlink="http://www.w3.org/1999/xlink" x="0px" y="0px"
	 viewBox="0 0 110.5 110.5" style="enable-background:new 0 0 110.5 110.5;" xml:space="preserve">
<style type="text/css">
	.st0{fill:#12C6AF;}
	.st1{fill:#FFFFFF;}
</style>
<circle class="st0" cx="55.3" cy="55.3" r="55.3"/>
<g>
	<path class="st1" d="M77.5,41.1c0.2-0.1,0.3-0.2,0.5-0.4c3-2.2,6.2-2.3,9.6-0.9c1.2,0.5,2,1.4,2.6,2.6c0.2,0.4,0.5,0.8,0.9,1.1
		c2.2,1.9,3.3,4.3,3.7,7.1c0.1,0.9-0.4,1.7-1.3,1.9c-0.8,0.2-1.6-0.3-1.8-1.2c-0.2-0.8-0.4-1.6-0.7-2.4c-0.1-0.4-0.3-0.7-0.5-1.3
		c-0.7,1.7-1.9,2.6-3.6,2.7c-1.2,0.1-2.3-0.4-3.2-1.2c-1.1-1-1.7-2.2-1.4-3.6c0.3-1.5,1.4-2.3,2.5-3.1c-1.7-0.1-3.4-0.3-4.8,1.1
		c-0.4,0.4-0.4,0.6-0.1,1.1c1.5,2.6,2.4,5.3,2.6,8.3c0.4,4.8-1,9.1-3.6,13c-0.7,1.1-1.6,2-2.4,3c-0.1,0.2-0.3,0.5-0.3,0.7
		c0.1,2.6,0.3,5.1,0.5,7.7c0,0.5,0,1.1,0,1.6c-0.2,1.3-1.2,2.2-2.5,2.2c-3.2,0-6.3,0-9.5,0c-1.5,0-2.6-1.2-2.6-2.7
		c0-0.9,0-1.8,0-2.7c-5.9,0-11.9,0-18,0c0,0.6,0,1.1,0,1.7c0,0.5,0.1,1,0,1.5C44,79.9,43,81,41.8,81c-2.4,0.1-4.8,0-7.2,0
		c-0.7,0-1.4,0-2.1,0c-1.8,0-3-1.2-2.9-3c0.1-2.6,0.3-5.2,0.5-7.8c0.1-0.8-0.1-1.4-0.6-2c-1.7-1.8-3.1-3.9-4.1-6.2
		c-0.1-0.2-0.3-0.3-0.5-0.3c-0.6,0-1.3,0-1.9,0c-2.3,0.1-4-1.4-4-3.9c-0.1-2.3,0-4.5,0-6.8c0.1-2.6,1.7-4.2,4.3-4.1
		c0.6,0,1.4,0.2,1.9-0.1s0.7-1,0.9-1.6c1-2,2.3-3.7,3.8-5.3c0.3-0.3,0.3-0.6,0.1-1c-0.8-1.4-1.9-2.6-3.1-3.7
		c-0.2-0.1-0.3-0.3-0.5-0.4c-1.5-1.4-1.3-3.3,0.5-4.3c0.8-0.4,1.7-0.7,2.6-0.9c4-0.7,7.7,0.1,11.1,2.3c0.8,0.5,1.4,0.5,2.1,0.2
		c1-0.3,2.1-0.6,3.1-0.8c1-0.2,1.7,0.1,2.1,0.8c0.6,1.1,0,2.1-1.4,2.5c-1.2,0.3-2.3,0.6-3.5,0.9c-0.6,0.2-1.3,0.4-1.9,0.7
		c-0.3,0.1-0.5,0.1-0.7-0.1c-2.7-2.7-6-3.5-9.7-3.2c-0.5,0-0.9,0.1-1.6,0.1c0.6,0.6,1,1.1,1.5,1.6c1.4,1.6,2.4,3.4,3.3,5.3
		c0.2,0.3,0,0.5-0.2,0.7c-1.1,1.2-2.4,2.4-3.4,3.7c-1.2,1.6-2.2,3.4-2.8,5.3c-0.1,0.5-0.4,0.7-0.9,0.7c-1.3,0-2.6,0-3.8,0
		c-0.5,0-0.7,0.1-0.7,0.6c0,2.3,0,4.7,0,7c0,0.4,0.1,0.5,0.5,0.5c1.4,0,2.7,0,4.1,0c0.5,0,0.7,0.2,0.8,0.6c1,3.3,2.9,6.1,5.4,8.4
		c0.2,0.2,0.3,0.6,0.3,0.9c-0.1,2.7-0.3,5.3-0.5,8c-0.1,1.4-0.1,1.4,1.3,1.4c2,0,4.1,0,6.1,0c0.4,0,0.5-0.1,0.5-0.5
		c-0.1-1-0.1-1.9-0.2-2.9c-0.1-1.3,0.4-1.9,1.7-2.1c0.3,0,0.5,0,0.8,0c6.5,0,12.9,0,19.4,0c0.5,0,1.1,0,1.6,0.1
		c1.1,0.1,1.6,0.8,1.6,1.9c-0.1,1-0.2,2.1-0.3,3.1c0,0.3,0,0.5,0.4,0.5c2.4,0,4.7,0,7.1,0c0.1,0,0.2,0,0.4,0c-0.1-1-0.1-2-0.2-3
		c-0.1-2-0.2-4-0.4-6.1c0-0.5,0.1-0.9,0.5-1.3c2.9-2.7,4.9-5.9,5.6-9.8c0.9-5-0.3-9.5-3.3-13.5c-1.4-1.8-3.1-3.3-4.9-4.7
		c-0.7-0.5-0.9-1.2-0.6-2c0.2-0.6,0.9-1,1.6-0.9c0.3,0,0.7,0.2,1,0.4c1.7,1.2,3.2,2.5,4.5,4.1C77.4,40.9,77.4,41,77.5,41.1z
		 M87.7,45.8c-0.1-0.1-0.2-0.3-0.3-0.3c-0.6-0.1-1.2-0.1-1.7,0.4c-0.3,0.2-0.3,0.5,0.1,0.7c0.3,0.2,0.6,0.3,0.8,0.5
		c0.3,0.2,0.5,0.1,0.7-0.2C87.4,46.5,87.5,46.2,87.7,45.8z"/>
	<path class="st1" d="M70.8,29.9c0.1,2.5-0.9,4.7-2.3,6.7c-0.3,0.5-0.7,0.8-1.3,0.9c-0.8,0.1-1.3-0.2-1.7-0.8
		c-0.4-0.7-0.3-1.3,0.2-1.9c2-2.3,2.4-5.5,1.1-8.2c-1.3-2.5-4.1-4.2-7-4c-4.6,0.3-7.7,4.7-6.6,9.4c0.1,0.5,0.2,1,0,1.5
		c-0.2,0.7-0.7,1-1.4,1s-1.3-0.2-1.5-0.9c-0.3-0.9-0.6-1.8-0.7-2.7c-0.5-5.8,3.5-10.8,9.3-11.5c4.8-0.6,9.7,2.3,11.3,7.3
		C70.5,27.7,70.6,28.9,70.8,29.9C70.9,29.9,70.9,29.9,70.8,29.9z"/>
	<path class="st1" d="M52.6,39.4c-0.6,0-1.2,0-1.9,0c-0.9,0-1.5-0.5-1.6-1.3c-0.2-0.7,0.2-1.5,1-1.8c0.3-0.1,0.6-0.2,1-0.2
		c4.4,0,8.7,0.4,12.8,2.1c1.4,0.6,2.6,1.4,3.9,2.2c0.7,0.4,0.8,1.1,0.7,1.8c-0.1,0.6-0.6,1-1.1,1.1c-0.4,0.1-0.9,0.1-1.2-0.1
		c-2.9-2.2-6.3-3.1-9.8-3.4C55.2,39.7,53.9,39.6,52.6,39.4C52.6,39.3,52.6,39.3,52.6,39.4z"/>
	<path class="st1" d="M36.3,46.8c0-1.2,0.9-2.1,2.1-2.1c1.2,0,2.1,0.9,2.1,2.1c0,1.1-1,2.1-2.1,2.1C37.2,48.9,36.3,48,36.3,46.8z"/>
</g>
</svg>
