<?xml version="1.0" encoding="utf-8"?>
<!-- Generator: Adobe Illustrator 25.2.1, SVG Export Plug-In . SVG Version: 6.00 Build 0)  -->
<svg version="1.1" id="Camada_1" xmlns="http://www.w3.org/2000/svg" xmlns:xlink="http://www.w3.org/1999/xlink" x="0px" y="0px"
	 viewBox="0 0 37.5 37.5" style="enable-background:new 0 0 37.5 37.5;" xml:space="preserve">
<style type="text/css">
	.st0{fill:#56BCB7;}
</style>
<g>
	<path class="st0" d="M18.7,0c10.3,0,18.8,8.4,18.8,18.8c0,10.3-8.4,18.8-18.8,18.8C8.4,37.5,0,29.1,0,18.7C0,8.4,8.4,0,18.7,0z
		 M3.8,18.8c0,8.2,6.6,14.9,14.9,14.9c8.3,0,14.9-6.6,14.9-14.9c0-8.3-6.6-14.9-14.9-14.9C10.5,3.8,3.8,10.5,3.8,18.8z"/>
	<path class="st0" d="M20.1,13.3c0,1.8,0,3.7,0,5.5c0,0.2,0.1,0.3,0.3,0.4c3,1.3,5.9,2.5,8.9,3.8c0.6,0.3,1,0.9,0.8,1.6
		c-0.2,0.7-0.8,1.2-1.4,1.2c-0.2,0-0.3-0.1-0.5-0.1c-3.3-1.4-6.7-2.9-10-4.3c-0.6-0.3-0.9-0.8-0.9-1.4c0-1.3,0-2.5,0-3.8
		c0-2.8,0-5.6,0-8.4c0-0.8,0.5-1.4,1.2-1.5c0.9-0.1,1.7,0.5,1.7,1.4c0,1.2,0,2.5,0,3.7C20.1,12,20.1,12.6,20.1,13.3z"/>
</g>
<g>
</g>
<g>
</g>
<g>
</g>
<g>
</g>
<g>
</g>
<g>
</g>
</svg>
