<?xml version="1.0" encoding="utf-8"?>
<!-- Generator: Adobe Illustrator 25.2.1, SVG Export Plug-In . SVG Version: 6.00 Build 0)  -->
<svg version="1.1" id="Camada_1" xmlns="http://www.w3.org/2000/svg" xmlns:xlink="http://www.w3.org/1999/xlink" x="0px" y="0px"
	 viewBox="0 0 365.5 172.1" style="enable-background:new 0 0 365.5 172.1;" xml:space="preserve">
<style type="text/css">
	.st0{fill:#DCEEF3;}
	.st1{fill:#41B7A8;}
	.st2{fill:#03918E;}
	.st3{fill:#F4F3F4;}
</style>
<g>
	<path class="st0" d="M59.8,152.3c0,0,14.6-3.8,16.6-2.9c2,0.9,5.3,14.5,4.3,14.9c-1,0.3-5.7-4.4-5.7-4.4s-1.2,2.3-3,1.5
		c-1.8-0.8-3.8-4-3.8-4s-0.5,1.6-2.4,0.9c-1.9-0.7-4.4-4.3-4.4-4.3L59.8,152.3z"/>
	<path class="st0" d="M23.3,132.7c0,0-7.7-13-9.7-13.8c-2.1-0.8-14,6.5-13.6,7.5c0.5,0.9,7.1,0.9,7.1,0.9s-0.8,2.5,1,3.2
		c1.8,0.7,5.5-0.1,5.5-0.1s-0.8,1.5,1,2.3s6.1,0.1,6.1,0.1L23.3,132.7z"/>
	<g>
		<path class="st1" d="M67.8,141.5l-12.3,24.7c-0.4,0.7-1.3,1-2,0.7l-39.1-19.5c-0.7-0.4-1-1.3-0.7-2l12.3-24.7
			c0.1-0.2,0.2-0.3,0.3-0.4c0.4-0.4,1.1-0.5,1.7-0.2l39.1,19.5c0.6,0.3,0.9,0.9,0.8,1.5C68,141.2,67.9,141.4,67.8,141.5z"/>
		<path class="st2" d="M15.8,145.8l23.1-2.1c1.2-0.1,2.3,0.4,2.9,1.4L54.3,165l-11.5-21c-0.6-1.2-2-1.9-3.3-1.7L15.8,145.8z"/>
		<path class="st1" d="M67.9,141.2l-28.3,4.6l-13.3-25.4c0.5-0.5,1.2-0.7,1.7-0.4l39.1,19.5C67.7,139.8,68,140.5,67.9,141.2z"/>
		<path class="st2" d="M27.2,122l11.5,22c0.6,1.1,1.7,1.7,2.9,1.5l24.3-3.9l-24.7,5.6c-1.4,0.4-2.8-0.3-3.3-1.7L27.2,122z"/>
	</g>
</g>
<g>
	<path class="st0" d="M337.2,37c0,0,9.8-15.2,12.3-16.1c2.5-0.9,16.5,8.5,15.9,9.6c-0.6,1.1-8.6,0.8-8.6,0.8s0.9,3-1.4,3.8
		c-2.2,0.8-6.6-0.4-6.6-0.4s0.8,1.8-1.4,2.8c-2.2,0.9-7.3-0.2-7.3-0.2L337.2,37z"/>
	<path class="st0" d="M289,49.6c0,0-17.3-5.2-19.8-4.2c-2.5,1-7.1,17.2-5.9,17.6c1.2,0.4,7-5,7-5s1.3,2.8,3.5,2
		c2.2-0.8,4.8-4.6,4.8-4.6s0.5,1.9,2.8,1.2s5.4-4.9,5.4-4.9L289,49.6z"/>
	<g>
		<path class="st1" d="M335.5,21.1l9.3,31.9c0.3,0.9-0.3,1.9-1.2,2.2l-50.4,14.7c-0.9,0.3-1.9-0.3-2.2-1.2l-9.3-31.9
			c-0.1-0.2-0.1-0.4-0.1-0.6c0.1-0.7,0.5-1.4,1.3-1.6l50.4-14.7c0.7-0.2,1.5,0.1,1.9,0.6C335.3,20.6,335.4,20.8,335.5,21.1z"/>
		<path class="st2" d="M293.1,67.3l18.6-20.7c0.9-1,2.4-1.5,3.8-1.1l27.2,7.4l-27.3-9.2c-1.5-0.6-3.3-0.1-4.3,1.2L293.1,67.3z"/>
		<path class="st1" d="M335.3,20.7l-21.1,27.1l-32.4-11.6c0-0.8,0.5-1.5,1.2-1.8l50.4-14.7C334,19.6,334.8,20,335.3,20.7z"/>
		<path class="st2" d="M283.7,37l28.1,10c1.4,0.5,2.8,0.1,3.8-1.1l18.3-23.2l-17.3,25.1c-0.9,1.5-2.7,2-4.3,1.2L283.7,37z"/>
	</g>
</g>
<g>
	<path class="st1" d="M89.7,60.1l78.6-58.3c3.2-2.4,7.6-2.4,10.8,0l77.4,58.2H89.7z"/>
	<path class="st1" d="M251,172.1H95.2c-4.5,0-8.1-3.6-8.1-8.1V67.4c0-4.5,3.6-8.1,8.1-8.1H251c4.5,0,8.1,3.6,8.1,8.1V164
		C259.1,168.5,255.4,172.1,251,172.1z"/>
	<path class="st3" d="M251.3,66.8l-18.1,14l-0.2,0.2l-14.7,11.3l-10.6,8.2l-22,17.1l-4.2,3.3l-2.4-1.4c-3.7-2.3-8.3-2.2-12,0
		l-2.3,1.5L161,118l-22.8-17.6l-10.6-8.2l-14.7-11.3l-2.7-2.1L94.4,66.8H251.3z"/>
	<path class="st2" d="M253,164.5l-71.5-43.7l-2.4-1.4c-3.7-2.3-8.3-2.2-12,0l-2.3,1.5l-70.3,43.6L161,118l5.9-4.1c4-3,9.6-3,13.7,0
		l5.2,3.6L253,164.5z"/>
	<rect x="94.4" y="15.7" class="st3" width="156.9" height="51.1"/>
	<rect x="110.2" y="33.7" class="st0" width="123.1" height="8.2"/>
	<rect x="110.2" y="53.2" class="st0" width="123.1" height="8.2"/>
	<polygon class="st0" points="233.2,72.8 233.2,80.8 233,80.9 112.9,80.9 110.2,78.9 110.2,72.8 	"/>
	<polygon class="st0" points="218.3,92.3 207.8,100.5 138.2,100.5 127.6,92.3 	"/>
</g>
<g>
</g>
<g>
</g>
<g>
</g>
<g>
</g>
<g>
</g>
<g>
</g>
</svg>
