<?xml version="1.0" encoding="utf-8"?>
<!-- Generator: Adobe Illustrator 25.2.1, SVG Export Plug-In . SVG Version: 6.00 Build 0)  -->
<svg version="1.1" id="Camada_1" xmlns="http://www.w3.org/2000/svg" xmlns:xlink="http://www.w3.org/1999/xlink" x="0px" y="0px"
	 viewBox="0 0 164.3 143.7" style="enable-background:new 0 0 164.3 143.7;" xml:space="preserve">
<style type="text/css">
	.st0{fill:#12C6AF;}
</style>
<path class="st0" d="M0,64.9c0.1,1,0.3,2.1,0.4,3.1c0.1,0,0.2,0,0.3,0c0-1.2,0-2.5,0-3.7c0.1-4.1,1-8,2.1-11.9
	c4.5-15.2,12.9-27.8,25.5-37.5c9.6-7.4,20.4-12,32.3-14c7.4-1.2,14.8-1.2,22.3,0c9.2,1.4,17.9,4.4,25.9,9.2
	c12.4,7.4,21.7,17.6,27.9,30.5c3,6.2,5,12.8,6.1,19.6c0.2,1.5,0.2,1.5,1.7,1.5c4.7,0,9.3,0,14,0c1.3,0,2.7,0.1,3.8,1
	c2.3,1.9,2.8,4.8,0.9,7.1c-1.6,1.9-3.4,3.6-5.2,5.4c-8.5,8.5-17,17-25.5,25.5c-2.6,2.6-5.6,2.3-7.8,0.1c-0.3-0.3-0.5-0.5-0.8-0.8
	c-5.9-5.9-11.8-11.8-17.7-17.7c-3.7-3.7-7.5-7.4-11.2-11.2c-0.6-0.6-1.1-1.2-1.5-1.8c-2-3,0-7.1,3.6-7.5c0.7-0.1,1.4-0.1,2.1-0.1
	c3.8,0,7.6,0,11.4,0c0.4,0,0.8-0.1,1.3-0.1c-1.2-4.4-2.8-8.5-5.3-12.3C100,39.3,90.8,33.2,79,31.2c-11.6-2-22.2,0.5-31.6,7.6
	c-9,6.7-14.6,15.7-16.1,26.9C29,82.5,35.1,96,48.8,105.8c8.4,6,18,8.1,28.3,6.8c8.7-1,16.3-4.6,22.7-10.7c0.4-0.4,0.8-0.8,1.2-1.1
	c2.2-1.9,4.8-1.9,7,0c2.1,1.9,4.1,3.9,6.2,6c2.7,2.7,5.5,5.5,8.2,8.2c2.4,2.4,2.4,5.2,0,7.6c-7.8,7.8-16.8,13.5-27.3,17.1
	c-5.8,2-11.8,3-17.9,3.7c-4.6,0.5-9.2,0.2-13.7-0.4c-12-1.4-23-5.6-32.8-12.6C18,121.6,9.2,109.7,4,95.1c-1.6-4.4-2.5-8.9-3.2-13.5
	c-0.2-1.6-0.1-3.3-0.2-5c0-0.3-0.1-0.5-0.2-0.8C0.3,77,0.1,78.3,0,79.5C0,74.6,0,69.7,0,64.9z M104.5,111.4
	c-0.3,0.2-0.5,0.3-0.6,0.4c-3.3,2.6-6.8,4.9-10.6,6.6c-11,4.9-22.4,6.1-34.2,3c-13.1-3.5-23.3-11-30.6-22.5
	C22.6,89.5,20,79.2,20.8,68c0.4-5.4,1.6-10.7,3.7-15.7C29,41.9,36,33.7,45.7,27.8c8-4.8,16.8-7.2,26.1-7.3c7-0.1,13.7,1.4,20,4.1
	c11.1,4.8,19.5,12.5,25.2,23.1c3,5.7,4.8,11.7,5.7,18.1c0.4,3-1.8,5.7-4.8,5.8c-2.3,0.1-4.6,0-6.8,0.1c-0.3,0-0.6,0-0.9,0
	c0,0.1-0.1,0.2-0.1,0.2c6.2,6.1,12.4,12.1,18.4,18c6-6,12.1-12.1,18.4-18.3c-0.5,0-1,0-1.5,0c-2.3,0-4.5,0.1-6.8,0
	c-2.9-0.1-4.7-1.9-5-4.8c-0.3-2.4-0.6-4.8-1.1-7.2c-1.5-7.7-4.4-14.9-8.7-21.5c-4.7-7.3-10.7-13.4-18-18.1
	c-3.8-2.5-7.8-4.6-12.1-6.1c-4.3-1.5-8.7-2.7-13.3-3.3C75,9.9,69.6,9.8,64.2,10.5c-4.4,0.6-8.8,1.6-13,3.1
	c-10.6,3.7-19.4,10-26.5,18.5C16.4,42,11.7,53.3,10.4,66c-0.7,7-0.1,14,1.6,20.8c2.4,9.6,6.9,18.2,13.4,25.6
	c4.4,5,9.4,9.2,15.2,12.6c8,4.7,16.6,7.4,25.8,8.3c5.2,0.5,10.5,0.2,15.7-0.6c3.7-0.6,7.2-1.6,10.7-2.8c7-2.5,13.3-6.2,18.8-11
	C109.3,116.4,106.9,113.9,104.5,111.4z"/>
</svg>
