<?xml version="1.0" encoding="utf-8"?>
<!-- Generator: Adobe Illustrator 25.2.1, SVG Export Plug-In . SVG Version: 6.00 Build 0)  -->
<svg version="1.1" id="Camada_1" xmlns="http://www.w3.org/2000/svg" xmlns:xlink="http://www.w3.org/1999/xlink" x="0px" y="0px"
	 viewBox="0 0 832.3 678.1" style="enable-background:new 0 0 832.3 678.1;" xml:space="preserve">
<style type="text/css">
	.st0{fill:#F4A492;}
	.st1{fill:#FFD803;}
	.st2{fill:#55BBAC;}
	.st3{fill:#16AE8F;}
	.st4{fill:#FEE3BF;}
	.st5{fill:#E72687;}
	.st6{fill:#352F73;}
	.st7{fill:#FCC13F;}
	.st8{fill:#FAEA27;}
	.st9{fill:#56BAA4;}
	.st10{fill:#B3DFEB;}
	.st11{fill:#D3EBF2;}
	.st12{fill:#7271B3;}
	.st13{fill:#FFFFFF;}
	.st14{clip-path:url(#SVGID_2_);}
	.st15{fill:#FAE0B2;}
	.st16{fill:#56BCB7;}
	.st17{fill:#F4FAFC;}
	.st18{fill:#2D2A61;}
	.st19{fill:#EE755A;}
	.st20{fill:#F4A493;}
	.st21{fill:#41B7A8;}
	.st22{fill:#F18661;}
	.st23{fill:#F6A235;}
	.st24{fill:#03918E;}
	.st25{fill:#F18C7F;}
	.st26{fill:#F39C8E;}
	.st27{fill:#D6087F;}
	.st28{fill:#EF7A1D;}
	.st29{fill:#F8A819;}
</style>
<g>
	<path class="st0" d="M325.8,170.1c-2.6,3.8-4.5,12.5-6.2,17.3c-1.7,4.7-2,19-2.3,22.1c-0.3,3.1,0.8,13,0.8,13l12.8,2.1
		c0,0,1.2-7.3,4.6-11.2c3.7-4.2,10.8-14,9-17.7c-2.9-6-18.3-5.5-18.3-5.5s0.7-4.7,1.1-8.2c0.4-3.5,4.8-10,3.1-12.1
		C328.6,167.6,326.4,169.1,325.8,170.1L325.8,170.1z"/>
	<polygon class="st1" points="76.4,113.4 75.6,125.7 64,130.1 91.5,149.6 103.2,145.1 103.2,132.6 76.4,113.4 	"/>
	<path class="st2" d="M195.4,174c0,27.1-22,49.1-49.1,49.1s-49.1-22-49.1-49.1c0-27.1,22-49.1,49.1-49.1S195.4,146.9,195.4,174
		L195.4,174z"/>
	<path class="st3" d="M185.3,174c0,21.5-17.5,39-39,39c-21.5,0-39-17.5-39-39c0-21.5,17.5-39,39-39C167.9,135,185.3,152.5,185.3,174
		L185.3,174z"/>
	<path class="st4" d="M171.3,174c0,13.8-11.2,25-25,25c-13.8,0-25-11.2-25-25c0-13.8,11.2-25,25-25C160.1,149,171.3,160.2,171.3,174
		L171.3,174z"/>
	<path class="st5" d="M158.4,174c0,6.6-5.4,12-12,12c-6.6,0-12-5.4-12-12c0-6.6,5.4-12,12-12C153,162,158.4,167.4,158.4,174
		L158.4,174z"/>
	<path class="st6" d="M145.5,175c-0.2,0-0.4-0.1-0.6-0.2l-68.6-47c-0.5-0.3-0.6-1-0.3-1.4c0.3-0.5,1-0.6,1.4-0.3l67.9,46.5
		C145.9,173,145.8,175,145.5,175L145.5,175z"/>
	<polygon class="st7" points="142.7,168.1 143,172.1 139.1,173.4 145.8,175.6 146.2,172.4 142.7,168.1 	"/>
	<path class="st1" d="M518.5,613h-23.6c-9,0-16.3-7.3-16.3-16.3v-71.9l-98.4-1.4v73.2c0,9-7.3,16.3-16.3,16.3h-21.4
		c-21.6,0-39.2,17.5-39.2,39.2l0,0h254.2l0,0l0,0C557.7,630.6,540.1,613,518.5,613L518.5,613z"/>
	<polygon class="st8" points="814.5,651 567.1,651 567.1,149.7 814.5,149.7 814.5,651 	"/>
	<polygon class="st2" points="796.7,364.2 797.8,371.6 786.1,374.6 786.4,385.6 778,389.3 779.9,393.5 791.1,388.5 790.8,378.2 
		802.9,375 801.3,363.9 796.7,364.2 	"/>
	<path class="st1" d="M706.8,128.4l-3.3-7.8l-8.3-1.7c-1-0.2-1.3-1.4-0.5-2l6.4-5.6l-0.9-8.5c-0.1-1,0.9-1.6,1.8-1.1l7.3,4.4
		l7.8-3.5c0.9-0.4,1.8,0.4,1.6,1.3l-1.9,8.3l5.7,6.3c0.7,0.7,0.2,1.9-0.8,2l-8.5,0.7l-4.2,7.4C708.4,129.4,707.2,129.3,706.8,128.4
		L706.8,128.4z"/>
	<path class="st1" d="M495.4,54.5l-2.1-4.9l-5.2-1.1c-0.6-0.1-0.8-0.9-0.3-1.3l4-3.5l-0.6-5.3c-0.1-0.6,0.6-1,1.1-0.7l4.5,2.7
		l4.8-2.2c0.6-0.2,1.1,0.2,1,0.8l-1.2,5.2l3.6,3.9c0.4,0.4,0.1,1.2-0.5,1.2l-5.3,0.5l-2.6,4.6C496.4,55.1,495.6,55,495.4,54.5
		L495.4,54.5z"/>
	<polygon class="st5" points="825.7,401 822.4,405.6 814.4,401 808.7,407.2 802.2,404.7 801,408 809.7,411.3 815.1,405.5 
		823.4,410.2 828.3,403.3 825.7,401 	"/>
	<path class="st7" d="M712.9,69.9l-43.7-22.8c-0.9-0.5-1.2-1.5-0.8-2.4l15.4-29.4c0.5-0.9,1.5-1.2,2.4-0.8l43.7,22.8
		c0.9,0.5,1.2,1.5,0.8,2.4l-15.4,29.4C714.8,70,713.8,70.3,712.9,69.9L712.9,69.9z"/>
	<path class="st7" d="M701.8,27.5l-13.3-6.9c-0.9-0.5-1.2-1.5-0.8-2.4l2.3-4.5c0.5-0.9,1.5-1.2,2.4-0.8l13.3,6.9
		c0.9,0.5,1.2,1.5,0.8,2.4l-2.3,4.5C703.7,27.6,702.6,28,701.8,27.5L701.8,27.5z"/>
	<path class="st4" d="M715.4,69.3c-0.5,0.8-1.5,1-2.3,0.6l-44-23c-0.8-0.4-1.2-1.4-0.8-2.3l11-27.2c0.2-0.5,0.6-0.8,1-1
		c0.5-0.2,1-0.1,1.4,0.1l48.8,25.5c0.4,0.2,0.8,0.6,0.9,1.1c0.1,0.5,0,1-0.2,1.4L715.4,69.3L715.4,69.3z"/>
	<polygon class="st9" points="697.6,308.4 689.3,310.7 687.5,300.6 690.2,300.1 691.5,307.2 696.8,305.7 697.6,308.4 	"/>
	<path class="st10" d="M737.5,85.6l5.4,5.1c12.8,12.2,23.2,26.6,30.7,42.6l0.8,1.8c0,0,14.1,1.2,16.1-11.5l0,0
		c-12.4-14-22.6-29-31-45.6l-2.6-6L737.5,85.6L737.5,85.6z"/>
	<path class="st11" d="M757,71.9c0.7,1-3.1,4.8-8.5,8.6c-5.4,3.7-10.3,6-11,5c-0.7-1,3.1-4.9,8.5-8.6
		C751.4,73.2,756.3,70.9,757,71.9L757,71.9z"/>
	<path class="st12" d="M757,72L757,72c0,0-10.8,9.1-15.2,10l1.4,1.9c1.6-0.9,3.5-2,5.4-3.3C753.8,76.8,757.6,73,757,72L757,72z"/>
	<path class="st5" d="M771.4,98.4c0,1.6-0.6,8.3-11.9,11.2c0.7,1,1.5,2,2.2,3.1c7.1-2.1,10.3-5.8,11.8-8.6c0.2-0.4,0.5-1,0.7-1.5
		C773.2,101.2,772.3,99.8,771.4,98.4L771.4,98.4z"/>
	<polygon class="st5" points="760.5,107.6 743.9,107 747.9,110.3 745.5,114.6 761.2,110.6 760.5,107.6 	"/>
	<polygon class="st5" points="762,111.5 756.1,121.7 760.3,120.1 761.9,123.4 764.6,112.6 762,111.5 	"/>
	<path class="st5" d="M764.3,114.2c-2.9,0.2-5.5-2.1-5.7-5.1c-0.2-3,2-5.6,4.9-5.8c2.9-0.2,5.5,2.1,5.7,5.1
		C769.4,111.4,767.2,114,764.3,114.2L764.3,114.2z"/>
	<polygon class="st1" points="104.3,62.9 102.4,67.8 106,71.6 103.5,76.9 108.7,79.9 106.1,86 110.5,89.3 108.9,95.6 106.5,95 
		107.7,90.3 103,86.8 105.5,80.9 100.3,77.9 103.1,72.1 99.5,68.3 101.3,63.8 98.4,61.8 99.8,59.8 104.3,62.9 	"/>
	<polygon class="st3" points="32.4,188.3 37.2,190.3 41.1,186.6 46.4,189.2 49.4,184.1 55.5,186.7 58.8,182.3 65.1,183.9 
		64.5,186.3 59.8,185.1 56.3,189.8 50.4,187.2 47.4,192.4 41.5,189.6 37.7,193.1 33.2,191.3 31.2,194.1 29.2,192.7 32.4,188.3 	"/>
	<path class="st5" d="M70.8,266.6l-30.1,4.3c-2.9,0.4-5.7-1.6-6.1-4.6L32.2,249c-0.4-2.9,1.6-5.7,4.6-6.1l30.1-4.3
		c2.9-0.4,5.7,1.6,6.1,4.6l2.5,17.3C75.8,263.5,73.7,266.2,70.8,266.6L70.8,266.6z"/>
	<path class="st13" d="M61.4,254.3c0.3-0.3,0.5-0.7,0.4-1.1c-0.1-0.4-0.3-0.8-0.7-0.9l-12-4.8c-0.4-0.2-0.8-0.1-1.2,0.2
		c-0.3,0.3-0.5,0.7-0.4,1.1l1.8,12.8c0.1,0.4,0.3,0.8,0.7,0.9c0.4,0.2,0.8,0.1,1.2-0.2L61.4,254.3L61.4,254.3z"/>
	<polygon class="st1" points="51.2,156.9 45.1,151.2 37.2,154.4 30.8,147.5 23.5,153.5 15.9,146 8.5,150.7 0,144.7 2.3,141.5 
		8.6,146 16.4,141.1 23.7,148.2 31.2,142.1 38.3,149.7 46,146.6 51.6,151.9 56.2,148.8 58.4,152 51.2,156.9 	"/>
	<path class="st1" d="M642.9,529.6H203.7c-10.9,0-19.7-8.8-19.7-19.7V251.7c0-10.9,8.8-19.7,19.7-19.7h439.2
		c10.9,0,19.7,8.8,19.7,19.7v258.2C662.6,520.8,653.8,529.6,642.9,529.6L642.9,529.6z"/>
	<g>
		<defs>
			<path id="SVGID_1_" d="M196.2,508.8v-256c0-4.8,3.9-8.6,8.6-8.6h437c4.8,0,8.6,3.9,8.6,8.6v256c0,4.8-3.9,8.6-8.6,8.6h-437
				C200,517.4,196.2,513.5,196.2,508.8L196.2,508.8z"/>
		</defs>
		<clipPath id="SVGID_2_">
			<use xlink:href="#SVGID_1_"  style="overflow:visible;"/>
		</clipPath>
		<g class="st14">
			<defs>
				<rect id="SVGID_3_" x="196.2" y="244.1" width="454.2" height="273.3"/>
			</defs>
			<clipPath id="SVGID_4_">
				<use xlink:href="#SVGID_3_"  style="overflow:visible;"/>
			</clipPath>
			<g style="clip-path:url(#SVGID_4_);">
				
					<image style="overflow:visible;" width="1984" height="1194" xlink:href="A93053A4.jpg"  transform="matrix(0.2297 0 0 -0.2297 195.5053 517.9753)">
				</image>
			</g>
		</g>
	</g>
	<polygon class="st4" points="623.6,499.7 339,499.7 339,264.3 623.6,264.3 623.6,499.7 	"/>
	<path class="st15" d="M258.3,617.1h-108c-7.4,0-13.5,6.2-13.5,14l0,0c0,7.7,6,14,13.5,14h108C253.3,636.4,253.3,625.6,258.3,617.1
		L258.3,617.1z"/>
	<path class="st4" d="M47.1,653.1L47.1,653.1c0,1.1,0.9,2.1,2.1,2.1h783.1V651H49.2C48.1,651,47.1,651.9,47.1,653.1L47.1,653.1z"/>
	<path class="st2" d="M380.4,529.3h38.3l-1.5-6.4l10.4-46.5l14.8-91.9l-46.9-13.4l-12.4,32.1c0,0-8.1,76.6-3.4,122.5
		C379.9,526.7,380.1,527.9,380.4,529.3L380.4,529.3z"/>
	<polygon class="st3" points="472.9,529.3 470.6,522.9 466,408.5 455.4,372.8 401.6,373.9 400.1,402.2 436,529.3 472.9,529.3 	"/>
	<path class="st16" d="M406.9,244.1l-54.5,31.5l-17.6-60.8l-19.4,1.3c0,0,11,88.3,20.9,94.5c12.6,7.9,58.6-9.1,58.6-9.1L406.9,244.1
		L406.9,244.1z"/>
	<path class="st17" d="M449.5,241.6c0,0,18,2.3,22.2,5.4c4.7,3.5,19.4,19.7,19.4,19.7s-30.5,87.5-29.3,103
		c1.2,15.6,4.5,38.6,4.5,38.6s-59.3,3.7-81.7-5.1c0,0,7.1-35.3,7.1-44.5c0-9.3,10.4-100.5,13.3-105.4c2.8-4.8,21.3-12.2,21.3-12.2
		L449.5,241.6L449.5,241.6z"/>
	<path class="st16" d="M368.1,476.9c-0.4-1.9,12.2-90.1,12.4-93.2c2.5-31.1,14.2-125.6,25.1-138.7c1.3-1.2,4.6-2.2,8.1-2.7
		c6-0.7,12.4-1.2,12.4-1.2s-7.6,6-9.4,8.6c-8.1,11.5-11.5,24.9-13.3,39.1c-5.2,41.3-10,191.9-11.8,192.6
		C389.7,482.2,369,481,368.1,476.9L368.1,476.9z"/>
	<path class="st18" d="M445.1,161.6c0,0,10.9-7.3,15.4,5.5c0-0.1,3.8-0.1,4.4,0.1c2.2,0.8,4.4,3.1,6.4,4.4
		c7.1,4.5,10.4,13.4,10.7,21.4c0.5,9.8-3.6,17-10.1,24.1c-1.9,2.1-3.9,4.1-6.4,5.5c-3,1.6-5.4,0.3-8.2,1c-2.4,0.6-3.2,3.1-6,2.2
		c-3.9-1.3-8.1-6.2-12.9-5.5c-4.9,0.7-16.1-3.7-16.2-3.7c-14.5-5.6-4.7-33.6-1.9-43.5C422.9,163.7,436.1,158.2,445.1,161.6
		L445.1,161.6z"/>
	<path class="st0" d="M432,225.1l-3.8,10.2l-2,5.7c0,0-0.1,10.2,2.2,12.9c4.1,4.6,21-12.4,21-12.4l5.4-32.2L432,225.1L432,225.1z"/>
	<path class="st19" d="M453.1,219.8c-6.4,10-17.5,14.5-24.9,15.6l3.8-10.3l22.9-15.7L453.1,219.8L453.1,219.8z"/>
	<path class="st0" d="M450.5,176.3c-8.6-5.3-19.9-1.3-23.5,8c-1.5,4-3.3,9.2-4.6,14.9c-3.3,13.8,0.9,28.8,7.2,30.2
		c6.3,1.4,25.6-3.7,30.5-23.2C463.1,194.2,459.5,181.8,450.5,176.3L450.5,176.3z"/>
	<path class="st0" d="M455.1,206.7c-0.7,3,0.8,6,3.3,6.5c2.5,0.6,5.1-1.5,5.7-4.5c0.7-3-0.8-6-3.3-6.5
		C458.3,201.6,455.8,203.7,455.1,206.7L455.1,206.7z"/>
	<path class="st16" d="M449.5,241.6c0,0,26.3,2.6,33,7c4.3,2.8,0.9,34,0.9,34s-6,47.1-5.2,70.9c0.1,2.3,0.2,4.6,0.3,6.8
		c2.3,35.8,21.5,121.6,19.8,123.1c-10.8,6-69.6,5.8-70.3,1C422.4,444.2,449.5,241.6,449.5,241.6L449.5,241.6z"/>
	<path class="st6" d="M478.2,351.6c0,0.7,0,1.3,0,1.9c0.1,2.3,0.2,4.5,0.3,6.7l-35.8-16.7L478.2,351.6L478.2,351.6z"/>
	<path class="st20" d="M404.1,317.1c1.2,0.6,3.2,1.5,4.6,2.4c1.4,1,3.1,1.4,4.4,2c2.6,1.3,4.6,2.2,4.6,2.1c0-0.2,0.7-0.3-0.6-1.2
		c-1.6-1.1-5.5-2.7-7.7-4.5c-1.3-1-4-3-4-3s-3.6-3.7-3.5-4c0.8-1.5,3.9,0.4,5.5,2c1.5,0.5,4.3,2.7,4.3,2.7s6.7,3.1,7.1,2.2
		c0.2-0.4-3.7-2.8-7.1-5.7c-3.2-2.7-6-5.9-5.6-6.6c0.7-1.2,4.6,1.5,4.6,1.5s2.6,2,3.5,2.6c1.1,0.7,4.5,2.5,4.5,2.5s12,5.9,12.4,5
		c0.3-0.9,0.2-3.6-0.4-4.2c-0.6-0.6-2.2-1.3-3-1.8c-1-0.6-2.5-2.2-1.8-3c0.7-0.8,6.4,1.3,6.4,1.3s3.4,1.5,4.9,3.6
		c5.2,7.1,3.8,7.7,4.5,8.6c0.8,1.1,17.7,7.2,17.7,7.2s50.7,12.6,53.5,13.5l-6.7,20.5c-3.1-0.4-59.9-23.2-65.7-25.9c0,0-8-0.7-13-1.4
		c-5-0.6-9.6-3.4-10.9-3.8c-0.2-0.1-4.8-1.6-9.9-5c-4.4-2.9,1.1-2.1,1.1-2.1s9.1,4,9.3,3.2c0.1-0.6-5-2.5-9.9-5.7
		c-1.3-0.8-2.5-1.6-3.7-2.4C400.4,317.9,400.7,315.6,404.1,317.1L404.1,317.1z"/>
	<path class="st16" d="M480.3,247.5c0,0,8.5,1.2,15.9,11.7c7.4,10.6,23.6,56.1,28.7,73.5c5.1,17.6,2.5,27.4-9,30.2
		c-11.5,2.9-73.1-19.5-73.1-19.5l5.8-21.1c0,0,40.8,9,42.2,8.3L478,308.6C478,308.6,467.9,272.9,480.3,247.5L480.3,247.5z"/>
	<path class="st18" d="M435.5,211.5c0,0,8.3,2.7,8.9,5.7c0.7,3-0.3,7.4-4.4,10.8c-4,3.4-12.7,1.3-15.1-0.6
		c-2.4-1.9-4.2-9.7-1.8-14.1C425.6,209,435.5,211.5,435.5,211.5L435.5,211.5z"/>
	<path class="st0" d="M438.2,217.9c0,0-0.1,3.4-1.2,4c-1.1,0.6-2.5,1.1-3.8,1.2c-2.1,0.2-4-0.7-5.1-2.3c-0.1-0.2-0.2-0.3-0.3-0.5
		c-0.8-1.7-1-4.7-1-4.7s3.5-0.8,5.5-0.5C434.5,215.4,438.2,217.9,438.2,217.9L438.2,217.9z"/>
	<polygon class="st5" points="520.4,124.4 515.5,123.5 512.7,127.7 507.3,126.4 505.6,131.7 499.5,130.5 497.3,135.3 491.2,135.1 
		491.3,132.8 495.9,132.9 498.1,127.9 504,129.1 505.7,123.6 511.7,125.1 514.4,121 518.9,121.8 520.2,118.7 522.4,119.6 
		520.4,124.4 	"/>
	<path class="st21" d="M795.4,205.7H589.6c-3.3,0-6-2.7-6-6v-26.1c0-3.3,2.7-6,6-6h205.8c3.3,0,6,2.7,6,6v26.1
		C801.4,203,798.8,205.7,795.4,205.7L795.4,205.7z"/>
	<path class="st20" d="M103.4,376.7c0.3,1.2,0.5,1.5,0.9,2.3c2.6,5,8.8,12.2,8.8,12.2l4.7-11.2c0,0-0.8-3.5-2.1-8.5
		C111.1,372.8,106.8,373.5,103.4,376.7L103.4,376.7z"/>
	<path class="st16" d="M130.6,367c0,0-26.4,11.9-27.2,11.7c-0.5-0.1-10.8-18.2-10.9-35.2c-0.1-7.8,7.7-17.3,16.4-15.4
		c4.4,0.9,4.3,2.2,10.7,12C125.9,350,130.6,367,130.6,367L130.6,367z"/>
	<path class="st0" d="M153.1,580.9c0,0-0.6,10.9-0.6,10.9c-0.2,1.4-1.1,4.8-1.1,6c0,4.7,21.3-4,16.6-6.1c-0.4-0.2-2.7-1.6-2.8-3.2
		c-0.2-2.5-0.8-7.5-0.8-7.5L153.1,580.9L153.1,580.9z"/>
	<path class="st18" d="M167.8,591.7c0,0-5,1.4-7.6,1.8c-2.6,0.4-5.9-2.7-7.8-1.9c-2,0.9-1.9,9-1.9,9s26.9,2.3,34.4-0.1
		C188,599.6,178.1,595.1,167.8,591.7L167.8,591.7z"/>
	<path class="st0" d="M109.4,580.9c0,0-0.6,10.9-0.6,10.9c-0.2,1.4-1.1,4.8-1.1,6c0,4.7,21.3-4,16.6-6.1c-0.4-0.2-3.4-2.7-3.5-4.3
		c-0.2-2.5-0.1-6.4-0.1-6.4L109.4,580.9L109.4,580.9z"/>
	<path class="st18" d="M124.2,591.7c0,0-5,1.4-7.6,1.8c-2.6,0.4-5.9-2.7-7.8-1.9c-2,0.9-2.1,9-2.1,9s27,2.7,34.6-0.1
		C144.3,599.5,134.4,595.1,124.2,591.7L124.2,591.7z"/>
	<path class="st0" d="M116,382.7l18.8-27.6c0.1-0.2,0.2-0.7,0.5-1.5c0.9-2.7,2.9-8.4,4.6-14.1l0-0.1c0.5-2,1.7-5.4,2.8-8.8
		c1.2-3.7,2.8-8.3,2.8-9.1c0-0.1-0.1-0.4-0.3-0.7c-0.7-1.9-1.6-6.4-2-8.3c-0.2-1.2-0.4-4.2,1-4.2c2.2,0,1.2,3,2.2,4.9
		c0.4-1.3,1.1-3.7,1.5-6.3l0.4-5.9c0.1-0.4-0.4-3.7,1.2-3.7h0.1c1.4,0.1,1.4,3.6,1.9,9.4c0.2-0.7,0.4-1.5,0.5-2.2
		c0-0.4,0.3-2.2,0.5-3.1c-0.3-1.6-0.1-4.2,1.5-3.9c0.8,0.1,0.8,3.7,0.8,3.7c0,0.5-0.1,4.3,0,5c0.2-1.3,0.8-6.7,2.1-6.7
		c1.1,0,1.2,1.5,1.1,2.6c0,0.7-0.7,6.5-0.7,7.2c0.5-0.9,1.1-6.1,1.6-6.1c2.1,0,1.3,7.3,0.6,9.3c-0.1,0.2-0.1,0.6-0.2,1
		c-0.3,1.3-0.7,3.5-1.8,5.5c-1.3,2.4-3.1,6.1-3.4,6.7c-0.2,1.2-0.8,5.4-1.6,10.7c-0.3,2.3-0.7,4.8-1.1,7.3l0,0c-0.1,0.6-0.5,2.3-2,9
		c-2,9.1-2.2,9.5-2.3,9.7c-0.9,1.6-21.1,30.5-22,31.8l-0.5,0.7L116,382.7L116,382.7z"/>
	<path class="st19" d="M150.9,318.3c0,0-1.5-4.1-4.2-4.1c0,0,1.5-0.6,2.8,0.5C150.8,315.8,150.9,318.3,150.9,318.3L150.9,318.3z"/>
	<path class="st0" d="M111.4,310.4l-2.4,16.1c0,0,9.2,7.8,14.6,6.1c4.5-1.4,1.4-7.6,1.4-7.6s-2.4-8.6-1.7-13.1
		C124.1,307.4,111.4,310.4,111.4,310.4L111.4,310.4z"/>
	<path class="st22" d="M113.1,315.2c2.3,1.1,6.9,2.7,10.4,3.1c-0.3-2.2-0.5-4.6-0.2-6.4c0.3-2.1-2.2-2.6-5-2.5
		c-3.7,0.3-6.9,0.9-6.9,0.9l-0.5,3.1C111.6,314.2,112.4,314.8,113.1,315.2L113.1,315.2z"/>
	<path class="st0" d="M99.8,291.8c-0.4,0,3.6,17.9,9.9,21c6.2,3.1,15.5,1.5,17.3-3.4c1.9-5.3-5.1-23.7-13.9-26
		C104.3,281.2,99.8,291.8,99.8,291.8L99.8,291.8z"/>
	<path class="st5" d="M107,275.4c-5,3-7.3,7.5-8,9.3c-2.3,1.2-5.2,3.7-6.5,10.5c-1.7,8.3,4.3,14.8,10.5,16.7
		c6.3,1.9,7.3,6.2,7.3,6.2l0.7-4.5c0,0-1.4-4.1-3.5-6.2c-2.1-2,1-5,1.3-7.5c0.2-1.9-1.1-5.5-0.8-8.6c0,0,3.5-5.6,6.9-6.9
		C120.7,281.9,113.4,271.5,107,275.4L107,275.4z"/>
	<path class="st0" d="M109.6,302.9c0.8,2.1,0.5,4.1-0.7,4.6c-1.2,0.5-2.9-0.8-3.7-2.9c-0.8-2.1-0.5-4.1,0.7-4.6
		C107.2,299.6,108.8,300.9,109.6,302.9L109.6,302.9z"/>
	<path class="st20" d="M132.8,383.2l36.3-6.2c0,0-4.1-10.9-5.6-10.9c-1.5,0-27.4,11.9-27.4,11.9l-2.1,4.3L132.8,383.2L132.8,383.2z"
		/>
	<path class="st23" d="M114.3,409.3c0,0-3.6,18.4-2.1,32.3c1.5,13.9,1.6,63.4,1.6,63.4l-5.6,79.1l13.3,0.3c0,0,15.8-79.1,15.5-77
		c-0.3,2,5.3-55.7,5.3-55.7l-18.9-44.1L114.3,409.3L114.3,409.3z"/>
	<path class="st7" d="M117.2,408.5c0,0-2.4,16.5,0.6,23.8c2.9,7.2,25.3,78.4,25.6,84.2c0.3,5.8,7.7,69.9,7.7,69.9l15.5-0.5l3.4-71.3
		l-7-89.6l-6.8-22.6L117.2,408.5L117.2,408.5z"/>
	<path class="st0" d="M109,326.4c0,0,3.8,2.6,7.4,2.3c3.6-0.3,8.6-3.8,8.6-3.8l-0.7-2.5c0,0-9.2-1.4-9.5-1.3
		C114.6,321.4,109,326.4,109,326.4L109,326.4z"/>
	<path class="st20" d="M149.8,365.5c0,0,13.7,13.6,19.9,11.3c6.2-2.3,8.7-10.2-6.4-21.8C149.8,344.6,149.8,365.5,149.8,365.5
		L149.8,365.5z"/>
	<path class="st24" d="M159.1,382.3c-2-11.6-16.8-47.8-18-54.5c-0.6-3.2-8.5-3.3-16.1-2.9c-8,0.4-16,1.5-16,1.5s-7.1,1.2-10.2,4.3
		c-3.1,3.1-3.9,11.6,0.5,27.7c3.5,12.7,7.9,19.7,10.1,29c0.4,3.1,0.8,6.2,1.3,9.8c0.8,13.9,0,32.2,0,32.2s38.6,8.4,53.1-4.4
		C163.8,424.9,161.1,394.2,159.1,382.3L159.1,382.3z"/>
	<path class="st16" d="M168.9,357.3c0,0-15.2,13.1-16,13.1c-0.6,0-21.6-16.3-26.5-29.6c-2.7-7.4,2.9-15.6,9.4-15.6
		c4.5,0,6.4,1.2,15.3,9.1C159.9,342.1,168.9,357.3,168.9,357.3L168.9,357.3z"/>
	<path class="st18" d="M638.2,55.1c2-9.8-2.6-19.6-11.5-23.2c0.1-5.6-2.1-11.2-6-15c-7.5-7.6-23-10.8-28.5-1.2
		c-7.3,4.1-6.8,9.3-4.7,17.4c-7.1,7.3-4.5,19.4,5.8,25.6c-0.2,8.2-0.4,20.7,6.8,24.2c1.7,0.8,4.4,2,4.8,2.4
		c-0.4-0.4,5.3,15.7,23.3,8.3C646.6,86.1,650.1,64.9,638.2,55.1L638.2,55.1z"/>
	<path class="st25" d="M562.2,121.4c1.4-1.4,4-2.7,3.8-2.9c-0.6-0.8-6.9,5.6-6.5,3.8c0.2-1,4.7-6.3,6.3-6.5
		c1.5-0.2,11.5-1.8,11.5-1.8l23.1-15.3c0,0,1.1-18.1-3.8-30.4c5.4-1.6,6.4-2,11.9-1.6c3.1,12.4,6.5,33.3,2.4,39.4
		c-1.7,2.6-31.7,12.5-31.7,12.5s-6.5,2.4-7.7,2.5c-0.9,0.1-3.4-0.2-4.7,0c-2.8,0.4-6.3,4.6-6.5,4.1
		C560.3,124.9,560.7,122.8,562.2,121.4L562.2,121.4z"/>
	<path class="st5" d="M593.9,66.9c2.2-4,4.4-7.2,4.4-7.2c2.2-4,8.1-6,8.1-6s1.9,0,4.2,0.1c0.1,0.4,0.3,0.6,0.4,0.7
		c0.8,0.6,5.6-0.2,8.7,1.9c10.4,8.9,7.5,52.3,6.7,66l-26,0.1c0,0-1.7-29.3-8.1-36.8C587.8,80.5,590.7,72.8,593.9,66.9L593.9,66.9z"
		/>
	<path class="st26" d="M586.8,219.4c-0.3-0.5-3.9-9.2-6.8-13.1c-4.3-5.6-41.3-56.6-39.8-69c0.7-5.4,16.7-10,18.6-10.3
		c10.2,1.4-0.5,10.2,7.2,17.4c-5,1.7-7.9,3.8-6.8,5.2c4.3,5.6,27.2,50.8,28.2,51.4c4.4,2.6,6.2,1.4,6.2,1.4s-1,25.4-3.1,24.6
		C588.3,226.3,590,225.2,586.8,219.4L586.8,219.4z"/>
	<path class="st27" d="M595.4,202.6l-4.3,25.6c-1,3.3-2.6,3.3-3,2.8c-0.9-0.9-1.2-7.8-1.3-11.6c1.9-5.9,1.7-17.1,0.6-18.4
		C590.2,201.1,595.4,202,595.4,202.6L595.4,202.6z"/>
	<path class="st0" d="M580.1,139.8c-5.7-9.5-5.4-8.3-15.4-12.6c-4,1.6-17.4,10-19.1,11.6l21.3,15.5
		C566.2,152.5,573.6,143.9,580.1,139.8L580.1,139.8z"/>
	<path class="st0" d="M608.2,39c0,0,1.7,12.5,3,15.5c1.2,3-6.7,9.5-13.3,11.5c-6.6,2,2-6.7,1.7-9.9c-0.3-3.2-1.5-18.6-1.5-18.6
		L608.2,39L608.2,39z"/>
	<path class="st19" d="M598.5,41.9c-0.2-2.5-0.3-4.4-0.3-4.4l10,1.5c0,0,0.3,1.5,0.5,3.5C604.7,44.9,601,44.2,598.5,41.9L598.5,41.9
		z"/>
	<path class="st0" d="M605.1,16.2c0,0,4,0.9,6.4,4.6c2.4,3.7,4.1,14.7-3.9,19.9c-8,5.1-14.3-2.1-14.4-9.2
		C593,24.4,594.5,15,605.1,16.2L605.1,16.2z"/>
	<path class="st0" d="M591.3,29.3c0.7,1.7,2,2.8,3,2.4c1-0.4,1.2-2.1,0.6-3.8c-0.7-1.7-2-2.8-3-2.4
		C590.8,25.9,590.6,27.6,591.3,29.3L591.3,29.3z"/>
	<path class="st0" d="M611.6,30.7c-0.6,1.8,0,3.7,1.2,4.1c1.2,0.4,2.7-0.8,3.3-2.6c0.6-1.8,0-3.7-1.2-4.1
		C613.6,27.7,612.2,28.9,611.6,30.7L611.6,30.7z"/>
	<path class="st2" d="M581.3,123.3c4.4-0.4,19.1-1.9,19.1-1.9l26.1-3.5c0,0,4.6,11,4.8,17.9c0.3,12.1-10,20.6-19.5,20
		c-5.7-0.3-35.4-0.8-44.8-0.7c-1.3-9.8-2.8-21.5-9.4-28.6C568.2,125.1,575.2,123.9,581.3,123.3L581.3,123.3z"/>
	<path class="st0" d="M580.9,214.5c-0.7-0.7-6.4-39.9-9.9-56.3c-0.8-4-3.3-7.3-6.9-9.3l-18.6-10.1c-6.4,5.9,23.6,72.1,26.4,79
		c1.9,4.8,3.1,14.6,3.2,15.2c1.6,6.8-0.5,7.3,1.5,8.8c1.9,1.4,10.5-23.3,10.5-23.3S584.7,218.4,580.9,214.5L580.9,214.5z"/>
	<path class="st6" d="M586.5,125L586.5,125c0,1-0.9,1.8-2,1.8l-31.6,0.1c-1.1,0-2.2-1-2.6-2.2l0.6,0.4c0-1,0.9-1.8,2-1.8l31.6-0.1
		C585.6,123.2,586.5,124,586.5,125L586.5,125z"/>
	<path class="st6" d="M553.2,126.2c0.2,0,0.4,0,0.6,0c1.6-0.2,2.7-1.3,2.4-2.3l-12.1-41.7c-0.3-1.1-1.9-1.8-3.5-1.6
		c-1.6,0.2-2.7,1.2-2.4,2.3l12.1,41.7C550.5,125.6,551.8,126.2,553.2,126.2L553.2,126.2z"/>
	<path class="st0" d="M562.5,120.6c1.8-0.9,4.6-1.3,4.5-1.6c-0.3-1-8.3,4.1-7.4,2.5c0.5-0.9,6.5-5.4,8.1-5.1
		c1.5,0.3,11.5,1.9,11.5,1.9L605,109c0,0,4.9-16,4-29.1c5.6,0.1,9.5,1,14.6,3.1c-0.9,12.8-4.1,33.7-9.9,38.2c-2.4,1.9-34,2-34,2
		s-6.9,0.3-8.1,0c-0.9-0.2-3.2-1.2-4.5-1.4c-2.8-0.5-7.4,2.4-7.5,1.9C559.6,123.4,560.7,121.5,562.5,120.6L562.5,120.6z"/>
	<path class="st27" d="M607.2,66c0.4-4,0.9-8.1,5-9.9c2.6-1.1,5.6-0.7,7.9,0.8c2.8,1.8,3.8,5,4.2,8.1c0.8,7.1,1.2,14.5,0.7,21.6
		c-5.1-2.1-12-1-17.6-1.1C606.1,79.3,606.7,71.2,607.2,66L607.2,66z"/>
	<path class="st0" d="M566.3,116.8c-4.4,1.1-4.1,1-4.3,1.2c-3.1,2-2.9,2.8,1.9,0.8c0.1-0.1,0.2-0.1,0.4-0.1l2.3,0
		c0.9,0,1.3-1.1,0.6-1.7l0,0C567,116.8,566.7,116.7,566.3,116.8L566.3,116.8z"/>
	<path class="st5" d="M574.9,231.6c0,0,0.2,3.1-0.9,5.6c-1,2.5-5,3.4-4.1,4.7c1,1.3,8.7,0,8.7,0l8.9-21.8c0.4-0.8,0.2-1.8-0.5-2.3
		c-1.1-0.9-3-2.3-6.1-3.2C581,214.5,581.4,228.2,574.9,231.6L574.9,231.6z"/>
	<path class="st2" d="M765.8,220.8c0,2.8-2.3,5.1-5.1,5.1c-2.8,0-5.1-2.3-5.1-5.1c0-2.8,2.3-5.1,5.1-5.1
		C763.5,215.7,765.8,218,765.8,220.8L765.8,220.8z"/>
	<path class="st2" d="M781.5,220.8c0,2.8-2.3,5.1-5.1,5.1s-5.1-2.3-5.1-5.1c0-2.8,2.3-5.1,5.1-5.1S781.5,218,781.5,220.8
		L781.5,220.8z"/>
	<path class="st2" d="M796.6,220.8c0,2.8-2.3,5.1-5.1,5.1s-5.1-2.3-5.1-5.1c0-2.8,2.3-5.1,5.1-5.1S796.6,218,796.6,220.8
		L796.6,220.8z"/>
	<path class="st10" d="M789.8,186.6c0,8.6-7,15.7-15.7,15.7c-8.6,0-15.7-7-15.7-15.7s7-15.7,15.7-15.7
		C782.8,171,789.8,178,789.8,186.6L789.8,186.6z"/>
	<polygon class="st1" points="480.2,529.6 368.1,529.6 368.1,517.4 480.2,517.4 480.2,529.6 	"/>
	<path class="st7" d="M755,357.8c8.2-0.5,12.8,9.4,7.3,15.5c-1,1.1-1.5,2.5-1.6,4l-0.1,5.1c0,1.4-1.1,2.5-2.5,2.6l-3.1,0.2
		c-1.4,0.1-2.6-0.9-2.8-2.3c-0.7-5.1-0.6-7-2.7-8.8C743.3,368.6,746.8,358.3,755,357.8L755,357.8z"/>
	<path class="st13" d="M750.9,365.4c-0.5,0.2-0.5,0.9-0.2,1.4c0.4,0.6,1.2,0.9,2,1.1c-0.1-0.8-0.2-1.6-0.6-2.1
		C751.8,365.4,750.9,365.4,750.9,365.4L750.9,365.4z M758.6,366.2c-0.4,0.6-0.5,1.3-0.5,2c1-0.2,1.6-0.5,1.9-1
		C760.6,366.3,759.5,364.9,758.6,366.2L758.6,366.2z M758.4,379.1c-0.4-4.1-0.7-8.6-0.8-10.3c-1.5,0.2-3,0.1-4.5-0.3
		c0.5,3.4,0.9,6.8,1.3,10.2l-0.4,0c-0.3-3.5-0.8-6.9-1.3-10.4c-0.9-0.3-1.9-0.6-2.4-1.4c-0.2-0.4-0.3-0.8-0.2-1.3
		c0.3-1.1,1.7-1.1,2.3-0.2c0.4,0.6,0.5,1.4,0.7,2.5c1.5,0.4,3.1,0.5,4.6,0.3c0-0.9,0.1-1.7,0.6-2.4c1.7-2.4,4.4,2-0.1,2.7
		c0,1.3,0.3,6,0.8,10.4L758.4,379.1L758.4,379.1z"/>
	<path class="st10" d="M760.7,377.2c0,0,0,0.1,0,0.1l-0.1,5.1c0,1.4-1.1,2.5-2.5,2.6l-3.1,0.2c-1.4,0.1-2.6-0.9-2.8-2.3
		c-0.3-2.2-0.5-3.9-0.7-5.2L760.7,377.2L760.7,377.2z"/>
	<path class="st7" d="M760,352.9l1.4-4.8c0.1-0.5-0.1-1-0.6-1.1c-0.5-0.1-1,0.1-1.1,0.6l-1.4,4.8c-0.1,0.5,0.1,1,0.6,1.1
		C759.4,353.7,759.9,353.4,760,352.9L760,352.9z"/>
	<path class="st7" d="M767.5,362.2l5-1.6c0.5-0.1,0.7-0.6,0.6-1.1c-0.1-0.5-0.6-0.7-1.1-0.6l-5,1.6c-0.5,0.1-0.7,0.6-0.6,1.1
		C766.6,362.1,767,362.3,767.5,362.2L767.5,362.2z"/>
	<path class="st7" d="M776.1,376.8c0.3-0.4,0.1-1-0.3-1.2c-1.5-1-3.2-1.8-4.9-2.4c-0.4-0.2-1,0-1.1,0.5c-0.2,0.5,0.1,1,0.5,1.1
		c1.6,0.6,3.1,1.4,4.6,2.3C775.3,377.4,775.9,377.2,776.1,376.8L776.1,376.8z"/>
	<path class="st7" d="M747.3,355.5c0.4-0.2,0.6-0.8,0.4-1.2c-1.1-2-1.9-4.2-2.5-6.4c-0.1-0.5-0.6-0.7-1.1-0.6
		c-0.5,0.1-0.7,0.6-0.6,1.1c0.7,2.3,1.6,4.6,2.7,6.8C746.3,355.6,746.9,355.8,747.3,355.5L747.3,355.5z"/>
	<path class="st7" d="M743.5,363.3c0-0.5-0.3-0.9-0.8-0.9l-5.7-0.4c-0.5,0-0.9,0.3-0.9,0.8c0,0.5,0.3,0.9,0.8,0.9l5.7,0.4
		C743,364.2,743.4,363.8,743.5,363.3L743.5,363.3z"/>
	<path class="st7" d="M737.9,379.5c0.1,0,0.2,0,0.2-0.1c1.7-0.9,3.4-2.1,4.9-3.3c0.4-0.3,0.4-0.9,0.1-1.2c-0.3-0.4-0.9-0.4-1.2-0.1
		c-1.4,1.2-2.9,2.3-4.6,3.1c-0.4,0.2-0.6,0.8-0.4,1.2C737.1,379.4,737.5,379.6,737.9,379.5L737.9,379.5z"/>
	<path class="st7" d="M226.3,413.7c8.2-0.5,12.8,9.4,7.3,15.5c-1,1.1-1.5,2.5-1.6,4l-0.1,5.1c0,1.4-1.1,2.5-2.5,2.6l-3.1,0.2
		c-1.4,0.1-2.6-0.9-2.8-2.3c-0.7-5.1-0.6-7-2.7-8.8C214.6,424.4,218.2,414.2,226.3,413.7L226.3,413.7z"/>
	<path class="st13" d="M222.2,421.2c-0.5,0.2-0.5,0.9-0.2,1.4c0.4,0.6,1.2,0.9,2,1.1c-0.1-0.8-0.2-1.6-0.6-2.1
		C223.1,421.3,222.3,421.2,222.2,421.2L222.2,421.2z M230,422.1c-0.4,0.6-0.5,1.3-0.5,2c1-0.2,1.6-0.5,1.9-1
		C231.9,422.2,230.9,420.8,230,422.1L230,422.1z M229.8,435c-0.4-4.1-0.7-8.6-0.8-10.3c-1.5,0.2-3,0.1-4.5-0.3
		c0.5,3.4,0.9,6.8,1.3,10.2l-0.4,0c-0.3-3.5-0.8-6.9-1.3-10.4c-0.9-0.3-1.9-0.6-2.4-1.4c-0.2-0.4-0.3-0.8-0.2-1.3
		c0.3-1.1,1.7-1.1,2.3-0.2c0.4,0.6,0.5,1.4,0.7,2.5c1.5,0.4,3.1,0.5,4.6,0.3c0-0.9,0.1-1.7,0.6-2.4c1.7-2.4,4.4,2-0.1,2.7
		c0,1.3,0.3,6,0.8,10.4L229.8,435L229.8,435z"/>
	<path class="st10" d="M232.1,433c0,0,0,0.1,0,0.1l-0.1,5.1c0,1.4-1.1,2.5-2.5,2.6l-3.1,0.2c-1.4,0.1-2.6-0.9-2.8-2.3
		c-0.3-2.2-0.5-3.9-0.7-5.2L232.1,433L232.1,433z"/>
	<path class="st7" d="M231.4,408.8l1.4-4.8c0.1-0.5-0.1-1-0.6-1.1c-0.5-0.1-1,0.1-1.1,0.6l-1.4,4.8c-0.1,0.5,0.1,1,0.6,1.1
		C230.8,409.5,231.2,409.3,231.4,408.8L231.4,408.8z"/>
	<path class="st7" d="M238.8,418.1l5-1.6c0.5-0.1,0.7-0.6,0.6-1.1c-0.1-0.5-0.6-0.7-1.1-0.6l-5,1.6c-0.5,0.1-0.7,0.6-0.6,1.1
		C237.9,418,238.4,418.2,238.8,418.1L238.8,418.1z"/>
	<path class="st7" d="M247.5,432.7c0.3-0.4,0.1-1-0.3-1.2c-1.5-1-3.2-1.8-4.9-2.5c-0.4-0.2-1,0.1-1.1,0.5c-0.2,0.4,0,1,0.5,1.1
		c1.6,0.6,3.1,1.4,4.6,2.3C246.7,433.2,247.2,433.1,247.5,432.7L247.5,432.7z"/>
	<path class="st7" d="M218.6,411.4c0.4-0.2,0.6-0.8,0.4-1.2c-1.1-2.1-1.9-4.2-2.5-6.4c-0.1-0.5-0.6-0.7-1.1-0.6
		c-0.5,0.1-0.7,0.6-0.6,1.1c0.7,2.3,1.6,4.6,2.7,6.8C217.7,411.5,218.2,411.6,218.6,411.4L218.6,411.4z"/>
	<path class="st7" d="M214.8,419.2c0-0.5-0.3-0.9-0.8-0.9l-5.7-0.4c-0.5,0-0.9,0.3-0.9,0.8c0,0.5,0.3,0.9,0.8,0.9l5.7,0.4
		C214.3,420,214.8,419.7,214.8,419.2L214.8,419.2z"/>
	<path class="st7" d="M209.2,435.4c0.1,0,0.2,0,0.2-0.1c1.7-0.9,3.4-2.1,4.9-3.3c0.4-0.3,0.4-0.9,0.1-1.2c-0.3-0.4-0.9-0.4-1.2-0.1
		c-1.4,1.2-2.9,2.2-4.6,3.1c-0.4,0.2-0.6,0.8-0.4,1.2C208.4,435.3,208.8,435.4,209.2,435.4L209.2,435.4z"/>
	<path class="st7" d="M819.7,621.1c0.5-0.7-0.2-1.4-1.3-1.4h-173c-13.6,0-24.5,7.4-24.5,16.5l0,0c0,9.1,11,16.5,24.5,16.5h173
		c1.1,0,1.8-0.8,1.3-1.4l0,0C812.9,641.7,812.9,630.6,819.7,621.1L819.7,621.1z"/>
	<path class="st4" d="M818.3,623.3H702.3c-8.6,0-15.5,5.6-15.5,12.6v0.9c0,7,6.9,12.6,15.5,12.6h116.3
		C813.4,641,813.3,631.6,818.3,623.3L818.3,623.3z"/>
	<path class="st4" d="M648.7,618.3h90.7c8,0,14.6-7,14.6-15.7l0,0c0-8.7-6.5-15.7-14.6-15.7h-90.7l0,0c6.9,8.7,7.2,21.5,0.6,30.5
		L648.7,618.3L648.7,618.3z"/>
	<path class="st5" d="M752.8,602.6L752.8,602.6c0-8.7-6.6-15.7-14.7-15.7h-91c-0.4,0-0.8-0.4-0.8-0.8l0,0c0-0.4,0.3-0.8,0.8-0.8
		h144.3c9,0,16.3,7.8,16.3,17.3l0,0c0,9.6-7.3,17.3-16.3,17.3H647.1c-0.4,0-0.8-0.4-0.8-0.8l0,0c0-0.5,0.3-0.8,0.8-0.8h91
		C746.2,618.3,752.8,611.2,752.8,602.6L752.8,602.6z"/>
	<path class="st4" d="M672.6,583.6h90.7c8,0,14.6-7,14.6-15.7l0,0c0-8.7-6.5-15.7-14.6-15.7h-90.7l0,0c6.9,8.7,7.2,21.5,0.6,30.5
		L672.6,583.6L672.6,583.6z"/>
	<path class="st24" d="M776.6,567.9L776.6,567.9c0-8.7-6.6-15.7-14.7-15.7h-91c-0.4,0-0.8-0.4-0.8-0.8l0,0c0-0.4,0.3-0.8,0.8-0.8
		h144.3c9,0,16.3,7.8,16.3,17.3l0,0c0,9.6-7.3,17.3-16.3,17.3H670.9c-0.4,0-0.8-0.4-0.8-0.8l0,0c0-0.4,0.3-0.8,0.8-0.8h91
		C770,583.6,776.6,576.6,776.6,567.9L776.6,567.9z"/>
	<path class="st27" d="M759.2,636.4h-9.7c-2.1,0-3.8,0.6-3.8,1.4v0.1h13.5V636.4L759.2,636.4z"/>
	<path class="st5" d="M767.5,640.1c0-2-2.5-3.6-5.7-3.6h-12.5c2.4,0,4.3,1.2,4.3,2.8l-0.1,38.9l6.9-5l7,5L767.5,640.1L767.5,640.1z"
		/>
	<path class="st5" d="M676.8,544l8.3-1.9c0,0,6.7,0.4,13-0.8c0,0,0.6,1.7,0.9,5.1c0,0.6-0.8,3.5-1.4,3.6c-2.1,0.3-5.9,0-12.5,0.1
		c0,0-10.5,1.2-16.1-0.6C663.4,547.6,676.8,544,676.8,544L676.8,544z"/>
	<path class="st28" d="M768.2,408.6c0.5,4.8,4.5,6.5,8.2,9.5c2.5,2,2.1,7.5,0.2,11c-4.9,8.7-0.7,9.7,3.2,16.1
		c9.5,15.3-19.9,18.7-23.4,19.9c-3.5,1.1-5.8,2.5-7.9,2.3c-6.2-0.7-11.9-9.5-15.1-17.7c-3.2-8.2,4.5-8.6,4.9-13.3
		c0.4-4.7-8.6-5.7-5.9-14.6c2.9-9.6,6.9-17.7,12.3-20.6c8.9-4.8,19.8,0.2,22.2,4.1C767.7,406.4,768.1,407.5,768.2,408.6L768.2,408.6
		z"/>
	<path class="st15" d="M768.9,513.5c0.8,1.9,5,8.7,5,8.7l-59.6,0.6l-0.9-12.2c16.4-0.1,32.6-7.4,47.6-12.6
		C761.4,499,768.5,512.6,768.9,513.5L768.9,513.5z"/>
	<path class="st2" d="M726.6,466.6c0,0,3.2-22.6,8.4-25c5.2-2.3,33,0.9,37.2,3.5c4.2,2.6-2.8,29.1-3.8,36.5
		c-0.1,0.4-0.1,0.9-0.2,1.3c-1.8,10.7-0.7,21.7,3,31.8c-15.3,4.6-19.2,7.2-35.6,6.7l-6.1-35.8C729.5,485.8,724.6,468.5,726.6,466.6
		L726.6,466.6z"/>
	<path class="st0" d="M757.1,426.8c0,0,1.3,12.4,2.4,15.5c1.1,3-2.9,9.3-9.5,11c-6.6,1.7-1.8-6.6-2-9.9c-0.2-3.2-0.8-18.5-0.8-18.5
		L757.1,426.8L757.1,426.8z"/>
	<path class="st19" d="M757.3,428.2c-0.8,0.9-1.8,1.8-3,2.5c-2.5,1.5-4.8,1.8-6.7,1.3c-0.2-3.8-0.3-7.1-0.3-7.1l9.9,1.9
		C757.1,426.8,757.2,427.3,757.3,428.2L757.3,428.2z"/>
	<path class="st0" d="M754.8,404c0,0,3.9,1,6.2,4.8c2.3,3.8,3.6,14.8-4.6,19.6c-8.2,4.8-14.1-2.6-14-9.7
		C742.6,411.8,744.4,402.4,754.8,404L754.8,404z"/>
	<path class="st0" d="M739.9,415.9c0.1,1.8,1,3.3,2.1,3.2c1.1-0.1,1.9-1.6,1.8-3.4c-0.1-1.8-1-3.3-2.1-3.2
		C740.6,412.5,739.8,414,739.9,415.9L739.9,415.9z"/>
	<path class="st0" d="M760.8,418.7c-0.6,1.8-0.2,3.6,1,4.1c1.2,0.4,2.7-0.7,3.4-2.5c0.6-1.8,0.2-3.6-1-4.1
		C762.9,415.7,761.4,416.8,760.8,418.7L760.8,418.7z"/>
	<path class="st2" d="M772.2,445.1c0,0-4.8,2.5-7.7,9.5c-2.9,7,7,42.5,9.1,44.8c2.1,2.3,8,2.6,9-2.9
		C783.6,490.8,780.2,446.9,772.2,445.1L772.2,445.1z"/>
	<path class="st17" d="M743.7,440.4l8.2,49.3l-31.9,5.1l-10.1-46.1C709.9,448.7,736.1,438,743.7,440.4L743.7,440.4z"/>
	<path class="st17" d="M682.1,441.9c3-1.2,6.4-1.5,9.6-0.9c6,1.2,15.5,3.6,19.3,7.7c5.8,6.2,11.1,47.1,11.1,47.1l-24.8-5.6
		L682.1,441.9L682.1,441.9L682.1,441.9z"/>
	<path class="st28" d="M767.5,526.1c-4.2-11.6-51.5-53.8-64-50.5l6.7,25.7c0,0,13.9,42.3,27.8,47.3c13.9,5,26.7-0.7,26.7-0.7
		S771.7,537.7,767.5,526.1L767.5,526.1z"/>
	<path class="st0" d="M750.5,458.4c-0.6,1.2,3.2,3.3,4.3,4.1c1.1,0.8,5.6,0,5.6,0S751.2,457.1,750.5,458.4L750.5,458.4z"/>
	<path class="st25" d="M710.1,513.6c0,0-12,25-12.1,27.6c-0.1,3.7-17.4,2.7-13.6,1.1c0.9-0.4,3.6-1.7,3.8-1.9c1.1-1,11.1-32,11.1-32
		L710.1,513.6L710.1,513.6z"/>
	<path class="st28" d="M713.9,483.7c-0.6-0.6-6.7-3.1-11.4,2.8c-4.7,5.8-13.7,51.3-13.7,51.3l11,1.1
		C700,538.9,727.5,498.6,713.9,483.7L713.9,483.7z"/>
	<path class="st5" d="M678.2,449.6l14.2,41.4c0.6,1.7,2,2.9,3.7,3.1c13.3,1.9,20.3,2.8,20.3,2.8s2.6,0.1,5.4,0.2l30.5-3.3
		c2.7-0.3,4.5-2.9,4-5.6l-7.4-40.7c-0.5-2.5-2.8-4.2-5.2-3.8l-29.3,4.9c-2.6-0.1-5.1-0.1-7.7-0.2l-23.1-5.2
		C680,442.6,677,446.1,678.2,449.6L678.2,449.6z"/>
	<path class="st0" d="M740.3,469.8c0,0,8.2,1.5,11,1.4c2.8-0.1,6.4,0.8,6.4,0.8s9.1,21.5,10.5,23.9c3.9,7.2,14.8,6.3,14.6,0.3
		c-0.1-4.7-18.7-34.5-23.6-34.3c-4.9,0.1-20.4-3.1-20.8-1.1c-0.2,1.1,14.2,1.5,11.9,2.4c-1.4,0.6-12.7-0.7-12.7,0.6
		c0,1.3,10.2,1.5,11.3,2.5c1.1,1-10.8-1.3-10.8,1c0,1.1,10.5,0.3,11.7,2C750.2,470.1,739.4,467.5,740.3,469.8L740.3,469.8z"/>
	<path class="st0" d="M685.1,466.3c-0.6-0.3-1.4,0.1-1.6,0.8c-0.2,0.7-0.2,1.5,0.3,2.1c1,1.1,8.2,2.2,8.2,1.1
		C692.1,469.4,687.3,467.2,685.1,466.3L685.1,466.3z"/>
	<path class="st0" d="M683.7,469c0,0-0.7,2.7-0.1,2.7c0.6,0,8.4,0.8,8.7-0.1C692.6,470.7,684.7,468.5,683.7,469L683.7,469z"/>
	<path class="st0" d="M683.3,471.8c0,0-0.2,1.2,0.4,1.9c0.6,0.7,7.9,0.2,8.1-0.9C692.1,471.6,683.6,470.9,683.3,471.8L683.3,471.8z"
		/>
	<path class="st0" d="M684.4,474.3c0,0,0,0.9,0.4,1.3c0.4,0.4,5.7-0.2,6.2-1.3C691.5,473.2,685.1,473.2,684.4,474.3L684.4,474.3z"/>
	<path class="st0" d="M702.5,537.4c0,0-2.5,9.2-5.1,15.3c-1.7,4-2.1,8-3.2,9.9c-2.8,5-7.4,5.2-11,2.2c-3.6-3,1.2-15.8,1.2-15.8
		l11.5-16.2L702.5,537.4L702.5,537.4z"/>
	<path class="st5" d="M694.2,562.6c1-1.8,1.4-5.1,2.7-8.6c-1.8,1-4.7,1.8-6.3,1.4c-5.9-1.6-6.2-6.3-6.2-6.3s-6.1,13.1-2.5,16.1
		C685.6,568.2,691.4,567.6,694.2,562.6L694.2,562.6z"/>
	<polygon class="st27" points="714.3,448.8 723.7,497.5 718,497.1 716.4,497 706.5,448.6 714.3,448.8 	"/>
	<path class="st7" d="M747,545.8c3.2,5.9,9.6,5.1,15.4,5.1c6.6,0,13.4-2.8,15.3-10.1c2-7.8-0.6-17.5-5.3-23.7
		c-23.8-31.4-24-34.5-33.5-38.7c-10.2-4.5-48.2,60.4-48.2,60.4l10.4,5.3c0,0,15.6-13.1,25.6-24.5c1.2-1.3,4.5-8.3,4.5-8.3
		S744.9,541.9,747,545.8L747,545.8z"/>
	<path class="st2" d="M298.7,599.5c0.5-1.1-0.3-2.3-1.5-2.3H100c-15.5,0-28,12.1-28,26.9l0,0c0,14.9,12.5,26.9,28,26.9h197.3
		c1.3,0,2.1-1.3,1.5-2.4l0,0C291,633.1,291,615,298.7,599.5L298.7,599.5z"/>
	<path class="st4" d="M297.5,602.1H182c-8.2,0-14.8,10.1-14.8,22.5l0,0c0,12.4,6.6,22.5,14.8,22.5h116.1
		C291.4,632.9,291.2,616.5,297.5,602.1L297.5,602.1z"/>
	<path class="st27" d="M232.3,619.2h-12.7c-2.7,0-5,0.6-5,1.4v0.1h17.7V619.2L232.3,619.2z"/>
	<path class="st5" d="M243.1,622.8c0-2-3.3-3.6-7.4-3.6h-16.3c3.1,0,5.6,1.2,5.6,2.7l-0.1,38.8l9-5l9.2,5L243.1,622.8L243.1,622.8z"
		/>
	<path class="st10" d="M312.7,498.3l6.2-1.6l-4.2,56.2l-7.5,0.2l3.8-52.8C311.1,499.4,311.8,498.6,312.7,498.3L312.7,498.3z"/>
	<path class="st7" d="M315.3,554.5c-0.1,0-0.3,0-0.4,0c-1.2-0.1-2.1-1.4-2-2.7l4.1-52.9c0.1-1.4,1.2-2.4,2.4-2.2
		c1.2,0.1,2.1,1.4,2,2.7l-4.1,52.9C317.2,553.5,316.4,554.4,315.3,554.5L315.3,554.5z"/>
	<path class="st7" d="M258.1,557.3c0,0,0,0.1,0,0.1l0,0c0.2,2.2,1.9,3.8,3.7,3.6l52.5-4.7c1.9-0.2,3.2-2,3-4.2c0-0.1,0-0.2,0-0.3
		L258.1,557.3L258.1,557.3z"/>
	<path class="st0" d="M294.6,614.1c-3.4,1.9-14-1.4-14-1.7c-0.2,2.9-11.8,31-11.8,31l0,8.7c0,0,24,1.1,23.6-1
		c-0.3-2.1-1.6-0.7-6.4-4.7c-0.4-0.4-7.1-1.9-5.3-5.9C284.4,632.5,292.2,619.1,294.6,614.1L294.6,614.1z"/>
	<path class="st2" d="M268.1,652.4l26.2,0c0.9-0.1,1.2-0.9,0.8-1.3c-0.7-1-5.7-3.2-9.1-4.7c-5.9,0.7-16.2-1.6-17.2-2.9
		C266.4,646.7,267.6,652.2,268.1,652.4L268.1,652.4z"/>
	<path class="st18" d="M262.4,593.9c-0.4-1.1,22.6-10.8,23.6-9.7c1.8,2-12.4,38.9-12.4,38.9l16.3,5c0,0,17-42.6,16.3-50.4
		c-0.7-7.8-9.2-16.7-27.7-11C260.1,572.4,262.4,593.9,262.4,593.9L262.4,593.9z"/>
	<path class="st0" d="M309.8,619c-3.9-0.7-8.9-0.9-12.9-1c0.5,3.6,2.8,21.9,2.3,23c-1.7,4.6-5.5,6.7-5.5,6.7s17.8,16.1,18.9,14.2
		c1.1-1.9-0.8-1.6-2-7.7c-0.1-0.5-2.7-9.1-2.8-13.7C307.6,631.7,309.7,623.9,309.8,619L309.8,619z"/>
	<path class="st6" d="M304.1,559c-2.5-1.3-8.9-1.4-16-0.9c-13.8,0.9-27.5,3.6-40.6,8l-8.8,2.9l0-9c0,0-28-4.7-29,2.3
		c-1.5,10.4,0.3,31.7,9.7,36.4c29,14.7,69.6-23.4,69.7-18.4c0.2,6.7,5.8,31.6,7.3,42.5c4,0.1,10.9,0.1,13.9-0.6
		C310.9,600.7,311.2,562.8,304.1,559L304.1,559z"/>
	<path class="st2" d="M293.3,648.1l20,16c0.8,0.5,1.5,0.1,1.5-0.5c0.1-1.2-2.4-6.1-4-9.4c-5-3.2-11.6-11.5-11.4-13.2
		C297.2,642.8,292.9,647.7,293.3,648.1L293.3,648.1z"/>
	<path class="st28" d="M248,471.8c-0.7-6.1-1.4-12.3-6.5-16.8c-4.1-3.6-9.4-4.3-14.5-2.3c-14.7,5.5-7.1,18.6-25.8,31.7
		c-5.8,4.1-12.2,6.9-16.6,12.4c-6.1,7.7-3.8,17,1.8,23.1c26.7,29.6,56.6-10.4,58.7-20C246.6,492.8,248.4,475.8,248,471.8L248,471.8z
		"/>
	<path class="st5" d="M242.5,506.4c-2.2-4-4.4-7.2-4.4-7.2c-2.3-4-8.1-6.1-8.1-6.1s-2,0-4.2,0.1c-0.1,0.4-0.3,0.6-0.4,0.8
		c-0.8,0.6-5.7-0.2-8.8,1.9c-10.5,9-7.6,52.5-6.8,66.3l31.9,0.3c0,0-4-29.6,2.5-37.2C248.7,520,245.8,512.3,242.5,506.4L242.5,506.4
		z"/>
	<path class="st0" d="M228.2,478.3c0,0-1.8,12.5-3,15.6c-1.2,3,6.7,9.6,13.4,11.5c6.6,2-2-6.7-1.8-10c0.3-3.3,1.5-18.7,1.5-18.7
		L228.2,478.3L228.2,478.3z"/>
	<path class="st19" d="M237.9,481.2c0.2-2.5,0.3-4.4,0.3-4.4l-10.1,1.5c0,0-0.3,1.5-0.5,3.6C231.7,484.3,235.4,483.5,237.9,481.2
		L237.9,481.2z"/>
	<path class="st0" d="M231.3,455.5c0,0-4,0.9-6.5,4.7c-2.5,3.8-4.1,14.8,4,20c8.1,5.2,14.4-2.1,14.5-9.3
		C243.5,463.7,241.9,454.2,231.3,455.5L231.3,455.5z"/>
	<path class="st0" d="M245.2,468.6c-0.7,1.7-2.1,2.8-3.1,2.4c-1-0.4-1.3-2.1-0.6-3.8c0.7-1.7,2.1-2.8,3.1-2.4
		C245.6,465.2,245.9,466.9,245.2,468.6L245.2,468.6z"/>
	<path class="st28" d="M232.5,455.2c0,0-5.1,11.4-9.6,12.4c-4.5,1-4.4,6.8-4.4,6.8s0.1-13.2,4.3-16.3
		C227,455.1,232.5,455.2,232.5,455.2L232.5,455.2z"/>
	<path class="st0" d="M224.8,470c0.6,1.9,0.1,3.7-1.2,4.1c-1.2,0.4-2.7-0.8-3.3-2.6c-0.6-1.9,0-3.7,1.2-4.1
		C222.7,467,224.2,468.2,224.8,470L224.8,470z"/>
	<path class="st0" d="M281.9,552.3c-1.9-0.7-4.8-0.8-4.7-1c0.2-1,8.7,2.3,7.5,0.8c-0.6-0.8-7-3.8-8.5-3.3
		c-1.5,0.5-11.3,3.2-11.3,3.2l-26.8-6.3c0,0-6.8-15.4-7.4-28.6c-5.6,0.8-9.4,2.1-14.3,4.8c2.3,12.6,8,33.1,14.3,36.9
		c2.7,1.6,34.3-1.9,34.3-1.9s7-0.5,8.1-0.9c0.9-0.3,3.1-1.6,4.3-1.9c2.8-0.8,7.7,1.2,7.7,0.6C285.1,554.4,283.8,553,281.9,552.3
		L281.9,552.3z"/>
	<path class="st27" d="M230.8,503c-0.3-4.1-1.8-8-6.1-9.3c-2.7-0.8-5.7,0-7.8,1.7c-2.5,2.1-3.3,5.4-3.2,8.6c0,7.2,0.5,14.6,1.8,21.7
		c4.9-2.7,10.5-4.3,16.1-5.1C231.5,520.6,231.1,508.4,230.8,503L230.8,503z"/>
	<path class="st1" d="M492.4,127.6H204.5c-2.1,0-3.9-1.7-3.9-3.9V99.4c0-2.1,1.7-3.9,3.9-3.9h287.9c2.1,0,3.9,1.7,3.9,3.9v24.3
		C496.3,125.9,494.6,127.6,492.4,127.6L492.4,127.6z"/>
	<path class="st29" d="M219.5,101.6c-2.8,0-5,2.2-5,5v9.9c0,2.7,2.2,5,5,5h207.4c2.7,0,5-2.2,5-5v-9.9c0-2.7-2.2-5-5-5H219.5
		L219.5,101.6z M426.9,123.4H219.5c-3.8,0-6.9-3.1-6.9-6.9v-9.9c0-3.8,3.1-6.9,6.9-6.9h207.4c3.8,0,6.9,3.1,6.9,6.9v9.9
		C433.8,120.3,430.7,123.4,426.9,123.4L426.9,123.4z"/>
	<path class="st29" d="M463.2,100c-3.5,0-6.4,2.9-6.4,6.4c0,3.5,2.9,6.4,6.4,6.4c3.5,0,6.4-2.9,6.4-6.4
		C469.6,102.9,466.8,100,463.2,100L463.2,100z M463.2,114.7c-4.6,0-8.3-3.7-8.3-8.3c0-4.6,3.7-8.3,8.3-8.3c4.6,0,8.3,3.7,8.3,8.3
		C471.5,111,467.8,114.7,463.2,114.7L463.2,114.7z"/>
	<path class="st29" d="M474.1,123l-7.4-10c-0.3-0.4-0.2-1,0.2-1.3c0.4-0.3,0.9-0.2,1.3,0.1l0.1,0.1l8.4,9.3c0.6,0.6,0.5,1.6-0.1,2.2
		c-0.6,0.6-1.6,0.5-2.2-0.1c0,0-0.1-0.1-0.1-0.1L474.1,123L474.1,123z"/>
	<polygon class="st10" points="380.2,39.4 395,42.4 394.5,45 379.7,42 380.2,39.4 	"/>
	<polygon class="st10" points="400.2,68.9 401.6,71.1 388.1,79.6 386.7,77.4 400.2,68.9 	"/>
	<polygon class="st10" points="412.3,8.3 415.5,24.6 412.9,25.1 409.8,8.8 412.3,8.3 	"/>
	<polygon class="st10" points="413.6,24.3 439.8,31 448.9,55 446.4,55.9 437.8,33.2 414.3,27.2 396.7,44.8 402.6,69.4 400,70 
		393.8,44 413.6,24.3 	"/>
	<path class="st2" d="M441.8,54.7c0.6-3.4,3.9-5.7,7.3-5.1c3.4,0.6,5.7,3.9,5.1,7.3c-0.6,3.4-3.9,5.7-7.3,5.1
		C443.5,61.4,441.2,58.1,441.8,54.7L441.8,54.7z"/>
	<path class="st2" d="M433,30.2c0.6-3.4,3.9-5.7,7.3-5.1c3.4,0.6,5.7,3.9,5.1,7.3c-0.6,3.4-3.9,5.7-7.3,5.1
		C434.6,36.9,432.4,33.6,433,30.2L433,30.2z"/>
	<path class="st2" d="M407.7,24.5c0.6-3.4,3.9-5.7,7.3-5.1c3.4,0.6,5.7,3.9,5.1,7.3c-0.6,3.4-3.9,5.7-7.3,5.1
		C409.4,31.2,407.1,28,407.7,24.5L407.7,24.5z"/>
	<path class="st2" d="M404.1,5.2c0.6-3.4,3.9-5.7,7.3-5.1c3.4,0.6,5.7,3.9,5.1,7.3c-0.6,3.4-3.9,5.7-7.3,5.1
		C405.8,11.9,403.5,8.6,404.1,5.2L404.1,5.2z"/>
	<path class="st2" d="M369.8,38.3c0.6-3.4,3.9-5.7,7.3-5.1c3.4,0.6,5.7,3.9,5.1,7.3c-0.6,3.4-3.9,5.7-7.3,5.1
		C371.5,45,369.2,41.7,369.8,38.3L369.8,38.3z"/>
	<path class="st2" d="M377.9,78.3c0.6-3.4,3.9-5.7,7.3-5.1c3.4,0.6,5.7,3.9,5.1,7.3c-0.6,3.4-3.9,5.7-7.3,5.1
		C379.6,84.9,377.3,81.7,377.9,78.3L377.9,78.3z"/>
	<path class="st2" d="M388,43.1c0.6-3.4,3.9-5.7,7.3-5.1c3.4,0.6,5.7,3.9,5.1,7.3c-0.6,3.4-3.9,5.7-7.3,5.1
		C389.6,49.7,387.4,46.5,388,43.1L388,43.1z"/>
	<path class="st2" d="M394.7,68.9c0.6-3.4,3.9-5.7,7.3-5.1c3.4,0.6,5.7,3.9,5.1,7.3c-0.6,3.4-3.9,5.7-7.3,5.1
		C396.4,75.6,394.1,72.3,394.7,68.9L394.7,68.9z"/>
	<path class="st10" d="M585.6,669l-74.2-20.7c-3.7-1-5.9-4.9-4.9-8.6l29.8-106.4c1-3.7,4.9-5.9,8.6-4.9l74.2,20.7
		c3.7,1,5.9,4.9,4.9,8.6l-29.8,106.4C593.2,667.9,589.3,670.1,585.6,669L585.6,669z"/>
	<path class="st17" d="M611.4,566.9l-66.7-18.6c-1.1-0.3-1.7-1.4-1.4-2.5l0,0c0.3-1.1,1.4-1.7,2.5-1.4l66.7,18.6
		c1.1,0.3,1.7,1.4,1.4,2.5l0,0C613.6,566.6,612.5,567.2,611.4,566.9L611.4,566.9z"/>
	<path class="st17" d="M597.3,571.5l-54.7-15.3c-1.1-0.3-1.7-1.4-1.4-2.5l0,0c0.3-1.1,1.4-1.7,2.5-1.4l54.7,15.3
		c1.1,0.3,1.7,1.4,1.4,2.5l0,0C599.5,571.2,598.3,571.8,597.3,571.5L597.3,571.5z"/>
	<path class="st17" d="M607,582.7l-66.7-18.6c-1.1-0.3-1.7-1.4-1.4-2.5l0,0c0.3-1.1,1.4-1.7,2.5-1.4l66.7,18.6
		c1.1,0.3,1.7,1.4,1.4,2.5l0,0C609.2,582.4,608.1,583,607,582.7L607,582.7z"/>
	<path class="st17" d="M589.6,586.4L538.1,572c-1.1-0.3-1.7-1.4-1.4-2.5l0,0c0.3-1.1,1.4-1.7,2.5-1.4l51.5,14.4
		c1.1,0.3,1.7,1.4,1.4,2.5l0,0C591.7,586.1,590.6,586.7,589.6,586.4L589.6,586.4z"/>
	<path class="st7" d="M554.4,524.3l-1.3-0.4c-0.5-0.1-1,0.1-1.1,0.6l-2.8,10.1c-0.1,0.5,0.2,1,0.7,1.1l1.3,0.4
		c0.5,0.1,1-0.1,1.1-0.6l2.8-10.1C555.2,524.9,554.9,524.4,554.4,524.3L554.4,524.3z"/>
	<path class="st7" d="M560.2,525.9l-1.3-0.4c-0.5-0.1-1,0.1-1.1,0.6l-2.8,10.1c-0.1,0.5,0.2,1,0.7,1.1l1.3,0.4
		c0.5,0.1,1-0.1,1.1-0.6l2.8-10.1C561,526.5,560.7,526,560.2,525.9L560.2,525.9z"/>
	<path class="st7" d="M565.9,527.5l-1.3-0.4c-0.5-0.1-1,0.1-1.1,0.6l-2.8,10.1c-0.1,0.5,0.2,1,0.7,1.1l1.3,0.4
		c0.5,0.1,1-0.1,1.1-0.6l2.8-10.1C566.7,528.1,566.4,527.7,565.9,527.5L565.9,527.5z"/>
	<path class="st7" d="M571.6,529.1l-1.3-0.4c-0.5-0.1-1,0.1-1.1,0.6l-2.8,10.1c-0.1,0.5,0.2,1,0.7,1.1l1.3,0.4
		c0.5,0.1,1-0.1,1.1-0.6l2.8-10.1C572.4,529.7,572.1,529.3,571.6,529.1L571.6,529.1z"/>
	<path class="st7" d="M577.4,530.7l-1.3-0.4c-0.5-0.1-1,0.1-1.1,0.6l-2.8,10.1c-0.1,0.5,0.2,1,0.7,1.1l1.3,0.4
		c0.5,0.1,1-0.1,1.1-0.6l2.8-10.1C578.2,531.4,577.9,530.9,577.4,530.7L577.4,530.7z"/>
	<path class="st7" d="M583.1,532.3l-1.3-0.4c-0.5-0.1-1,0.1-1.1,0.6l-2.8,10.1c-0.1,0.5,0.2,1,0.7,1.1l1.3,0.4
		c0.5,0.1,1-0.1,1.1-0.6l2.8-10.1C583.9,533,583.6,532.5,583.1,532.3L583.1,532.3z"/>
	<path class="st7" d="M588.9,533.9l-1.3-0.4c-0.5-0.1-1,0.1-1.1,0.6l-2.8,10.1c-0.1,0.5,0.2,1,0.7,1.1l1.3,0.4
		c0.5,0.1,1-0.1,1.1-0.6l2.8-10.1C589.7,534.6,589.4,534.1,588.9,533.9L588.9,533.9z"/>
	<path class="st7" d="M594.6,535.5l-1.3-0.4c-0.5-0.1-1,0.1-1.1,0.6l-2.8,10.1c-0.1,0.5,0.2,1,0.7,1.1l1.3,0.4
		c0.5,0.1,1-0.1,1.1-0.6l2.8-10.1C595.4,536.2,595.1,535.7,594.6,535.5L594.6,535.5z"/>
	<path class="st7" d="M600.4,537.1l-1.3-0.4c-0.5-0.1-1,0.1-1.1,0.6l-2.8,10.1c-0.1,0.5,0.2,1,0.7,1.1l1.3,0.4
		c0.5,0.1,1-0.1,1.1-0.6l2.8-10.1C601.2,537.8,600.9,537.3,600.4,537.1L600.4,537.1z"/>
	<path class="st7" d="M606.1,538.8l-1.3-0.4c-0.5-0.1-1,0.1-1.1,0.6l-2.8,10.1c-0.1,0.5,0.2,1,0.7,1.1l1.3,0.4
		c0.5,0.1,1-0.1,1.1-0.6l2.8-10.1C606.9,539.4,606.6,538.9,606.1,538.8L606.1,538.8z"/>
	<path class="st7" d="M611.8,540.4l-1.3-0.4c-0.5-0.1-1,0.1-1.1,0.6l-2.8,10.1c-0.1,0.5,0.2,1,0.7,1.1l1.3,0.4
		c0.5,0.1,1-0.1,1.1-0.6l2.8-10.1C612.6,541,612.3,540.5,611.8,540.4L611.8,540.4z"/>
	<path class="st7" d="M617.6,542l-1.3-0.4c-0.5-0.1-1,0.1-1.1,0.6l-2.8,10.1c-0.1,0.5,0.2,1,0.7,1.1l1.3,0.4c0.5,0.1,1-0.1,1.1-0.6
		l2.8-10.1C618.4,542.6,618.1,542.1,617.6,542L617.6,542z"/>
	<path class="st5" d="M432.6,634l70.9-1.5c0.2,0,0.3,0,0.5-0.1l12.7-4.2c1.5-0.5,1.5-2.6,0-3l-13.1-3.9c-0.2,0-0.3-0.1-0.5-0.1
		l-71.1,1.5c-0.9,0-1.6,0.8-1.6,1.7l0.5,8.1C431.1,633.4,431.8,634.1,432.6,634L432.6,634z"/>
	<path class="st4" d="M503.2,621.3h0.2l12.6,3.8l0.1,3.5l-12.1,4C503.6,629,502.8,625,503.2,621.3L503.2,621.3z"/>
	<path class="st5" d="M545.2,649.9c-1.5,0-2.7-0.5-3.6-1.4c-3.5-3.5-2.2-12.5-1.7-19.2c0.2-3.1,0.5-6.7-0.9-9.4
		c-1.7-3.1-8.3-2.8-13.2-0.5c-3.3,1.5-6.4,4.3-5.2,7.3c0.1,0.3,0,0.7-0.4,0.8c-0.3,0.1-0.7,0-0.8-0.4c-1.3-3.3,0.9-6.7,5.8-9
		c5.6-2.6,12.8-2.9,14.9,1.1c1.6,3,1.3,6.8,1.1,10.1c-0.5,6.4-1.8,15.1,1.3,18.2c0.8,0.8,1.8,1.1,3.2,1c6.2-0.6,5.2-13.3,6.2-17.8
		c1.5-6.7,4-15.1,10.8-14.1c5.1,0.7,8.8,4.3,10.7,10.4c1.5,4.5,1.4,8.7,1.4,8.8c0,0.4-0.3,0.6-0.7,0.6h0c-0.4,0-0.7-0.3-0.6-0.7
		c0,0,0-4.2-1.4-8.5c-1.8-5.6-5.1-8.8-9.7-9.4c-5.9-0.9-8,7.3-9.3,13.1C552.1,635.8,553.4,649.9,545.2,649.9L545.2,649.9z"/>
	<path class="st1" d="M219.7,149.1l-4.1-3.6l-5.2,1.3c-0.6,0.2-1.1-0.4-0.9-1l2.1-5l-2.9-4.6c-0.3-0.5,0.1-1.2,0.7-1.1l5.4,0.5
		l3.5-4.2c0.4-0.5,1.2-0.3,1.3,0.3l1.2,5.3l5,2c0.6,0.2,0.6,1,0.1,1.3l-4.7,2.8l-0.4,5.4C220.9,149.2,220.2,149.5,219.7,149.1
		L219.7,149.1z"/>
	<path class="st5" d="M196,78.3l-4.1-3.6l-5.2,1.3c-0.6,0.2-1.1-0.4-0.9-1l2.1-5l-2.9-4.6c-0.3-0.5,0.1-1.2,0.7-1.1l5.4,0.5l3.5-4.2
		c0.4-0.5,1.2-0.3,1.3,0.3l1.2,5.3l5,2c0.6,0.2,0.6,1,0.1,1.3l-4.7,2.8l-0.4,5.4C197.2,78.4,196.5,78.7,196,78.3L196,78.3z"/>
</g>
<g>
</g>
<g>
</g>
<g>
</g>
<g>
</g>
<g>
</g>
<g>
</g>
</svg>
