<?xml version="1.0" encoding="utf-8"?>
<!-- Generator: Adobe Illustrator 25.2.1, SVG Export Plug-In . SVG Version: 6.00 Build 0)  -->
<svg version="1.1" id="Camada_1" xmlns="http://www.w3.org/2000/svg" xmlns:xlink="http://www.w3.org/1999/xlink" x="0px" y="0px"
	 viewBox="0 0 881.6 488.4" style="enable-background:new 0 0 881.6 488.4;" xml:space="preserve">
<style type="text/css">
	.st0{opacity:0.1;fill:#56BCB7;}
	.st1{fill:#03918E;}
	.st2{fill:#41B7A8;}
	.st3{fill:#EF7972;}
	.st4{opacity:0.4;fill:#9E332E;}
	.st5{fill:#56BCB7;}
	.st6{fill:#F8A819;}
	.st7{fill:#DEE8F7;}
	.st8{opacity:0.26;fill:#F28A1C;}
	.st9{fill:#F28A1C;}
	.st10{fill:#21234B;}
	.st11{fill:#17162F;}
	.st12{fill:#B0524E;}
	.st13{fill:#FFFFFF;}
	.st14{fill:#43474F;}
	.st15{fill:#F29191;}
	.st16{fill:#EE726A;}
	.st17{fill:#33353A;}
	.st18{fill:#55BBAC;}
	.st19{fill:#73C4B9;}
	.st20{fill:#EA8788;}
	.st21{fill:#EF7F75;}
	.st22{fill:#E0E9F8;}
</style>
<path class="st0" d="M54.1,488.1c0,0-108.3-116.3-18.3-242.2c79.9-111.7,173-104.1,241.3-58.7c29.1,19.3,113,2.4,184.4-111.3
	c97.4-155,434.8-61,373.3,177.5c-29.8,115.4,90.6,119.6,29.3,235L54.1,488.1z"/>
<g>
	<g>
		<path class="st1" d="M299.5,214.3l-21.6,257.4c0,0-2.3,15.6,9.3,15.6c19.1,0,95,0,95,0s-14.4-3.2-14.2-10.6
			c0.2-8.6,25.3-264.9,25.3-264.9L299.5,214.3z"/>
		<path class="st2" d="M388.3,482.7c-3.8,0-76.2,0.2-94.8,0c-8.1-0.1-9.5-7.2-9.6-11.8c0-2.2,0.2-3.8,0.2-3.8l0.6-6.7l1.4-17.1
			l1.3-15.1l1.6-19.4l1.4-16.3l15.4-182.9l93.8-2.4c0,0-10.6,107.3-18,185.3c-0.8,8.7-1.6,17-2.4,24.8c-0.2,2.5-0.5,4.9-0.7,7.3
			c-0.7,7.4-1.3,14.2-1.9,20.2c-0.3,3.2-0.6,6.1-0.8,8.8c-1,10.5-1.5,17.3-1.5,18.5c0,0.7,0.1,1.4,0.2,2.1
			C376,482.4,386.9,482.7,388.3,482.7z"/>
		<polygon class="st2" points="71.7,74.2 124.4,286 131.6,315.1 156.2,413.7 612.5,413.7 522,74.2 		"/>
		<polygon class="st2" points="71.7,74.2 64.4,76.7 146.5,421.1 156.2,413.7 		"/>
		<polygon class="st1" points="146.5,421.1 600,421.1 612.5,413.7 156.2,413.7 		"/>
		
			<rect x="305.7" y="482.8" transform="matrix(-1 -1.224647e-16 1.224647e-16 -1 709.6651 970.213)" class="st1" width="98.2" height="4.7"/>
		<polygon class="st3" points="590.4,351.2 516.3,78.7 71,78.7 71,74.2 522,74.2 595.8,350.6 		"/>
		<polygon class="st1" points="379,421.1 378.5,424.6 286.1,443.3 287.4,428.2 288,421.1 		"/>
		<path class="st1" d="M388.3,482.7c-3.8,0-76.2,0.2-94.8,0c-8.1-0.1-9.5-7.2-9.6-11.8l91.9-17.3c-1,10.5-1.5,17.3-1.5,18.5
			c0,0.7,0.1,1.4,0.2,2.1C376,482.4,386.9,482.7,388.3,482.7z"/>
		<polygon class="st4" points="356.6,345 156.2,413.7 131.6,315.1 		"/>
		<polygon class="st5" points="71.7,74.2 522,74.2 595,347.1 137.3,347.1 		"/>
	</g>
	<path class="st6" d="M396.4,381.6c-1.3-6.7-7.8-12.1-14.5-12.1c-6.7,0-11.1,5.4-9.8,12.1c1.3,6.7,7.8,12.1,14.5,12.1
		C393.4,393.7,397.7,388.2,396.4,381.6z"/>
	<polygon class="st7" points="573.8,335.2 152.2,335.2 104.5,145 100.8,130.5 97.7,118 95.2,108.1 90.3,88.8 505.9,88.8 506.2,89.9 
		511.2,108.1 513.9,118 517.3,130.5 521.4,145 	"/>
	<polygon class="st8" points="573.8,335.9 152.2,335.9 104.5,145.7 100.8,131.1 97.7,118.7 95.2,108.7 90.3,89.5 505.9,89.5 
		506.2,90.6 511.2,108.7 513.9,118.7 517.3,131.1 521.4,145.7 	"/>
	<polygon class="st9" points="511.2,108.1 95.2,108.1 90.3,88.8 505.7,88.8 506.2,89.9 	"/>
	<g>
		<path class="st7" d="M101.9,98.5c-0.5-2,0.7-3.6,2.7-3.6c2,0,4.1,1.6,4.6,3.6c0.5,2-0.7,3.6-2.7,3.6
			C104.4,102.1,102.4,100.5,101.9,98.5z"/>
		<path class="st7" d="M114,98.5c-0.5-2,0.7-3.6,2.7-3.6c2,0,4.1,1.6,4.6,3.6c0.5,2-0.7,3.6-2.7,3.6
			C116.6,102.1,114.5,100.5,114,98.5z"/>
		<path class="st7" d="M127.1,98.5c-0.5-2,0.7-3.6,2.7-3.6c2,0,4.1,1.6,4.6,3.6c0.5,2-0.7,3.6-2.7,3.6
			C129.6,102.1,127.6,100.5,127.1,98.5z"/>
	</g>
	<g>
		<path class="st10" d="M283.5,335.9h-41.7c-0.4-3.3-0.8-6.7-1.1-10.3c-0.6-6.4-1-13.4-1.3-20.6c-0.1-1.7-0.1-3.3-0.2-5
			c-0.1-2.2-0.1-4.3-0.2-6.5c-0.1-3.7-0.2-7.5-0.2-11.2c0,0,0,0,0,0c-0.1-4.8-0.1-9.7-0.1-14.5c0,0,0,0,0,0c0-1.2,0-2.4,0-3.6v0
			c0-1.1,0-2.3,0-3.4c0-10.4,0.2-20.6,0.4-30.1c0.5-21,1.3-38.5,1.7-46.9v0c0.2-3.5,0.3-5.4,0.3-5.4c0,0,0,0,0,0
			c0.1,0,0.7,0.1,1.7,0.4c0.7,0.2,1.7,0.4,2.7,0.7h0c1,0.3,2,0.6,3.1,1.1c0,0,0,0,0,0c1.9,0.7,3.9,1.6,5.8,2.8c0,0,0.1,0,0.1,0
			c3.1,1.9,5.9,4.5,7.2,7.9c1.1,2.9,3.7,18.3,6.8,38.8c0.1,0.6,0.2,1.2,0.3,1.8c1.6,10.9,3.4,23.1,5.2,35.6
			c1.9,13.2,3.8,26.7,5.5,39.2C281,317.4,282.4,327.4,283.5,335.9z"/>
		<path class="st11" d="M271.9,335.9h-48.5c-0.9-4-1.8-7.9-2.6-11.5c-2.1-10-3.5-18.2-3.5-22.6c0-2.1,0.8-3.7,2.2-4.9
			c0.9-0.8,2.1-1.5,3.5-2.1c4.1-1.6,10-1.8,16.1-1.4c2.1,0.1,4.2,0.3,6.3,0.6c11.5,1.4,22.2,4.3,22.2,4.3s0.7,2.9,1.6,8
			c0.6,3.8,1.3,8.8,1.9,14.7c0.3,3.4,0.6,7.2,0.7,11.2C271.8,333.4,271.8,334.6,271.9,335.9z"/>
		<path class="st12" d="M249.4,301.9l-0.5,3.5l-2.4,17l-0.4,2.9l-1.5,10.6h-50.6c-0.4-7-0.8-13.8-0.8-19.7c0-0.7,0-1.3,0-1.9
			c0-8.9,0.8-15.5,3.3-17.2c2.9-1.9,12.5-1.4,22.8-0.1c1,0.1,2,0.3,3.1,0.4c6,0.8,11.9,1.8,16.7,2.6c2.5,0.4,4.7,0.9,6.4,1.2
			C248,301.6,249.4,301.9,249.4,301.9z"/>
		<path class="st13" d="M193.4,187.1c0,0,27.8-18,47.7-8.8c3.2,1.5,6.8,5.5,9.4,8.4c7.2,7.9,21.3,134,21.3,134s-40,13.5-78.4-4.6
			V187.1z"/>
		<path class="st14" d="M242.6,177.9c0,0,28.1,11.5,31.9,20.4c3.8,8.9,16.2,63.2,16.2,69.6c0,6.4-21.6,1.4-25-8.9
			c-2.9-8.5-12.6-34.8-17.7-51.4L242.6,177.9z"/>
		<g>
			<path class="st15" d="M236.8,186.7c-6.1,1.2-15.2-0.1-21.8-4.4c3-7.1,4.2-12.7,4.6-16.4c0-0.2,0-0.4,0.1-0.6
				c0.2-1.9,0.2-3.2,0.1-3.8h15.9c0,0,4.3,2,4.3,3.4c0,0.7,0,1.4,0,2.1c0,1.8,0.1,3.4,0.2,4.8c0.3,4.5,0.8,6.6,0.8,6.6
				S243,185.5,236.8,186.7z"/>
			<path class="st16" d="M240.2,171.8c-12,2.3-19-4.2-20.6-5.9c-0.2-0.2-0.3-0.4-0.3-0.4c0.1-0.1,0.3-0.1,0.4-0.2
				c4.5-1.8,14.6-0.4,20.3,1.7C240.1,168.9,240.2,170.5,240.2,171.8z"/>
			<path class="st15" d="M215.7,159c2.1,11.6,17.1,11.2,23.5,10.5c1.8-0.2,3-0.4,3-0.4c2-0.5,3.2-3.8,3.7-8
				c1.1-8.4-0.3-20.6-1.7-23.8c-2.1-4.7-6.1-9.8-21.2-6.1C208.1,134.8,213,144.1,215.7,159z"/>
			<path class="st17" d="M244.8,130.8c-2.1-2.8-6.4-6.3-10.4-8.5c-8.5-4.6-19.4,0.1-19.4,0.2c-12.3,5.4-15.5,14.8-9,29.4
				c6.9,15.5,13.4,13.7,13.4,13.7s-1.4-0.9-1.3-5.7c0-0.3,0-0.5,0-0.7c0.1-1-0.3-2-1-2.6c-1.5-1.4-2.3-5.5-1-6.6
				c1.5-1.4,3.7,0.3,4.4,1.6c0.6,0.9,1.7,1.2,2.7,0.6c3.8-2.4,1.3-7.2,5-10.2c3.7-3,11.1-0.5,16.5-2.8
				C252,136.5,246.4,132.9,244.8,130.8z"/>
		</g>
		<path class="st14" d="M246.8,335.9h-60.5c0.4-12.5,1-27.5,1.6-42.7c0.1-3.9,0.3-7.9,0.5-11.8c0.1-1.7,0.1-3.3,0.2-5
			c1.3-33.7,2.7-64.1,2.9-65.7c0.6-3.7,1.2-6.9,1.9-9.6c1.9-8,4.3-12.4,9.4-16.1c0.5-0.4,4.6-2.5,8.2-4.3c3-1.5,5.6-2.8,5.7-2.8v0h0
			c0.6,0.3,1.3,1.1,2,2.4c0.7,1.2,1.4,2.9,2.2,4.8c2.8,7.1,5.8,18,7.8,26.1c0,0,0,0,0,0c0,0,0,0,0,0s0,0,0,0
			c1.3,5.2,2.3,9.3,2.6,10.5c0.5,2,1.1,5.8,1.8,11v0c1,7.1,2.1,16.7,3.4,27.5v0c0.1,1.1,0.3,2.2,0.4,3.4c0.1,1.3,0.3,2.6,0.4,4v0
			c0,0.4,0.1,0.9,0.1,1.3v0c0.5,4.3,1,8.8,1.4,13.3c0,0,0,0,0,0c0.4,3.7,6.1,6.4,6.5,10.2c0,0.3,0.1,0.8,0.1,1.6
			c0.1,1.6,0.2,4.2,0.3,7.1c0,1.3,0.1,2.7,0.1,4.1c0.2,6.3,0.5,13.2,0.8,16.6c0,0.2,0,0.4,0,0.6c0,0.7,0.1,1.6,0.1,2.9
			C246.8,327.9,246.8,331.6,246.8,335.9z"/>
		<path class="st11" d="M205.5,224.3c0,0.1-1,34,24.6,38.2c25.6,4.1,8.6,5.2,8.6,5.2s-48.1-2-48.9-3.3
			C189,263.1,205.5,224.3,205.5,224.3z"/>
		<path class="st11" d="M227.1,277.1c0,0-0.5,0.3-1.4,0.9c0,0,0,0,0,0c-3.9,2.5-15.5,9.3-32.3,13.8c-1.8,0.5-3.6,0.9-5.5,1.4
			c0.1-3.9,0.3-7.9,0.5-11.8c-2.2-0.2-4.4-0.5-6.3-0.9c0.1-0.5,0.1-1,0.2-1.6c2.1-0.9,4.3-1.7,6.3-2.5c1.7-0.7,3.3-1.3,4.8-1.9
			c6.9-2.6,12.1-4.4,12.1-4.4l20.5,6.5L227.1,277.1z"/>
		<path class="st14" d="M232.5,276.5c0,0-2.6,0.7-6.8,1.5c0,0,0,0,0,0c-7.7,1.6-20.7,3.7-32.3,3.6c-1.7,0-3.4-0.1-5-0.2
			c-2.2-0.2-4.4-0.5-6.3-0.9c-4.2-0.9-7.8-2.4-10.1-4.8c-17.3-17.6,9.4-80.7,15-86.8c6.5-7.2,18.5-9.7,25.1-10.5
			c0.3,0,0.5-0.1,0.8-0.1c2.3-0.3,3.8-0.3,3.9-0.3c0,0,0,0,0,0s-0.5,1.7-1.4,4.5c-0.3,1.1-0.7,2.4-1.2,3.8
			c-4.1,13.3-11.9,39.4-15.3,54.1c-1.3,5.4-1.9,9.2-1.6,10.4c1.3,5,15.3,7.6,24.1,8.8c3.7,0.5,6.5,0.7,7.1,0.7c0,0,0.1,0,0.1,0
			l0.5,2.1l1.2,5l1.2,4.9L232.5,276.5z"/>
		<polygon class="st18" points="280.7,306.8 221.4,304.3 233.4,230.4 292.7,232.9 		"/>
		<path class="st15" d="M228.6,260.2c0,0,11.5-0.8,12.1,1.9c1.3,6.3-9.9,11.4-13.6,11.1C223.5,272.8,225.9,259.8,228.6,260.2z"/>
		<path class="st15" d="M289.5,247.9c0,0-11-3.5-12.2-1c-2.8,5.8,7,13.4,10.6,13.9C291.5,261.3,292.1,248.1,289.5,247.9z"/>
		<path class="st11" d="M217.9,174.3c0,0-4.9,2.3-7.3,5.8c0,0,18.1,31.5,18.1,31.2C228.6,211,222.5,178.3,217.9,174.3z"/>
		<path class="st11" d="M240.5,174.7c1.6,0.6,4.7,3.7,5.4,5.5l2.2,27.5c0,0-4.6-20.2-7-29.3C240.5,176.1,240.6,175.3,240.5,174.7z"
			/>
		<path class="st12" d="M253.1,231.2c0,0,0.5-2,3.2-1.8c2.7,0.2,17.9,1,17.9,1s2.9,0,2.7,1.8L253.1,231.2z"/>
		<path class="st13" d="M235.7,161.6c0,0,2,1.8,5.1,1.2c1.9-0.3,2.9-2.8,2.9-2.8S240.1,159.4,235.7,161.6z"/>
	</g>
	<g>
		<g>
			<polygon class="st13" points="516.6,184.6 472.8,184.7 458.6,130.4 502.4,130.2 			"/>
			<g>
				<polygon class="st9" points="491.5,137.3 473.2,137.4 472.9,136.6 491.3,136.5 				"/>
				<polygon class="st9" points="494.4,139.6 471.4,139.7 471.2,138.9 494.2,138.8 				"/>
				<g>
					<polygon class="st9" points="500.8,150.6 470.8,150.8 470.6,149.9 500.6,149.8 					"/>
					<polygon class="st9" points="501.5,153.3 471.5,153.4 471.3,152.6 501.3,152.5 					"/>
					<polygon class="st9" points="502.2,155.9 472.2,156.1 472,155.2 502,155.1 					"/>
					<polygon class="st9" points="502.9,158.6 472.9,158.7 472.7,157.9 502.7,157.8 					"/>
					<polygon class="st9" points="503.6,161.2 473.6,161.4 473.4,160.6 503.3,160.4 					"/>
				</g>
				<g>
					<polygon class="st9" points="505.2,167.7 475.3,167.8 475.1,167 505,166.9 					"/>
					<polygon class="st9" points="505.9,170.3 476,170.5 475.8,169.7 505.7,169.5 					"/>
					<polygon class="st9" points="506.6,173 476.7,173.1 476.5,172.3 506.4,172.2 					"/>
					<polygon class="st9" points="507.3,175.6 477.4,175.8 477.2,175 507.1,174.8 					"/>
					<polygon class="st9" points="508,178.3 478.1,178.4 477.9,177.6 507.8,177.5 					"/>
				</g>
			</g>
		</g>
		<g>
			<polygon class="st13" points="534.2,252.1 490.4,252.3 476.2,197.9 520,197.8 			"/>
			<g>
				<polygon class="st9" points="509.2,204.9 490.8,205 490.6,204.2 508.9,204.1 				"/>
				<polygon class="st9" points="512.1,207.1 489,207.2 488.8,206.4 511.9,206.3 				"/>
				<g>
					<polygon class="st9" points="518.4,218.2 488.5,218.3 488.3,217.5 518.2,217.4 					"/>
					<polygon class="st9" points="519.1,220.8 489.2,221 489,220.1 518.9,220 					"/>
					<polygon class="st9" points="519.8,223.5 489.9,223.6 489.7,222.8 519.6,222.7 					"/>
					<polygon class="st9" points="520.5,226.1 490.6,226.3 490.4,225.4 520.3,225.3 					"/>
					<polygon class="st9" points="521.2,228.8 491.3,228.9 491,228.1 521,228 					"/>
				</g>
				<g>
					<polygon class="st9" points="522.9,235.2 492.9,235.4 492.7,234.5 522.7,234.4 					"/>
					<polygon class="st9" points="523.6,237.9 493.6,238 493.4,237.2 523.4,237.1 					"/>
					<polygon class="st9" points="524.3,240.5 494.3,240.7 494.1,239.8 524.1,239.7 					"/>
					<polygon class="st9" points="525,243.2 495,243.3 494.8,242.5 524.7,242.4 					"/>
					<polygon class="st9" points="525.7,245.8 495.7,246 495.5,245.2 525.4,245 					"/>
				</g>
			</g>
		</g>
		<g>
			<polygon class="st13" points="552,320.1 508.2,320.3 494,265.9 537.8,265.8 			"/>
			<g>
				<polygon class="st9" points="526.9,272.9 508.6,273 508.4,272.2 526.7,272.1 				"/>
				<polygon class="st9" points="529.9,275.1 506.8,275.2 506.6,274.4 529.6,274.3 				"/>
				<g>
					<polygon class="st9" points="536.2,286.2 506.3,286.3 506,285.5 536,285.4 					"/>
					<polygon class="st9" points="536.9,288.8 506.9,289 506.7,288.2 536.7,288 					"/>
					<polygon class="st9" points="537.6,291.5 507.6,291.6 507.4,290.8 537.4,290.7 					"/>
					<polygon class="st9" points="538.3,294.1 508.3,294.3 508.1,293.5 538.1,293.3 					"/>
					<polygon class="st9" points="539,296.8 509,296.9 508.8,296.1 538.7,296 					"/>
				</g>
				<g>
					<polygon class="st9" points="540.6,303.2 510.7,303.4 510.5,302.6 540.4,302.4 					"/>
					<polygon class="st9" points="541.3,305.9 511.4,306 511.2,305.2 541.1,305.1 					"/>
					<polygon class="st9" points="542,308.5 512.1,308.7 511.9,307.9 541.8,307.7 					"/>
					<polygon class="st9" points="542.7,311.2 512.8,311.3 512.6,310.5 542.5,310.4 					"/>
					<polygon class="st9" points="543.4,313.8 513.5,314 513.3,313.2 543.2,313 					"/>
				</g>
			</g>
		</g>
		<g>
			<g>
				<polygon class="st13" points="494.4,320.6 341.3,321.1 297.2,152.4 317.1,130.9 444.7,130.4 				"/>
				<polygon class="st9" points="402.6,159 348.6,159.2 348,156.8 401.9,156.6 				"/>
				<polygon class="st9" points="411.2,165.5 343.4,165.8 342.8,163.4 410.6,163.2 				"/>
				<g>
					<polygon class="st9" points="429.8,198.1 341.8,198.4 341.2,196 429.2,195.7 					"/>
					<polygon class="st9" points="431.8,205.8 343.8,206.2 343.2,203.8 431.2,203.5 					"/>
					<polygon class="st9" points="433.9,213.6 345.9,214 345.2,211.6 433.3,211.3 					"/>
					<polygon class="st9" points="435.9,221.4 347.9,221.8 347.3,219.4 435.3,219.1 					"/>
					<polygon class="st9" points="437.9,229.2 349.9,229.5 349.3,227.2 437.3,226.9 					"/>
				</g>
				<g>
					<polygon class="st9" points="442.9,248.2 354.9,248.5 354.3,246.1 442.3,245.8 					"/>
					<polygon class="st9" points="444.9,256 356.9,256.3 356.3,253.9 444.3,253.6 					"/>
					<polygon class="st9" points="447,263.8 359,264.1 358.3,261.7 446.4,261.4 					"/>
					<polygon class="st9" points="449,271.6 361,271.9 360.4,269.5 448.4,269.2 					"/>
					<polygon class="st9" points="451,279.3 363,279.7 362.4,277.3 450.4,277 					"/>
				</g>
			</g>
			<polygon class="st9" points="297.2,152.4 322.7,152.3 317.1,130.9 			"/>
		</g>
	</g>
</g>
<g>
	<g>
		<g>
			<path class="st13" d="M661.8,452.9H541.4v-44h120.9c12,0,21.8,9.7,21.8,21.8l0,0C684.1,442.9,674.1,452.9,661.8,452.9z"/>
			<path class="st18" d="M790.5,427v6.6c0,3.5-1,6.9-2.6,9.7c-3.3,5.7-9.6,9.6-16.7,9.6H537.6c-1.5,0-2.8-1.3-2.8-2.8v-1
				c0-1.5,1.3-2.8,2.8-2.8H680c0.8-0.9,1.4-1.9,2-3c1.3-2.5,2.1-5.4,2.1-8.4v-8.4c0-1.5-0.2-3.1-0.6-4.5c-0.6-2.4-1.8-4.6-3.3-6.5
				H537.6c-1.5,0-2.8-1.3-2.8-2.8v-1c0-1.5,1.3-2.8,2.8-2.8h234.8c8.3,0,15.3,5.5,17.4,13.1C790.2,423.6,790.5,425.3,790.5,427z"/>
			<path class="st19" d="M789.8,422H683.5c-0.6-2.4-1.8-4.6-3.3-6.5H537.6c-1.5,0-2.8-1.3-2.8-2.8v-1c0-1.5,1.3-2.8,2.8-2.8h234.8
				C780.6,408.9,787.6,414.4,789.8,422z"/>
		</g>
		<polygon class="st20" points="541.4,430.9 558.7,431.6 541.4,432.1 		"/>
		<polygon class="st20" points="541.4,437.8 582.5,438.5 541.4,439 		"/>
	</g>
	<g>
		<g>
			<g>
				<path class="st9" d="M571.1,487.1h132.7v-34.3H570c-9.2,0-16.6,7.4-16.6,16.6l0,0C553.4,479.2,561.4,487.1,571.1,487.1z"/>
				<path class="st13" d="M696.3,487.1h151v-34.3H695.9c-9.4,0-16.9,7.6-16.9,16.9l0,0C679,479.3,686.7,487.1,696.3,487.1z"/>
				<path class="st9" d="M668.9,487.1h183.6c1.4,0,2.6-1.1,2.6-2.6l0,0c0-1.4-1.1-2.6-2.6-2.6H668.9c-1.4,0-2.6,1.1-2.6,2.6l0,0
					C666.3,485.9,667.5,487.1,668.9,487.1z"/>
				<path class="st9" d="M668.9,457.9h183.6c1.4,0,2.6-1.1,2.6-2.6l0,0c0-1.4-1.1-2.6-2.6-2.6H668.9c-1.4,0-2.6,1.1-2.6,2.6l0,0
					C666.3,456.8,667.5,457.9,668.9,457.9z"/>
			</g>
			<polygon class="st20" points="847.3,469.9 826.9,470.5 847.3,470.9 			"/>
			<polygon class="st20" points="847.3,462.1 798.7,462.6 847.3,463 			"/>
		</g>
		<g>
			<path class="st18" d="M799.2,462.5c0,0,2.1,1.5,2.8,3.9c0.1,0.4,0.2,0.9,0.2,1.4c0.1,3.2,0,10.5,0,10.5l6.1-3.6l6.1,3.6v-9.9
				c0-1.9-0.5-3.7-1.5-4.9c-0.5-0.6-1-1-1.7-1H799.2z"/>
			<path class="st18" d="M799.2,462.5c0,0,2.1,1.5,2.8,3.9l12.3,0.1c0,0-0.5-3.5-3-4H799.2z"/>
		</g>
	</g>
	<g>
		<g>
			<g>
				<path class="st13" d="M686.1,409h130.3v-50.3H685.5c-13.7,0-24.9,11.1-24.9,24.9l0,0C660.7,397.6,672,409,686.1,409z"/>
				<path class="st1" d="M663.8,378.2V389c0,4.6,2.6,8.6,6.4,10.8c1.9,1.1,4,1.7,6.3,1.7h147.3c1.7,0,3.1,1.4,3.1,3.1v1.3
					c0,1.7-1.4,3.1-3.1,3.1H569.3c-7.3,0-13.7-3.6-17.6-9.2c-2.5-3.5-3.9-7.8-3.9-12.4v-8.5c0-3.2,0.7-6.1,2-8.8
					c3.3-6.8,10.2-11.4,18.2-11.4h255.7c1.7,0,3.1,1.4,3.1,3.1v1.3c0,1.7-1.4,3.1-3.1,3.1H676c-3.5,0-6.7,1.5-9,3.9
					C665.1,372.2,663.9,375,663.8,378.2z"/>
			</g>
			<polygon class="st20" points="816.4,383.8 797.5,384.7 816.4,385.2 			"/>
			<polygon class="st20" points="816.4,372.2 771.5,373.1 816.4,373.6 			"/>
		</g>
		<g>
			<path class="st18" d="M771.9,372.9c0,0,3,1.6,3.9,4.2c0.2,0.5,0.3,1,0.3,1.5c0.2,3.5,0,11.4,0,11.4l8.8-3.9l8.7,3.9v-10.7
				c0-2-0.7-4-2.1-5.3c-0.7-0.6-1.5-1.1-2.4-1.1H771.9z"/>
			<path class="st18" d="M771.9,372.9c0,0,3,1.6,3.9,4.2l17.5,0.2c0,0-0.7-3.8-4.3-4.4H771.9z"/>
		</g>
	</g>
</g>
<g>
	<g>
		<path class="st11" d="M683.1,340c7.8,13.5,17.5,18.7,17.5,18.7h40.6C741.3,358.7,677.2,329.7,683.1,340z"/>
		<g>
			<path class="st15" d="M714.3,444.5c1.1,1.2,1.2,2.6,0.7,4c0,0,0,0,0,0c-1,2.7-4.2,5.7-7.9,8.7c-0.5,0.4-0.9,0.7-1.3,1.1
				c-0.1,0.1-0.2,0.2-0.3,0.3c-0.1,0.1-0.1,0.1-0.2,0.2c-3.5,3.2-2.2,3.9-8.4,10.4c-7.1,7.4-12,7.5-13.4,6.8
				c-1.2-0.6,1.2-4.5,3.9-8.9c0.1-0.2,0.3-0.4,0.4-0.6c0.4-0.6,0.7-1.2,1.1-1.8c3.1-5.3,2.3-7.8,1.6-15.7c-0.6-6.4-10-35.8-10-35.8
				l13.6-2.3c0,0,4.1,23.4,8.6,27c2.4,1.9,5.1,1.9,7.4,3.4c0.2,0.1,0.3,0.2,0.5,0.3C711.9,442.4,713.3,443.3,714.3,444.5z"/>
			<path class="st11" d="M714.3,444.5c1.1,1.2,1.2,2.6,0.7,4c0,0,0,0,0,0c-1.2,2.7-4.3,5.6-7.9,8.6c-0.5,0.4-0.9,0.7-1.3,1.1
				c-0.1,0.1-0.2,0.2-0.3,0.3c-0.1,0.1-0.1,0.1-0.2,0.2c-3.5,3.2-2.2,3.9-8.4,10.4c-7.1,7.4-12,7.5-13.4,6.8
				c-1.2-0.6,1.2-4.5,3.9-8.9c1.4-0.5,7.8-3.1,12.7-9.3c4.3-5.5,7.1-12.5,10-16.5c0.2,0.1,0.3,0.2,0.5,0.3
				C711.9,442.4,713.3,443.3,714.3,444.5z"/>
			<path class="st15" d="M604.6,436c-0.8,4.2-6.8,3.5-13.5,1.9c-6.7-1.6-5.1,0.3-14.6-0.7c-9.5-1.1-12.4-4.6-12.7-6
				c-0.3-1.3,4.4-1.7,9.5-2.3c0.6-0.1,1.3-0.1,1.9-0.2c5.7-0.7,9.9-4.4,15-7.4c4.9-2.9,12.2-14.5,12.2-14.5l13.1,1
				c0,0-6.9,10.4-9.5,14.9c-1.6,2.7-1.5,6.2-1.3,8.9C604.8,433,604.9,434.5,604.6,436z"/>
			<path class="st11" d="M591.1,437.9c-6.7-1.6-5.1,0.3-14.6-0.7c-9.5-1.1-12.4-4.6-12.7-6c-0.3-1.3,4.4-1.7,9.5-2.3l0,0.1
				c0,0,5.7,4,13.6,4.2c6.5,0.2,13.3-1.7,17.8-1.6c0.1,1.5,0.2,3-0.1,4.5C603.7,440.2,597.8,439.5,591.1,437.9z"/>
			<path class="st17" d="M654.6,352.5l12.2,32.8l15.9,42.9c0,0,4.3,0.4,8.5-0.8c3.8-1.1,8.2-4,8.2-4s-4.4-46-12.7-72.5
				c-2.1-6.8-4.5-12.3-7.1-15.4C666.8,320.5,654.6,352.5,654.6,352.5z"/>
			<path class="st14" d="M667,300.4c8-2.6,30.8,0.7,53.7,5.2l4.8-7.9l49.5-3.9c0,0,16.3,36.2,7.4,59.3c-1.3,3.4-3.9,5.6-8.4,5.6
				c0,0-0.7,0-0.7,0c0,0-29.5,0-39,0c-24.6,0-52.1-16.9-55.6-17.6c-5.8-1.2-8.1,10.5-14,22.7c-5.8,12.2-54.7,54.1-54.7,54.1
				s-7.5,0.1-10.6-1.1c-3.3-1.3-4.6-2.9-4.6-2.9S649,306.2,667,300.4z"/>
			<path class="st17" d="M725.8,229.5c17.6,9.7,53.4,29.8,53.6,29.7c0,0,13.1,5,20.6,0c12.4-8.3,19.1-30.5-3.6-49.6
				c-11.3-9.5-19.4-11.9-20.6-27.1c-0.7-8.3-11.9-35.5-30.7-33c-1.6,0.2-11.2,0.7-17.6,4C711.3,162.1,699.4,225.8,725.8,229.5z"/>
			<path class="st15" d="M740.6,221.3c-0.1,0.1,8.7,3,14.5,0.4c5.5-2.4,9.7-11.5,9.6-11.5c-2.5-0.1-5.3-2.3-7.4-16.7l-1.1,0.4
				l-17.9,6.4c0,0,1.3,5.8,2.1,11.2C741.2,216.2,741.6,220.6,740.6,221.3z"/>
			<path class="st21" d="M738.4,200.4c0,0,1.3,5.8,2.1,11.2c10.3-1.9,14.3-12.1,15.8-17.7L738.4,200.4z"/>
			<path class="st15" d="M735.7,206.1c0,0,24.5-3.3,22.2-18.5c-2.3-15.2-0.7-25.9-16.4-24.5c-15.8,1.5-17.9,7.7-18.4,13
				C722.6,181.4,729.2,206.6,735.7,206.1z"/>
			<path class="st17" d="M724,167.7c0,0,15.7,13.5,26.4,14.6c10.7,1.1,14.7-2.3,14.7-2.3s-6.3-5.2-10.1-13.7
				c-1.1-2.5-3.5-4.2-6.2-4.4C741.2,161.3,726.8,161,724,167.7z"/>
			<path class="st17" d="M733.8,166.5c0,0-5.3,5.1-6.9,8.8c-1.6,3.6-2.1,12.3-0.8,15.8c0,0-8.2-15.9-3.5-23.6
				C727.5,159.3,733.8,166.5,733.8,166.5z"/>
			<path class="st13" d="M720,257.4c0.7,49.6,0.2,39.3,5.6,44c1.3,1.1,5,1.8,9.8,2.1c15.2,1,42-1.5,43-4.3c3.5-9.7,1-12.8,4-27.7
				c0.3-1.6,0.7-3.3,1.1-5.2c2.4-10.2,4.8-13.7-3.8-30.2c-7.9-14.9-16-27-16.8-26.5c-20.7,12.3-22.4,2-22.4,2S719.6,233.2,720,257.4
				z"/>
			<path class="st14" d="M666.8,385.4l15.9,42.9c0,0,4.3,0.4,8.5-0.8c3.8-1.1,8.2-4,8.2-4s-4.4-46-12.7-72.5L666.8,385.4z"/>
			<path class="st13" d="M740.5,211.6c0,0-21.3,3.6-23.8,12.8c-2.5,9.2-17.2,63.2-17.2,63.2s10.8,1.9,15.9-3.1
				c5-5,17.4-46.5,17.4-46.5L740.5,211.6z"/>
			<path class="st22" d="M735.4,303.5c15.2,1,42-1.5,43-4.3c3.5-9.7,1-12.8,4-27.7l-7.3-20.7c0,0,1.2,23-5.6,29.1
				c-6.8,6.1-27.8,11.7-31.1,16.7C736.8,299.1,735.7,301.5,735.4,303.5z"/>
			<path class="st15" d="M752.8,293.8c0,0-15-3.3-17.4-2c-2.4,1.3-8.3,6.2-9.1,7.9c-0.7,1.7,5.4-1.3,7.4-1.8
				c1.3-0.3,4.7,0.8,6.4,1.4c7.1,2.4,11.4,1.1,11.4,1.1L752.8,293.8z"/>
			<path class="st13" d="M762.9,209.6c0,0,20.2,1.2,27.1,11c9.8,13.7,29.3,72.1,18.1,79.9c-12.6,8.8-57.2,2.3-57.2,2.3
				s-1.5-6.9,0.6-10.3c2.1-3.4,35.7-8.8,37.2-10.3c1.6-1.6-19.4-30.3-19.4-34.9S762.9,209.6,762.9,209.6z"/>
			<path class="st15" d="M734.7,296c0,0-3.1,4.1-4.2,4.5c-1,0.5-1.7,0.4-1.7,0.4l2.1-3.8L734.7,296z"/>
			<path class="st15" d="M735.4,291.8l-9.1,4.4c0,0,0.4,0.6,1.5,0.6c1.1-0.1,4-1.1,4-1.1L735.4,291.8z"/>
		</g>
		<g>
			<g>
				<g>
					<polygon class="st5" points="730.5,306.7 658.2,306.7 636.4,252.6 708.6,252.6 					"/>
					<polygon class="st5" points="657.3,304.6 752.8,304.6 752.8,306.7 658.2,306.7 					"/>
				</g>
			</g>
			<path class="st13" d="M676.4,279.7c-0.5-1.9,0.6-3.4,2.5-3.4c1.9,0,3.9,1.5,4.4,3.4c0.5,1.9-0.6,3.4-2.5,3.4
				C678.9,283.1,677,281.6,676.4,279.7z"/>
		</g>
	</g>
</g>
<g>
</g>
<g>
</g>
<g>
</g>
<g>
</g>
<g>
</g>
<g>
</g>
</svg>
