<?xml version="1.0" encoding="utf-8"?>
<!-- Generator: Adobe Illustrator 25.2.1, SVG Export Plug-In . SVG Version: 6.00 Build 0)  -->
<svg version="1.1" id="Camada_1" xmlns="http://www.w3.org/2000/svg" xmlns:xlink="http://www.w3.org/1999/xlink" x="0px" y="0px"
	 viewBox="0 0 189.7 126.6" style="enable-background:new 0 0 189.7 126.6;" xml:space="preserve">
<style type="text/css">
	.st0{fill:#FBB814;}
	.st1{fill:#FFD207;}
</style>
<g>
	<path class="st0" d="M172.9,48.4c0,3.5-2,6.3-3,9.5c-4,13.1-8.2,26.1-12.1,39.2c-0.7,2.4-1.9,3.3-4.5,3.2
		c-18.7-0.1-37.5-0.1-56.2-0.1c-0.8,0-1.5-0.1-2.3-0.2c0-15.8,0-31.5,0-47.3c0-8.5,0-16.9,0-25.4c0-1.9-0.3-3.5-2.8-3
		c-4.6-1.3-9-5.6-9.3-9c-0.7-7.4,0.2-11,7-14.2c6.7-3.2,17.7,0.7,17.4,10.8c-0.2,6.1-2.6,9.9-8.1,12.1c-2,0.8-2.4,2.1-1.6,4.1
		c3.5,8.2,8.7,15.1,15.9,20c8.3,5.6,17.6,8.4,27.8,7.9c7.6-0.4,14.6-2.6,21.1-6.4c2.4-1.4,4.7-3.2,6.8-5.1c1.4-1.2,1.9-2.3-0.1-4.1
		c-6.6-5.9-4.6-17.8,3.6-20.8c6.9-2.5,14.6,1.3,16.1,6.2c2.5,8,0.4,13.8-7.5,17c-1.7,0.7-3.8,0-5.6,0.7c-1.4,0-1.7,0.9-1.7,2.1
		c-0.2,0.5-0.3,1.1-0.5,1.6c0,0,0,0.1,0,0.1c0,0.2,0,0.3-0.2,0.3C173.1,47.9,173,48.1,172.9,48.4z"/>
	<path class="st1" d="M92,24.3c2.5-0.5,2.8,1.1,2.8,3c0,8.5,0,16.9,0,25.4c0,15.8,0,31.5,0,47.3c-0.8,0.1-1.5,0.2-2.3,0.2
		c-18.7,0-37.4,0-56,0c-2.4,0-3.6-0.7-4.3-3.1c-2-6.4-4.4-12.6-6.3-19c-1.8-6.3-3.7-12.5-5.7-18.7c-1.5-4.6-3.8-8.9-4.5-13.8
		c-0.3-1.8-1.3-2.3-3-2.2C3,43.6-1.9,34.2,0.7,26.1c2.1-6.5,12.4-9.3,18.3-5.6c6.7,4.3,7.6,15,1.1,20.1c-1.8,1.4-1.4,2.5,0,3.6
		c7.5,6.1,15.5,10.8,25.5,11.5c11.2,0.9,21.5-1.4,30.6-7.9c6.9-5,12.6-11.1,15.8-19.3C92.6,27.2,93.5,25.7,92,24.3z"/>
	<path class="st0" d="M96,126.4c-0.4,0-0.8-0.1-1.2-0.1c0.2-4.4-0.7-8.9,0.5-13.3c7.4-0.1,14.8-0.1,22.2-0.2c10.7,0,21.3,0,32,0
		c2.3,0,3,0.7,2.2,2.9c-1,2.8-1.9,5.6-2.8,8.5c-0.5,1.8-1.5,2.4-3.3,2.4c-11.8,0-23.6,0.1-35.4,0.2c-4.6,0-9.2-0.1-13.8-0.2
		C96.3,126.2,96.2,126.2,96,126.4z"/>
	<path class="st1" d="M95.3,112.9c-1.2,4.4-0.3,8.9-0.5,13.3c-0.9,0.5-1.9,0.4-2.8,0.4c-15.8,0-31.6,0-47.3,0.1
		c-2.3,0-3.4-0.5-3.9-3c-0.6-3-1.8-5.9-2.8-8.8c-0.5-1.4-0.3-2.2,1.5-2.2C58,112.8,76.7,112.8,95.3,112.9z"/>
	<path class="st1" d="M173.9,45.6c0-1.2,0.4-2,1.7-2.1C175.5,44.6,174.9,45.3,173.9,45.6z"/>
	<path class="st1" d="M172.9,48.4c0.1-0.3,0.2-0.5,0.3-0.8C173.1,47.9,173,48.1,172.9,48.4z"/>
	<polygon class="st1" points="173.4,47.3 173.4,47.2 173.5,47.3 	"/>
</g>
<g>
</g>
<g>
</g>
<g>
</g>
<g>
</g>
<g>
</g>
<g>
</g>
</svg>
