<?xml version="1.0" encoding="utf-8"?>
<!-- Generator: Adobe Illustrator 25.2.1, SVG Export Plug-In . SVG Version: 6.00 Build 0)  -->
<svg version="1.1" id="Camada_1" xmlns="http://www.w3.org/2000/svg" xmlns:xlink="http://www.w3.org/1999/xlink" x="0px" y="0px"
	 viewBox="0 0 421.6 240.8" style="enable-background:new 0 0 421.6 240.8;" xml:space="preserve">
<style type="text/css">
	.st0{fill:url(#SVGID_1_);}
	.st1{opacity:0.83;fill:#FFFFFF;enable-background:new    ;}
	.st2{fill:#FFFFFF;}
	.st3{opacity:0.52;}
</style>
<linearGradient id="SVGID_1_" gradientUnits="userSpaceOnUse" x1="0" y1="121.6" x2="421.6" y2="121.6" gradientTransform="matrix(1 0 0 -1 0 242)">
	<stop  offset="0" style="stop-color:#12C6AF"/>
	<stop  offset="1" style="stop-color:#00908E"/>
</linearGradient>
<path class="st0" d="M403.9,240.8H17.7c-9.8,0-17.7-7.9-17.7-17.7V17.7C0,7.9,7.9,0,17.7,0h386.2c9.8,0,17.7,7.9,17.7,17.7v205.4
	C421.6,232.9,413.7,240.8,403.9,240.8z"/>
<path class="st1" d="M113.9,97.7H49.5c-4.1,0-7.5-3.3-7.5-7.5v-36c0-4.1,3.3-7.5,7.5-7.5h64.4c4.1,0,7.5,3.3,7.5,7.5v36
	C121.4,94.3,118,97.7,113.9,97.7z"/>
<path class="st2" d="M90.1,88.6H48.6C45,88.6,42,85.7,42,82V59.4c0-3.6,2.9-6.6,6.6-6.6h41.5c3.6,0,6.6,2.9,6.6,6.6V82
	C96.6,85.7,93.7,88.6,90.1,88.6z"/>
<g>
	<circle class="st1" cx="45.8" cy="150.1" r="4.3"/>
	<circle class="st1" cx="61.2" cy="150.1" r="4.3"/>
	<circle class="st1" cx="76.6" cy="150.1" r="4.3"/>
	<circle class="st1" cx="92.1" cy="150.1" r="4.3"/>
</g>
<g>
	<circle class="st1" cx="123.1" cy="150.1" r="4.3"/>
	<circle class="st1" cx="138.5" cy="150.1" r="4.3"/>
	<circle class="st1" cx="153.9" cy="150.1" r="4.3"/>
	<circle class="st1" cx="169.4" cy="150.1" r="4.3"/>
</g>
<g>
	<circle class="st1" cx="200.4" cy="150.1" r="4.3"/>
	<circle class="st1" cx="215.8" cy="150.1" r="4.3"/>
	<circle class="st1" cx="231.2" cy="150.1" r="4.3"/>
	<circle class="st1" cx="246.7" cy="150.1" r="4.3"/>
</g>
<g>
	<circle class="st1" cx="277.7" cy="150.1" r="4.3"/>
	<circle class="st1" cx="293.1" cy="150.1" r="4.3"/>
	<circle class="st1" cx="308.5" cy="150.1" r="4.3"/>
	<circle class="st1" cx="324" cy="150.1" r="4.3"/>
</g>
<g class="st3">
	<path class="st2" d="M57.7,206.3h-1.6l-6.2-8l-0.9-1.4l0,0v9.4h-1.8v-12.4h1.6l6.2,8l0.8,1.4l0,0v-9.4h1.8v12.4H57.7z"/>
	<path class="st2" d="M65.9,206.4c-3.9,0-6-2.5-6-6.3c0-3.7,2.1-6.4,6-6.4s6,2.7,6,6.4C71.9,203.9,69.8,206.4,65.9,206.4z
		 M65.9,195.4c-2.9,0-4.1,2.1-4.1,4.7c0,2.6,1.2,4.6,4.1,4.6c2.9,0,4.1-2,4.1-4.6C70,197.6,68.8,195.4,65.9,195.4z"/>
	<path class="st2" d="M86.6,206.3h-1.8v-8.4l0,0l-0.7,1.6l-3.7,6.9l0,0l-3.7-7l-0.6-1.6l0,0v8.4h-1.8v-12.4h1.6l4.1,7.7l0.6,1.5l0,0
		l0.6-1.5l4.1-7.7h1.5v12.5H86.6z"/>
	<path class="st2" d="M98.9,206.3h-9.5v-12.4h9.5v1.7H91l0.2,0.2v3.3l-0.2,0.2h7.1v1.7H91l0.2,0.2v3.3l-0.2,0.2h7.8L98.9,206.3
		L98.9,206.3z"/>
	<path class="st2" d="M115.2,197c-0.8-1-1.8-1.6-3.5-1.6c-3.1,0-4.4,2.1-4.4,4.7c0,2.6,1.2,4.6,4.4,4.6c1.6,0,2.7-0.6,3.5-1.6
		l1.3,1.3c-1.2,1.3-2.7,2-4.8,2c-4.1,0-6.2-2.5-6.2-6.3c0-3.7,2.2-6.4,6.3-6.4c2.1,0,3.6,0.7,4.8,2L115.2,197z"/>
	<path class="st2" d="M123.9,206.4c-3.9,0-6-2.5-6-6.3c0-3.7,2.1-6.4,6-6.4s6,2.7,6,6.4C129.9,203.9,127.7,206.4,123.9,206.4z
		 M123.9,195.4c-2.9,0-4.1,2.1-4.1,4.7c0,2.6,1.2,4.6,4.1,4.6s4.1-2,4.1-4.6C128,197.6,126.8,195.4,123.9,195.4z"/>
	<path class="st2" d="M144.6,206.3h-1.8v-8.4l0,0l-0.7,1.6l-3.7,6.9l0,0l-3.7-7l-0.6-1.6l0,0v8.4h-1.8v-12.4h1.6l4.1,7.7l0.6,1.5
		l0,0l0.6-1.5l4.1-7.7h1.5v12.5H144.6z"/>
	<path class="st2" d="M153.2,201.7H149l0.2,0.2v4.4h-1.8v-12.4h5.8c2.7,0,4.3,1.6,4.3,3.9C157.5,200,155.9,201.7,153.2,201.7z
		 M153.2,195.6H149l0.2,0.2v4L149,200h4.2c1.7,0,2.4-0.9,2.4-2.2C155.6,196.5,154.9,195.6,153.2,195.6z"/>
	<path class="st2" d="M168.3,206.3h-8.8v-12.4h1.8v10.5l-0.2,0.2h7.1L168.3,206.3L168.3,206.3z"/>
	<path class="st2" d="M179.4,206.3h-9.5v-12.4h9.5v1.7h-7.8l0.2,0.2v3.3l-0.2,0.2h7.1v1.7h-7.1l0.2,0.2v3.3l-0.2,0.2h7.8V206.3z"/>
	<path class="st2" d="M191.3,195.6h-4.4l0.1,0.2v10.5h-1.8v-10.5l0.1-0.2h-4.5v-1.7h10.5L191.3,195.6L191.3,195.6z"/>
	<path class="st2" d="M198.4,206.4c-3.9,0-6-2.5-6-6.3c0-3.7,2.1-6.4,6-6.4s6,2.7,6,6.4C204.4,203.9,202.3,206.4,198.4,206.4z
		 M198.4,195.4c-2.9,0-4.1,2.1-4.1,4.7c0,2.6,1.2,4.6,4.1,4.6c2.9,0,4.1-2,4.1-4.6C202.5,197.6,201.4,195.4,198.4,195.4z"/>
</g>
</svg>
