<?xml version="1.0" encoding="utf-8"?>
<!-- Generator: Adobe Illustrator 25.2.1, SVG Export Plug-In . SVG Version: 6.00 Build 0)  -->
<svg version="1.1" id="Camada_1" xmlns="http://www.w3.org/2000/svg" xmlns:xlink="http://www.w3.org/1999/xlink" x="0px" y="0px"
	 viewBox="0 0 790.7 551.8" style="enable-background:new 0 0 790.7 551.8;" xml:space="preserve">
<style type="text/css">
	.st0{fill:#43474F;}
	.st1{opacity:0.57;fill:#56BCB7;}
	.st2{fill:#41B7A8;}
	.st3{fill:#FFFEF7;}
	.st4{fill:#FDF0E0;}
	.st5{opacity:0.3;}
	.st6{fill:#03918E;}
	.st7{opacity:0.48;fill:#55BBAC;}
	.st8{fill:#55BBAC;}
	.st9{fill:#F28A1C;}
	.st10{fill:#C23C36;}
	.st11{fill:#33353A;}
	.st12{fill:#73C4B9;}
	.st13{fill:#F9D1B4;}
	.st14{fill:#F2915D;}
	.st15{fill:#B1614E;}
	.st16{fill:#C77D68;}
	.st17{fill:#FFFFFF;}
	.st18{fill:#F1DDCB;}
	.st19{fill:#FEEAD9;}
</style>
<g>
	<g>
		<g>
			<path class="st0" d="M597.9,471.9l1.7-0.9c1.8-1,2.5-3.3,1.5-5.1l-7.9-14.4c-1-1.8-3.3-2.5-5.1-1.5l-2.5,1.3
				c-0.4,0.2-0.5,0.6-0.3,1c0.2,0.4,0.6,0.5,1,0.3l2.5-1.3c1.1-0.6,2.5-0.2,3.1,0.9l7.9,14.4c0.6,1.1,0.2,2.5-0.9,3.1l-1.7,0.9
				c-1.1,0.6-2.5,0.2-3.1-0.9l-5.2-9.5c-0.2-0.4-0.6-0.5-1-0.3c-0.4,0.2-0.5,0.6-0.3,1l5.2,9.5C593.8,472.2,596.1,472.9,597.9,471.9
				z"/>
		</g>
		<g>
			<path class="st0" d="M605.2,487l3.1-1.7c2.9-1.6,3.8-5.3,2.1-8.4l-11.8-21.6c-0.2-0.4-0.6-0.5-1-0.3c-0.4,0.2-0.5,0.6-0.3,1
				l11.8,21.6c1.3,2.3,0.6,5.2-1.5,6.4l-3.1,1.7c-2.1,1.2-4.9,0.2-6.2-2.1l-13.5-24.6c-1.3-2.3-0.6-5.2,1.5-6.4
				c0.4-0.2,0.5-0.6,0.3-1c-0.2-0.4-0.6-0.5-1-0.3c-2.9,1.6-3.8,5.3-2.1,8.4l13.5,24.6C598.7,487.3,602.4,488.5,605.2,487z"/>
		</g>
	</g>
	<g>
		<path class="st1" d="M691.1,391.9H350.6c-19.3,0-35-15.7-35-35V77c0-19.3,15.7-35,35-35h340.5c19.3,0,35,15.7,35,35V357
			C726.1,376.3,710.4,391.9,691.1,391.9z"/>
		<path class="st2" d="M726.1,80.9H315.6V68.2c0-14.4,11.7-26.1,26.1-26.1H700c14.4,0,26.1,11.7,26.1,26.1V80.9z"/>
		<g>
			<path class="st3" d="M332.2,61.2c0-2.6,2.1-4.6,4.6-4.6s4.6,2.1,4.6,4.6c0,2.6-2.1,4.6-4.6,4.6S332.2,63.8,332.2,61.2z"/>
			<path class="st3" d="M351.7,61.2c0-2.6,2.1-4.6,4.6-4.6c2.6,0,4.6,2.1,4.6,4.6c0,2.6-2.1,4.6-4.6,4.6
				C353.8,65.9,351.7,63.8,351.7,61.2z"/>
			<path class="st3" d="M371.2,61.2c0-2.6,2.1-4.6,4.6-4.6c2.6,0,4.6,2.1,4.6,4.6c0,2.6-2.1,4.6-4.6,4.6
				C373.3,65.9,371.2,63.8,371.2,61.2z"/>
		</g>
		<rect x="348.1" y="111.7" class="st1" width="116.3" height="116.3"/>
		<path class="st4" d="M588.7,120.4h-92.5c-2.4,0-4.4-2-4.4-4.4l0,0c0-2.4,2-4.4,4.4-4.4h92.5c2.4,0,4.4,2,4.4,4.4l0,0
			C593.1,118.4,591.1,120.4,588.7,120.4z"/>
		<path class="st4" d="M699.3,120h-92.5c-2.4,0-4.4-2-4.4-4.4l0,0c0-2.4,2-4.4,4.4-4.4h92.5c2.4,0,4.4,2,4.4,4.4l0,0
			C703.7,118,701.8,120,699.3,120z"/>
		<g class="st5">
			<path class="st4" d="M607,154.2H494.6c-1.6,0-2.8-1.3-2.8-2.8l0,0c0-1.6,1.3-2.8,2.8-2.8H607c1.6,0,2.9,1.3,2.9,2.8l0,0
				C609.8,152.9,608.6,154.2,607,154.2z"/>
			<path class="st4" d="M649.7,154.2h-29.7c-1.6,0-2.8-1.3-2.8-2.8l0,0c0-1.6,1.3-2.8,2.8-2.8h29.7c1.6,0,2.8,1.3,2.8,2.8l0,0
				C652.6,152.9,651.3,154.2,649.7,154.2z"/>
			<path class="st4" d="M537,171.9h-42.4c-1.6,0-2.8-1.3-2.8-2.9l0,0c0-1.6,1.3-2.8,2.8-2.8H537c1.6,0,2.8,1.3,2.8,2.8l0,0
				C539.8,170.6,538.6,171.9,537,171.9z"/>
			<path class="st4" d="M605.7,171.9h-58.1c-1.6,0-2.8-1.3-2.8-2.9l0,0c0-1.6,1.3-2.8,2.8-2.8h58.1c1.6,0,2.8,1.3,2.8,2.8l0,0
				C608.5,170.6,607.3,171.9,605.7,171.9z"/>
			<path class="st4" d="M649.7,171.9h-29.7c-1.6,0-2.8-1.3-2.8-2.9l0,0c0-1.6,1.3-2.8,2.8-2.8h29.7c1.6,0,2.8,1.3,2.8,2.8l0,0
				C652.6,170.6,651.3,171.9,649.7,171.9z"/>
			<path class="st4" d="M552.1,187.2h-57.6c-1.6,0-2.8-1.3-2.8-2.8l0,0c0-1.6,1.3-2.9,2.8-2.9h57.6c1.6,0,2.8,1.3,2.8,2.9l0,0
				C555,185.9,553.7,187.2,552.1,187.2z"/>
			<path class="st4" d="M662,187.2h-94.1c-1.6,0-2.8-1.3-2.8-2.8l0,0c0-1.6,1.3-2.9,2.8-2.9H662c1.6,0,2.8,1.3,2.8,2.9l0,0
				C664.9,185.9,663.6,187.2,662,187.2z"/>
		</g>
		<g class="st5">
			<path class="st4" d="M607,210.4H494.6c-1.6,0-2.8-1.3-2.8-2.8l0,0c0-1.6,1.3-2.8,2.8-2.8H607c1.6,0,2.9,1.3,2.9,2.8l0,0
				C609.8,209.1,608.6,210.4,607,210.4z"/>
			<path class="st4" d="M649.7,210.4h-29.7c-1.6,0-2.8-1.3-2.8-2.8l0,0c0-1.6,1.3-2.8,2.8-2.8h29.7c1.6,0,2.8,1.3,2.8,2.8l0,0
				C652.6,209.1,651.3,210.4,649.7,210.4z"/>
			<path class="st4" d="M537,228h-42.4c-1.6,0-2.8-1.3-2.8-2.8l0,0c0-1.6,1.3-2.8,2.8-2.8H537c1.6,0,2.8,1.3,2.8,2.8l0,0
				C539.8,226.8,538.6,228,537,228z"/>
			<path class="st4" d="M605.7,228h-58.1c-1.6,0-2.8-1.3-2.8-2.8l0,0c0-1.6,1.3-2.8,2.8-2.8h58.1c1.6,0,2.8,1.3,2.8,2.8l0,0
				C608.5,226.8,607.3,228,605.7,228z"/>
		</g>
		<g>
			<g>
				<path class="st6" d="M400.3,129h12l32.5,74.3h-13.7l-7.5-17.8h-34.9l-7.6,17.8h-13.3L400.3,129z M418.9,174l-12.8-29.5
					L393.5,174H418.9z"/>
			</g>
		</g>
		<g>
			<rect x="348.1" y="251.5" class="st7" width="65" height="12.5"/>
			<rect x="348.1" y="264" class="st8" width="65" height="12.5"/>
			<rect x="348.1" y="276.6" class="st0" width="65" height="12.5"/>
		</g>
		<g>
			<path class="st4" d="M461,258.6h-35.8c-1.5,0-2.7-1.2-2.7-2.7l0,0c0-1.5,1.2-2.7,2.7-2.7H461c1.5,0,2.7,1.2,2.7,2.7l0,0
				C463.7,257.4,462.5,258.6,461,258.6z"/>
			<path class="st4" d="M449,268.1h-23.7c-1.5,0-2.7-1.2-2.7-2.7l0,0c0-1.5,1.2-2.7,2.7-2.7H449c1.5,0,2.7,1.2,2.7,2.7l0,0
				C451.7,266.9,450.5,268.1,449,268.1z"/>
		</g>
		<g>
			<rect x="348.1" y="316.3" class="st9" width="65" height="25.6"/>
			<rect x="348.1" y="335.6" class="st10" width="65" height="18.3"/>
			<polygon class="st0" points="348.1,316.3 371.5,335.9 348.1,354 			"/>
		</g>
		<g>
			<path class="st4" d="M461,323.4h-35.8c-1.5,0-2.7-1.2-2.7-2.7l0,0c0-1.5,1.2-2.7,2.7-2.7H461c1.5,0,2.7,1.2,2.7,2.7l0,0
				C463.7,322.2,462.5,323.4,461,323.4z"/>
			<path class="st4" d="M449,333h-23.7c-1.5,0-2.7-1.2-2.7-2.7l0,0c0-1.5,1.2-2.7,2.7-2.7H449c1.5,0,2.7,1.2,2.7,2.7l0,0
				C451.7,331.8,450.5,333,449,333z"/>
		</g>
	</g>
	<g>
		<path class="st11" d="M730.2,73.7c0,0,1.7,20.2-2.9,19.9c-4.6-0.3-13.7-9.2-32-7.7c-18.3,1.4-40.7,5.5-54.3-18.5
			c-13.5-24,17.3-30.9,17.3-30.9L730.2,73.7L730.2,73.7z"/>
		<polygon class="st0" points="691.3,72.3 783.6,79.8 785.5,75.7 697,10.4 607.6,0 605.9,3.7 691.3,72.3 		"/>
		<g>
			<g>
				<path class="st2" d="M754.1,141.8c-0.5-1.9-2.5-3-4.4-2.5c-1.9,0.5-3,2.5-2.5,4.4c0.5,1.9,2.5,3,4.4,2.5
					C753.5,145.6,754.6,143.7,754.1,141.8L754.1,141.8z"/>
				<path class="st2" d="M751,142.7c3.7-0.3,4.6,33.4,4.6,33.4s-2.4,1.1-3.6,0.9c-1.2-0.3-1.8-4.8-1.8-4.8l-0.1,4.8
					c0,0-4.1,0.1-5.5-0.8C744.6,176.1,745.1,143.2,751,142.7L751,142.7z"/>
			</g>
		</g>
		<polygon class="st2" points="752.2,143.5 751.5,69.9 751.1,69.6 702.9,33.9 701.1,36.3 748.8,71.6 749.9,143.4 		"/>
	</g>
	<g>
		<g>
			<g>
				<path class="st4" d="M206.9,490.6h200.2v-77H206.1c-17.8,0-32.2,14.4-32.2,32.2v11.8C173.9,475.9,188.7,490.6,206.9,490.6z"/>
				<path class="st8" d="M0,445.3v11.6c0,6.2,1.6,12,4.3,17c5.5,10,15.6,16.8,27.3,16.8h381.8c2.5,0,4.6-2.2,4.6-4.9V484
					c0-2.7-2-4.9-4.6-4.9H180.6c-1.2-1.6-2.3-3.4-3.3-5.3c-2.2-4.4-3.4-9.4-3.4-14.7v-14.7c0-2.7,0.3-5.3,0.9-7.8
					c1-4.2,2.9-8.1,5.4-11.4h233.1c2.5,0,4.6-2.2,4.6-4.9v-1.7c0-2.7-2-4.9-4.6-4.9H29.6c-13.5,0-24.9,9.7-28.5,23
					C0.4,439.3,0,442.3,0,445.3z"/>
				<path class="st12" d="M1.1,436.6h173.7c1-4.2,2.9-8.1,5.4-11.4h233.1c2.5,0,4.6-2.2,4.6-4.9v-1.7c0-2.7-2-4.9-4.6-4.9H29.6
					C16.1,413.6,4.7,423.3,1.1,436.6z"/>
			</g>
			<polygon class="st13" points="407.1,452.1 378.8,453.4 407.1,454.2 			"/>
			<polygon class="st13" points="407.1,464.2 339.8,465.5 407.1,466.3 			"/>
		</g>
		<g>
			<g>
				<g>
					<path class="st9" d="M439.3,550.4H237.7v-59.9h203.2c13.6,0,24.6,11,24.6,24.6v9.2C465.4,538.7,453.7,550.4,439.3,550.4z"/>
					<path class="st4" d="M249.7,550.4H20.5v-59.9h229.8c13.9,0,25.1,11.2,25.1,25.1v9.2C275.3,538.9,263.9,550.4,249.7,550.4z"/>
					<path class="st9" d="M290.7,550.4H12.4c-2.1,0-3.8-1.7-3.8-3.8v-1.4c0-2.1,1.7-3.8,3.8-3.8h278.3c2.1,0,3.8,1.7,3.8,3.8v1.4
						C294.5,548.7,292.8,550.4,290.7,550.4z"/>
					<path class="st9" d="M290.7,499.4H12.4c-2.1,0-3.8-1.7-3.8-3.8v-1.4c0-2.1,1.7-3.8,3.8-3.8h278.3c2.1,0,3.8,1.7,3.8,3.8v1.4
						C294.5,497.7,292.8,499.4,290.7,499.4z"/>
				</g>
				<polygon class="st13" points="20.5,520.4 51.4,521.4 20.5,522 				"/>
				<polygon class="st13" points="20.5,506.6 94,507.6 20.5,508.2 				"/>
			</g>
			<g>
				<path class="st14" d="M93.2,507.4c0,0-3.2,2.6-4.2,6.8c-0.2,0.7-0.3,1.5-0.3,2.4c-0.2,5.6,0,18.3,0,18.3l-9.3-6.4l-9.3,6.4
					v-17.2c0-3.3,0.8-6.4,2.3-8.5c0.7-1,1.6-1.8,2.6-1.8H93.2z"/>
				<path class="st14" d="M93.2,507.4c0,0-3.2,2.6-4.2,6.8l-18.6,0.3c0,0,0.7-6.1,4.6-7.1H93.2z"/>
			</g>
		</g>
		<g>
			<g>
				<g>
					<path class="st4" d="M267.9,413.8h190.4v-88H267c-20.4,0-36.9,16.5-36.9,36.9v13.5C230.2,396.9,247,413.8,267.9,413.8z"/>
					<path class="st6" d="M230.1,359.9v18.9c0,8.1,3.8,15.1,9.3,18.9c2.7,1.8,5.8,2.9,9.2,2.9h215.7c2.5,0,4.6,2.4,4.6,5.5v2.2
						c0,3-2,5.5-4.6,5.5H91.6c-10.7,0-20.1-6.3-25.8-16.1c-3.6-6.1-5.7-13.6-5.7-21.6v-14.9c0-5.5,1.1-10.7,2.9-15.4
						c4.8-11.8,14.9-20,26.7-20h374.5c2.5,0,4.6,2.4,4.6,5.5v2.2c0,3-2,5.5-4.6,5.5H247.9c-5.2,0-9.9,2.6-13.1,6.8
						C231.9,349.5,230.1,354.4,230.1,359.9z"/>
					<path class="st6" d="M465.9,407v2.2c0,3-2,5.5-4.6,5.5H88.7c-10.7,0-20.1-6.3-25.8-16.1h173.6c2.7,1.8,5.8,2.9,9.2,2.9h215.7
						C463.8,401.6,465.9,404,465.9,407z"/>
				</g>
				<polygon class="st13" points="458.2,369.8 430.6,371.2 458.2,372.1 				"/>
				<polygon class="st13" points="458.2,349.5 392.4,351 458.2,351.9 				"/>
			</g>
			<g>
				<path class="st9" d="M393.1,350.7c0,0,4.3,2.8,5.8,7.4c0.3,0.8,0.4,1.7,0.5,2.6c0.2,6.1,0,19.9,0,19.9l12.8-6.9l12.8,6.9v-18.7
					c0-3.5-1.1-7-3.1-9.2c-1-1.1-2.2-1.9-3.5-1.9H393.1z"/>
				<path class="st9" d="M393.1,350.7c0,0,4.3,2.8,5.8,7.4l25.7,0.3c0,0-1-6.6-6.3-7.7H393.1z"/>
			</g>
		</g>
	</g>
	<g id="girl_2_00000041262286595188828390000015116017471652933289_">
		<path class="st15" d="M720.5,406c0,0-40.1,17.5-47.4,17.2c-7.3-0.3-52.2-13.7-52.2-13.7l1.1,7.7c0,0,34.7,19.9,46.8,21.1
			c11.9,1.1,52.7-10.7,56.7-13.2C729.4,422.6,732,408.5,720.5,406z"/>
		<path class="st11" d="M726.5,341.6c0,0,14.8-2.8,22.2,2.6c13.4,9.8,14.1,43.4,19.1,48.4c5,5,17.1,2.9,18.2,28.8
			c1.1,25.9-4.8,28.1,2.2,39.7c7,11.6-3,23.2-3,23.2s4.1-6.4,2.3-11c0,0-1.7,10.2-8.2,12.6c-6.5,2.4-7.4,4.1-8.5,7.6
			c0,0-55.2-28.3-55.2-48.3c-0.1-20.1-10.9-39.9-5.6-48.6c0,0-2.4,3.7-2.7,7.9c0,0-3.2-6.1,2.3-11.8c5.5-5.7-6.5-17.4-4.7-31
			C706.3,352.3,712.9,342,726.5,341.6z"/>
		<path class="st16" d="M715.6,425.1c3.5,2.4,7.9,4.5,13.5,5.7c20.8,4.8,28.8-12.8,31.8-24.8c-2.8-1.6-5.5-2-7-2.2
			c-1.5-0.2-3.1-0.3-4.4-0.4c-2.3-1.8-5.8-9.1-6.6-20.5l-1,0.3l-16.4,4.5c0,0,0.8,5.2,1.1,10.1c0.3,3.9,0.3,7.5-0.4,8.4
			c-1.3,0.3-2,0.5-2,0.5s0,0,0,0C723.9,407.1,719.2,415,715.6,425.1z"/>
		<path class="st15" d="M725.5,387.7c0,0,0.8,5.2,1.1,10.1c9.3-0.9,13.6-9.8,15.3-14.6L725.5,387.7z"/>
		<path class="st16" d="M722.7,392.6c0,0,22-1.2,21.1-14.9c-1-13.7,1.2-23.1-12.9-22.9c-14.1,0.2-16.5,5.6-17.3,10.3
			C712.8,369.7,717,392.6,722.7,392.6z"/>
		<path class="st11" d="M713.7,357.4c3.1-4.4,5.7-3.6,7.3-2.5c11.6-7.5,20,1.7,20,1.7c2.2,9.7,9.7,14.9,9.7,14.9s-3.8,2.8-13.3,1.1
			c-2.9-0.5-5.5-2.4-7.9-4.6c4.2,6,9.6,10.2,9.6,10.2c-11.4-4.3-17-19.4-17.5-21c-1.3,1.3-3.7,4.1-4.3,6.7c-0.8,3.6-4.5,9.2-6.6,9.1
			C710.7,372.9,709.1,363.9,713.7,357.4z"/>
		<path class="st3" d="M767.2,469.9c2-10.2,8.5-50.8,2-63.9c-2.3-4.7-11.5-5.1-21.5-4.7c-3.1,2-15,9.6-19.9,8.7
			c-0.1,0-0.1,0-0.3-0.1c-2.3-0.6-3.2-2.2-1.3-3.6c0,0-5-0.5-11.1,0.7c-3.5,0.7-12.9,5.5-12.9,5.5s4.7,8.6,11.7,11.5
			c-1.2,10.6,0.6,15.3,11.6,39.9c9.3,20.7-1.3,39.4-1.3,39.4s54.8,44.1,55.1,21.6C779.6,508,764.6,482.9,767.2,469.9z"/>
		<path class="st6" d="M721.5,551.2c-3-0.3-5.7-2-7.3-4.5c-0.3-0.4-0.5-0.8-0.8-1.3c-6.2-9.4-8.7-38.4-22.7-69.2
			c-3.4-7.5-15.7-8.9-19-17.3c0,0-8.2-27.5,15.8-28.3c24-0.8,64.3,76.5,64.9,84.6C752.9,523.1,768.2,556.5,721.5,551.2z"/>
		<path class="st11" d="M626.1,550.6h34.2c0,0,1.3-5.4-1-9.2c-2-3.3-1.2-5.2,0.2-7.9c-1.5,0.6-3.5,1.2-5.8,1.1
			c-1.7-0.1-3.5-0.9-5.1-1.8c-1.5,1.7-7.8,8.8-9.7,10.2C636.8,544.7,626.8,544.1,626.1,550.6z"/>
		<path class="st6" d="M670.8,438.6c-2.1,15.4-10.1,64.1-24.3,87.9c-4.6,7.7,11.5,11.9,11.6,11.9c2.2-0.6,5.7-4,7.4-5.5
			c11.5-10.4,34.9-39.7,34.9-63.3c0-11.5,0.2-33.4-8.1-39C687.1,427.2,671.6,432.5,670.8,438.6z"/>
		<path class="st2" d="M741.9,550.6c0,0-1.3-1.8-3.5-5.1c-2.6-4-5.5-11.8-9.1-21.9c-3.7-10.5-8.1-23.5-13.6-37
			c-1.7-4.2-3.5-8.4-5.4-12.6c-3.4-7.5-12.8-6.5-16.2-15c0,0-13.1-29.4,10.9-30.2c24-0.8,69.6,78.7,72.2,86.4
			C780.2,523.7,794.2,558.7,741.9,550.6z"/>
		<path class="st0" d="M651.2,550.6h34.2c0,0,1.3-5.4-1-9.2c-2-3.3-1.2-5.2,0.2-7.9c-1.5,0.6-3.5,1.2-5.8,1.1
			c-1.7-0.1-3.5-0.9-5.1-1.8c-1.5,1.7-7.8,8.8-9.7,10.2C661.8,544.7,651.9,544.1,651.2,550.6z"/>
		<path class="st6" d="M729.4,523.6c-3.7-10.5-8.1-23.5-13.6-37c1.4-10.2,4.5-19.2,9.7-22.8C725.5,463.9,738.1,503,729.4,523.6z"/>
		<path class="st2" d="M690.8,437.5c-2.1,15.4-5,65.2-19.1,88.9c-4.6,7.7,11.5,11.9,11.6,11.9c2.2-0.6,5.7-4,7.4-5.5
			c11.5-10.4,34.9-39.7,34.9-63.3c0-11.5-13.5-32.5-21.8-38C698.5,428.1,691.6,431.4,690.8,437.5z"/>
		<path class="st17" d="M718.6,384.7c0,0,2.1-0.8,8-0.3c0,0-0.3,2.3-4.6,2.5C719.5,387,718.6,384.7,718.6,384.7z"/>
		<g>
			<g>
				<polygon class="st11" points="616.6,393.3 623.7,380.5 639,423.3 630,433 				"/>
				<polygon class="st0" points="653.6,400.8 667.8,441.5 630,433 616.6,393.3 				"/>
				<polygon class="st18" points="667.1,439.4 667.7,438.3 654.3,399.8 653.6,400.8 				"/>
				<polygon class="st19" points="654.3,399.8 618.4,392.8 616.6,393.3 653.6,400.8 				"/>
			</g>
			<polygon class="st18" points="616.6,393.3 624.3,381.2 629.1,394.9 618.4,392.8 			"/>
		</g>
		<path class="st16" d="M642.6,406.7c1.2-0.2,3.9-1.2,6.5-2c-0.8-0.6-1.7-1.4-1.9-2.2c-0.5-1.5-0.8-2,0.8-1.5c1.6,0.5,7.2,3,7.2,3
			s0,0,0,0c3.2,0.9,6.1,5.4,6.1,5.4s39.1,13.8,43.9,14c7.3,0.4,55.8-17.5,55.8-17.5c11.4,2.5,8.9,16.6,4.9,19.1
			c-3.9,2.5-38.8,15.2-59.5,15.4c-10.5,0.1-48.6-24.4-48.6-24.4s-4.5-2-8-1.4c-3.5,0.6-11.6,0-13.4-2.9
			C634.7,409,640.6,407.1,642.6,406.7z"/>
		<path class="st3" d="M735.9,414.8c0,0,4.3,13.7,19.2,16.9c0,0,24.6-7.6,12.3-24.3C767.5,407.3,755.4,398.3,735.9,414.8z"/>
		<path class="st16" d="M617.2,407.7L617.2,407.7c0-0.4,0-0.8,0.1-1.1c0,0,3.5-5.5,4.7-5.8c3.5-0.7,3.5,3.9,2.8,6.9
			c-0.5,2.1-1.8,4.1-2.9,5.1l0,0l0.1,4.3C616.1,414,617.2,407.7,617.2,407.7z"/>
	</g>
	<g>
		<path class="st11" d="M237.1,398.3c-6.4,11.4-14.6,15.8-14.6,15.8l-34.1,0.2C188.4,414.4,242,389.6,237.1,398.3z"/>
		<g>
			<path class="st16" d="M211.5,486.2c-0.9,1-1,2.2-0.5,3.4c0,0,0,0,0,0c0.8,2.2,3.5,4.7,6.7,7.2c0.4,0.3,0.8,0.6,1.1,0.9
				c0.1,0.1,0.2,0.1,0.2,0.2c0.1,0.1,0.1,0.1,0.2,0.2c2.9,2.7,1.8,3.3,7.1,8.7c6,6.2,10.1,6.2,11.3,5.7c1-0.5-1-3.8-3.3-7.4
				c-0.1-0.2-0.2-0.4-0.3-0.5c-0.3-0.5-0.6-1-0.9-1.5c-2.6-4.4-2-6.5-1.4-13.1c0.5-5.4,8.2-30.1,8.2-30.1l-11.4-1.9
				c0,0-3.3,19.7-7.1,22.7c-2,1.6-4.3,1.7-6.2,2.9c-0.1,0.1-0.3,0.2-0.4,0.3C213.6,484.4,212.4,485.2,211.5,486.2z"/>
			<path class="st11" d="M211.5,486.2c-0.9,1-1,2.2-0.5,3.4c0,0,0,0,0,0c1,2.2,3.6,4.7,6.7,7.2c0.4,0.3,0.7,0.6,1.1,0.9
				c0.1,0.1,0.2,0.1,0.2,0.2c0.1,0.1,0.1,0.1,0.2,0.2c2.9,2.7,1.8,3.3,7.1,8.7c6,6.2,10.1,6.2,11.3,5.7c1-0.5-1-3.8-3.3-7.4
				c-1.2-0.4-6.6-2.6-10.7-7.8c-3.6-4.6-6.1-10.4-8.5-13.8c-0.1,0.1-0.3,0.2-0.4,0.3C213.6,484.4,212.4,485.2,211.5,486.2z"/>
			<path class="st16" d="M303.6,478.4c0.7,3.5,5.8,2.9,11.4,1.5c5.6-1.4,4.3,0.2,12.3-0.7c8-0.9,10.4-3.9,10.6-5.1
				c0.2-1.1-3.7-1.4-8-1.9c-0.5-0.1-1.1-0.1-1.6-0.2c-4.8-0.6-8.3-3.6-12.7-6.1c-4.1-2.4-10.3-12.1-10.3-12.1l-11,0.9
				c0,0,5.8,8.7,8.1,12.5c1.3,2.2,1.3,5.2,1.1,7.5C303.4,475.9,303.3,477.2,303.6,478.4z"/>
			<path class="st11" d="M314.9,479.9c5.6-1.4,4.3,0.2,12.3-0.7c8-0.9,10.4-3.9,10.6-5.1c0.2-1.1-3.7-1.4-8-1.9l0,0.1
				c0,0-4.8,3.4-11.4,3.6c-5.4,0.2-11.2-1.3-14.9-1.3c-0.1,1.2-0.1,2.5,0.1,3.7C304.3,482,309.3,481.3,314.9,479.9z"/>
			<path class="st11" d="M261.1,408.7l-10,27.6l-13.1,36.1c0,0-3.6,0.4-7.1-0.6c-3.2-0.9-6.9-3.3-6.9-3.3s3.4-38.7,10.2-60.9
				c1.7-5.7,3.7-10.3,5.9-12.9C250.7,381.9,261.1,408.7,261.1,408.7z"/>
			<path class="st0" d="M250.4,365c-6.7-2.1-25.8,0.8-45,4.7l-4.1-6.6l-41.6-3c0,0-13.5,30.5-5.9,49.8c1.1,2.8,3.9,4,7.6,4.1
				c0,0,0,0,0,0c0,0,24.8,0.4,32.8,0.4c20.7-0.1,43.6-14.5,46.6-15.1c4.9-1,6.9,8.7,11.9,19c5,10.2,46.2,45.1,46.2,45.1s6.3,0,8.9-1
				c2.8-1.1,3.8-2.4,3.8-2.4S265.5,369.8,250.4,365z"/>
			<path class="st11" d="M196,241.1c-3.1-1.8-6.2-2.1-8-2c-1.3,0.1-2.7-0.1-4-0.2c-15.8-2-25.1,20.9-25.6,27.9
				c-0.9,12.8-7.7,14.8-17.1,22.8c-19,16.2-13.2,34.8-2.8,41.6c6.3,4.1,17.3-0.1,17.3-0.1c0.2,0.1,30-17,44.8-25.2
				C222.8,302.6,204.9,246.4,196,241.1z"/>
			<path class="st16" d="M188.2,299c0.1,0-7.3,2.6-12.2,0.5c-4.6-2-8.2-9.6-8.1-9.6c2.1-0.1,4.4-2,6.1-14l0.9,0.3l15.1,5.3
				c0,0-1.1,4.8-1.7,9.4C187.6,294.8,187.3,298.5,188.2,299z"/>
			<path class="st15" d="M189.9,281.5c0,0-0.6,3.4-1.5,8.2c-8.6-1.5-12.3-8.9-13.5-13.5L189.9,281.5z"/>
			<path class="st16" d="M192.2,286.3c0,0-20.6-2.6-18.8-15.4c1.8-12.8,0.4-21.8,13.6-20.6c13.2,1.1,15.1,6.4,15.5,10.8
				C203,265.4,197.6,286.6,192.2,286.3z"/>
			<path class="st11" d="M201.8,254c0,0-13.1,11.4-22,12.4c-9,1-12.4-1.9-12.4-1.9s5.3-4.4,8.4-11.5c0.9-2.1,2.9-3.5,5.2-3.8
				C187.3,248.7,199.4,248.4,201.8,254z"/>
			<path class="st11" d="M193.5,253.1c0,0,4.4,4.2,5.8,7.4c1.4,3,1.8,10.3,0.8,13.2c0,0,6.8-13.4,2.8-19.9
				C198.8,247,193.5,253.1,193.5,253.1z"/>
			<path class="st3" d="M205.7,329.2c-0.3,41.7,0.1,33-4.5,36.9c-1.1,1-4.2,1.5-8.2,1.8c-12.8,0.9-35.2-1-36.1-3.4
				c-3-8.1-0.9-10.7-3.5-23.2c-0.3-1.3-0.6-2.8-1-4.3c-2.1-8.6-4.1-11.5,3-25.3c6.5-12.5,13.3-22.7,13.9-22.4
				c17.5,10.2,18.8,1.5,18.8,1.5S205.9,308.9,205.7,329.2z"/>
			<path class="st0" d="M251.1,436.3l-13.1,36.1c0,0-3.6,0.4-7.1-0.6c-3.2-0.9-6.9-3.3-6.9-3.3s3.4-38.7,10.2-60.9L251.1,436.3z"/>
			<path class="st3" d="M188.2,290.9c0,0,17.9,2.9,20.1,10.6c2.2,7.7,14.8,52.9,14.8,52.9s-9.1,1.7-13.3-2.5
				c-4.2-4.2-14.9-38.9-14.9-38.9L188.2,290.9z"/>
			<path class="st4" d="M193,368c-12.8,0.9-35.2-1-36.1-3.4c-3-8.1-0.9-10.7-3.5-23.2l6-17.4c0,0-0.9,19.3,4.9,24.4
				c5.7,5,23.4,9.6,26.2,13.9C191.8,364.3,192.7,366.4,193,368z"/>
			<path class="st16" d="M178.3,360c0,0,12.6-2.9,14.6-1.8c2,1.1,7,5.1,7.7,6.6c0.6,1.4-4.5-1-6.2-1.5c-1.1-0.3-3.9,0.7-5.3,1.2
				c-5.9,2-9.6,1-9.6,1L178.3,360z"/>
			<path class="st3" d="M169.4,289.4c0,0-16.9,1.2-22.7,9.4c-8.2,11.6-24.2,60.7-14.8,67.2c10.6,7.3,48.1,1.6,48.1,1.6
				s1.2-5.8-0.5-8.6c-1.8-2.8-30-7.2-31.3-8.5c-1.3-1.3,16.1-25.5,16.1-29.4C164.2,317.1,169.4,289.4,169.4,289.4z"/>
			<path class="st16" d="M193.6,361.7c0,0,2.7,3.4,3.5,3.8c0.9,0.4,1.4,0.3,1.4,0.3l-1.8-3.2L193.6,361.7z"/>
			<path class="st16" d="M192.9,358.2l7.7,3.7c0,0-0.3,0.5-1.3,0.5c-0.9,0-3.3-0.9-3.3-0.9L192.9,358.2z"/>
		</g>
		<g>
			<g>
				<polygon class="st8" points="195.5,371 256.2,370.5 274.1,325 213.5,325.4 				"/>
				<polygon class="st8" points="256.9,368.8 176.7,369.3 176.7,371.1 256.2,370.5 				"/>
			</g>
			<path class="st17" d="M240.7,347.9c0.4-1.6-0.5-2.9-2.1-2.9c-1.6,0-3.3,1.3-3.7,2.9c-0.4,1.6,0.5,2.9,2.1,2.9
				C238.6,350.8,240.3,349.5,240.7,347.9z"/>
		</g>
	</g>
	<g>
		
			<rect x="453.9" y="440.4" transform="matrix(-1.961487e-04 -1 1 -1.961487e-04 -60.3296 1005.0358)" class="st6" width="36.7" height="184.5"/>
		<path class="st19" d="M564.5,551l27.1-11.6l15.8-6.7l-16.1-6.9l-26.8-11.4c0,0-3.6,8.9-3.6,17.3C560.8,544.8,564.5,551,564.5,551z
			"/>
		<path class="st19" d="M358.6,526.5l0,11.6c0,7.1,5.8,12.9,12.9,12.9l8.5,0l0-36.7l-9.3,0C364,514.4,358.6,519.8,358.6,526.5z"/>
		<path class="st0" d="M591.3,525.8c-0.7,3.7-1.3,9.4,0.4,13.6l15.8-6.7L591.3,525.8z"/>
	</g>
	<g>
		<path class="st2" d="M524.8,323.3c0,0-3.3,14.3-12.9,14.3c-8.3,0-19.6-18.7-19.6-18.7L524.8,323.3z"/>
		<path class="st0" d="M414.2,535.1l6.2,4.3c0,0,29.8-31.7,37-62.1c1.3-5.4,1.8-10.8,1.3-15.9c0,0,0.4-1.4,1.2-3.8
			c0-0.1,0.1-0.2,0.1-0.3c0.3-1.1,0.7-2.3,1.2-3.7c1.4-4.6,3.4-10.9,5.7-18c5.2-16.5,17.1-53.6,22.2-69.1l-36.5-13.2
			c0,0-4.2,9.5-10.1,35.2c-0.9,3.4-1.8,7.1-2.7,11.1c-1,4.6-1.9,9.6-2.6,15c-1.3,9.2-2.1,19.5-2.2,30.8c0,4.6,0.1,9.4,0.4,14.3
			c0.2,3.6-0.3,8.4-1.3,13.9C429.2,498.5,414.2,535.1,414.2,535.1z"/>
		<path class="st11" d="M394.8,550.4h29.5c0,0,1.1-4.7-0.8-7.9c-1.7-2.8-1.1-4.5,0.2-6.8c-1.3,0.5-3.1,1-5,0.9
			c-1.5-0.1-3-0.8-4.4-1.5c-1.3,1.4-6.7,7.6-8.4,8.8C404,545.3,395.4,544.8,394.8,550.4z"/>
		<path class="st11" d="M437,414.5l23,42.8c0.3-1.1,0.7-2.3,1.2-3.7c1.4-4.6,3.4-10.9,5.7-18c5.2-16.5,17.1-53.6,22.2-69.1
			l-36.5-13.2c0,0-4.2,9.5-10.1,35.2c-0.9,3.4-1.8,7.1-2.7,11.1C438.6,404,437.7,409.1,437,414.5z"/>
		<path class="st11" d="M489.6,541.2c0,0,2,5,0.1,9.2h-16.1c0,0-0.3-3.8,5.5-8.2C483.5,538.8,489.6,541.2,489.6,541.2z"/>
		<path class="st11" d="M472.1,214.5c0-0.8-0.4-9.4-13.5-10.2c0,0,6.4,0.9,7.5,3.8c0,0-4.3-3.6-7.9-2.6c-3.6,1-5.9,7.3-5.9,9.3
			c-0.1,2.1,1.8,8.8,4,9.4c0.9,0.2,1.8,0.2,2.7,0.1c-0.6,0.9-1.2,2-1.8,3.1c-5.5,10.6-0.8,23.1,3.7,22.1c2.9-0.7,4.6,4.3,4.6,4.3
			l27.5-23.6C492.9,230.1,483.3,208.9,472.1,214.5z"/>
		<path class="st16" d="M489.4,286.4c-3,2.1-6.9,3.9-11.7,5c-18,4.2-24.9-11-27.5-21.5c2.5-1.4,4.8-1.7,6.1-1.9
			c1.3-0.2,2.7-0.3,3.8-0.3c2-1.5,5-7.9,5.7-17.7l0.8,0.2l14.2,3.9c0,0-0.6,4.5-1,8.8c-0.2,3.3-0.3,6.5,0.3,7.3
			c1.1,0.2,1.8,0.4,1.8,0.4s0,0,0,0C482.2,270.9,486.3,277.6,489.4,286.4z"/>
		<path class="st15" d="M480.8,254.1c0,0-0.7,4.5-1,8.8c-8-0.8-11.8-8.5-13.2-12.6L480.8,254.1z"/>
		<path class="st16" d="M481,260.8c0,0-18.5-4.8-15.4-16.2c3.1-11.5,2.9-19.8,14.8-17.3c11.9,2.5,13,7.6,12.9,11.6
			C493.2,243.1,485.9,261.8,481,260.8z"/>
		<path class="st11" d="M494.6,232.5c-1.9-4.2-4.3-4.1-5.7-3.4c-8.5-8.3-17.3-1.9-17.3-1.9c-3.5,7.9-10.7,11-10.7,11s2.8,3,11.1,3.1
			c2.5,0,5.1-1.1,7.5-2.6c-4.6,4.4-9.9,7-9.9,7c10.4-1.7,17.7-13.6,18.4-14.8c0.8,1.3,2.5,4.1,2.5,6.5c0.1,3.2-1.1,9.3,0.7,9.6
			C491.1,246.9,497.4,238.8,494.6,232.5z"/>
		<path class="st16" d="M486.3,269.6c0,0-31.1-7.5-44.6,3.6l6.8,94.1l60.8-14.7c0,0-1.7-6-13.4-21.8
			C484.2,315,489.3,291.8,486.3,269.6z"/>
		<path class="st0" d="M468.2,356.8c0,0,0,0.3,0.1,0.9c0,0.3,0.1,0.6,0.1,0.9c0.3,2.4,0.8,7.1,1.4,13.2c1.7,16,4.3,41.6,6.1,61.8
			c1.4,15.8,2.3,28.3,1.8,30.4c-1.4,6.1,0,78.4,0,78.4c5.2,2.5,13,0,13,0s13.8-65.2,11.8-74.3c-1.9-9.1,1.3-16.8,1.3-16.8
			c10.7-49.7,9.5-77.3,7.4-90.5c-0.6-3.8-1.3-6.5-1.8-8.1c-0.4-1.4-0.7-2-0.7-2C485.1,344.6,468.2,356.8,468.2,356.8z"/>
		<path class="st6" d="M437.6,300c1.5,11.3,7.5,25.2,9.6,32.6c0,0-3.6,25.9-0.2,33c0.4,0.8,0.9,1.4,1.5,1.6
			c12.7,5.5,62,0.2,64.1-15.8c0.8-5.8-18.8-26.1-19.9-28.6c-0.5-1-1-4.3,1.3-11.2c3.2,10,21.2,7.1,21.2,7.1
			c-2.1-3.6-7.3-28.5-13.2-39.8c-4.4-8.5-16.2-9.7-16.2-9.7s-4.9,7.8-16.7,6.7c-11.8-1.1-14-8.3-14-8.3s-10.5,1.4-13.7,4
			C440.8,272.3,435.6,285.2,437.6,300z"/>
		<path class="st2" d="M447.2,332.7c0,0-3.6,25.9-0.2,33c9.2-4.6,16.5-17.2,14.8-31.1c-1.2-10.3-3.1-12.7-8.6-18.6
			c-4.1-4.3-13.4-4.6-12.7-2.5C442.7,319.6,446.1,328.7,447.2,332.7z"/>
		<g>
			<polygon class="st0" points="485.7,302.1 464.6,336 500.6,336 520.7,302.8 			"/>
			<polygon class="st18" points="465.7,334.3 465.3,333.1 485.3,301 485.7,302.1 			"/>
			<polygon class="st19" points="485.3,301 519.2,302 520.7,302.8 485.7,302.1 			"/>
			<polygon class="st11" points="520.7,302.8 539.7,292.5 517.6,327.3 500.6,336 			"/>
		</g>
		<path class="st16" d="M420.1,326.6c2,0.9,7.3,7.1,9.1,7.7c8.4,2.8,44.1-4.7,44.1-4.7l-1.1-6.3c0,0-35.1,0.9-38.9-0.1
			c-0.7-0.2-4.5-6.1-6-7L420.1,326.6z"/>
		<path class="st16" d="M472.2,323.4c0,0,4.2-3.4,7.1-2.7c2.9,0.8,7.1,4.4,8.6,5.2c1.6,0.9,5.8,3.9,3.7,5.8
			c-2.1,1.9-8.8,0.3-11.5-1.2c-2.7-1.4-6.8-0.9-6.8-0.9L472.2,323.4z"/>
		<path class="st16" d="M478.5,320.6c0,0,5.1-0.6,6.5-0.6c1.4,0,1,0.3,0.2,1.4c-0.8,1.1-3.4,1.5-3.6,1.9
			C481.6,323.7,478.5,320.6,478.5,320.6z"/>
		<path class="st6" d="M455.1,267.8c0,0-15.2,1.8-19.4,8.3c-5.3,8.3-17.8,41.2-17.4,49.5c0,0,9.2,15.6,40.5,13.1
			c0,0,3.3-11.5-3.3-15.3c0,0-16.1-2.9-18-4.5l13.1-23.9L455.1,267.8z"/>
		<path class="st16" d="M515.9,315.2c0.5-1.9,4.7-0.7,6.1,0.4c0.3,0.3,0.7,0.7,1.1,1.3c0-0.3,0.1-0.6,0.1-0.9
			c0.1-0.9,1.1-2.5,1.4-1.3c0.3,1.2,0.7,6.3,0.7,6.3c0.1,4.1-2.6,5.8-4.3,4.4C519.2,324.1,515.4,317.1,515.9,315.2z"/>
	</g>
</g>
<g>
</g>
<g>
</g>
<g>
</g>
<g>
</g>
<g>
</g>
<g>
</g>
</svg>
