<?xml version="1.0" encoding="utf-8"?>
<!-- Generator: Adobe Illustrator 25.2.1, SVG Export Plug-In . SVG Version: 6.00 Build 0)  -->
<svg version="1.1" id="Camada_1" xmlns="http://www.w3.org/2000/svg" xmlns:xlink="http://www.w3.org/1999/xlink" x="0px" y="0px"
	 viewBox="0 0 203.1 226.4" style="enable-background:new 0 0 203.1 226.4;" xml:space="preserve">
<style type="text/css">
	.st0{fill:#55BBAC;}
	.st1{clip-path:url(#SVGID_2_);}
	.st2{fill:#FDFEFF;}
	.st3{clip-path:url(#SVGID_4_);fill:url(#SVGID_5_);}
	.st4{clip-path:url(#SVGID_4_);}
	.st5{fill:url(#SVGID_6_);}
	.st6{fill:url(#SVGID_7_);}
	.st7{fill:url(#SVGID_8_);}
	.st8{fill:#D8DEE8;}
	.st9{fill:url(#SVGID_9_);}
	.st10{fill:url(#SVGID_10_);}
	.st11{opacity:0.3;}
	.st12{fill:#FFFFFF;}
	.st13{fill:url(#SVGID_11_);}
	.st14{opacity:0.3;fill:#FFFFFF;}
	.st15{fill:url(#SVGID_12_);}
	.st16{opacity:0.5;fill:#FFFFFF;}
	.st17{opacity:0.6;fill:url(#SVGID_13_);}
	.st18{opacity:0.6;fill:url(#SVGID_14_);}
	.st19{opacity:0.6;fill:url(#SVGID_15_);}
	.st20{opacity:0.6;fill:url(#SVGID_16_);}
</style>
<g>
	<g>
		<g>
			<g>
				<path class="st0" d="M128.4,194.8c-1.4-0.2-4.2-1.9-4.8-2.7c-3.7-5-11.2-13.8-10.6-20.3c0.1-1.1,5.1-2,5.8-3
					c3.1-1.3,4.2-1.6,6.5-4.3c6.7-8-7.7-23.7,9.7-28.6c12.7-3.6,23.2,1,22.4-18.6c-0.8-19.6,15.7-54.8,36-40.6
					c11.6,8.2-0.9,24.5,4.9,36.9c5.5,11.8,0.3,21.3-12.3,27.9c-12.6,6.7-6.1,12.2-2.8,23.4c4,13.4-16.6,15.2-26.1,15.2
					C149.4,180.2,129.8,185.4,128.4,194.8z"/>
				<g>
					<defs>
						<path id="SVGID_1_" d="M109.9,170c2.7,9.3,5.1,18.8,7.8,28.1c5.5,0.6,11.9,1.2,13.3-5.5c1.9-9.3,18.3-12.5,26-12.5
							c9.5,0,30.1-1.8,26.1-15.2c-3.3-11.2-9.8-16.7,2.8-23.4c12.6-6.7,17.8-16.1,12.3-27.9c-5.8-12.4,6.7-28.7-4.9-36.9
							c-20.3-14.2-36.8,21-36,40.6s-9.7,15.1-22.4,18.6c-17.3,4.8-3.1,21-9.7,28.5C120.3,170.1,116.4,168.9,109.9,170z"/>
					</defs>
					<clipPath id="SVGID_2_">
						<use xlink:href="#SVGID_1_"  style="overflow:visible;"/>
					</clipPath>
					<g class="st1">
						<path class="st2" d="M118.5,182.5l-0.1-0.3c21-9.5,38.6-25.3,50.7-45.5c11.6-19.2,18.1-42.1,19-66.2l0.3,0
							c-0.8,24.2-7.4,47.1-19,66.4C157.2,157.2,139.6,173,118.5,182.5z"/>
						<path class="st2" d="M185.5,170.3c-11.8-4.2-31.8-4.9-44.5-1.5l-0.1-0.3c12.8-3.5,32.8-2.8,44.7,1.5L185.5,170.3z"/>
						<path class="st2" d="M126.7,178.7l-0.2-0.2c5.2-4.4,8-11.3,8.2-20.5c0.2-6.7-1-14.5-3.5-23.1l0.3-0.1
							c2.5,8.6,3.6,16.4,3.5,23.2C134.8,167.2,132,174.2,126.7,178.7z"/>
						<path class="st2" d="M170.9,134.1l-0.2-0.2c9.4-8.9,22.8-11,32.4-11.1l0,0.3C193.6,123.3,180.2,125.3,170.9,134.1z"/>
						<path class="st2" d="M182.6,107l-0.3,0c0.6-6.2,0-18.9-11.4-34l0.2-0.2C182.5,87.9,183.2,100.7,182.6,107z"/>
					</g>
				</g>
			</g>
		</g>
		<g>
			<g>
				<defs>
					<path id="SVGID_3_" d="M142.5,171.7c-7.5-1-15.1-2.2-22.6-3.6c-0.1,0.1-2.8-16.2,4.9-24.9c15.1-16.8,4.6-31.6,1.6-40.4
						c-4.9-12.4-2.6-27.6,11.1-24.9c13.4,2.3,15.1-25.2,12.5-46.4c-2.1-10.3,7.5-22.9,17.2-25.9c9.9-3.3,19.8,3.1,23.1,23.6
						c4.9,23.7-12.3,38.3-18.6,50.3c-6.2,11.8,8.7,21.1-3.1,31.6c-9.9,9.3-22.3,16.1-17.6,27.7C155.8,150.3,154.8,159.7,142.5,171.7
						z"/>
				</defs>
				<clipPath id="SVGID_4_">
					<use xlink:href="#SVGID_3_"  style="overflow:visible;"/>
				</clipPath>
				
					<linearGradient id="SVGID_5_" gradientUnits="userSpaceOnUse" x1="747.9334" y1="264.9915" x2="693.9545" y2="418.4053" gradientTransform="matrix(-0.8734 -0.487 -0.487 0.8734 949.4858 141.9282)">
					<stop  offset="0" style="stop-color:#F39010"/>
					<stop  offset="1" style="stop-color:#F7BA10"/>
				</linearGradient>
				<path class="st3" d="M142.5,171.7c-7.5-1-15.1-2.2-22.6-3.6c-0.1,0.1-2.8-16.2,4.9-24.9c15.1-16.8,4.6-31.6,1.6-40.4
					c-4.8-12.4-2.5-25.9,10.1-26.2c14-0.7,16.3-23.9,13.5-45.1c-2.1-10.3,7.5-22.9,17.2-25.9c9.9-3.3,19.8,3.1,23.1,23.6
					c4.9,23.7-12.3,38.3-18.6,50.3c-6.2,11.8,8.7,21.1-3.1,31.6c-9.9,9.3-22.3,16.1-17.6,27.7C155.8,150.3,154.8,159.7,142.5,171.7z
					"/>
				<g class="st4">
					<path class="st2" d="M132.4,172.8l-0.3,0c0-0.1,6.8-34.6,18.7-68.2c1.6-5.4,3.4-10.9,5.2-16.2c4.6-14.2,9.4-28.9,11.6-43.5
						c2.4-16.3,1.3-31-3.4-44.8l0.3-0.1c4.8,13.9,5.9,28.6,3.4,44.9c-2.2,14.6-7,29.3-11.6,43.5c-1.7,5.3-3.5,10.8-5.2,16.2
						C139.7,136.8,132.5,171.8,132.4,172.8z"/>
					<path class="st2" d="M164.7,60.9l-0.2-0.2c8.3-9.4,18.2-22.8,23.6-29.9c4.3-5.8,4.3-5.8,4.5-5.7l0,0.3l0-0.2l0.1,0.1
						c-0.2,0.2-2,2.6-4.3,5.6C182.9,38.2,173,51.5,164.7,60.9z"/>
					<path class="st2" d="M167.1,48.1c-1.9-10.7-6.3-17.6-9.8-21.6c-3.8-4.4-7.3-6.3-7.6-6.3c0,0,0,0,0.1,0l-0.2-0.2
						c0.1-0.1,0.2,0,0.4,0c0.9,0.4,4.4,2.5,8.1,7c4.7,5.6,7.9,12.9,9.3,21.1L167.1,48.1z"/>
					<path class="st2" d="M144.1,126.6l-0.3,0c1.1-9.9-1.4-20.6-7.3-31.7c-3.1-5.8-7-11.4-11.6-16.8c-0.3-0.4-0.5-0.5-0.5-0.6
						l0.3-0.2c0,0,0.2,0.3,0.5,0.5c4.6,5.4,8.5,11,11.6,16.8C142.7,105.9,145.1,116.6,144.1,126.6z"/>
					<path class="st2" d="M147.3,116.1l-0.3-0.2c8.8-14.7,27.8-15.9,28-15.9l0.1,0.1l-0.1,0.2l0-0.1l0,0.1c0,0,0,0,0,0
						C174.7,100.4,156,101.6,147.3,116.1z M175,100.1l0.1,0.1L175,100.1z"/>
					<path class="st2" d="M133.6,167.2l-0.3,0c0.1-4.3-1.5-11.7-9.9-22.1c-0.5-0.6-0.5-0.6-0.4-0.7l0.3,0l-0.2,0l0.1-0.1
						c0,0,0.2,0.3,0.4,0.5C132.1,155.4,133.7,162.8,133.6,167.2z"/>
					<path class="st2" d="M135.4,159l-0.3-0.1c0.9-3.3,4.6-9.8,18.9-16.2c0.2-0.1,0.3-0.1,0.4-0.2l0.1,0.3c0,0-0.2,0.1-0.4,0.2
						C139.9,149.4,136.3,155.8,135.4,159z"/>
				</g>
			</g>
		</g>
	</g>
	<g>
		<g>
			
				<linearGradient id="SVGID_6_" gradientUnits="userSpaceOnUse" x1="193.7702" y1="3774.7554" x2="48.2472" y2="3906.8162" gradientTransform="matrix(0 -1 1 0 -3766.1206 244.567)">
				<stop  offset="3.597000e-03" style="stop-color:#26274F"/>
				<stop  offset="1" style="stop-color:#444C8D"/>
			</linearGradient>
			<path class="st5" d="M150,210.7c0,4-2.9,7.5-6.4,7.7l-136.2,8c-4,0.2-7.3-3.1-7.3-7.4V23.5c0-4.3,3.3-7.7,7.3-7.6l136.2,5.5
				c3.5,0.1,6.4,3.5,6.4,7.6V210.7z"/>
			<linearGradient id="SVGID_7_" gradientUnits="userSpaceOnUse" x1="6.9171" y1="121.2559" x2="172.8807" y2="116.6316">
				<stop  offset="0" style="stop-color:#444C8D"/>
				<stop  offset="0.9964" style="stop-color:#26274F"/>
			</linearGradient>
			<path class="st6" d="M154,210.7c0,4-2.9,7.5-6.4,7.7l-136.2,8c-4,0.2-7.3-3.1-7.3-7.4V23.5c0-4.3,3.3-7.7,7.3-7.6l136.2,5.5
				c3.5,0.1,6.4,3.5,6.4,7.6V210.7z"/>
			
				<linearGradient id="SVGID_8_" gradientUnits="userSpaceOnUse" x1="83.8362" y1="3890.4929" x2="166.0483" y2="3790.0112" gradientTransform="matrix(0 -1 1 0 -3766.1206 244.567)">
				<stop  offset="0" style="stop-color:#444C8D"/>
				<stop  offset="0.9964" style="stop-color:#26274F"/>
			</linearGradient>
			<path class="st7" d="M7.4,23.6v195.1c0,2.3,1.8,4.1,3.9,4l107.7-6.1l28.5-1.6c1.9-0.1,3.4-1.9,3.4-4.1v-182c0-2.2-1.5-4-3.4-4.1
				l-29.5-1.1L11.3,19.6C9.2,19.5,7.4,21.3,7.4,23.6z"/>
			<path class="st8" d="M149.1,202.5c0,0.8-0.6,1.5-1.4,1.5l-136.4,7c-0.9,0-1.6-0.6-1.6-1.5V23.6c0-0.9,0.7-1.5,1.6-1.5l136.4,5.1
				c0.8,0,1.4,0.7,1.4,1.5V202.5z"/>
			<linearGradient id="SVGID_9_" gradientUnits="userSpaceOnUse" x1="82.9218" y1="202.5978" x2="80.1776" y2="223.4965">
				<stop  offset="0" style="stop-color:#444C8D"/>
				<stop  offset="0.9964" style="stop-color:#26274F"/>
			</linearGradient>
			<path class="st9" d="M95.5,214.6l-27.7,1.5c-1.5,0.1-2.7-0.9-2.7-2.3v-0.1c0-1.3,1.2-2.5,2.7-2.6l27.7-1.5
				c1.4-0.1,2.6,0.9,2.6,2.3v0.1C98.1,213.3,96.9,214.5,95.5,214.6z"/>
			<linearGradient id="SVGID_10_" gradientUnits="userSpaceOnUse" x1="81.0044" y1="21.5349" x2="82.5587" y2="23.2476">
				<stop  offset="0" style="stop-color:#F28E86"/>
				<stop  offset="1" style="stop-color:#E874AA"/>
			</linearGradient>
			<path class="st10" d="M83.1,22.4c0,0.7-0.6,1.3-1.4,1.2c-0.8,0-1.4-0.6-1.4-1.4c0-0.7,0.6-1.3,1.4-1.2
				C82.5,21,83.1,21.6,83.1,22.4z"/>
		</g>
		<g class="st11">
			<path class="st12" d="M117.9,197.9c-0.6-11.9,12.7-18.9,11.4-35.7c-0.1-1.5-1.3-14.5-11.8-23.3c-9.4-7.9-17.3-4.9-34.7-11.2
				c-12.2-4.4-25.9-9.4-31.4-19.4c-11-19.8,20.4-39.6,14-65.2c-1.8-7.3-7.1-16.4-20.8-25.8l-33.3-1.3c-4-0.2-7.3,3.2-7.3,7.6v195.4
				c0,4.3,3.3,7.7,7.3,7.4l124.1-7.2C122.2,211.5,118.2,204.1,117.9,197.9z"/>
		</g>
	</g>
	<g>
		<g>
			<linearGradient id="SVGID_11_" gradientUnits="userSpaceOnUse" x1="54.7487" y1="258.0915" x2="105.0255" y2="-60.9471">
				<stop  offset="3.597000e-03" style="stop-color:#EE7058"/>
				<stop  offset="1" style="stop-color:#FCC345"/>
			</linearGradient>
			<polygon class="st13" points="139.4,196.1 16.8,205.1 17.4,20 139.4,22.9 			"/>
			<polygon class="st12" points="80.5,45.9 25,45.3 25,29.9 80.5,30.9 			"/>
			<polygon class="st12" points="57.2,85 39.3,85.2 39.4,65.7 57.2,65.7 			"/>
			<polygon class="st12" points="125.5,74.9 62.9,75.3 62.9,65.7 125.5,65.7 			"/>
			<polygon class="st12" points="57.1,123.9 39.2,124.5 39.3,105 57.1,104.6 			"/>
			<polygon class="st12" points="125.5,112.4 62.8,114.1 62.8,104.5 125.5,103.1 			"/>
			<polygon class="st12" points="57,162.9 39.1,163.8 39.2,144.3 57,143.5 			"/>
			<polygon class="st12" points="125.5,149.9 62.7,152.9 62.7,143.3 125.5,140.6 			"/>
		</g>
		<path class="st14" d="M90.4,199.4l-73.6,5.4l0.6-185.2l45.4,1.1C54,36,43.2,66.5,74.2,95.2C105.7,124.2,118.3,168.7,90.4,199.4z"
			/>
		<linearGradient id="SVGID_12_" gradientUnits="userSpaceOnUse" x1="-67.9972" y1="417.4311" x2="88.902" y2="84.4982">
			<stop  offset="6.424581e-02" style="stop-color:#03918E"/>
			<stop  offset="1" style="stop-color:#41B7A8"/>
		</linearGradient>
		<polygon class="st15" points="143.6,12.6 143.6,185.8 94.7,189.4 21.1,194.9 21.7,9.7 67.2,10.8 		"/>
		<path class="st16" d="M94.7,189.4l-73.6,5.4L21.7,9.7l45.4,1.1c-8.9,15.3-19.7,45.8,11.3,74.4C110,114.3,122.6,158.7,94.7,189.4z"
			/>
		<linearGradient id="SVGID_13_" gradientUnits="userSpaceOnUse" x1="29.371" y1="27.6507" x2="84.9029" y2="27.6507">
			<stop  offset="0" style="stop-color:#F28E86"/>
			<stop  offset="1" style="stop-color:#E874AA"/>
		</linearGradient>
		<polygon class="st17" points="84.9,35.7 29.4,35.1 29.4,19.6 84.9,20.7 		"/>
		<linearGradient id="SVGID_14_" gradientUnits="userSpaceOnUse" x1="44.9703" y1="66.4788" x2="62.828" y2="66.4788">
			<stop  offset="0" style="stop-color:#F28E86"/>
			<stop  offset="1" style="stop-color:#E874AA"/>
		</linearGradient>
		<polygon class="st18" points="62.8,76 45,76.2 45,56.7 62.8,56.8 		"/>
		<polygon class="st16" points="131.1,65.9 68.5,66.3 68.5,56.7 131.1,56.7 		"/>
		<linearGradient id="SVGID_15_" gradientUnits="userSpaceOnUse" x1="44.8632" y1="105.5437" x2="62.7412" y2="105.5437">
			<stop  offset="0" style="stop-color:#F28E86"/>
			<stop  offset="1" style="stop-color:#E874AA"/>
		</linearGradient>
		<polygon class="st19" points="62.7,114.9 44.9,115.5 44.9,96 62.7,95.6 		"/>
		<polygon class="st16" points="131.1,103.4 68.4,105.1 68.4,95.5 131.1,94.1 		"/>
		<linearGradient id="SVGID_16_" gradientUnits="userSpaceOnUse" x1="44.7559" y1="144.692" x2="62.6542" y2="144.692">
			<stop  offset="0" style="stop-color:#F28E86"/>
			<stop  offset="1" style="stop-color:#E874AA"/>
		</linearGradient>
		<polygon class="st20" points="62.6,153.9 44.8,154.9 44.8,135.3 62.7,134.5 		"/>
		<polygon class="st16" points="131.1,140.9 68.3,143.9 68.4,134.3 131.1,131.6 		"/>
	</g>
</g>
<g>
</g>
<g>
</g>
<g>
</g>
<g>
</g>
<g>
</g>
<g>
</g>
</svg>
