<?xml version="1.0" encoding="utf-8"?>
<!-- Generator: Adobe Illustrator 25.2.1, SVG Export Plug-In . SVG Version: 6.00 Build 0)  -->
<svg version="1.1" id="Camada_1" xmlns="http://www.w3.org/2000/svg" xmlns:xlink="http://www.w3.org/1999/xlink" x="0px" y="0px"
	 viewBox="0 0 680.8 498.9" style="enable-background:new 0 0 680.8 498.9;" xml:space="preserve">
<style type="text/css">
	.st0{fill:#55BBAC;}
	.st1{fill:#FFD803;}
	.st2{fill:#F28A1C;}
	.st3{fill:#E37A09;}
	.st4{fill:url(#SVGID_1_);}
	.st5{fill:url(#SVGID_2_);}
	.st6{fill:#EEF7F8;}
	.st7{fill:#B7D274;}
	.st8{fill:url(#SVGID_3_);}
	.st9{fill:#03918E;}
	.st10{fill:#B85843;}
	.st11{fill:#EE755A;}
	.st12{fill:url(#SVGID_4_);}
	.st13{fill:#194655;}
	.st14{fill:#3E907C;}
	.st15{fill:url(#SVGID_5_);}
	.st16{fill:url(#SVGID_6_);}
	.st17{fill:#F4A492;}
	.st18{fill:url(#SVGID_7_);}
	.st19{fill:url(#SVGID_8_);}
	.st20{fill:#473B1F;}
	.st21{fill:#73C4B9;}
	.st22{fill:#2EB297;}
	.st23{fill:#36548A;}
	.st24{fill:url(#SVGID_9_);}
	.st25{fill:#F18C7F;}
	.st26{fill:url(#SVGID_10_);}
	.st27{fill:#FFFFFF;}
	.st28{fill:url(#SVGID_11_);}
	.st29{fill:url(#SVGID_12_);}
	.st30{fill:#847D3E;}
	.st31{fill:url(#SVGID_13_);}
	.st32{fill:url(#SVGID_14_);}
	.st33{fill:url(#SVGID_15_);}
	.st34{fill:url(#SVGID_16_);}
	.st35{fill:url(#SVGID_17_);}
</style>
<g>
	<polygon class="st0" points="258.7,94.7 253.4,96.3 249.8,88 241.7,89.5 238,83.7 235.1,85.6 240,93.3 247.7,91.9 251.4,100.6 
		259.5,98.1 	"/>
	<polygon class="st0" points="601.3,393.4 595.9,395 592.4,386.7 584.2,388.1 580.5,382.4 577.6,384.2 582.6,392 590.3,390.6 
		594,399.2 602,396.8 	"/>
	<g>
		<g>
			<path class="st1" d="M225.8,491.7c0,0-28.5-96.6-30.8-117.9c-2.3-21.3,13.7-14.7,13.7-14.7s-13.4-40.6-3.7-50.2
				c9.7-9.6,18.4,8.3,18.4,8.3s2.9-49.3,13.3-49.3c19.3,0,18.9,53.8,18.9,53.8s4.9-21.1,15.2-15.3c15.5,8.7-6.7,50.9-6.7,50.9
				s19.8,0,26.8,10C303.3,385.1,225.8,491.7,225.8,491.7z"/>
		</g>
	</g>
	<g>
		<g>
			<path class="st2" d="M235.1,478.9c0,0-82.2-13.7-100-28.3c-17.9-14.6-0.2-21.1-0.2-21.1s-41.3-21.2-40.8-35.6
				c0.5-14.4,21-7.1,21-7.1s-34.8-39.7-26.5-47.2c15.3-14,55.5,27.2,55.5,27.2s-11.9-19.6,0.6-22.7c19-4.7,33,43.7,33,43.7
				s-3.6-19.1,9.5-16.5C210.6,375.8,235.1,478.9,235.1,478.9z"/>
		</g>
		<path class="st3" d="M187.2,371.2c-13.1-2.4-9.5,16.5-9.5,16.5s-14-48.3-33-43.7c-12.6,3.1-0.6,22.7-0.6,22.7
			s-40.2-41.2-55.5-27.2l146.3,139.3C232.2,465.6,209.2,375.2,187.2,371.2z"/>
	</g>
	<g>
		<linearGradient id="SVGID_1_" gradientUnits="userSpaceOnUse" x1="197.9437" y1="533.6821" x2="188.5062" y2="512.7099">
			<stop  offset="0" style="stop-color:#64BC9A"/>
			<stop  offset="1" style="stop-color:#137B5D"/>
		</linearGradient>
		<path class="st4" d="M258.5,490.2c0,0-43.3-44-65.1-48.6c-21.8-4.6-17.9,10.9-17.9,10.9s-43.2-37.8-53.3-28.7
			c-10,9.2,0.8,18,0.8,18s-36-6.4-41.2,5.4c-7.9,18.2,51.3,28,51.3,28s-24.8,1.7-19.1,13.1C122.9,505.7,258.5,490.2,258.5,490.2z"/>
		<linearGradient id="SVGID_2_" gradientUnits="userSpaceOnUse" x1="81.9421" y1="456.2508" x2="258.4965" y2="456.2508">
			<stop  offset="0" style="stop-color:#64BC9A"/>
			<stop  offset="1" style="stop-color:#137B5D"/>
		</linearGradient>
		<path class="st5" d="M81.9,447.3c5.2-11.8,41.2-5.4,41.2-5.4s-10.8-8.8-0.8-18c10-9.2,51.9,23.5,51.9,23.5s-9.9-18.9,11.9-14.3
			c21.8,4.6,72.4,57.1,72.4,57.1L81.9,447.3z"/>
	</g>
	<g>
		<path class="st6" d="M327.4,36.3c-14.6,2.4-18.9,21.5-6.8,30.1c2.2,1.5,3.7,3.8,4.3,6.4l2.2,8.9c0.6,2.5,3,4,5.5,3.6l5.5-0.9
			c2.5-0.4,4.3-2.7,4-5.2c-0.8-9.2-1.7-12.5,1.3-16.6C352.2,50.7,342,33.9,327.4,36.3z"/>
		<g>
			<path class="st7" d="M328.9,75.2c-0.9-7.9-2.3-16.2-2.7-18.5c-8.3,0.5-5.2-8.3-1.3-4.8c1.1,1,1.6,2.4,2,3.9c2.8-0.2,5.5-1,8-2.3
				c-0.1-1.9-0.3-3.4,0.2-4.7c0.8-1.9,3.2-2.4,4.2-0.6c0.4,0.7,0.4,1.6,0.2,2.3c-0.6,1.6-2.2,2.6-3.7,3.4c0.4,6.3,1,12.6,1.8,18.8
				l-0.8,0.1c-0.8-6.1-1.4-12.3-1.8-18.5c-2.5,1.2-5.1,2-7.9,2.2c0.6,3,1.8,11.1,2.7,18.5L328.9,75.2z M322.2,54.8
				c0.7,0.8,2,1.2,3.8,1.1c-0.3-1.3-0.8-2.5-1.7-3.4C322.2,50.6,320.9,53.5,322.2,54.8z M335.7,49.2c-0.5,1-0.3,2.4-0.2,3.9
				c1.2-0.7,2.6-1.5,3-2.8c0.3-0.9,0-2.1-0.9-2.3C337.5,48,336,48.4,335.7,49.2z"/>
		</g>
		<path class="st0" d="M324.9,72.6c0,0.1,0,0.1,0.1,0.2l2.2,8.9c0.6,2.5,3,4,5.5,3.6l5.5-0.9c2.5-0.4,4.3-2.7,4-5.2
			c-0.3-4.1-0.7-7-0.8-9.4L324.9,72.6z"/>
		<g>
			<path class="st0" d="M316.6,29.7l-4.4-8c-0.4-0.8-0.1-1.7,0.6-2.2c0.8-0.4,1.7-0.1,2.2,0.6l4.4,8c0.4,0.8,0.1,1.7-0.6,2.2
				C318,30.7,317,30.5,316.6,29.7z"/>
		</g>
		<g>
			<path class="st0" d="M307.1,48.9l-9.5-0.8c-0.9-0.1-1.5-0.8-1.4-1.7c0.1-0.9,0.8-1.5,1.7-1.4l9.5,0.8c0.9,0.1,1.5,0.8,1.4,1.7
				C308.7,48.3,307.9,49,307.1,48.9z"/>
		</g>
		<g>
			<path class="st0" d="M297.7,78c-0.6-0.6-0.6-1.6,0-2.2c2.3-2.3,4.9-4.4,7.6-6.2c0.7-0.5,1.7-0.3,2.2,0.4c0.5,0.7,0.3,1.7-0.4,2.2
				c-2.6,1.7-5,3.7-7.2,5.8C299.3,78.7,298.3,78.7,297.7,78z"/>
		</g>
		<g>
			<path class="st0" d="M340.1,29.3c-0.8-0.2-1.4-1.1-1.1-1.9c1.1-4,1.7-8.2,2-12.3c0-0.9,0.8-1.5,1.7-1.5c0.9,0,1.5,0.8,1.5,1.7
				c-0.2,4.4-0.9,8.7-2.1,13C341.8,29,340.9,29.5,340.1,29.3z"/>
		</g>
		<g>
			<path class="st0" d="M349.8,41.5c-0.3-0.8,0.2-1.7,1.1-2l9.9-3c0.8-0.3,1.7,0.2,2,1.1c0.3,0.8-0.2,1.7-1.1,2l-9.9,3
				C351,42.8,350.1,42.3,349.8,41.5z"/>
		</g>
		<g>
			<path class="st0" d="M366,67.7c-0.1,0-0.3,0-0.4-0.1c-3.4-1-6.7-2.3-9.9-4c-0.8-0.4-1.1-1.4-0.7-2.1c0.4-0.8,1.4-1.1,2.1-0.7
				c2.9,1.6,6.1,2.8,9.3,3.7c0.8,0.2,1.3,1.1,1.1,2C367.4,67.3,366.7,67.7,366,67.7z"/>
		</g>
	</g>
	<linearGradient id="SVGID_3_" gradientUnits="userSpaceOnUse" x1="530.4617" y1="33.793" x2="460.2046" y2="394.5149">
		<stop  offset="0" style="stop-color:#F49931"/>
		<stop  offset="1" style="stop-color:#E65A26"/>
	</linearGradient>
	<path class="st8" d="M510.6,138l-5-11.8l-12.5-2.6c-1.4-0.3-1.9-2.1-0.8-3l9.7-8.4l-1.4-12.7c-0.2-1.4,1.4-2.5,2.7-1.7l11,6.6
		l11.6-5.3c1.3-0.6,2.8,0.6,2.4,2l-2.9,12.5l8.6,9.4c1,1.1,0.3,2.8-1.1,2.9l-12.7,1.1l-6.3,11.1C513.1,139.4,511.2,139.3,510.6,138z
		"/>
	<polygon class="st1" points="589.9,97.6 587.9,105.8 574.2,104 569.8,115.7 559.3,116 559.5,121.2 573.4,120.8 577.7,109.8 
		591.8,111.7 594.9,99.3 	"/>
	<path class="st9" d="M468.5,492.8H228.9c-9.2,0-16.6-7.7-16.6-17.2v-10.2c0-9.5,7.4-17.2,16.6-17.2h239.6l0,0
		c-11,12.4-11.1,31.4-0.4,44.1L468.5,492.8z"/>
	<path class="st6" d="M464.8,453.3H331.9c-9.2,0-16.6,7.7-16.6,17.2l0,0c0,9.5,7.4,17.2,16.6,17.2h132.9
		C458.6,477.1,458.6,463.8,464.8,453.3z"/>
	<path class="st0" d="M384.3,417.2c0.3-0.7-0.2-1.4-1-1.4H256.6c-9.9,0-18,7.2-18,16.2l0,0c0,8.9,8.1,16.2,18,16.2h126.8
		c0.8,0,1.3-0.8,1-1.4l0,0C379.3,437.4,379.3,426.5,384.3,417.2z"/>
	<path class="st6" d="M383.5,418.8h-62.8c-11.7,0-21.1,6.1-21.1,13.6c0,7.5,9.5,13.6,21.1,13.6h63.2
		C379.6,437.3,379.5,427.5,383.5,418.8z"/>
	<g>
		<path class="st10" d="M367.3,425.2h-8.2c-1.8,0-3.2,0.6-3.2,1.3v0.1h11.4V425.2z"/>
		<path class="st11" d="M374.3,428.5c0-1.8-2.1-3.3-4.8-3.3H359c2,0,3.6,1.1,3.6,2.5l0,35.5l5.8-4.6l5.9,4.6L374.3,428.5z"/>
	</g>
	<g>
		<path class="st6" d="M361,414.6h-73.8c-6.5,0-11.8-6.3-11.8-14.1l0,0c0-7.8,5.3-14.1,11.8-14.1H361l0,0
			c-5.6,7.8-5.9,19.2-0.5,27.3L361,414.6z"/>
		<linearGradient id="SVGID_4_" gradientUnits="userSpaceOnUse" x1="230.2525" y1="400.5667" x2="363.0442" y2="400.5667">
			<stop  offset="0" style="stop-color:#F49931"/>
			<stop  offset="1" style="stop-color:#E65A26"/>
		</linearGradient>
		<path class="st12" d="M275.4,400.6L275.4,400.6c0-7.8,5.4-14.1,12.1-14.1h74.9c0.3,0,0.6-0.3,0.6-0.7l0,0c0-0.4-0.3-0.7-0.6-0.7
			H243.6c-7.4,0-13.4,6.9-13.4,15.5l0,0c0,8.6,6,15.5,13.4,15.5h118.8c0.3,0,0.6-0.3,0.6-0.7l0,0c0-0.4-0.3-0.7-0.6-0.7h-74.9
			C280.8,414.6,275.4,408.3,275.4,400.6z"/>
		<g>
			<path class="st13" d="M348.1,393.4h-8.2c-1.8,0-3.2,0.6-3.2,1.3v0.1h11.4V393.4z"/>
			<path class="st14" d="M355.1,396.7c0-1.8-2.1-3.2-4.8-3.2h-10.5c2,0,3.6,1.1,3.6,2.5l0,34.8l5.8-4.5l5.9,4.5L355.1,396.7z"/>
		</g>
	</g>
	<g>
		<g>
			<path class="st0" d="M478.5,178.5l10.9-2.9l-7.4,98.4l-13.1,0.4l6.6-92.4C475.7,180.4,476.9,179,478.5,178.5z"/>
			<g>
				<linearGradient id="SVGID_5_" gradientUnits="userSpaceOnUse" x1="478.6802" y1="226.274" x2="493.7891" y2="226.274">
					<stop  offset="0" style="stop-color:#01513F"/>
					<stop  offset="1" style="stop-color:#053323"/>
				</linearGradient>
				<path class="st15" d="M483,276.9c-0.2,0-0.5,0-0.7,0c-2.2-0.3-3.8-2.4-3.6-4.8l7.2-92.6c0.2-2.4,2.1-4.1,4.3-3.9
					c2.2,0.3,3.8,2.4,3.6,4.8l-7.2,92.6C486.4,275.1,484.9,276.7,483,276.9z"/>
				<linearGradient id="SVGID_6_" gradientUnits="userSpaceOnUse" x1="382.8007" y1="280.3162" x2="486.6043" y2="280.3162">
					<stop  offset="0" style="stop-color:#01513F"/>
					<stop  offset="1" style="stop-color:#053323"/>
				</linearGradient>
				<path class="st16" d="M382.8,281.8c0,0.1,0,0.1,0,0.2l0,0c0.3,3.8,3.3,6.6,6.5,6.3l92-8.2c3.3-0.3,5.6-3.6,5.3-7.3
					c0-0.2,0-0.3-0.1-0.5L382.8,281.8z"/>
			</g>
		</g>
		<path class="st17" d="M446.8,381.3c-6,3.3-24.4-2.5-24.4-3c-0.3,5-20.6,54.3-20.6,54.3l0,15.1c0,0,41.9,2,41.3-1.7
			c-0.6-3.7-2.9-1.3-11.2-8.3c-0.7-0.6-12.5-3.3-9.3-10.3C429,413.3,442.6,390,446.8,381.3z"/>
		<linearGradient id="SVGID_7_" gradientUnits="userSpaceOnUse" x1="399.1379" y1="440.308" x2="448.0426" y2="440.308">
			<stop  offset="0" style="stop-color:#01513F"/>
			<stop  offset="1" style="stop-color:#053323"/>
		</linearGradient>
		<path class="st18" d="M400.4,448.2l45.9,0c1.7-0.2,2-1.5,1.5-2.3c-1.2-1.7-10-5.7-15.9-8.3c-10.3,1.2-28.4-2.8-30.1-5.1
			C397.5,438.3,399.5,448,400.4,448.2z"/>
		<path class="st3" d="M390.4,345.9c-0.6-1.9,39.5-18.9,41.3-16.9c3.2,3.4-21.7,68.1-21.7,68.1l28.6,8.7c0,0,29.7-74.6,28.5-88.3
			c-1.2-13.7-16.1-29.2-48.4-19.2S390.4,345.9,390.4,345.9z"/>
		<path class="st17" d="M473.5,389.7c-6.8-1.2-15.6-1.6-22.6-1.7c0.8,6.3,4.9,38.4,4.1,40.3c-3,8-9.6,11.7-9.6,11.7
			s31.2,28.1,33,24.9c1.9-3.2-1.4-2.8-3.4-13.5c-0.2-1-4.7-15.9-5-24C469.5,412.1,473.2,398.3,473.5,389.7z"/>
		<path class="st2" d="M463.5,284.8c-4.3-2.3-15.6-2.4-28-1.6c-24.2,1.6-48.1,6.3-71.1,14l-15.4,5.1l0.1-15.8c0,0-49-8.2-50.7,3.9
			c-2.6,18.3,0.6,55.4,16.9,63.7c50.7,25.7,121.8-41,122-32.3c0.3,11.7,10.2,55.4,12.8,74.5c7,0.1,19.1,0.1,24.3-1.1
			C475.4,357.8,475.8,291.4,463.5,284.8z"/>
		<linearGradient id="SVGID_8_" gradientUnits="userSpaceOnUse" x1="444.4223" y1="448.7133" x2="482.097" y2="448.7133">
			<stop  offset="0" style="stop-color:#01513F"/>
			<stop  offset="1" style="stop-color:#053323"/>
		</linearGradient>
		<path class="st19" d="M444.5,440.8l35,28c1.4,0.9,2.5,0.1,2.6-0.9c0.1-2.1-4.1-10.7-7-16.5c-8.7-5.6-20.2-20.2-20-23.1
			C451.3,431.4,443.9,440,444.5,440.8z"/>
		<path class="st20" d="M365.2,132.1c-1.2-10.8-2.4-21.6-11.3-29.4c-7.2-6.4-16.4-7.5-25.5-4c-25.7,9.7-12.5,32.5-45.2,55.5
			c-10.2,7.2-21.4,12-29.1,21.7c-10.7,13.5-6.7,29.7,3.1,40.5c46.8,51.8,99.1-18.2,102.8-34.9C362.8,168.9,365.9,139.1,365.2,132.1z
			"/>
		<path class="st9" d="M355.7,192.6c-3.8-7-7.8-12.6-7.8-12.6c-4-7-14.2-10.6-14.2-10.6s-3.4,0.1-7.4,0.3c-0.2,0.7-0.5,1.1-0.7,1.3
			c-1.5,1.1-10-0.3-15.4,3.4c-18.3,15.7-13.3,92-11.8,116l55.9,0.5c0,0-7-51.8,4.3-65.1C366.4,216.5,361.3,203.1,355.7,192.6z"/>
		<path class="st17" d="M330.5,143.6c0,0-3.1,21.9-5.2,27.3c-2.1,5.3,11.8,16.7,23.4,20.2c11.6,3.5-3.5-11.8-3.1-17.5
			c0.5-5.7,2.6-32.7,2.6-32.7L330.5,143.6z"/>
		<path class="st11" d="M347.6,148.6c0.3-4.5,0.6-7.7,0.6-7.7l-17.7,2.7c0,0-0.4,2.6-0.9,6.2C336.7,154,343.2,152.6,347.6,148.6z"/>
		<path class="st17" d="M336,103.5c0,0-7,1.6-11.3,8.1c-4.3,6.6-7.3,25.9,6.9,35c14.2,9,25.2-3.7,25.4-16.2
			C357.3,117.9,354.6,101.3,336,103.5z"/>
		<path class="st17" d="M360.3,126.5c-1.2,3-3.6,4.9-5.4,4.2c-1.8-0.7-2.2-3.7-1-6.7c1.2-3,3.6-4.9,5.4-4.2
			C361.1,120.5,361.5,123.5,360.3,126.5z"/>
		<path class="st20" d="M338.1,103.1c0,0-8.9,20-16.7,21.7c-7.8,1.8-7.7,11.8-7.7,11.8s0.2-23.2,7.5-28.5
			C328.5,102.8,338.1,103.1,338.1,103.1z"/>
		<path class="st17" d="M324.5,129c1,3.2,0.1,6.4-2.1,7.1c-2.2,0.7-4.8-1.4-5.8-4.6c-1-3.2-0.1-6.4,2.1-7.1
			C320.9,123.7,323.5,125.7,324.5,129z"/>
		<path class="st17" d="M424.5,273c-3.4-1.2-8.3-1.4-8.3-1.8c0.3-1.8,15.1,4,13.1,1.3c-1.1-1.5-12.2-6.6-14.9-5.8
			c-2.6,0.8-19.8,5.6-19.8,5.6l-46.9-11c0,0-11.8-26.9-13-50c-9.8,1.3-16.5,3.7-25,8.5c4.1,22.1,14.1,57.9,25.1,64.7
			c4.6,2.8,60-3.4,60-3.4s12.2-0.9,14.2-1.6c1.5-0.6,5.4-2.8,7.5-3.4c4.8-1.4,13.4,2.1,13.4,1.1C430.1,276.6,427.9,274.3,424.5,273z
			"/>
		<path class="st21" d="M335,186.7c-0.5-7.1-3.1-14-10.7-16.2c-4.7-1.4-10-0.1-13.7,3c-4.5,3.6-5.7,9.5-5.7,15
			c0,12.6,0.9,25.6,3.2,37.9c8.5-4.7,18.4-7.6,28.2-8.9C336.4,217.5,335.6,196.1,335,186.7z"/>
	</g>
	<g>
		<path class="st22" d="M189.7,200.2L117,186.6c-1.5-0.3-2.4-1.7-2.2-3.1l9.1-48.9c0.3-1.5,1.7-2.4,3.1-2.2l72.7,13.5
			c1.5,0.3,2.4,1.7,2.2,3.1l-9.1,48.9C192.6,199.5,191.2,200.4,189.7,200.2z"/>
		<path class="st22" d="M155.1,144.2l-22.1-4.1c-1.5-0.3-2.4-1.7-2.2-3.1l1.4-7.4c0.3-1.5,1.7-2.4,3.1-2.2l22.1,4.1
			c1.5,0.3,2.4,1.7,2.2,3.1l-1.4,7.4C157.9,143.5,156.5,144.5,155.1,144.2z"/>
		<path class="st9" d="M193,198.3c-0.4,1.3-1.7,2.2-3.1,1.9l-73.2-13.6c-1.4-0.3-2.3-1.5-2.2-2.9l3.8-43.9c0.1-0.8,0.4-1.4,1.1-1.9
			c0.6-0.5,1.4-0.6,2.1-0.5l81.3,15.1c0.7,0.1,1.4,0.6,1.8,1.2c0.4,0.6,0.5,1.4,0.3,2.2L193,198.3z"/>
	</g>
	<g>
		<polygon class="st1" points="526.6,38 514.2,41.4 511.5,26.3 515.5,25.6 517.4,36.2 525.5,34 		"/>
	</g>
	<g>
		<path class="st23" d="M129.8,245.3c3.1-0.3,7.9,1.1,10.1,2.6c0.3,0.3,2.8,1.3,5.4,5.5l-0.6,0.4c-2.7-2.8-4.5-3.5-6.7-4.1
			c-3.6-0.9-7.2-0.2-7.5-0.1L129.8,245.3z"/>
		<linearGradient id="SVGID_9_" gradientUnits="userSpaceOnUse" x1="127.5822" y1="267.2485" x2="181.9031" y2="267.2485">
			<stop  offset="0" style="stop-color:#F49931"/>
			<stop  offset="1" style="stop-color:#E65A26"/>
		</linearGradient>
		<path class="st24" d="M144.9,253.6c0,0-19,3.2-17.2,18c1.8,14.8,21.8,26.4,39.7,17.2c24.1-12.4,14.6-43.8-2.6-46.2
			C147.7,240.2,144.9,253.6,144.9,253.6z"/>
		<path class="st25" d="M153,247.1c0,0,5-5.1,15.8-0.5c10.9,4.6,11.6,26.2,2,25C161.1,270.3,145.2,250.2,153,247.1z"/>
	</g>
	<g>
		<linearGradient id="SVGID_10_" gradientUnits="userSpaceOnUse" x1="247.5557" y1="-21.3079" x2="177.2985" y2="339.4144">
			<stop  offset="0" style="stop-color:#F49931"/>
			<stop  offset="1" style="stop-color:#E65A26"/>
		</linearGradient>
		<path class="st26" d="M283.7,49.8l-78.2,27.9c-2.5,0.9-5.3-0.4-6.2-2.9L185,34.4c-0.9-2.5,0.4-5.3,2.9-6.2L266,0.3
			c2.5-0.9,5.3,0.4,6.2,2.9l14.4,40.4C287.6,46.2,286.2,49,283.7,49.8z"/>
		<path class="st27" d="M231.9,39.5c2.9,8.1-1.3,16.9-9.4,19.8c-8.1,2.9-16.9-1.3-19.8-9.4c-2.9-8.1,1.3-16.9,9.4-19.8
			C220.2,27.2,229,31.4,231.9,39.5z"/>
		<path class="st0" d="M219.6,37.3c0.8,2.4-0.4,5-2.8,5.8c-2.4,0.8-5-0.4-5.8-2.8c-0.8-2.4,0.4-5,2.8-5.8
			C216.1,33.7,218.7,34.9,219.6,37.3z"/>
		<path class="st0" d="M227,50l-13.7,4.9v0c-1.3-3.7,0.6-7.7,4.3-9l0.5-0.2C221.7,44.4,225.7,46.4,227,50L227,50z"/>
		<g>
			<path class="st27" d="M233.8,31c-0.8,0-1.6-0.5-1.9-1.3c-0.4-1,0.2-2.2,1.2-2.5L267.4,15c0.2-0.1,0.4-0.1,0.7-0.1
				c0.8,0,1.6,0.5,1.9,1.3c0.4,1-0.2,2.2-1.2,2.5l-34.2,12.2C234.3,31,234.1,31,233.8,31z"/>
		</g>
		<g>
			<path class="st27" d="M243.1,39.5c-0.8,0-1.6-0.5-1.9-1.3c-0.4-1,0.2-2.2,1.2-2.5l26.7-9.5c0.2-0.1,0.4-0.1,0.7-0.1
				c0.8,0,1.6,0.5,1.9,1.3c0.2,0.5,0.2,1-0.1,1.5c-0.2,0.5-0.6,0.8-1.1,1l-26.7,9.5C243.5,39.5,243.3,39.5,243.1,39.5z"/>
		</g>
	</g>
	<path class="st7" d="M405.2,354.9H216.4c-5.9,0-10.6,4.8-10.6,10.6v8.9c0,5.9,4.8,10.6,10.6,10.6h188.7l-0.1-0.1
		C397,376.6,397,363.3,405.2,354.9z"/>
	<path class="st6" d="M401.8,359.4H300.9c-5.9,0-10.6,4.8-10.6,10.6l0,0c0,5.9,4.8,10.6,10.6,10.6h100.9
		C398.1,374,398.1,365.9,401.8,359.4z"/>
	<g>
		<g>
			<path class="st6" d="M559.6,355.8l-14.3-35.9c-0.7-1.8,0.2-3.9,2-4.6l51.5-20.5c1.8-0.7,3.9,0.2,4.6,2l14.3,35.9
				c0.7,1.8-0.2,3.9-2,4.6l-51.5,20.5C562.4,358.5,560.4,357.6,559.6,355.8z"/>
			<path class="st7" d="M608.2,335l-12.9-32.3c-0.2-0.5,0-1.1,0.6-1.3l0,0c0.5-0.2,1.1,0,1.3,0.6l12.9,32.3c0.2,0.5,0,1.1-0.6,1.3
				l0,0C609,335.8,608.4,335.5,608.2,335z"/>
			<path class="st7" d="M602.1,330.8l-10.6-26.5c-0.2-0.5,0-1.1,0.6-1.3l0,0c0.5-0.2,1.1,0,1.3,0.6L604,330c0.2,0.5,0,1.1-0.6,1.3
				l0,0C602.9,331.5,602.3,331.3,602.1,330.8z"/>
			<path class="st7" d="M600.6,338.1l-12.9-32.3c-0.2-0.5,0-1.1,0.6-1.3l0,0c0.5-0.2,1.1,0,1.3,0.6l12.9,32.3c0.2,0.5,0,1.1-0.6,1.3
				l0,0C601.3,338.8,600.8,338.6,600.6,338.1z"/>
			<path class="st7" d="M593.8,332.2l-9.9-24.9c-0.2-0.5,0-1.1,0.6-1.3l0,0c0.5-0.2,1.1,0,1.3,0.6l9.9,24.9c0.2,0.5,0,1.1-0.6,1.3
				l0,0C594.6,333,594,332.8,593.8,332.2z"/>
			<g>
				<path class="st7" d="M607.9,299.3l-0.3-0.6c-0.1-0.2-0.4-0.4-0.6-0.3l-4.9,1.9c-0.2,0.1-0.3,0.4-0.2,0.6l0.3,0.6
					c0.1,0.2,0.4,0.4,0.6,0.3l4.9-1.9C607.8,299.8,608,299.6,607.9,299.3z"/>
				<path class="st7" d="M609,302.1l-0.3-0.6c-0.1-0.2-0.4-0.4-0.6-0.3l-4.9,1.9c-0.2,0.1-0.3,0.4-0.2,0.6l0.3,0.6
					c0.1,0.2,0.4,0.4,0.6,0.3l4.9-1.9C609,302.6,609.1,302.3,609,302.1z"/>
				<path class="st7" d="M610.1,304.9l-0.3-0.6c-0.1-0.2-0.4-0.4-0.6-0.3l-4.9,1.9c-0.2,0.1-0.3,0.4-0.2,0.6l0.3,0.6
					c0.1,0.2,0.4,0.4,0.6,0.3l4.9-1.9C610.1,305.4,610.2,305.1,610.1,304.9z"/>
				<path class="st7" d="M611.2,307.7l-0.3-0.6c-0.1-0.2-0.4-0.4-0.6-0.3l-4.9,1.9c-0.2,0.1-0.3,0.4-0.2,0.6l0.3,0.6
					c0.1,0.2,0.4,0.4,0.6,0.3l4.9-1.9C611.2,308.2,611.3,307.9,611.2,307.7z"/>
				<path class="st7" d="M612.3,310.4l-0.3-0.6c-0.1-0.2-0.4-0.4-0.6-0.3l-4.9,1.9c-0.2,0.1-0.3,0.4-0.2,0.6l0.3,0.6
					c0.1,0.2,0.4,0.4,0.6,0.3l4.9-1.9C612.3,310.9,612.4,310.7,612.3,310.4z"/>
				<path class="st7" d="M613.4,313.2l-0.3-0.6c-0.1-0.2-0.4-0.4-0.6-0.3l-4.9,1.9c-0.2,0.1-0.3,0.4-0.2,0.6l0.3,0.6
					c0.1,0.2,0.4,0.4,0.6,0.3l4.9-1.9C613.4,313.7,613.5,313.5,613.4,313.2z"/>
				<path class="st7" d="M614.5,316l-0.3-0.6c-0.1-0.2-0.4-0.4-0.6-0.3l-4.9,1.9c-0.2,0.1-0.3,0.4-0.2,0.6l0.3,0.6
					c0.1,0.2,0.4,0.4,0.6,0.3l4.9-1.9C614.5,316.5,614.6,316.2,614.5,316z"/>
				<path class="st7" d="M615.6,318.8l-0.3-0.6c-0.1-0.2-0.4-0.4-0.6-0.3l-4.9,1.9c-0.2,0.1-0.3,0.4-0.2,0.6l0.3,0.6
					c0.1,0.2,0.4,0.4,0.6,0.3l4.9-1.9C615.6,319.3,615.7,319,615.6,318.8z"/>
				<path class="st7" d="M616.7,321.6l-0.3-0.6c-0.1-0.2-0.4-0.4-0.6-0.3l-4.9,1.9c-0.2,0.1-0.3,0.4-0.2,0.6l0.3,0.6
					c0.1,0.2,0.4,0.4,0.6,0.3l4.9-1.9C616.7,322.1,616.8,321.8,616.7,321.6z"/>
				<path class="st7" d="M617.8,324.3l-0.3-0.6c-0.1-0.2-0.4-0.4-0.6-0.3l-4.9,1.9c-0.2,0.1-0.3,0.4-0.2,0.6l0.3,0.6
					c0.1,0.2,0.4,0.4,0.6,0.3l4.9-1.9C617.8,324.8,617.9,324.6,617.8,324.3z"/>
				<path class="st7" d="M618.9,327.1l-0.3-0.6c-0.1-0.2-0.4-0.4-0.6-0.3l-4.9,1.9c-0.2,0.1-0.3,0.4-0.2,0.6l0.3,0.6
					c0.1,0.2,0.4,0.4,0.6,0.3l4.9-1.9C618.9,327.6,619,327.3,618.9,327.1z"/>
				<path class="st7" d="M620,329.9l-0.3-0.6c-0.1-0.2-0.4-0.4-0.6-0.3l-4.9,1.9c-0.2,0.1-0.3,0.4-0.2,0.6l0.3,0.6
					c0.1,0.2,0.4,0.4,0.6,0.3l4.9-1.9C620,330.4,620.1,330.1,620,329.9z"/>
			</g>
		</g>
		<g>
			<linearGradient id="SVGID_11_" gradientUnits="userSpaceOnUse" x1="679.8588" y1="62.8906" x2="609.6016" y2="423.6128">
				<stop  offset="0" style="stop-color:#F49931"/>
				<stop  offset="1" style="stop-color:#E65A26"/>
			</linearGradient>
			<path class="st28" d="M633.5,327l-20.4,29.1c0,0.1-0.1,0.1-0.1,0.2l-2.1,6.4c-0.2,0.7,0.6,1.4,1.2,0.9l5.5-4.1
				c0.1-0.1,0.1-0.1,0.2-0.2l20.5-29.2c0.3-0.4,0.2-0.9-0.2-1.1l-3.4-2.2C634.3,326.6,633.8,326.7,633.5,327z"/>
			<path class="st6" d="M617.8,359.3L617.8,359.3l-5.3,4l-1.4-1l2-6.1C614.5,357.2,616.4,358.1,617.8,359.3z"/>
		</g>
	</g>
	<g>
		<path class="st2" d="M426.5,12.1c2.9,2.3,8.1,9.9,14.6,15.2c3.8,3.1,6.8,2.3,11.6,2.9c23.1,2.8,16.9,7.5,19.6,8
			c-0.8,1.8-8,17.1-9.3,20.2c-1.2,2.9-3.4,4.1-6.5,3.7c-4.8-0.7-9.6-1.2-14.3-2.2c-12.1-2.6-18.8-8.7-27.4-16
			c-2.3-1.9-2.9-4.4-1.7-7.1C418.7,24,425.9,13.2,426.5,12.1z"/>
		<path class="st3" d="M474.9,56.6c-0.1,5,0.3,6.1-1.9,5.3c-1.3-0.5-2.6-1.1-3.8-1.7c-0.9-0.4-0.9-1-0.2-1.7c1-1,2.1-2,3.1-3
			c-0.8-2,0.1-4.3,2-5.4c0.4-0.2,0.1,0.2,3.3-7.2c-10.6-1.3-18.2-2.2-31.2-3.8c-3.5-0.4-6.6-1.8-9.3-4c-9.3-7.8-18.6-15.5-27.8-23.3
			c-1.3-1.1-1.4-2.6-0.4-3.8c0.8-0.9,1.8-1,2.9-0.8c3,0.4,32,4,35,4.3c3.9,0.5,7.3,1.9,10.3,4.4c9.1,7.6,18.3,15.2,27.4,22.9
			c1.3,1,1.6,2,1.2,3.2c-0.5,1.3-1.5,1.9-3.1,1.5c-1.2-0.2-1.7,0.1-2.1,1.2c-1.8,4.8-3,5.9-2.6,7.6C478,53.6,476.4,56,474.9,56.6z"
			/>
	</g>
	<g>
		<linearGradient id="SVGID_12_" gradientUnits="userSpaceOnUse" x1="544.9617" y1="389.2524" x2="555.3314" y2="458.9268">
			<stop  offset="0" style="stop-color:#64BC9A"/>
			<stop  offset="1" style="stop-color:#137B5D"/>
		</linearGradient>
		<path class="st29" d="M523.1,398.9l5.3,5.1c12.5,12,22.8,26.1,30.1,41.8l0.8,1.7c0,0,13.9,1.2,15.8-11.3l0,0
			c-12.2-13.7-22.2-28.4-30.5-44.7l-2.5-5.9L523.1,398.9z"/>
		<path class="st7" d="M542.2,385.5c0.7,1-3,4.7-8.3,8.4c-5.3,3.7-10.1,5.9-10.8,4.9c-0.7-1,3.1-4.8,8.3-8.5
			C536.7,386.8,541.5,384.6,542.2,385.5z"/>
		<path class="st30" d="M542.2,385.6L542.2,385.6c0,0-10.6,8.9-14.9,9.8l1.3,1.8c1.6-0.9,3.4-2,5.3-3.3
			C539.1,390.3,542.8,386.6,542.2,385.6z"/>
		<g>
			<linearGradient id="SVGID_13_" gradientUnits="userSpaceOnUse" x1="564.4038" y1="383.7591" x2="548.9077" y2="427.5677">
				<stop  offset="0" style="stop-color:#F49931"/>
				<stop  offset="1" style="stop-color:#E65A26"/>
			</linearGradient>
			<path class="st31" d="M556.4,411.5c0,1.5-0.6,8.2-11.6,11c0.7,1,1.4,2,2.1,3c7-2.1,10.2-5.7,11.6-8.4c0.2-0.4,0.5-1,0.7-1.5
				C558.2,414.3,557.3,412.9,556.4,411.5z"/>
			<linearGradient id="SVGID_14_" gradientUnits="userSpaceOnUse" x1="552.7891" y1="379.6507" x2="537.293" y2="423.4593">
				<stop  offset="0" style="stop-color:#F49931"/>
				<stop  offset="1" style="stop-color:#E65A26"/>
			</linearGradient>
			<polygon class="st32" points="545.7,420.5 529.4,419.9 533.3,423.2 531,427.4 546.4,423.5 			"/>
			<linearGradient id="SVGID_15_" gradientUnits="userSpaceOnUse" x1="562.6527" y1="383.1397" x2="547.1566" y2="426.9483">
				<stop  offset="0" style="stop-color:#F49931"/>
				<stop  offset="1" style="stop-color:#E65A26"/>
			</linearGradient>
			<polygon class="st33" points="547.2,424.3 541.4,434.4 545.5,432.8 547,436.1 549.8,425.4 			"/>
			<linearGradient id="SVGID_16_" gradientUnits="userSpaceOnUse" x1="562.6725" y1="383.1467" x2="547.1763" y2="426.9553">
				<stop  offset="0" style="stop-color:#F49931"/>
				<stop  offset="1" style="stop-color:#E65A26"/>
			</linearGradient>
			<path class="st34" d="M549.4,427.1c-2.9,0.2-5.3-2-5.6-5c-0.2-2.9,1.9-5.5,4.8-5.7c2.9-0.2,5.3,2,5.6,5
				C554.4,424.3,552.3,426.8,549.4,427.1z"/>
		</g>
	</g>
	<g>
		<linearGradient id="SVGID_17_" gradientUnits="userSpaceOnUse" x1="607.7859" y1="48.8532" x2="537.5289" y2="409.5752">
			<stop  offset="0" style="stop-color:#F49931"/>
			<stop  offset="1" style="stop-color:#E65A26"/>
		</linearGradient>
		<path class="st35" d="M584,198.3l-34.3-30.6c-2.2-2-1.3-6.1,1.8-7.8l27.4-15.5c1.8-1,3.7-0.9,5,0.2l34.3,30.6
			c2.2,2,1.3,6.1-1.8,7.8L589,198.6C587.2,199.6,585.2,199.5,584,198.3z"/>
		<g>
			<path class="st27" d="M582.4,174l-2.9-23.5c-0.1-0.9,0.5-1.9,1.5-2.1c0.9-0.3,1.8,0.2,1.9,1.1l2.6,21.6l26,6.3
				c0.8,0.2,1.2,1.1,0.9,2c-0.4,0.9-1.4,1.5-2.2,1.3L582.4,174z"/>
		</g>
	</g>
	<g>
		<g>
			<path class="st9" d="M3.3,492.5c-1.8,0-3.3,1.7-3.3,3.8c0,2.1,1.5,3.8,3.7,1.3h675.5c0.9,0,1.6-1.1,1.6-2.5l0,0
				c0-1.4-0.7-2.6-1.6-2.6H3.3z"/>
		</g>
	</g>
	<polygon class="st1" points="134.5,66.3 138,73.3 146,73 149.4,81.2 157.9,78.3 162.2,87.3 170.3,85.6 175.8,93.6 172.8,95.7 
		168.6,89.7 160.1,91.5 156,82.8 147.4,85.8 143.6,76.8 135.8,77.1 132.5,70.6 127.4,71.8 126.5,68.2 	"/>
	<polygon class="st0" points="563.4,245.7 570.7,248.6 576.6,243.2 584.5,247.1 588.9,239.3 598.1,243.4 603.1,236.7 612.5,239.1 
		611.6,242.7 604.6,240.9 599.3,247.9 590.5,244 586,251.9 577.2,247.6 571.5,252.9 564.7,250.2 561.7,254.5 558.7,252.4 	"/>
</g>
<g>
</g>
<g>
</g>
<g>
</g>
<g>
</g>
<g>
</g>
<g>
</g>
</svg>
