<?xml version="1.0" encoding="utf-8"?>
<!-- Generator: Adobe Illustrator 25.2.1, SVG Export Plug-In . SVG Version: 6.00 Build 0)  -->
<svg version="1.1" id="Camada_1" xmlns="http://www.w3.org/2000/svg" xmlns:xlink="http://www.w3.org/1999/xlink" x="0px" y="0px"
	 viewBox="0 0 55.3 63.7" style="enable-background:new 0 0 55.3 63.7;" xml:space="preserve">
<style type="text/css">
	.st0{fill:#F39306;}
	.st1{fill:#363636;}
	.st2{clip-path:url(#SVGID_2_);fill:#E29229;}
	.st3{fill:#E29229;}
	.st4{clip-path:url(#SVGID_4_);fill:#E29229;}
</style>
<g>
	<path class="st0" d="M4.3,50.4c-0.8,0.4-0.8,1.5-0.6,2.3c0.3,0.9,1.7,1,2.1,0.1c0.2-0.6,0.3-1.4,0-2C5.5,50.3,4.8,50.2,4.3,50.4
		 M2.2,50.1c0.7-1.1,2.2-1.3,3.3-0.9c0.2,0.2,0.4,0.4,0.5,0.6c0-0.2,0-0.5,0-0.7c0.6,0,1.3,0,1.9,0c0,1.8,0,3.5,0,5.3
		c0,0.9-0.4,1.8-1.2,2.3c-1.1,0.6-2.4,0.6-3.5,0.2c0.2,0.2,0.4,0.5,0.3,0.9c-0.1,0.5-0.9,0.7-1.3,0.4c-0.4-0.3-0.4-0.9-0.1-1.2
		c0.2-0.2,0.6-0.1,0.9-0.2c-0.8-0.2-1.1-1-1.3-1.7c0.6,0,1.2,0,1.8,0c0.3,0.8,1.3,0.8,2,0.5c0.6-0.4,0.4-1.2,0.5-1.7
		c-0.8,1.5-3.2,1.1-4-0.2C1.5,52.6,1.6,51.1,2.2,50.1"/>
	<path class="st0" d="M11.8,49.2C12.1,49,12.6,49,13,49c0,0.5,0,1.1,0,1.6c-0.6,0-1.4,0.1-1.7,0.8c-0.4,1.1-0.2,2.3-0.2,3.5H9.1
		c0-1.9,0-3.8,0-5.7c0.6,0,1.3,0,1.9,0c0,0.4,0,0.8,0,1.1C11.2,49.9,11.4,49.4,11.8,49.2"/>
	<path class="st0" d="M22.9,50.4c-0.8,0.5-0.7,1.6-0.5,2.4c0.2,0.8,1.4,1.1,1.9,0.4c0.5-0.7,0.5-1.6,0.2-2.3
		C24.2,50.3,23.4,50.1,22.9,50.4 M22.2,50c0.8-1.5,3.2-1.2,3.9,0.2c0.6,1.2,0.6,2.8-0.2,3.9c-0.7,0.9-2.1,1.2-3.1,0.8
		c-0.3-0.1-0.4-0.4-0.6-0.7c0,0.9,0,1.9,0,2.8h-1.9c0-2.6,0-5.2,0-7.7c0.6,0,1.3,0,1.9,0C22.2,49.3,22.2,49.8,22.2,50"/>
	<path class="st0" d="M29.8,50.4c-0.9,0.5-0.8,1.7-0.6,2.5c0.1,0.7,1.2,1.1,1.7,0.5c0.5-0.7,0.4-1.6,0.2-2.3
		C31,50.5,30.3,50.1,29.8,50.4 M29.2,49.1c1.2-0.3,2.7,0,3.4,1.1c0.9,1.3,0.7,3.5-0.8,4.4c-1.2,0.6-2.8,0.6-3.8-0.3
		C26.5,52.8,27,49.6,29.2,49.1"/>
	<path class="st0" d="M13.4,49.1c0.6,0,1.3,0,1.9,0c0.1,1.3-0.1,2.7,0.1,3.9c0.2,0.9,1.6,0.7,1.7-0.2c0.2-1.2,0-2.5,0.1-3.8
		c0.6,0,1.3,0,1.9,0c0,1.9,0,3.8,0,5.7c-0.6,0-1.3,0-1.9,0c0-0.3,0-0.6,0-0.9c-0.6,1.6-3.5,1.4-3.8-0.4
		C13.4,52.1,13.5,50.6,13.4,49.1"/>
	<path class="st0" d="M36.7,59.7c-0.7,0.4-0.7,1.4-0.5,2.1c0.2,0.7,1.1,0.9,1.6,0.3c0.4-0.5,0.3-1.1,0.2-1.7
		C38,59.8,37.3,59.5,36.7,59.7 M38.1,56.9h1.6v6.5c-0.5,0-1.1,0-1.6,0c0-0.2,0-0.4,0-0.7c-0.7,1.3-2.9,0.9-3.4-0.4
		c-0.5-1.2-0.3-2.8,0.8-3.5c0.7-0.4,1.5-0.3,2.2-0.2c0.1,0.2,0.2,0.4,0.3,0.6C38.1,58.5,38.1,57.7,38.1,56.9"/>
	<path class="st0" d="M10.5,57.5h1.6c0,0.4,0,0.8,0,1.2c0.3,0,0.7,0,1,0v1c-0.3,0-0.7,0-1,0c0,0.8-0.1,1.7,0.1,2.5
		c0.2,0.3,0.6,0.2,0.9,0.3c0,0.3,0,0.6,0,0.9c-0.8,0-1.8,0.3-2.4-0.5c-0.3-1.1-0.1-2.2-0.2-3.3c-0.3,0-0.5,0-0.8,0c0-0.3,0-0.7,0-1
		c0.3,0,0.5,0,0.8,0C10.5,58.3,10.5,57.9,10.5,57.5"/>
	<path class="st0" d="M6.1,59.4c0.6-1.3,3-1.1,3.2,0.4c0.1,1.2,0,2.4,0.1,3.6c-0.5,0-1.1,0-1.6,0c0-1.1,0.1-2.1,0-3.2
		c0-0.4-0.5-0.7-0.9-0.6c-0.4,0.1-0.6,0.6-0.6,0.9c-0.1,0.9,0,1.9,0,2.8c-0.5,0-1.1,0-1.6,0c0-1.6,0-3.2,0-4.7h1.6
		C6.1,58.9,6.1,59.2,6.1,59.4"/>
	<path class="st0" d="M15.3,59.6c0.2-0.7,0.9-1.1,1.6-1.1c0,0.4,0,0.9,0,1.3c-0.5,0.1-1.2,0.1-1.4,0.6c-0.4,0.9-0.2,2-0.2,2.9h-1.6
		c0-1.6,0-3.2,0-4.7c0.5,0,1.1,0,1.6,0C15.3,59,15.3,59.3,15.3,59.6"/>
	<path class="st0" d="M18.9,61.9c-0.2,0.5,0.5,0.7,0.8,0.5c0.4-0.2,0.3-0.6,0.4-1C19.7,61.5,19,61.4,18.9,61.9 M17.3,60.3
		c0.1-0.8,0.7-1.5,1.6-1.7c1-0.2,2.4,0,2.7,1.1c0.2,1.2,0,2.5,0.2,3.7c-0.5,0-1,0-1.6,0c0-0.2,0-0.4,0-0.6c-0.5,1.2-2.7,1-2.9-0.3
		c-0.1-0.5,0.1-1.1,0.5-1.4c0.7-0.5,1.5-0.5,2.3-0.5c-0.1-0.3-0.1-0.8-0.5-0.8c-0.4-0.1-0.6,0.3-0.8,0.6
		C18.3,60.3,17.8,60.3,17.3,60.3"/>
	<path class="st0" d="M25.5,60.5c0.6,0,1.1,0,1.7,0c-0.2-0.4-0.3-0.9-0.8-0.8C25.9,59.6,25.7,60.1,25.5,60.5 M25,59
		c1-0.7,2.6-0.6,3.3,0.4c0.5,0.6,0.5,1.3,0.5,2c-1.1,0-2.3,0-3.4,0c0.2,0.4,0.3,0.9,0.8,1c0.5,0.1,0.8-0.2,1-0.6c0.5,0,1,0,1.5,0
		c-0.5,1.8-3,2.2-4.2,0.9C23.6,61.7,23.7,59.8,25,59"/>
	<path class="st0" d="M30.9,61.9c-0.1,0.5,0.6,0.7,0.9,0.4c0.3-0.2,0.3-0.6,0.4-1C31.8,61.5,31.1,61.4,30.9,61.9 M29.4,60.3
		c0.1-0.9,0.8-1.6,1.7-1.7c0.9-0.2,2.3,0,2.6,1.1c0.2,1.2,0,2.5,0.2,3.7c-0.5,0-1,0-1.5,0c0-0.2-0.1-0.5-0.1-0.6
		c-0.4,0.8-1.5,0.9-2.2,0.5c-0.8-0.4-1-1.6-0.3-2.2c0.7-0.6,1.6-0.6,2.5-0.7c-0.1-0.3-0.1-0.9-0.6-0.8c-0.4-0.1-0.5,0.4-0.7,0.6
		C30.4,60.3,29.9,60.3,29.4,60.3"/>
	<path class="st0" d="M1.9,58.7c0.5,0,1.1,0,1.6,0c0,1.6,0,3.2,0,4.7c-0.5,0-1.1,0-1.6,0C1.9,61.8,1.9,60.3,1.9,58.7"/>
	<path class="st1" d="M16.5,0.7c3.5-0.7,7.1-0.8,10.7-0.5c3.7,0.4,7.3,1.2,10.7,2.6C36.6,6,35.3,9.1,34,12.3
		c-1.9-0.9-3.9-1.6-5.9-1.9c-2.7-0.5-5.4-0.7-8.1,0c-2.6,0.7-4.9,2.6-6.1,5.1c-1.5,3-1.7,6.5-1.4,9.8c0.2,3,1.1,6.2,3.4,8.4
		c2,1.8,4.8,2.5,7.4,2.3c1.4-0.1,2.8-0.2,4.1-0.5c0-2.3,0-4.6,0-7c-2.7,0-5.3,0-8,0c0-3.1,0-6.2,0-9.3h19.2v24
		c-4.1,1.4-8.3,2.1-12.6,2.5c-3.5,0.2-7,0.4-10.4-0.4c-3-0.6-5.9-1.8-8.3-3.7c-2.7-2.1-4.7-5.1-5.9-8.3c-1.1-3-1.5-6.1-1.6-9.2
		C-0.2,18.6,0.8,13,3.9,8.6C6.8,4.4,11.5,1.7,16.5,0.7"/>
	<path class="st1" d="M41.2,19.1h12.1c0,14.8,0,29.7,0,44.5c-4,0-8.1,0-12.1,0C41.2,48.8,41.2,34,41.2,19.1"/>
	<g>
		<defs>
			<path id="SVGID_1_" d="M40.8,13.8l-0.1-0.2c0-0.1-0.1-0.1-0.1-0.2c0.1,0.1,0.1,0.1,0.2,0.2C40.7,13.6,40.8,13.7,40.8,13.8"/>
		</defs>
		<clipPath id="SVGID_2_">
			<use xlink:href="#SVGID_1_"  style="overflow:visible;"/>
		</clipPath>
		<rect x="40.5" y="13.4" class="st2" width="0.2" height="0.4"/>
	</g>
	<path class="st3" d="M41.1,14.3C41.1,14.3,41.1,14.2,41.1,14.3c-0.1-0.1-0.1-0.1-0.1-0.1C41.1,14.2,41.1,14.2,41.1,14.3"/>
	<path class="st3" d="M41.6,14.8c-0.1-0.1-0.2-0.2-0.3-0.3C41.4,14.6,41.5,14.7,41.6,14.8"/>
	<path class="st3" d="M41.3,14.5c-0.1-0.1-0.1-0.1-0.2-0.2l0,0c0,0,0,0,0.1,0c0,0,0,0,0-0.1C41.2,14.3,41.3,14.4,41.3,14.5"/>
	<path class="st3" d="M41.2,14.2c0-0.1,0-0.1,0-0.2C41.2,14.1,41.2,14.2,41.2,14.2 M41.2,14.1C41.2,14.1,41.2,14.1,41.2,14.1
		C41.2,14.1,41.2,14.1,41.2,14.1"/>
	<path class="st3" d="M43.9,15.6c0,0-0.1,0-0.2,0c-0.1,0-0.2-0.1-0.4-0.1c-0.1,0-0.2-0.1-0.3-0.1c-0.1,0-0.1-0.1-0.2-0.2
		c0,0-0.1-0.1-0.1-0.1c0,0-0.1-0.1-0.1-0.1c-0.3-0.2-0.5-0.4-0.8-0.6c-0.1-0.1,0-0.2-0.1-0.2c-0.1-0.1-0.2-0.2-0.3-0.2
		c-0.1-0.1-0.2-0.1-0.3-0.2c-0.2-0.1-0.3-0.3-0.4-0.4c0-0.1-0.1-0.1-0.1-0.2c0-0.1,0-0.1-0.1-0.2c0-0.1,0-0.1-0.1-0.2
		c0-0.1,0-0.1,0-0.2c0.1,0.2,0.1,0.3,0.2,0.5c0.2,0.3,0.4,0.5,0.6,0.7c0.1,0.1,0.2,0.2,0.3,0.3c0.1,0.1,0.1,0.1,0.2,0.2
		c0.1,0,0.1,0.1,0.2,0.1c0.1,0.1,0.1,0.1,0.2,0.2c0.1,0.1,0.1,0.1,0.2,0.2c0.1,0.1,0.1,0.1,0.2,0.2c0.1,0,0.1,0.1,0.2,0.1
		c0.1,0,0.1,0.1,0.2,0.1c0.1,0,0.1,0.1,0.2,0.1c0.1,0,0.2,0.1,0.2,0.1c0,0,0.1,0,0.1,0.1c0,0,0.1,0,0.1,0.1
		C44,15.6,44,15.6,43.9,15.6"/>
	<path class="st3" d="M39.9,11.3c-0.1-0.4-0.3-0.8-0.2-1.1c0,0-0.1-0.2-0.1-0.2c0-0.1,0.1-0.1,0.1-0.2c0,0.4,0.1,0.8,0.1,1.3
		c0,0,0-0.1,0-0.1c0,0,0,0,0,0c0,0,0,0.1,0.1,0.2C39.9,11.2,39.9,11.2,39.9,11.3"/>
	<g>
		<defs>
			<polyline id="SVGID_3_" points="38.7,17.2 55.3,17.2 55.3,1.2 38.7,1.2 38.7,17.2 			"/>
		</defs>
		<clipPath id="SVGID_4_">
			<use xlink:href="#SVGID_3_"  style="overflow:visible;"/>
		</clipPath>
		<path class="st4" d="M39.8,9.8c0-0.1,0-0.2,0-0.3l0,0C39.8,9.6,39.8,9.7,39.8,9.8L39.8,9.8"/>
		<path class="st4" d="M47.5,17.2c-0.1,0-0.3,0-0.4,0c0,0,0,0,0.1,0c0,0,0,0,0.1,0l0.2,0l0.2,0c0,0,0,0,0,0c0,0,0,0,0.1,0
			c0,0,0,0,0.1,0c0,0,0.1,0,0.1,0l0.2,0c-0.1,0-0.1,0-0.2,0c0,0,0,0,0,0C47.6,17.1,47.6,17.1,47.5,17.2c0-0.1-0.1-0.1-0.1,0
			c-0.1,0-0.2,0-0.2-0.1c0.1,0,0.1,0.1,0,0.1l0,0c-0.1,0-0.1,0-0.2,0c-0.1,0-0.1,0-0.2,0c-0.1,0-0.1,0-0.2,0c-0.1,0-0.2-0.1-0.2-0.1
			c0,0-0.1,0-0.1,0c-0.1,0-0.1,0-0.2,0c-1-0.2-2-0.6-2.9-1.2c0,0,0,0-0.1-0.1c0,0-0.1-0.1-0.1-0.2c-0.1-0.1-0.2-0.3-0.3-0.4
			c0.1,0,0.1,0.1,0.2,0.1c0,0.1,0,0.1,0,0.2c0.1,0,0.2,0.1,0.2,0.1c0.2,0.3,0.6,0.5,1,0.6c0-0.1-0.1-0.1-0.1-0.2
			c-0.1,0-0.1-0.1-0.2-0.1c0,0,0,0,0,0c0,0,0,0,0,0.1c-0.3-0.3-0.6-0.5-1-0.7l0,0c0.3,0.2,0.6,0.4,1,0.5c0.3,0.1,0.7,0.2,1,0.3
			c0,0.1,0,0.2,0.1,0.2l0,0c0-0.1,0-0.1-0.1-0.2c0.1,0,0.2,0,0.3,0c0.1,0,0.3,0.1,0.4,0.1c0.1,0,0.2,0.1,0.3,0.1
			c0.1,0,0.2,0.1,0.3,0.1c0.1,0,0.1,0,0.2,0c0,0,0,0,0,0c0.1,0,0.2,0,0.3,0c0.1,0,0.2,0,0.3-0.1c0.1,0,0.2,0,0.3,0c0,0,0,0,0,0
			c0,0,0,0,0.1,0.1c0,0,0,0.1,0.1,0.1c0,0,0,0,0,0c0.2,0,0.3-0.1,0.5-0.1c0.1,0,0.2,0,0.2-0.1c0.1,0,0.2,0,0.2,0c0,0,0.1,0,0.1,0
			c0.1,0,0.1,0,0.2,0c0.1,0,0.1,0,0.2,0c0,0,0.1,0,0.1,0c0.1,0,0.2-0.1,0.3-0.2c0.1-0.1,0.2-0.1,0.3-0.2c0.1-0.1,0.2-0.2,0.1-0.2
			c0,0-0.1,0-0.1,0c-0.7,0.3-1.2,0.4-1.9,0.5c0.3-0.1,0.6-0.1,1-0.2c0.3-0.1,0.7-0.2,1-0.3c0.1,0,0.1,0,0.2-0.1c0.1,0,0.1,0,0.2-0.1
			c0.1,0,0.1,0,0.2-0.1c0.1,0,0.1-0.1,0.2-0.1c0,0,0.1,0,0.1,0c0,0,0.1,0,0.1-0.1c0.1,0,0.1-0.1,0.2-0.1c0.1-0.1,0.3-0.2,0.4-0.3
			c0.3-0.3,0.6-0.6,0.8-0.9c0.3-0.3,0.5-0.7,0.8-1.1c0.5-0.7,0.8-1.6,0.9-2.4c0.1-0.8,0.1-1.7-0.1-2.5c-0.2-0.8-0.5-1.5-1-2.2
			c-0.4-0.7-1-1.3-1.7-1.8C51,4.1,50.9,4,50.8,4c0,0-0.1,0-0.1-0.1c0,0-0.1,0-0.1-0.1c-0.1,0-0.1-0.1-0.2-0.1
			c-0.1,0-0.1-0.1-0.2-0.1c-0.1,0-0.1-0.1-0.2-0.1c-0.1,0-0.1-0.1-0.2-0.1c-0.1-0.1-0.3-0.1-0.4-0.2c-0.1,0-0.1-0.1-0.2-0.1
			c-0.1,0-0.1,0-0.2-0.1l-0.1,0l-0.1,0c-0.1,0-0.1,0-0.2-0.1c-0.3-0.1-0.6-0.1-0.8-0.1c-0.1,0-0.2,0-0.3,0c-0.2,0-0.4,0-0.6,0
			c-0.1,0-0.3,0-0.4,0.1c-0.1,0-0.1,0-0.2,0c-0.1,0-0.1,0-0.2,0c-0.5,0.1-1.1,0.3-1.6,0.5c-0.5,0.2-1,0.4-1.4,0.5
			c-0.3,0.1-0.7,0.3-1,0.6c-0.3,0.3-0.6,0.6-0.7,0.8c-0.2,0.3-0.2,0.5-0.2,0.5c0,0,0,0,0,0c0,0,0.1,0,0.2-0.2
			c-0.3,0.3-0.5,0.6-0.7,0.9c-0.2,0.3-0.3,0.6-0.4,0.9c0,0.1-0.1,0.3-0.1,0.4c0,0.1-0.1,0.2-0.1,0.4c0,0.1-0.1,0.2-0.2,0.4
			c0,0.1-0.1,0.1-0.1,0.2c0,0.1-0.1,0.1-0.1,0.2c0,0-0.2,0.3-0.5,0.3c0,0,0,0,0,0c-0.1,0-0.2-0.1-0.3-0.2c-0.1-0.1-0.1-0.2-0.1-0.4
			c0-0.1,0-0.2,0-0.3c0-0.1,0-0.2,0-0.3C38.8,7.9,38.9,7.4,39,7c0.1-0.5,0.3-1,0.6-1.5c0.3-0.5,0.6-1,0.9-1.4c0.3-0.4,0.7-0.7,1-1
			c0.8-0.6,1.7-1.1,2.6-1.4c0.4-0.2,0.9-0.3,1.3-0.4c0.1,0,0.2,0,0.3-0.1l0.3-0.1l0.3,0c0.1,0,0.2,0,0.3,0c0.1,0,0.3,0,0.4,0h0.1
			c0.3,0,0.5,0,0.8,0c0.5,0,0.9,0.1,1.4,0.3c0.9,0.3,1.7,0.7,2.5,1.3c1.5,1.2,2.6,2.8,3.1,4.8c0.4,1.8,0.2,3.5-0.4,5.1
			c-0.3,0.8-0.8,1.5-1.4,2.1c-0.3,0.3-0.6,0.6-0.9,0.9c-0.3,0.3-0.7,0.5-1.1,0.7c-0.5,0.3-0.9,0.5-1.4,0.6c0.2-0.1,0.3-0.2,0.4-0.3
			c0,0,0,0,0.1,0c0,0,0.1,0,0.1,0c0-0.1,0.1-0.1,0.2-0.2c0.2,0,0.5-0.1,0.8-0.3c-0.3,0.1-0.6,0.2-0.8,0.3l0,0
			c-0.1,0.1-0.2,0.1-0.2,0.2c0,0-0.1,0-0.1,0c0,0-0.1,0-0.1,0c-0.2,0.1-0.3,0.2-0.4,0.3l-0.2,0.1c-0.1,0-0.1,0-0.2,0l-0.2,0
			c-0.1,0-0.1,0-0.2,0c0,0,0,0,0,0c0,0,0,0,0,0c0,0,0,0,0,0c-0.1,0-0.1,0-0.2,0c0,0-0.1,0-0.1,0c-0.1,0-0.3,0-0.5,0.1
			c-0.1,0-0.1,0-0.2,0l-0.3,0c0,0-0.1,0-0.1,0c0,0,0,0-0.1,0c0,0,0,0-0.1,0C47.5,17.2,47.5,17.2,47.5,17.2
			C47.5,17.2,47.5,17.2,47.5,17.2 M46.9,17c0,0,0.1,0,0.1,0.1C47,17,47,17,46.9,17 M49.9,16.6L49.9,16.6
			C49.9,16.6,49.9,16.6,49.9,16.6C49.9,16.6,49.9,16.6,49.9,16.6 M49.8,16.6C49.8,16.6,49.8,16.6,49.8,16.6
			C49.8,16.6,49.8,16.6,49.8,16.6 M49.9,16.6C49.9,16.6,49.9,16.6,49.9,16.6C49.9,16.6,49.9,16.6,49.9,16.6 M49.8,16.6
			C49.8,16.6,49.8,16.6,49.8,16.6C49.8,16.6,49.8,16.6,49.8,16.6 M50.1,16.5C50.1,16.5,50.1,16.5,50.1,16.5
			C50.1,16.5,50.1,16.5,50.1,16.5 M50.3,16.4C50.3,16.4,50.3,16.4,50.3,16.4C50.3,16.4,50.3,16.4,50.3,16.4 M50.3,16.4
			C50.3,16.4,50.3,16.4,50.3,16.4C50.3,16.4,50.3,16.4,50.3,16.4L50.3,16.4 M44.9,16.4L44.9,16.4L44.9,16.4 M47.1,17.1
			c0.1,0,0.1,0,0.2,0c0,0,0,0,0,0c0,0,0,0,0,0C47.3,17.1,47.2,17.1,47.1,17.1 M43.8,16.1C43.8,16.1,43.8,16.1,43.8,16.1
			C43.8,16.1,43.8,16.1,43.8,16.1 M41.5,5.8c0,0,0.1-0.1,0.1-0.1C41.5,5.7,41.5,5.8,41.5,5.8"/>
	</g>
	<path class="st3" d="M47.7,17.1C47.7,17.1,47.7,17.1,47.7,17.1c-0.1,0-0.1,0-0.1,0c0,0,0,0,0,0l-0.2,0l-0.2,0l0,0c0,0,0,0,0,0
		c0.1,0,0.2,0,0.2,0c0,0,0,0,0,0c0.1,0,0.1,0,0.2,0C47.6,17.1,47.6,17.1,47.7,17.1C47.7,17.1,47.7,17.1,47.7,17.1
		c0.1-0.1,0.2,0,0.3,0L47.7,17.1C47.7,17.1,47.7,17.1,47.7,17.1"/>
</g>
<g>
</g>
<g>
</g>
<g>
</g>
<g>
</g>
<g>
</g>
<g>
</g>
<g>
</g>
<g>
</g>
<g>
</g>
<g>
</g>
<g>
</g>
<g>
</g>
<g>
</g>
<g>
</g>
<g>
</g>
</svg>
