<?xml version="1.0" encoding="utf-8"?>
<!-- Generator: Adobe Illustrator 25.2.1, SVG Export Plug-In . SVG Version: 6.00 Build 0)  -->
<svg version="1.1" id="Camada_1" xmlns="http://www.w3.org/2000/svg" xmlns:xlink="http://www.w3.org/1999/xlink" x="0px" y="0px"
	 viewBox="0 0 274.1 70.9" style="enable-background:new 0 0 274.1 70.9;" xml:space="preserve">
<style type="text/css">
	.st0{fill:#FFFFFF;}
	.st1{fill-rule:evenodd;clip-rule:evenodd;fill:#FFFFFF;}
</style>
<g>
	<line class="st0" x1="119.2" y1="18.8" x2="119.2" y2="16.3"/>
	<g>
		<path class="st0" d="M91,61.3c-1.6,0-3,0.9-3,2.4c0,1.5,1.1,2.1,2.8,2.5c1.1,0.3,1.5,0.6,1.5,1.2c0,0.6-0.5,0.9-1.2,0.9
			c-0.7,0-1.4-0.4-1.5-1.2h-1.8c0.1,1.7,1.4,2.6,3.4,2.6c1.6,0,3.1-0.8,3.1-2.4c0-1.3-0.8-2.1-2.5-2.5c-1.3-0.3-1.7-0.6-1.7-1.2
			c0-0.6,0.4-0.9,1-0.9c0.8,0,1.2,0.5,1.3,1.2H94C93.9,62.4,93,61.3,91,61.3z"/>
		<path class="st0" d="M104.7,61.3c-2.2,0-3.9,1.5-3.9,4.2c0,2.6,1.6,4.1,3.8,4.1c2,0,3.4-1.1,3.6-2.9l0-0.1h-1.8l0,0.1
			c-0.2,1-0.8,1.5-1.7,1.5c-1.1,0-2-0.9-2-2.9c0-1.8,0.8-2.8,2-2.8c1,0,1.5,0.5,1.7,1.4l0,0.1h1.8l0-0.1
			C108.1,62.5,107,61.3,104.7,61.3z"/>
		<path class="st0" d="M119.3,68.3c-1.3,0-2.2-1-2.2-2.8c0-1.8,0.8-2.8,2.2-2.8c1.3,0,2.1,1,2.1,2.8
			C121.5,67.3,120.7,68.3,119.3,68.3z M119.3,61.3c-2.5,0-4,1.6-4,4.2c0,2.5,1.6,4.2,4,4.2c2.5,0,4-1.6,4-4.2
			C123.4,62.9,121.8,61.3,119.3,61.3z"/>
		<polygon class="st0" points="136.6,68 132.5,68 132.5,61.4 130.6,61.4 130.6,69.5 136.6,69.5 		"/>
		<path class="st0" d="M146.5,63l0.9,2.8h-1.7L146.5,63z M147.8,67.2l0.7,2.3h2l-2.9-8.1h-2.3l-2.9,8.1h1.9l0.7-2.3H147.8z"/>
		<path class="st0" d="M167,68c-0.3,0-0.5,0-0.8,0h-0.8v-5.2h0.8c0.3,0,0.5,0,0.8,0c1.1,0.1,1.9,1,1.9,2.5
			C168.9,66.9,168.1,67.9,167,68z M167.4,61.5c-0.4,0-0.6,0-1,0h-2.9v8.1h2.9c0.4,0,0.6,0,1,0c1.9-0.2,3.4-1.6,3.4-4.1
			S169.3,61.7,167.4,61.5z"/>
		<polygon class="st0" points="183.9,68.1 179.7,68.1 179.7,66.2 183.5,66.2 183.5,64.7 179.7,64.7 179.7,62.9 183.8,62.9 
			183.8,61.4 177.9,61.4 177.9,69.5 183.9,69.5 		"/>
		<path class="st0" d="M199.5,61.3c-1.6,0-3,0.9-3,2.4c0,1.5,1.1,2.1,2.8,2.5c1.1,0.3,1.5,0.6,1.5,1.2c0,0.6-0.5,0.9-1.2,0.9
			c-0.7,0-1.4-0.4-1.5-1.2h-1.8c0.1,1.7,1.4,2.6,3.4,2.6c1.6,0,3.1-0.8,3.1-2.4c0-1.3-0.8-2.1-2.5-2.5c-1.3-0.3-1.7-0.6-1.7-1.2
			c0-0.6,0.4-0.9,1-0.9c0.8,0,1.2,0.5,1.3,1.2h1.8C202.4,62.4,201.5,61.3,199.5,61.3z"/>
		<path class="st0" d="M212.7,63l0.9,2.8h-1.7L212.7,63z M214,67.2l0.7,2.3h2l-2.9-8.1h-2.3l-2.9,8.1h1.9l0.7-2.3H214z"/>
		<path class="st0" d="M230.1,61.4h-1.8v4.9c0,0.2,0,0.4,0,0.5c-0.1,0.9-0.6,1.4-1.6,1.4c-1,0-1.5-0.5-1.6-1.4c0-0.2,0-0.3,0-0.5
			v-4.9h-1.8v4.7c0,0.4,0,0.6,0,1c0.1,1.4,1,2.5,3.4,2.5c2.4,0,3.3-1.2,3.4-2.5c0-0.4,0-0.7,0-1V61.4z M227.1,60.9l1.6-1.4H227
			l-1,1.4H227.1z"/>
		<path class="st0" d="M241.1,68c-0.3,0-0.5,0-0.8,0h-0.8v-5.2h0.8c0.3,0,0.6,0,0.8,0c1.1,0.1,1.9,1,1.9,2.5
			C242.9,66.9,242.2,67.9,241.1,68z M241.5,61.5c-0.4,0-0.6,0-1,0h-2.9v8.1h2.9c0.4,0,0.6,0,1,0c1.9-0.2,3.4-1.6,3.4-4.1
			S243.4,61.7,241.5,61.5z"/>
		<polygon class="st0" points="258,68.1 253.8,68.1 253.8,66.2 257.6,66.2 257.6,64.7 253.8,64.7 253.8,62.9 257.9,62.9 257.9,61.4 
			252,61.4 252,69.5 258,69.5 		"/>
	</g>
	<g>
		<rect x="71.5" y="49.9" class="st0" width="202.6" height="1.2"/>
		<path class="st0" d="M112,3.5L94.7,38.6c-0.3,0.5-0.7,1-1.2,1.3c-0.5,0.3-1.1,0.5-1.8,0.5c-0.6,0-1.2-0.2-1.7-0.5
			c-0.5-0.3-0.9-0.8-1.2-1.3L71.5,3.5h7.4l12.8,26.2l12.9-26.2H112z"/>
		<path class="st0" d="M148.6,39.9h-23.8c-0.9,0-1.9-0.2-3-0.5c-1.1-0.3-2.1-0.9-3-1.6c-0.9-0.7-1.7-1.7-2.3-2.9
			c-0.6-1.2-0.9-2.6-0.9-4.3V6.8c0-0.5,0.1-0.9,0.3-1.3c0.2-0.4,0.4-0.8,0.7-1.1c0.3-0.3,0.6-0.5,1.1-0.7c0.4-0.2,0.8-0.3,1.3-0.3
			h29.8v6.6h-26.5v20.6c0,0.9,0.2,1.5,0.7,2c0.5,0.5,1.1,0.7,2,0.7h23.8V39.9z M145.7,25h-20.9v-6.7h20.9V25z"/>
		<path class="st0" d="M191.4,37.1c0,0.5-0.1,0.9-0.3,1.3c-0.2,0.4-0.4,0.8-0.7,1.1c-0.3,0.3-0.7,0.5-1.1,0.7
			c-0.4,0.2-0.8,0.3-1.3,0.3c-0.4,0-0.8-0.1-1.2-0.2c-0.4-0.2-0.8-0.4-1.1-0.7l-24.1-25.2v25.7H155V6.3c0-0.7,0.2-1.3,0.6-1.8
			c0.4-0.6,0.9-1,1.5-1.2c0.6-0.2,1.3-0.3,1.9-0.2c0.7,0.1,1.2,0.4,1.7,0.9l24.1,25.2V3.5h6.6V37.1z"/>
		<path class="st1" d="M228.2,24.2H209v-4.9h19.1V24.2z M208.2,25.9H229c0,0,0.1,0,0.1,0c0,0,0.1,0,0.1,0c0,0,0.1,0,0.1,0
			c0,0,0.1,0,0.1,0c0,0,0.1,0,0.1,0c0,0,0,0,0.1,0c0,0,0,0,0.1,0c0,0,0,0,0.1-0.1c0,0,0,0,0.1-0.1c0,0,0,0,0-0.1c0,0,0,0,0-0.1
			c0,0,0-0.1,0-0.1c0,0,0,0,0-0.1c0,0,0-0.1,0-0.1c0,0,0-0.1,0-0.1c0,0,0-0.1,0-0.1v-6.7c0,0,0-0.1,0-0.1c0,0,0-0.1,0-0.1
			c0,0,0-0.1,0-0.1c0,0,0-0.1,0-0.1c0,0,0-0.1,0-0.1c0,0,0,0,0-0.1c0,0,0,0,0-0.1c0,0,0,0-0.1-0.1c0,0,0,0-0.1-0.1c0,0,0,0-0.1,0
			c0,0,0,0-0.1,0c0,0,0,0-0.1,0c0,0-0.1,0-0.1,0c0,0-0.1,0-0.1,0c0,0-0.1,0-0.1,0c0,0-0.1,0-0.1,0h-20.9c0,0-0.1,0-0.1,0
			c0,0-0.1,0-0.1,0c0,0-0.1,0-0.1,0c0,0-0.1,0-0.1,0c0,0-0.1,0-0.1,0c0,0,0,0-0.1,0c0,0,0,0-0.1,0c0,0,0,0-0.1,0.1c0,0,0,0-0.1,0.1
			c0,0,0,0,0,0.1c0,0,0,0,0,0.1c0,0,0,0,0,0.1c0,0,0,0.1,0,0.1c0,0,0,0.1,0,0.1c0,0,0,0.1,0,0.1c0,0,0,0.1,0,0.1V25c0,0,0,0.1,0,0.1
			c0,0,0,0.1,0,0.1c0,0,0,0.1,0,0.1c0,0,0,0.1,0,0.1c0,0,0,0.1,0,0.1c0,0,0,0,0,0.1c0,0,0,0,0,0.1c0,0,0,0,0.1,0.1c0,0,0,0,0.1,0.1
			c0,0,0,0,0.1,0c0,0,0,0,0.1,0c0,0,0,0,0.1,0c0,0,0.1,0,0.1,0c0,0,0.1,0,0.1,0C208,25.9,208.1,25.9,208.2,25.9
			C208.1,25.9,208.1,25.9,208.2,25.9z M231.1,39.1h-23c-0.8,0-1.7-0.2-2.7-0.4c-1-0.3-1.9-0.8-2.7-1.4c-0.8-0.7-1.5-1.5-2.1-2.6
			c-0.6-1.1-0.8-2.4-0.8-3.9V6.8c0-0.3,0.1-0.7,0.2-1c0.1-0.3,0.3-0.6,0.5-0.8c0.2-0.2,0.5-0.4,0.8-0.5c0.3-0.1,0.6-0.2,1-0.2h28.9
			v4.9h-25.6c0,0-0.1,0-0.1,0c0,0-0.1,0-0.1,0c0,0-0.1,0-0.1,0c0,0-0.1,0-0.1,0c0,0-0.1,0-0.1,0c0,0,0,0-0.1,0c0,0,0,0-0.1,0
			c0,0,0,0-0.1,0.1c0,0,0,0-0.1,0.1c0,0,0,0,0,0.1c0,0,0,0,0,0.1c0,0,0,0,0,0.1c0,0,0,0.1,0,0.1c0,0,0,0.1,0,0.1c0,0,0,0.1,0,0.1
			c0,0,0,0.1,0,0.1v20.6c0,1.1,0.3,2,0.9,2.6c0.6,0.6,1.5,0.9,2.6,0.9h22.9V39.1z M208.2,40.8H232c0,0,0.1,0,0.1,0c0,0,0.1,0,0.1,0
			c0,0,0.1,0,0.1,0c0,0,0.1,0,0.1,0c0,0,0,0,0.1,0c0,0,0,0,0.1,0c0,0,0,0,0.1,0c0,0,0,0,0.1-0.1c0,0,0,0,0.1-0.1c0,0,0,0,0-0.1
			c0,0,0,0,0-0.1c0,0,0-0.1,0-0.1c0,0,0,0,0-0.1c0,0,0-0.1,0-0.1c0,0,0-0.1,0-0.1c0,0,0-0.1,0-0.1v-6.6c0,0,0-0.1,0-0.1
			c0,0,0-0.1,0-0.1c0,0,0-0.1,0-0.1c0,0,0-0.1,0-0.1c0,0,0,0,0-0.1c0,0,0,0,0-0.1c0,0,0,0,0-0.1c0,0,0,0-0.1-0.1c0,0,0,0-0.1-0.1
			c0,0,0,0-0.1,0c0,0,0,0-0.1,0c0,0-0.1,0-0.1,0c0,0-0.1,0-0.1,0c0,0-0.1,0-0.1,0c0,0-0.1,0-0.1,0c0,0-0.1,0-0.1,0h-23.8
			c-0.6,0-1.1-0.1-1.4-0.4c-0.3-0.3-0.4-0.7-0.4-1.4V11H232c0,0,0.1,0,0.1,0c0,0,0.1,0,0.1,0c0,0,0.1,0,0.1,0c0,0,0.1,0,0.1,0
			c0,0,0,0,0.1,0c0,0,0,0,0.1,0c0,0,0,0,0.1,0c0,0,0,0,0.1-0.1c0,0,0,0,0.1-0.1c0,0,0,0,0-0.1c0,0,0,0,0-0.1c0,0,0,0,0-0.1
			c0,0,0-0.1,0-0.1c0,0,0-0.1,0-0.1c0,0,0-0.1,0-0.1c0,0,0-0.1,0-0.1V3.5c0,0,0-0.1,0-0.1c0,0,0-0.1,0-0.1c0,0,0-0.1,0-0.1
			c0,0,0-0.1,0-0.1c0,0,0-0.1,0-0.1c0,0,0,0,0-0.1c0,0,0,0,0-0.1c0,0,0,0-0.1-0.1c0,0,0,0-0.1-0.1c0,0,0,0-0.1-0.1c0,0,0,0-0.1,0
			c0,0-0.1,0-0.1,0c0,0-0.1,0-0.1,0c0,0-0.1,0-0.1,0c0,0-0.1,0-0.1,0c0,0-0.1,0-0.1,0h-29.7c-0.6,0-1.1,0.1-1.7,0.3
			c-0.5,0.2-1,0.5-1.3,0.9c-0.4,0.4-0.7,0.8-0.9,1.3c-0.2,0.5-0.3,1.1-0.3,1.6v23.8c0,1.9,0.3,3.4,1,4.7c0.7,1.3,1.5,2.3,2.5,3.1
			c1,0.8,2.1,1.4,3.3,1.7C206.1,40.6,207.2,40.8,208.2,40.8z"/>
		<path class="st1" d="M272,26c0.3,0.9,0.4,2,0.4,3.3c0,1.2-0.2,2.3-0.5,3.3c-0.3,1-0.7,1.8-1.2,2.5c-0.5,0.7-1.1,1.3-1.7,1.8
			c-0.7,0.5-1.4,0.9-2.1,1.3c-0.7,0.3-1.5,0.6-2.2,0.7c-0.7,0.2-1.4,0.2-2.1,0.2H238v-4.9h24.6c1.5,0,2.7-0.5,3.6-1.4
			c0.9-0.9,1.3-2.1,1.3-3.6c0-0.7-0.1-1.4-0.3-2c-0.2-0.6-0.6-1.2-1-1.6c-0.4-0.5-1-0.8-1.6-1.1c-0.6-0.2-1.3-0.4-2-0.4h-15.2
			c-1,0-2-0.2-3.2-0.5c-1.1-0.3-2.2-0.9-3.2-1.7c-1-0.8-1.8-1.8-2.4-3c-0.6-1.2-1-2.8-1-4.6c0-1.8,0.3-3.4,1-4.6
			c0.6-1.3,1.5-2.3,2.4-3.1c1-0.8,2-1.3,3.2-1.7c1.2-0.4,2.2-0.5,3.2-0.5h21.6v4.9h-21.6c-1.5,0-2.7,0.5-3.6,1.4
			c-0.9,0.9-1.3,2.1-1.3,3.6c0,1.5,0.4,2.7,1.3,3.6c0.9,0.9,2.1,1.4,3.6,1.4h15.2c0.7,0,1.3,0.1,2.1,0.3c0.7,0.2,1.5,0.4,2.2,0.8
			c0.7,0.3,1.4,0.8,2.1,1.3c0.6,0.5,1.2,1.1,1.7,1.9C271.3,24.2,271.7,25,272,26z M273.6,33c0.4-1.1,0.5-2.4,0.5-3.8
			c0-1.4-0.2-2.6-0.5-3.8c-0.3-1.1-0.8-2.1-1.4-3c-0.6-0.9-1.3-1.6-2.1-2.2c-0.8-0.6-1.6-1.1-2.4-1.5c-0.8-0.4-1.7-0.7-2.6-0.9
			c-0.9-0.2-1.7-0.3-2.4-0.3c0,0,0,0,0,0h-15.2c-1,0-1.8-0.3-2.3-0.8c-0.5-0.6-0.8-1.4-0.8-2.4c0-1,0.3-1.8,0.8-2.4
			c0.5-0.6,1.3-0.9,2.3-0.9h22.5c0,0,0.1,0,0.1,0c0,0,0.1,0,0.1,0c0,0,0.1,0,0.1,0c0,0,0.1,0,0.1,0c0,0,0.1,0,0.1,0c0,0,0,0,0.1,0
			c0,0,0,0,0.1,0c0,0,0,0,0.1-0.1c0,0,0,0,0.1-0.1c0,0,0,0,0-0.1c0,0,0,0,0-0.1c0,0,0,0,0-0.1c0,0,0-0.1,0-0.1c0,0,0-0.1,0-0.1
			c0,0,0-0.1,0-0.1c0,0,0-0.1,0-0.1V3.5c0,0,0-0.1,0-0.1c0,0,0-0.1,0-0.1c0,0,0-0.1,0-0.1c0,0,0-0.1,0-0.1c0,0,0-0.1,0-0.1
			c0,0,0,0,0-0.1c0,0,0,0,0-0.1c0,0,0,0-0.1-0.1c0,0,0,0-0.1-0.1c0,0,0,0-0.1,0c0,0,0,0-0.1,0c0,0-0.1,0-0.1,0c0,0,0,0-0.1,0
			c0,0-0.1,0-0.1,0c0,0-0.1,0-0.1,0c0,0-0.1,0-0.1,0h-22.5c-1.2,0-2.4,0.2-3.7,0.6c-1.3,0.4-2.6,1.1-3.7,2c-1.2,0.9-2.1,2.1-2.9,3.6
			c-0.8,1.5-1.2,3.3-1.2,5.4c0,2.1,0.4,3.9,1.2,5.4c0.8,1.5,1.7,2.7,2.9,3.6c1.1,0.9,2.4,1.6,3.7,2c1.3,0.4,2.6,0.6,3.7,0.6h15.2
			c0.5,0,0.9,0.1,1.3,0.2c0.4,0.2,0.7,0.4,1,0.6c0.3,0.3,0.5,0.6,0.6,1c0.2,0.4,0.2,0.9,0.2,1.4c0,1-0.3,1.8-0.8,2.4
			c-0.5,0.6-1.3,0.8-2.3,0.8h-25.5c0,0-0.1,0-0.1,0c0,0-0.1,0-0.1,0c0,0-0.1,0-0.1,0c0,0-0.1,0-0.1,0c0,0-0.1,0-0.1,0c0,0,0,0-0.1,0
			c0,0,0,0-0.1,0c0,0,0,0-0.1,0.1c0,0,0,0-0.1,0.1c0,0,0,0,0,0.1c0,0,0,0,0,0.1c0,0,0,0.1,0,0.1c0,0,0,0.1,0,0.1c0,0,0,0.1,0,0.1
			c0,0,0,0.1,0,0.1c0,0,0,0.1,0,0.1v6.6c0,0,0,0.1,0,0.1c0,0,0,0.1,0,0.1c0,0,0,0.1,0,0.1c0,0,0,0.1,0,0.1c0,0,0,0.1,0,0.1
			c0,0,0,0,0,0.1c0,0,0,0,0,0.1c0,0,0,0,0.1,0.1c0,0,0,0,0.1,0.1c0,0,0,0,0.1,0c0,0,0,0,0.1,0c0,0,0,0,0.1,0c0,0,0.1,0,0.1,0
			c0,0,0.1,0,0.1,0c0,0,0.1,0,0.1,0c0,0,0.1,0,0.1,0h25.5c0.8,0,1.6-0.1,2.5-0.3c0.9-0.2,1.7-0.5,2.6-0.8c0.8-0.4,1.6-0.9,2.4-1.5
			c0.8-0.6,1.5-1.4,2.1-2.2C272.8,35.1,273.2,34.1,273.6,33z"/>
	</g>
	<path class="st0" d="M55.5,7.4l0-0.2l0-0.2l0-0.2l0-0.2l-0.1-0.2l-0.1-0.2l-0.1-0.2l-0.1-0.2l-0.2-0.3l-0.1-0.2l-0.2-0.2l-0.2-0.2
		l-0.2-0.2L54,4.7l-0.2-0.2l-0.2-0.2l-0.2-0.2L53,4l-0.3-0.1l-0.3-0.1l-0.3-0.1l-0.3-0.1l-0.1,0l-0.3-0.1l-0.3-0.1l-0.3-0.1
		l-0.3-0.1l-0.3-0.1l-0.3-0.1l-0.3-0.1l-0.3,0l-0.3,0l-0.3,0l-1.4-0.2l-0.3,0l-0.3,0l-0.3,0l-0.3,0l-0.3,0l-0.3,0l-0.3,0l-0.7-0.1
		l-0.3,0l-0.3,0l-0.3,0l-0.3,0l-0.3,0l-0.3,0l-0.3,0l-0.3,0l-0.7-0.1L40,2l-0.3,0l-0.3,0l-0.7-0.1l-0.3,0l-0.3,0l-0.3,0l-0.2,0
		l-0.3,0l-0.3,0l-0.3,0l-0.3,0l-0.3,0l-0.3,0l-0.3,0l-1.4,0l-1.4,0l-0.3,0l-0.3,0l-0.7,0l-0.3,0h-0.3l-0.3,0h-2.4l-0.3,0h-0.3
		l-0.3,0l-1,0l-0.3,0l-0.3,0l-0.3,0l-0.3,0l-0.3,0l-0.3,0l-0.3,0l-0.3,0l-0.3,0l-0.3,0l-0.3,0l-0.7,0l-0.2,0l-0.3,0l-0.3,0l-0.3,0
		l-0.7,0l-0.3,0l-0.3,0L17.7,2l-0.3,0l-0.3,0l-0.3,0l-0.3,0l-0.7,0.1l-0.3,0l-0.7,0.1l-0.3,0l-0.3,0l-0.2,0l-0.3,0l-0.3,0l-0.3,0
		l-0.3,0l-0.3,0l-0.3,0l-0.3,0l-0.3,0l-0.3,0l-0.3,0l-0.3,0L9.6,3L9.2,3L8.9,3l-0.3,0L7.9,3.2L7.6,3.3L7.2,3.3L6.9,3.4L6.5,3.4
		L6.2,3.5L5.9,3.6L5.6,3.6L5.2,3.7L4.9,3.8L4.6,3.9L4.4,4L4.3,4L4,4.1L3.8,4.3L3.5,4.5L3.3,4.7L3.1,4.8L2.9,5.1L2.7,5.3L2.5,5.5
		L2.4,5.8L2.2,6L2.1,6.3L2,6.6L1.9,6.8l0,0.3l0,0.3l0,0.3l0,0.3l0,0.3l0,0.7l0,0.3l0,1l0,0.3l0,0.3l0,1l0,0.3l0,0.3l0,0.3l0,0.3
		l0,0.3l0,0.7l0,0.3l0,0.3l0,0.3V16l0,0.3l0,0.3V17l0,0.3V18l0,0.3v0.7l0,0.3v4.7l0,0.3v1l0,0.3v0.7l0,0.3v0.7l0,0.3v0.3l0,0.3V29
		l0,0.3l0,0.3V30l0,0.3l0,0.3l0,0.3l0,0.3l0,0.3l0,0.3l0,0.3l0,0.3l0,0.3l0,0.3l0,0.3l0,0.3l0,0.3l0,1l0,0.3l0,0.3l0,0.3l0,0.3
		l0,0.3l0,0.3l0,0.3l0,0.3l0,0.1l0,0.3l0,0.3l0,0.3L2,39.7l0.1,0.3l0.1,0.3l0.1,0.3l0.1,0.3l0.1,0.3l0.1,0.3L2.5,42l0.1,0.3l0.1,0.3
		L2.8,43l0.1,0.3L3,43.7L3.1,44l0.1,0.3l0.1,0.3L3.4,45l0.1,0.3l0.1,0.3l0.2,0.6l0.2,0.6l0.3,0.6l0.1,0.3l0.1,0.3l0.1,0.3v0l0.1,0.3
		l0.3,0.6L5.5,50l0.2,0.3l0.2,0.3l0.2,0.3l0.2,0.3l0.2,0.3l0.3,0.6l0.2,0.3l0.2,0.3L7.1,53l0.2,0.3l0.2,0.3l0.2,0.3l0.2,0.3L8,54.4
		l0.2,0.3L8.4,55l0.2,0.3l0.2,0.3l0.2,0.3l0.2,0.3l0.2,0.3l0.2,0.3l0.4,0.5l0.2,0.3l0.1,0.2l0.2,0.3l0.2,0.3l0.2,0.3l0.2,0.2
		l0.2,0.2l0.2,0.2l0.2,0.2l0.5,0.5l0.2,0.2l0.2,0.2l0.5,0.5l0.2,0.2l0.3,0.2l0.3,0.2l0.3,0.2l0.3,0.2l0.1,0l0.3,0.2l0.3,0.2l0.3,0.2
		l0.3,0.2L16,63l0.3,0.2l0.3,0.2l0.3,0.2l0.3,0.2l0.3,0.2l0.3,0.2l0.3,0.2l0.3,0.2l0.3,0.2l0.3,0.2l0.3,0.2l0.3,0.2l0.3,0.2l0,0
		l0.6,0.3l0.6,0.3l0.6,0.3l0.6,0.3l0.3,0.2l0.3,0.2l0.3,0.1l0.3,0.2l0.3,0.1l0.3,0.1l0.6,0.3l0.6,0.3l0.3,0.1l0.3,0.1l0.2,0.1
		l0.3,0.1l0.3,0.1l0.3,0.1l0.3,0.1l0.3,0.1l0.3,0.1l0.3,0l0.3,0l0.3,0l0.1,0l0.3,0l0.3,0l0.3-0.1l0.3-0.1l0.3-0.1l0.3-0.1l0.3-0.1
		l0.3-0.1l0.3-0.1l0.2-0.1l0.3-0.1l0.3-0.1l0.3-0.1l0.3-0.1l0.3-0.1l0.6-0.3l0.3-0.1l0.6-0.3l0.3-0.2l0.3-0.2l0.3-0.2l0.3-0.2
		l0.3-0.2l0.3-0.2l0.3-0.2l0.3-0.2l0.6-0.3l0.3-0.2l0.3-0.2l0.6-0.4l0.3-0.2l0.3-0.2l0.3-0.2L40,64l0.3-0.2l0.3-0.2l0.3-0.2l0.5-0.4
		l0.3-0.2l0.3-0.2l0.3-0.2l0.3-0.2l0.3-0.2l0.3-0.2l0.3-0.2l0.5-0.5l0.5-0.5l0.2-0.2l0.2-0.2l0.1-0.1l0.5-0.5l0.5-0.5l0.2-0.2
		l0.2-0.3l0.4-0.5l0.2-0.3l0.2-0.3l0.2-0.3l0.2-0.3l0.2-0.3l0.2-0.3l0.2-0.3l0.2-0.3l0.2-0.3l0.4-0.6l0.4-0.6l0.2-0.3l0.2-0.3
		l0.2-0.3l0.2-0.3l0.2-0.3l0.2-0.3l0.2-0.3l0.2-0.3l0.2-0.3l0.3-0.6l0.2-0.3l0.2-0.3l0,0l0.2-0.3l0.2-0.3l0.3-0.6l0.1-0.3l0.1-0.3
		l0.1-0.3l0.1-0.3l0.1-0.3l0.1-0.3l0.1-0.3l0.1-0.3l0.1-0.3l0.2-0.6l0.2-0.6l0.1-0.3l0.2-0.6l0.2-0.7l0.2-0.7l0.2-0.7l0.1-0.3
		l0.1-0.3L55,41l0.1-0.3l0.1-0.3l0.1-0.7l0-0.2l0-0.3l0-0.3l0-0.3l0-0.3l0-0.3l0-0.3l0-1l0-0.3l0-1l0-0.3l0-0.3l0-0.3l0-0.3l0-0.3
		l0-0.3l0-0.3l0-0.3l0-0.3v-0.3l0-0.3l0-0.3l0-0.7l0-0.7v-0.3l0-0.3v-0.7l0-0.3v-0.7l0-0.3v-1l0-0.7V7.4z M57.2,22.7v1.6l0,0.7v1.4
		l0,0.3v0.7l0,0.3v0.7l0,0.3v0.3l0,0.3v0.3l0,0.3l0,0.3v0.3l0,1l0,0.3l0,1.7l0,0.3l0,0.3l0,1.4l0,0.3l0,0.3l0,0.3l0,0.3l0,0.7l0,0.3
		l0,0.4l0,0.4c0,0,0,0,0,0l0,0.3c0,0,0,0,0,0.1L56.9,40l-0.1,0.3l-0.1,0.7l-0.2,0.7l-0.1,0.3l-0.1,0.3l-0.1,0.3l-0.1,0.3l-0.1,0.3
		L56,43.8l-0.1,0.3l-0.1,0.3l-0.1,0.3l-0.1,0.3l-0.1,0.3l-0.1,0.3l-0.1,0.3l-0.1,0.3L55,46.8l-0.1,0.3l-0.1,0.3l-0.1,0.3l-0.1,0.3
		l-0.3,0.7l-0.1,0.3l-0.1,0.3l-0.1,0.3l-0.1,0.3l-0.2,0.3l-0.2,0.3L53.2,51L53,51.3l0,0l-0.2,0.3L52.7,52l-0.2,0.3l-0.2,0.3
		l-0.2,0.3L52,53.2l-0.2,0.3l-0.2,0.3l-0.4,0.6L51,54.7l-0.4,0.6l-0.2,0.3L50,56.2l-0.2,0.3l-0.2,0.3l-0.2,0.3L49,57.6l-0.4,0.6
		l-0.2,0.3l-0.2,0.3L47.9,59l-0.2,0.3l-0.2,0.3l-0.2,0.3l-0.2,0.3l-0.2,0.3l-0.2,0.3l-0.2,0.3l-0.2,0.3l-0.1,0.1l-0.3,0.2l-0.3,0.2
		L45,61.9l-0.3,0.2l-0.5,0.5l-0.5,0.5l-0.3,0.2l-0.3,0.2l-0.3,0.2L42.6,64l-0.3,0.2l-0.3,0.2l-0.3,0.2l-0.3,0.2l-0.3,0.2l-0.6,0.4
		l-0.3,0.2l-0.3,0.2l-0.3,0.2l-0.3,0.2l-0.3,0.2l-0.3,0.2l-0.6,0.4L38,67.2l-0.6,0.4l-0.6,0.3l-0.6,0.3l-0.6,0.3l-0.3,0.2l-0.3,0.2
		l-0.3,0.2l-0.3,0.1l-0.3,0.1l-0.6,0.3l-0.7,0.3L32.3,70l-0.2,0.1l-0.3,0.1l-0.3,0.1c0,0,0,0,0,0l-0.3,0.1c0,0,0,0,0,0l-0.3,0.1
		c0,0,0,0,0,0l-0.3,0.1c0,0,0,0,0,0L30,70.8c0,0,0,0,0,0l-0.3,0.1c0,0,0,0,0,0l-0.3,0c0,0,0,0-0.1,0l-0.3,0c0,0,0,0,0,0l-0.1,0
		c0,0,0,0,0,0l-0.3,0c0,0,0,0-0.1,0l-0.3,0c0,0,0,0,0,0l-0.3,0c0,0,0,0,0,0l-0.3-0.1c0,0,0,0,0,0l-0.3-0.1c0,0,0,0,0,0l-0.3-0.1
		c0,0,0,0,0,0L26,70.5c0,0,0,0,0,0l-0.3-0.1c0,0,0,0,0,0l-0.3-0.1l-0.3-0.1L24.8,70l-0.3-0.1l-0.3-0.1l-0.6-0.3l-0.3-0.1l-0.3-0.1
		L22.5,69l-0.3-0.2l-0.3-0.2l-0.3-0.2l-0.3-0.2l-0.3-0.2L20.6,68l-0.3-0.2L20,67.7l-0.3-0.2l-0.3-0.2l-0.3-0.2L18.8,67l0,0l-0.3-0.2
		l-0.3-0.2l-0.6-0.4L17.3,66L17,65.8l-0.3-0.2l-0.6-0.4l-0.6-0.4l-0.3-0.2l-0.6-0.4l-0.3-0.2l-0.3-0.2l-0.3-0.2l-0.3-0.2l-0.1-0.1
		l-0.3-0.2L13,62.7l-0.3-0.2l-0.3-0.2l-0.3-0.2L12,61.7l-0.3-0.2l-0.3-0.2L11.2,61L11,60.7l-0.2-0.3l-0.2-0.3L10.2,60L10,59.7
		l-0.2-0.3l-0.2-0.3l-0.2-0.3l-0.2-0.3l-0.1-0.2l-0.2-0.3l-0.2-0.3l-0.2-0.3l-0.4-0.6l-0.2-0.3l-0.2-0.3l-0.2-0.3L7,55.9l-0.2-0.3
		l-0.2-0.3l-0.4-0.6L6,54.4l-0.2-0.3l-0.2-0.3l-0.2-0.3l-0.2-0.3l-0.2-0.3L5,52.6l-0.2-0.3L4.6,52l-0.2-0.3l-0.2-0.3L4.1,51
		l-0.3-0.6l-0.2-0.3l-0.2-0.3l-0.1-0.3l-0.1-0.3l0,0l-0.1-0.3l-0.1-0.3l-0.1-0.3l-0.1-0.3l-0.1-0.3l-0.3-0.7l-0.1-0.3l-0.2-0.7
		l-0.1-0.3l-0.1-0.3l-0.1-0.3l-0.1-0.3l-0.1-0.3l-0.1-0.3l-0.1-0.3L1,42.8l-0.2-0.7l-0.1-0.3l-0.1-0.3l-0.1-0.3l-0.1-0.3L0.4,40
		l-0.1-0.4l-0.1-0.3l0-0.4l0-0.4c0,0,0,0,0,0l0-0.2c0,0,0,0,0,0l0-0.3l0-0.4l0-0.4l0-0.4l0-0.3l0-0.3l0-0.3l0-1.7l0-0.3l0-0.3l0-0.3
		l0-0.3l0-1.4l0-0.3l0-0.3v-0.3l0-0.7l0-0.3V29l0-0.3v-0.3L0,28v-0.3l0-0.3v-0.7l0-0.3v-0.7l0-0.3v-1.7l0-0.3v-3l0-0.3v-1l0-0.3
		v-0.7l0-0.3V17l0-0.3v-0.3l0-0.3l0-0.3l0-0.3v-0.3l0-0.7l0-0.3l0-0.3l0-0.3l0-0.3l0-0.3l0-0.3l0-1.4l0-0.3l0-0.3l0-0.3l0-0.3l0-0.3
		l0-0.3l0-0.3l0-0.4l0-0.4l0-0.4c0,0,0,0,0,0l0-0.3c0,0,0,0,0-0.1l0.1-0.3c0,0,0-0.1,0-0.1L0.4,6c0,0,0,0,0,0l0.1-0.3c0,0,0,0,0,0
		l0.1-0.3c0,0,0,0,0,0l0.2-0.3c0,0,0,0,0,0l0.2-0.3c0,0,0,0,0,0l0.2-0.3c0,0,0,0,0,0L1.6,4c0,0,0,0,0,0l0.2-0.2c0,0,0,0,0,0l0.3-0.2
		c0,0,0,0,0,0l0.3-0.2c0,0,0,0,0,0l0.3-0.2c0,0,0,0,0,0l0.3-0.2c0,0,0,0,0,0l0.3-0.2c0,0,0,0,0.1,0l0.1-0.1c0,0,0,0,0.1,0l0.3-0.1
		c0,0,0,0,0,0l0.3-0.1c0,0,0,0,0,0l0.3-0.1c0,0,0,0,0,0L5.2,2l0.4-0.1l0.3-0.1l0.3-0.1l0.3-0.1l0.7-0.1l0.3-0.1L8,1.5l0.3-0.1
		l0.3-0.1l0.3,0l0.3,0l0.3,0l0.3,0l0.3,0l0.3,0l0.3,0l0.3,0l0.3,0l0.3,0l0.3,0l0.7-0.1l0.3,0l0.2,0l0.3,0l0.3,0l0.3,0l0.3,0l0.3,0
		l0.3,0l0.7-0.1l0.3,0l0.3,0l0.3,0l0.3,0l0.3,0l0.7-0.1l0.3,0l0.3,0l0.3,0l0.3,0l0.4,0l0.2,0l0.3,0l0.7,0l0.3,0l0.3,0l0.3,0l0.3,0
		l0.3,0l0.3,0l0.3,0l0.3,0L25,0l0.3,0l1,0h0.3l0.3,0h0.3l0.3,0h1.7l0.3,0h0.3l1.7,0l0.3,0l0.3,0l0.7,0l0.3,0L34,0l0.3,0l0.3,0l0.3,0
		l0.3,0l0.3,0l0.7,0l0.3,0l0.3,0l0.4,0l0.2,0l0.3,0l0.3,0l0.3,0l0.3,0l0.3,0l0.3,0l0.7,0.1l0.3,0l0.3,0l0.3,0l0.3,0l0.3,0l0.3,0
		l0.3,0l0.3,0l0.7,0.1l0.3,0l0.7,0.1L45.6,1L46,1l1,0.1l0.3,0l0.3,0l0.3,0l0.3,0l0.3,0l0.7,0.1l0.3,0l0.3,0.1l0.3,0.1l0.3,0.1
		l0.3,0.1l0.3,0.1l0.4,0.1c0,0,0,0,0,0L52.2,2c0,0,0,0,0,0l0.1,0c0,0,0,0,0,0l0.3,0.1c0,0,0,0,0,0L53,2.2c0,0,0,0,0,0l0.3,0.1
		c0,0,0,0,0,0l0.3,0.1c0,0,0,0,0,0l0.3,0.2c0,0,0,0,0,0l0.3,0.2c0,0,0,0,0,0l0.3,0.2c0,0,0,0,0,0l0.3,0.2c0,0,0,0,0,0l0.3,0.2
		c0,0,0,0,0,0L55.6,4c0,0,0,0,0,0l0.2,0.3c0,0,0,0,0,0l0.2,0.3c0,0,0,0,0,0l0.1,0.2l0.2,0.3c0,0,0,0,0,0l0.1,0.2c0,0,0,0,0,0.1
		l0.1,0.2c0,0,0,0,0,0.1l0.1,0.2c0,0,0,0,0,0.1L57,6.2c0,0,0,0,0,0.1l0.1,0.2c0,0,0,0,0,0.1l0,0.2c0,0,0,0,0,0.1l0,0.2
		c0,0,0,0,0,0.1l0,0.2c0,0,0,0,0,0V22.7z M34.3,49.6c0,1.1-5.8,2.2-9.7,4c-3.9,1.9-5.2,4.7-5.2,4.7s1.4-1.2,4.6-2
		c3.1-0.8,14.5-1.8,14.5-7c0-3.7-4.9-4.8-6.6-5v4.1C32.8,48.4,34.3,48.8,34.3,49.6z M29.7,50.5c0.3-0.1,0.7-0.2,1.1-0.4
		c0-3.4,0-7.4,0-10.8v-0.6c-1.4,0.3-2.9,0.5-4.5,0.7c0,3.9,0,8.8,0,12.3C27.5,51.3,28.6,50.9,29.7,50.5z M36.9,31.4
		c-3.5,1.7-6.7,2.2-11.1,2.7c-0.7,0.1-11.3,1.4-11.3,6.9c0,4.8,8.5,6.2,10.8,6.4v-4.1c-1.6-0.2-5.8-0.9-5.8-2.4
		c0-1.8,5.5-2.6,6.4-2.7c6.1-0.7,10.2-1.9,13.5-3.7c3-1.6,4.9-4.1,5.9-7c-1.6,0.5-3.4,1-5.2,1.5C39.2,30,38.2,30.8,36.9,31.4z
		 M21.2,13.5L22,13c0,0-0.4-0.1-1.2,0.2c-0.8,0.3-1.5,0.9-1.8,1.1c-0.3,0.2-0.8,0.3-1.3,0.4c-0.6,0.1-0.9,0.1-0.9,0.1s0.3,0.1,1,0.1
		c0.3,0,0.5,0.1,0.6,0.2c0.1,0.2-0.9,0.4-0.9,0.4s0.8,0.1,1.2-0.2c0.3-0.3,0.3-0.5,1-1C20.7,13.5,21.2,13.5,21.2,13.5z M43.9,13.2
		c-1.7-2.8-4-5-7.2-6c-4.9-1.6-8.4,0.1-10.1,0.9c-0.3,0.2-0.6,0.3-0.8,0.3c-0.3,0.1-0.7,0.1-1,0.1c-0.6,0-1.3,0-2.2,0.6
		c-0.6,0.4-3,0.5-4.7,0.7c-1.4,0.2-1,1.9-0.8,2.3c0.1,0.4,0.4,0.7,0.4,0.7s0-0.5,0.2-0.5c0.3,0,1.3,0.8,1.3,0.8s0.3-0.8,1-0.8
		c0.5,0,1,0,1.5,0.1c0.5,0,1,0.1,1.3,0c1.1-0.1-0.7,1.3-0.7,1.3s-2.3,1.2-2.2,1.7c0.1,0.6,1.6,0.5,1.9,0.5c1.2-0.2,4.9-2.5,5.4-4.1
		c0.4-1.5,3-2.5,5.3-2.3c4.1,0.4,6.4,2.1,8.6,6.3c0.3,0.6,0.6,1.3,0.8,2h3.9C45.3,16.1,44.7,14.5,43.9,13.2z M4.1,7.5
		C4.3,6.9,4.7,6.3,5.3,6C5.8,5.8,9.2,5.3,14,4.7C19.7,4,21.6,3.9,28.8,4c7.5,0,9.6,0.1,16.3,1c6.7,0.8,7.1,0.9,7.7,1.9l0.3,0.5v11.6
		H4C4,12.9,4,7.8,4.1,7.5z M12.1,56.1c-4.1-4.9-7.2-12-8-18C4,37.2,4,29.6,4,22.1c2.6,2.3,8,5.2,18.8,6.9c3.5,0.6,3.6,2.9,3.6,3.4
		v0.4c1.7-0.2,3.1-0.4,4.5-0.7c0.1-0.8,0.5-2.7,3.6-3.2c10.8-1.7,16.2-4.6,18.8-6.9v0.6c0,10.3-0.1,15.7-0.2,16.3
		c-1.4,7.4-4.8,14.2-9.9,19.2c-1,1-2.2,2-3.3,2.9c-2.5-0.6-5.4-1-7.2-1.9c-1.2-0.6-1.8-1.6-1.8-2.8c0-0.1,0-0.3,0-0.5
		c-1.5,0.4-3,0.6-4.2,0.9c-0.1,0-0.2,0-0.3,0c-0.1,1-0.7,1.8-1.8,2.4c-1.8,0.9-4.6,1.3-7.1,1.9C15.4,59.6,13.5,57.8,12.1,56.1z
		 M26.8,66.5c-1.2-0.5-3.2-1.4-4.7-2.2h13.1c-1.4,0.8-2.9,1.5-4.3,2.1C28.9,67.1,28.4,67.2,26.8,66.5z"/>
</g>
<g>
</g>
<g>
</g>
<g>
</g>
<g>
</g>
<g>
</g>
<g>
</g>
</svg>
