<?xml version="1.0" encoding="utf-8"?>
<!-- Generator: Adobe Illustrator 25.2.1, SVG Export Plug-In . SVG Version: 6.00 Build 0)  -->
<svg version="1.1" id="Camada_1" xmlns="http://www.w3.org/2000/svg" xmlns:xlink="http://www.w3.org/1999/xlink" x="0px" y="0px"
	 viewBox="0 0 63.8 81.7" style="enable-background:new 0 0 63.8 81.7;" xml:space="preserve">
<style type="text/css">
	.st0{fill:#56BCB7;}
</style>
<path class="st0" d="M61.9,10.8l0-0.2l0-0.2l0-0.2l0-0.2l-0.1-0.2l-0.1-0.2l-0.1-0.2l-0.1-0.2L61.3,9l-0.1-0.2l-0.2-0.3l-0.2-0.3
	L60.5,8l-0.2-0.2L60,7.6l-0.3-0.2l-0.3-0.2l-0.3-0.2L58.9,7l-0.3-0.1l-0.3-0.1l-0.3-0.1l-0.1,0l-0.4-0.1l-0.4-0.1l-0.4-0.1l-0.4-0.1
	L56,6.3l-0.4-0.1l-0.4-0.1l-0.4-0.1L54.5,6L54.1,6l-1.5-0.2l-0.4,0l-0.4,0l-0.4-0.1l-0.4,0l-0.4,0l-0.4,0l-0.4,0l-0.8-0.1l-0.4,0
	l-0.4,0l-0.4,0l-0.4,0l-0.4,0l-0.4,0l-0.4,0l-0.4,0l-0.8-0.1l-0.8-0.1l-0.4,0l-0.4,0l-0.8-0.1l-0.4,0l-0.4,0l-0.4,0l-0.2,0l-0.4,0
	l-0.4,0l-0.4,0l-0.4,0l-0.4,0l-0.4,0l-0.4,0l-1.5,0l-1.5,0l-0.4,0l-0.4,0l-0.8,0l-0.4,0h-0.4l-0.4,0h-2.7l-0.4,0h-0.4l-0.4,0l-1.2,0
	l-0.4,0l-0.4,0l-0.4,0l-0.4,0l-0.4,0l-0.4,0l-0.4,0l-0.4,0l-0.4,0l-0.4,0l-0.4,0l-0.8,0l-0.2,0l-0.4,0l-0.4,0l-0.4,0l-0.8,0.1
	l-0.4,0l-0.4,0l-0.8,0.1l-0.4,0l-0.4,0l-0.4,0l-0.4,0l-0.8,0.1l-0.4,0l-0.8,0.1l-0.4,0l-0.4,0l-0.2,0l-0.4,0l-0.4,0l-0.4,0l-0.4,0
	l-0.4,0l-0.4,0l-0.4,0l-0.4,0l-0.4,0l-0.4,0.1l-0.4,0l-0.4,0.1l-0.4,0.1L9.9,6L9.6,6L8.8,6.2L8.4,6.2L8.1,6.3L7.7,6.3L7.3,6.4
	L6.9,6.5L6.6,6.5L6.2,6.6L5.8,6.7L5.5,6.8L5.2,6.9L4.9,7L4.8,7L4.5,7.2L4.2,7.4L3.9,7.6L3.7,7.8L3.4,8L3.2,8.2L3,8.5L2.8,8.7L2.6,9
	L2.5,9.3L2.3,9.6L2.2,9.9l-0.1,0.3l0,0.3l0,0.3l0,0.4l0,0.4l0,0.4l0,0.8l0,0.4l0,1.2l0,0.4l0,0.4l0,1.2l0,0.4l0,0.4l0,0.4l0,0.4
	l0,0.4l0,0.8l0,0.4l0,0.4l0,0.4v0.4l0,0.4l0,0.4v0.4l0,0.4v0.8l0,0.4v0.8l0,0.4v5.3l0,0.4v1.2l0,0.4v0.8l0,0.4v0.8l0,0.4v0.4l0,0.4
	v0.4l0,0.4l0,0.4v0.4l0,0.4l0,0.4l0,0.4l0,0.4l0,0.4l0,0.4l0,0.4l0,0.4l0,0.4l0,0.4l0,0.4l0,0.4l0,0.4l0,1.2l0,0.4L2,43l0,0.4l0,0.4
	l0,0.4l0,0.4l0,0.4l0,0.4l0,0.1l0,0.4l0.1,0.4l0.1,0.4l0.1,0.4l0.1,0.4l0.1,0.4L2.5,48l0.1,0.4l0.1,0.4l0.1,0.4l0.1,0.4l0.1,0.4
	L3,50.2l0.1,0.4L3.2,51l0.1,0.4l0.1,0.4L3.5,52l0.1,0.4l0.1,0.4l0.1,0.4L4,53.5l0.3,0.7l0.3,0.7l0.3,0.7L5,55.9l0.2,0.3l0.2,0.4v0
	L5.5,57l0.3,0.7l0.3,0.7l0.2,0.3L6.4,59l0.2,0.3l0.2,0.3L7,60.1l0.4,0.7L7.5,61l0.2,0.3l0.2,0.3L8.1,62l0.2,0.3l0.2,0.3L8.7,63
	l0.2,0.3l0.2,0.3l0.2,0.3l0.2,0.3l0.2,0.3l0.2,0.3l0.2,0.3l0.2,0.3l0.2,0.3l0.5,0.6l0.2,0.3l0.2,0.2l0.2,0.3l0.2,0.3l0.3,0.3
	l0.3,0.3l0.3,0.3l0.3,0.3l0.3,0.3l0.5,0.5l0.3,0.3l0.3,0.3l0.6,0.5l0.3,0.3l0.3,0.3l0.3,0.3l0.3,0.2l0.3,0.3l0.1,0.1l0.3,0.2
	l0.3,0.2l0.3,0.2l0.3,0.2l0.3,0.2l0.3,0.2l0.3,0.2l0.3,0.2l0.3,0.2l0.3,0.2l0.3,0.2l0.3,0.2l0.3,0.2l0.3,0.2l0.3,0.2l0.3,0.2
	l0.3,0.2l0.3,0.2l0,0l0.7,0.4l0.7,0.4l0.7,0.4l0.7,0.4l0.3,0.2l0.3,0.2l0.3,0.2l0.3,0.2l0.3,0.2l0.3,0.2l0.7,0.3l0.7,0.3l0.4,0.1
	l0.4,0.1l0.3,0.1l0.4,0.1l0.3,0.1l0.3,0.1l0.3,0.1l0.3,0.1l0.3,0.1l0.3,0l0.3,0l0.3,0l0.1,0l0.3,0l0.3,0l0.3-0.1l0.3-0.1l0.3-0.1
	l0.3-0.1l0.3-0.1l0.3-0.1l0.4-0.1l0.2-0.1l0.4-0.1l0.4-0.1l0.3-0.1l0.3-0.2l0.3-0.2l0.7-0.3l0.3-0.2l0.7-0.3l0.3-0.2l0.3-0.2
	l0.3-0.2l0.3-0.2l0.3-0.2l0.3-0.2l0.3-0.2l0.3-0.2l0.6-0.4l0.3-0.2l0.3-0.2l0.6-0.4l0.3-0.2l0.3-0.2l0.3-0.2l0.3-0.2l0.3-0.2
	l0.3-0.2l0.3-0.2l0.6-0.5l0.3-0.2l0.3-0.2l0.3-0.2l0.3-0.2l0.3-0.2l0.3-0.3l0.3-0.2l0.6-0.5l0.5-0.5l0.3-0.3l0.3-0.3l0.1-0.1
	l0.5-0.5l0.5-0.5l0.3-0.3l0.3-0.3l0.5-0.6l0.2-0.3l0.2-0.3l0.2-0.3l0.2-0.3l0.2-0.3l0.2-0.3l0.2-0.3l0.2-0.3l0.2-0.3l0.4-0.6
	l0.4-0.6l0.2-0.3l0.2-0.3l0.2-0.3l0.2-0.3l0.2-0.3l0.2-0.3l0.2-0.3l0.2-0.3l0.2-0.3l0.4-0.7l0.2-0.3l0.2-0.3l0,0l0.2-0.3l0.2-0.3
	l0.3-0.7l0.2-0.3l0.2-0.3l0.2-0.3l0.2-0.3L59,56l0.1-0.4l0.1-0.4l0.1-0.4l0.1-0.4l0.3-0.7l0.2-0.7l0.1-0.4l0.2-0.7l0.2-0.7l0.2-0.7
	l0.2-0.7l0.1-0.4l0.1-0.4l0.2-0.7l0.1-0.4l0.1-0.4l0.1-0.7l0-0.3l0-0.3l0-0.4l0-0.4l0-0.4l0-0.4l0-0.4l0-1.2l0-0.4l0-1.2l0-0.4
	l0-0.4l0-0.4l0-0.4l0-0.4l0-0.4l0-0.4l0-0.4l0-0.4v-0.4l0-0.4l0-0.4l0-0.8l0-0.8v-0.4l0-0.4V34l0-0.4v-0.8l0-0.4v-1.2l0-0.8V10.8z
	 M63.8,28v1.8l0,0.8v1.5l0,0.4v0.8l0,0.4v0.8l0,0.4v0.4l0,0.4V36l0,0.4l0,0.4v0.4l0,1.2l0,0.4l0,1.9l0,0.4l0,0.4l0,1.6l0,0.4l0,0.4
	l0,0.4l0,0.4l0,0.8l0,0.4l0,0.4l0,0.4c0,0,0,0,0,0l0,0.4c0,0,0,0,0,0.1l-0.1,0.3l-0.1,0.4l-0.2,0.8l-0.2,0.8L63,49.6l-0.1,0.4
	l-0.1,0.4l-0.1,0.4l-0.1,0.4l-0.1,0.4l-0.1,0.4l-0.1,0.4l-0.1,0.4L62,53l-0.1,0.4l-0.1,0.4l-0.1,0.4l-0.1,0.4l-0.1,0.4l-0.1,0.4
	l-0.1,0.4L61,55.9l-0.2,0.4L60.5,57l-0.2,0.4l-0.2,0.4L60,58.1l-0.2,0.4l-0.2,0.4l-0.2,0.4l-0.2,0.4l-0.2,0.4l0,0.1L59,60.3
	l-0.2,0.3L58.6,61l-0.2,0.3l-0.2,0.3L58,62l-0.2,0.3l-0.2,0.3l-0.4,0.7L57,63.7l-0.4,0.7l-0.2,0.3l-0.5,0.6l-0.2,0.3L55.4,66
	l-0.2,0.3l-0.5,0.6l-0.5,0.6l-0.2,0.3l-0.3,0.3l-0.3,0.3l-0.3,0.3L52.9,69l-0.3,0.3l-0.3,0.3l-0.3,0.3l-0.3,0.3l-0.3,0.3l-0.3,0.3
	l-0.1,0.1l-0.3,0.3l-0.3,0.3l-0.3,0.3L50,72l-0.6,0.5L48.8,73l-0.3,0.3l-0.3,0.3l-0.3,0.3L47.6,74l-0.3,0.2L47,74.5l-0.3,0.2
	L46.4,75L46,75.2l-0.6,0.5l-0.3,0.2l-0.3,0.2l-0.3,0.2l-0.3,0.2l-0.3,0.2L43.4,77l-0.7,0.4l-0.3,0.2L41.7,78L41,78.4l-0.7,0.4
	l-0.7,0.4l-0.4,0.2l-0.4,0.2l-0.4,0.2l-0.4,0.2L37.9,80l-0.7,0.3l-0.7,0.3L36,80.8l-0.2,0.1L35.5,81l-0.4,0.1c0,0,0,0,0,0l-0.4,0.1
	c0,0,0,0,0,0l-0.4,0.1c0,0,0,0,0,0l-0.4,0.1c0,0,0,0,0,0l-0.4,0.1c0,0,0,0,0,0l-0.4,0.1c0,0,0,0,0,0l-0.4,0.1c0,0,0,0-0.1,0l-0.4,0
	c0,0,0,0,0,0l-0.2,0c0,0,0,0,0,0l-0.4,0c0,0,0,0-0.1,0l-0.4,0c0,0,0,0,0,0l-0.4-0.1c0,0,0,0,0,0l-0.4-0.1c0,0,0,0,0,0l-0.4-0.1
	c0,0,0,0,0,0l-0.4-0.1c0,0,0,0,0,0l-0.4-0.1c0,0,0,0,0,0l-0.4-0.1c0,0,0,0,0,0L28.3,81L28,80.8l-0.4-0.1l-0.4-0.1l-0.4-0.2l-0.7-0.3
	l-0.4-0.2l-0.4-0.2l-0.4-0.2l-0.4-0.2l-0.4-0.2L24.1,79l-0.3-0.2l-0.4-0.2L23,78.5l-0.3-0.2l-0.3-0.2L22,77.9l-0.3-0.2l-0.3-0.2
	L21,77.3l0,0l-0.3-0.2l-0.3-0.2l-0.7-0.4l-0.3-0.2L18.9,76l-0.3-0.2L18,75.3l-0.6-0.5L17,74.6l-0.6-0.5l-0.3-0.3l-0.3-0.2l-0.3-0.3
	l-0.3-0.3L15.1,73l-0.3-0.3l-0.3-0.3l-0.3-0.3L14,72l-0.3-0.3l-0.3-0.3l-0.3-0.3l-0.3-0.3l-0.3-0.3l-0.3-0.3L12,70.1l-0.3-0.3
	l-0.3-0.3l-0.3-0.3l-0.3-0.3l-0.3-0.3l-0.3-0.3L10.1,68L10,67.8l-0.2-0.3l-0.2-0.3l-0.2-0.3l-0.5-0.6L8.5,66l-0.2-0.3L8,65.3L7.8,65
	l-0.2-0.3l-0.2-0.3l-0.4-0.7l-0.2-0.3L6.5,63l-0.2-0.3l-0.2-0.3L5.9,62l-0.2-0.3l-0.2-0.3l-0.2-0.3l-0.2-0.3L5,60.2l-0.2-0.4
	l-0.2-0.4l-0.3-0.7l-0.2-0.4l-0.2-0.4l-0.2-0.4l-0.2-0.4l0,0L3.4,57l-0.2-0.4l-0.2-0.4L3,56l-0.1-0.4l-0.3-0.7l-0.1-0.4l-0.3-0.7
	L2,53.4L1.9,53l-0.1-0.4l-0.1-0.4l-0.1-0.4l-0.1-0.4l-0.1-0.4l-0.2-0.8l-0.2-0.8l-0.1-0.4l-0.1-0.4l-0.1-0.4L0.6,48l-0.1-0.8
	l-0.1-0.4l-0.1-0.4l-0.1-0.4l0-0.4c0,0,0,0,0,0l0-0.2c0,0,0,0,0,0l0-0.4l0-0.4l0-0.4l0-0.4l0-0.4l0-0.4l0-0.4l0-1.9l0-0.4l0-0.4
	l0-0.4l0-0.4l0-1.6l0-0.4l0-0.4v-0.4l0-0.8l0-0.4V35l0-0.4v-0.4l0-0.4v-0.4L0,33v-0.8l0-0.4v-0.8l0-0.4v-1.9l0-0.4V25l0-0.4v-1.2
	l0-0.4v-0.8l0-0.4v-0.4l0-0.4v-0.4l0-0.4L0,20l0-0.4v-0.4l0-0.8l0-0.4l0-0.4l0-0.4l0-0.4l0-0.4l0-0.4l0-1.5l0-0.4l0-0.4l0-0.4l0-0.4
	l0-0.4l0-0.4l0-0.4l0-0.4l0-0.4l0-0.4c0,0,0,0,0,0l0-0.4c0,0,0,0,0-0.1l0.1-0.4c0,0,0-0.1,0-0.1l0.1-0.4c0,0,0,0,0-0.1l0.1-0.4
	c0,0,0,0,0-0.1l0.2-0.4c0,0,0,0,0-0.1L1,8.1c0,0,0,0,0-0.1l0.2-0.3c0,0,0,0,0-0.1l0.2-0.3c0,0,0,0,0-0.1L1.8,7c0,0,0,0,0,0l0.3-0.3
	c0,0,0,0,0,0l0.3-0.3c0,0,0,0,0,0l0.3-0.2c0,0,0,0,0,0l0.3-0.2c0,0,0,0,0,0l0.3-0.2c0,0,0,0,0,0l0.3-0.2c0,0,0,0,0.1,0l0.2-0.1
	c0,0,0.1,0,0.1,0l0.4-0.1c0,0,0,0,0.1,0L5,5c0,0,0,0,0,0l0.4-0.1c0,0,0,0,0,0l0.4-0.1l0.4-0.1l0.4-0.1L7,4.6l0.4-0.1l0.8-0.1
	l0.4-0.1l0.4-0.1l0.4-0.1l0.4-0.1l0.4-0.1L10.4,4L10.8,4l0.4-0.1l0.4,0L12,3.8l0.4,0l0.4,0l0.4,0l0.4,0l0.4,0l0.8-0.1l0.4,0l0.2,0
	l0.4,0l0.4,0l0.4,0l0.4,0l0.4,0l0.4,0l0.8-0.1l0.4,0l0.4,0l0.4,0l0.4,0l0.4,0l0.8-0.1l0.4,0l0.4,0l0.4,0l0.4,0l0.4,0l0.2,0l0.4,0
	l0.8,0l0.4,0l0.4,0l0.4,0l0.4,0l0.4,0l0.4,0l0.4,0l0.4,0l0.4,0l0.4,0l1.2,0h0.4l0.4,0h0.4l0.4,0h1.9l0.4,0h0.4l1.9,0l0.4,0l0.4,0
	l0.8,0l0.4,0l0.4,0l0.4,0l0.4,0l0.4,0l0.4,0l0.4,0l0.8,0l0.4,0l0.4,0l0.4,0l0.2,0l0.4,0l0.4,0l0.4,0l0.4,0l0.4,0l0.4,0L45.2,3l0.4,0
	l0.4,0l0.4,0l0.4,0l0.4,0l0.4,0l0.4,0l0.4,0L49,3.5l0.4,0l0.8,0.1l0.8,0.1l0.4,0l1.2,0.1l0.4,0.1l0.4,0L53.6,4L54,4.1l0.4,0.1
	l0.8,0.1l0.4,0.1l0.4,0.1l0.4,0.1l0.4,0.1l0.4,0.1l0.4,0.1l0.4,0.1c0,0,0,0,0,0l0.4,0.1c0,0,0,0,0,0l0.1,0c0,0,0,0,0,0l0.4,0.1
	c0,0,0,0,0,0l0.4,0.1c0,0,0,0,0,0l0.4,0.1c0,0,0,0,0,0L60,5.4c0,0,0,0,0,0l0.3,0.2c0,0,0,0,0,0l0.3,0.2c0,0,0,0,0.1,0l0.3,0.2
	c0,0,0,0,0,0l0.3,0.2c0,0,0,0,0,0l0.3,0.3c0,0,0,0,0,0L62.1,7c0,0,0,0,0,0l0.2,0.3c0,0,0,0,0,0l0.2,0.3c0,0,0,0,0,0L62.8,8l0.2,0.3
	c0,0,0,0,0,0l0.1,0.2c0,0,0,0,0,0.1l0.1,0.2c0,0,0,0,0,0.1l0.1,0.2c0,0,0,0,0,0.1l0.1,0.2c0,0,0,0,0,0.1l0.1,0.3c0,0,0,0,0,0.1
	l0,0.3c0,0,0,0,0,0.1l0,0.3c0,0,0,0,0,0.1l0,0.3c0,0,0,0,0,0V28z M38.3,57.9c0,1.2-6.5,2.4-10.9,4.5c-4.4,2.1-5.8,5.2-5.8,5.2
	s1.6-1.3,5.1-2.3c3.5-0.9,16.2-2,16.2-7.8c0-4.1-5.4-5.3-7.3-5.6v4.5C36.6,56.6,38.3,57.1,38.3,57.9z M33.2,59
	c0.4-0.1,0.8-0.3,1.3-0.4c0-3.7,0-8.3,0-12.1v-0.7c-1.5,0.3-3.2,0.6-5,0.8c0,4.4,0,9.8,0,13.7C30.7,59.8,32,59.4,33.2,59z
	 M41.2,37.6c-3.9,1.9-7.5,2.4-12.4,3c-0.8,0.1-12.7,1.6-12.7,7.8c0,5.4,9.5,6.9,12,7.2V51c-1.7-0.2-6.5-1-6.5-2.7c0-2,6.2-2.9,7.1-3
	c6.8-0.8,11.4-2.2,15.1-4.1c3.4-1.8,5.5-4.6,6.6-7.8c-1.8,0.6-3.7,1.2-5.8,1.7C43.7,36,42.6,36.9,41.2,37.6z M23.6,17.7l0.9-0.6
	c0,0-0.5-0.1-1.3,0.2c-0.9,0.3-1.6,1-2,1.3c-0.4,0.3-0.9,0.3-1.5,0.5c-0.7,0.1-1,0.1-1,0.1s0.4,0.1,1.1,0.1c0.4,0,0.6,0.1,0.6,0.2
	c0.1,0.3-1,0.5-1,0.5s0.9,0.1,1.3-0.2c0.4-0.3,0.4-0.6,1.2-1.2C23.1,17.7,23.6,17.7,23.6,17.7z M49,17.4c-1.9-3.2-4.5-5.5-8-6.6
	c-5.5-1.8-9.3,0.1-11.2,1c-0.4,0.2-0.6,0.3-0.9,0.4c-0.4,0.1-0.7,0.1-1.1,0.1c-0.7,0-1.5,0-2.5,0.6c-0.7,0.5-3.4,0.5-5.2,0.8
	c-1.6,0.2-1.1,2.1-0.9,2.5c0.2,0.4,0.4,0.7,0.4,0.7s0-0.6,0.2-0.6c0.3,0,1.5,0.9,1.5,0.9s0.3-0.9,1.1-0.9c0.5,0,1.1,0,1.7,0.1
	c0.6,0,1.1,0.1,1.5,0.1c1.2-0.1-0.8,1.4-0.8,1.4s-2.5,1.3-2.4,2c0.1,0.7,1.8,0.6,2.2,0.5c1.4-0.3,5.5-2.8,6-4.6
	c0.5-1.7,3.4-2.8,5.9-2.6c4.6,0.4,7.1,2.3,9.6,7c0.4,0.7,0.6,1.4,0.8,2.2H51C50.6,20.5,49.9,18.8,49,17.4z M4.6,10.9
	C4.8,10.3,5.3,9.6,6,9.3c0.5-0.3,4.3-0.8,9.6-1.5C22,7.1,24.1,7,32.2,7c8.3,0,10.8,0.1,18.2,1.1c7.5,0.9,7.9,1,8.6,2.1l0.4,0.6v12.9
	h-55C4.4,17,4.5,11.3,4.6,10.9z M13.5,65.2c-4.6-5.4-8.1-13.4-8.9-20c-0.1-1-0.2-9.5-0.2-17.8c2.9,2.5,8.9,5.8,21,7.7
	c3.9,0.6,4,3.3,4,3.8v0.5c1.9-0.2,3.5-0.5,5-0.8c0.1-0.9,0.6-3,4-3.5c12.1-1.9,18.1-5.2,21-7.7V28c0,11.6-0.1,17.5-0.2,18.2
	c-1.5,8.3-5.4,15.8-11.1,21.5c-1.2,1.2-2.4,2.3-3.7,3.3c-2.8-0.6-6-1.1-8-2.1c-1.4-0.7-2-1.8-2-3.1c0-0.1,0-0.3,0-0.6
	c-1.7,0.4-3.3,0.7-4.7,1c-0.1,0-0.2,0-0.3,0.1c-0.1,1.1-0.8,2-2,2.7c-2,1-5.2,1.5-7.9,2.1C17.2,69.1,15.1,67.1,13.5,65.2z
	 M29.9,76.8c-1.3-0.5-3.5-1.6-5.2-2.5h14.6c-1.6,0.9-3.2,1.7-4.9,2.3C32.3,77.5,31.7,77.5,29.9,76.8z"/>
<g>
</g>
<g>
</g>
<g>
</g>
<g>
</g>
<g>
</g>
<g>
</g>
</svg>
